ISO-10303-21;
HEADER;
/* Generated by software containing ST-Developer
 * from STEP Tools, Inc. (www.steptools.com) 
 */

FILE_DESCRIPTION(
/* description */ (''),
/* implementation_level */ '2;1');

FILE_NAME(
/* name */ 'case v2 bottom.stp',
/* time_stamp */ '2024-05-03T12:55:41-04:00',
/* author */ ('voids'),
/* organization */ (''),
/* preprocessor_version */ 'ST-DEVELOPER v20',
/* originating_system */ 'Autodesk Inventor 2024',
/* authorisation */ '');

FILE_SCHEMA (('AUTOMOTIVE_DESIGN { 1 0 10303 214 3 1 1 }'));
ENDSEC;

DATA;
#10=MECHANICAL_DESIGN_GEOMETRIC_PRESENTATION_REPRESENTATION('',(#13),#1787);
#11=SHAPE_REPRESENTATION_RELATIONSHIP('SRR','None',#1798,#12);
#12=ADVANCED_BREP_SHAPE_REPRESENTATION('',(#14),#1786);
#13=STYLED_ITEM('',(#1807),#14);
#14=MANIFOLD_SOLID_BREP('Solid2',#999);
#15=B_SPLINE_SURFACE_WITH_KNOTS('',3,3,((#1407,#1408,#1409,#1410,#1411),
(#1412,#1413,#1414,#1415,#1416),(#1417,#1418,#1419,#1420,#1421),(#1422,
#1423,#1424,#1425,#1426)),.UNSPECIFIED.,.F.,.F.,.F.,(4,4),(4,1,4),(-6.20017092439102E-16,
0.10000000000001),(0.,0.135422578788758,0.236989512880327),
 .UNSPECIFIED.);
#16=B_SPLINE_SURFACE_WITH_KNOTS('',3,3,((#1483,#1484,#1485,#1486,#1487),
(#1488,#1489,#1490,#1491,#1492),(#1493,#1494,#1495,#1496,#1497),(#1498,
#1499,#1500,#1501,#1502)),.UNSPECIFIED.,.F.,.F.,.F.,(4,4),(4,1,4),(-0.1,
0.),(-0.236989512880325,-0.135422578788757,0.),.UNSPECIFIED.);
#17=B_SPLINE_SURFACE_WITH_KNOTS('',3,3,((#1557,#1558,#1559,#1560,#1561),
(#1562,#1563,#1564,#1565,#1566),(#1567,#1568,#1569,#1570,#1571),(#1572,
#1573,#1574,#1575,#1576)),.UNSPECIFIED.,.F.,.F.,.F.,(4,4),(4,1,4),(-0.1,
0.),(-0.23698951288032,-0.135422578788754,0.),.UNSPECIFIED.);
#18=B_SPLINE_SURFACE_WITH_KNOTS('',3,3,((#1633,#1634,#1635,#1636,#1637),
(#1638,#1639,#1640,#1641,#1642),(#1643,#1644,#1645,#1646,#1647),(#1648,
#1649,#1650,#1651,#1652)),.UNSPECIFIED.,.F.,.F.,.F.,(4,4),(4,1,4),(-6.2803698347354E-16,
0.100000000000016),(-3.5527136788005E-15,0.135422578788751,0.236989512880317),
 .UNSPECIFIED.);
#19=PLANE('',#1023);
#20=PLANE('',#1024);
#21=PLANE('',#1025);
#22=PLANE('',#1027);
#23=PLANE('',#1028);
#24=PLANE('',#1029);
#25=PLANE('',#1033);
#26=PLANE('',#1034);
#27=PLANE('',#1036);
#28=PLANE('',#1037);
#29=PLANE('',#1038);
#30=PLANE('',#1039);
#31=PLANE('',#1043);
#32=PLANE('',#1044);
#33=PLANE('',#1045);
#34=PLANE('',#1047);
#35=PLANE('',#1048);
#36=PLANE('',#1049);
#37=PLANE('',#1053);
#38=PLANE('',#1054);
#39=PLANE('',#1056);
#40=PLANE('',#1057);
#41=PLANE('',#1058);
#42=PLANE('',#1059);
#43=PLANE('',#1061);
#44=PLANE('',#1062);
#45=PLANE('',#1067);
#46=PLANE('',#1068);
#47=PLANE('',#1071);
#48=PLANE('',#1072);
#49=PLANE('',#1076);
#50=PLANE('',#1077);
#51=PLANE('',#1079);
#52=PLANE('',#1082);
#53=PLANE('',#1085);
#54=PLANE('',#1087);
#55=PLANE('',#1088);
#56=PLANE('',#1090);
#57=PLANE('',#1091);
#58=PLANE('',#1092);
#59=PLANE('',#1094);
#60=PLANE('',#1096);
#61=PLANE('',#1097);
#62=PLANE('',#1098);
#63=PLANE('',#1099);
#64=PLANE('',#1100);
#65=PLANE('',#1101);
#66=PLANE('',#1102);
#67=FACE_OUTER_BOUND('',#133,.T.);
#68=FACE_OUTER_BOUND('',#134,.T.);
#69=FACE_OUTER_BOUND('',#135,.T.);
#70=FACE_OUTER_BOUND('',#136,.T.);
#71=FACE_OUTER_BOUND('',#137,.T.);
#72=FACE_OUTER_BOUND('',#138,.T.);
#73=FACE_OUTER_BOUND('',#139,.T.);
#74=FACE_OUTER_BOUND('',#140,.T.);
#75=FACE_OUTER_BOUND('',#141,.T.);
#76=FACE_OUTER_BOUND('',#142,.T.);
#77=FACE_OUTER_BOUND('',#143,.T.);
#78=FACE_OUTER_BOUND('',#144,.T.);
#79=FACE_OUTER_BOUND('',#145,.T.);
#80=FACE_OUTER_BOUND('',#146,.T.);
#81=FACE_OUTER_BOUND('',#147,.T.);
#82=FACE_OUTER_BOUND('',#148,.T.);
#83=FACE_OUTER_BOUND('',#149,.T.);
#84=FACE_OUTER_BOUND('',#150,.T.);
#85=FACE_OUTER_BOUND('',#151,.T.);
#86=FACE_OUTER_BOUND('',#152,.T.);
#87=FACE_OUTER_BOUND('',#153,.T.);
#88=FACE_OUTER_BOUND('',#154,.T.);
#89=FACE_OUTER_BOUND('',#155,.T.);
#90=FACE_OUTER_BOUND('',#156,.T.);
#91=FACE_OUTER_BOUND('',#157,.T.);
#92=FACE_OUTER_BOUND('',#158,.T.);
#93=FACE_OUTER_BOUND('',#159,.T.);
#94=FACE_OUTER_BOUND('',#160,.T.);
#95=FACE_OUTER_BOUND('',#161,.T.);
#96=FACE_OUTER_BOUND('',#162,.T.);
#97=FACE_OUTER_BOUND('',#163,.T.);
#98=FACE_OUTER_BOUND('',#164,.T.);
#99=FACE_OUTER_BOUND('',#165,.T.);
#100=FACE_OUTER_BOUND('',#166,.T.);
#101=FACE_OUTER_BOUND('',#167,.T.);
#102=FACE_OUTER_BOUND('',#168,.T.);
#103=FACE_OUTER_BOUND('',#169,.T.);
#104=FACE_OUTER_BOUND('',#170,.T.);
#105=FACE_OUTER_BOUND('',#171,.T.);
#106=FACE_OUTER_BOUND('',#172,.T.);
#107=FACE_OUTER_BOUND('',#173,.T.);
#108=FACE_OUTER_BOUND('',#174,.T.);
#109=FACE_OUTER_BOUND('',#175,.T.);
#110=FACE_OUTER_BOUND('',#176,.T.);
#111=FACE_OUTER_BOUND('',#177,.T.);
#112=FACE_OUTER_BOUND('',#178,.T.);
#113=FACE_OUTER_BOUND('',#179,.T.);
#114=FACE_OUTER_BOUND('',#180,.T.);
#115=FACE_OUTER_BOUND('',#181,.T.);
#116=FACE_OUTER_BOUND('',#182,.T.);
#117=FACE_OUTER_BOUND('',#183,.T.);
#118=FACE_OUTER_BOUND('',#184,.T.);
#119=FACE_OUTER_BOUND('',#185,.T.);
#120=FACE_OUTER_BOUND('',#186,.T.);
#121=FACE_OUTER_BOUND('',#187,.T.);
#122=FACE_OUTER_BOUND('',#188,.T.);
#123=FACE_OUTER_BOUND('',#189,.T.);
#124=FACE_OUTER_BOUND('',#190,.T.);
#125=FACE_OUTER_BOUND('',#191,.T.);
#126=FACE_OUTER_BOUND('',#192,.T.);
#127=FACE_OUTER_BOUND('',#193,.T.);
#128=FACE_OUTER_BOUND('',#194,.T.);
#129=FACE_OUTER_BOUND('',#195,.T.);
#130=FACE_OUTER_BOUND('',#196,.T.);
#131=FACE_OUTER_BOUND('',#197,.T.);
#132=FACE_OUTER_BOUND('',#198,.T.);
#133=EDGE_LOOP('',(#647,#648,#649,#650));
#134=EDGE_LOOP('',(#651,#652,#653,#654));
#135=EDGE_LOOP('',(#655,#656,#657,#658));
#136=EDGE_LOOP('',(#659,#660,#661,#662));
#137=EDGE_LOOP('',(#663,#664,#665,#666));
#138=EDGE_LOOP('',(#667,#668,#669,#670));
#139=EDGE_LOOP('',(#671,#672,#673,#674));
#140=EDGE_LOOP('',(#675,#676,#677,#678));
#141=EDGE_LOOP('',(#679,#680,#681,#682));
#142=EDGE_LOOP('',(#683,#684,#685,#686));
#143=EDGE_LOOP('',(#687,#688,#689,#690));
#144=EDGE_LOOP('',(#691,#692,#693,#694));
#145=EDGE_LOOP('',(#695,#696,#697,#698));
#146=EDGE_LOOP('',(#699,#700,#701,#702));
#147=EDGE_LOOP('',(#703,#704,#705,#706));
#148=EDGE_LOOP('',(#707,#708,#709,#710));
#149=EDGE_LOOP('',(#711,#712,#713,#714));
#150=EDGE_LOOP('',(#715,#716,#717,#718));
#151=EDGE_LOOP('',(#719,#720,#721,#722));
#152=EDGE_LOOP('',(#723,#724,#725,#726));
#153=EDGE_LOOP('',(#727,#728,#729,#730));
#154=EDGE_LOOP('',(#731,#732,#733,#734));
#155=EDGE_LOOP('',(#735,#736,#737,#738));
#156=EDGE_LOOP('',(#739,#740,#741,#742));
#157=EDGE_LOOP('',(#743,#744,#745,#746));
#158=EDGE_LOOP('',(#747,#748,#749,#750));
#159=EDGE_LOOP('',(#751,#752,#753,#754));
#160=EDGE_LOOP('',(#755,#756,#757,#758));
#161=EDGE_LOOP('',(#759,#760,#761,#762));
#162=EDGE_LOOP('',(#763,#764,#765,#766));
#163=EDGE_LOOP('',(#767,#768,#769,#770));
#164=EDGE_LOOP('',(#771,#772,#773,#774));
#165=EDGE_LOOP('',(#775,#776,#777,#778));
#166=EDGE_LOOP('',(#779,#780,#781,#782));
#167=EDGE_LOOP('',(#783,#784,#785,#786));
#168=EDGE_LOOP('',(#787,#788,#789,#790));
#169=EDGE_LOOP('',(#791,#792,#793,#794));
#170=EDGE_LOOP('',(#795,#796,#797,#798));
#171=EDGE_LOOP('',(#799,#800,#801,#802));
#172=EDGE_LOOP('',(#803,#804,#805,#806));
#173=EDGE_LOOP('',(#807,#808,#809,#810));
#174=EDGE_LOOP('',(#811,#812,#813,#814));
#175=EDGE_LOOP('',(#815,#816,#817,#818));
#176=EDGE_LOOP('',(#819,#820,#821,#822));
#177=EDGE_LOOP('',(#823,#824,#825,#826));
#178=EDGE_LOOP('',(#827,#828,#829,#830));
#179=EDGE_LOOP('',(#831,#832,#833,#834));
#180=EDGE_LOOP('',(#835,#836,#837,#838));
#181=EDGE_LOOP('',(#839,#840,#841,#842));
#182=EDGE_LOOP('',(#843,#844,#845,#846));
#183=EDGE_LOOP('',(#847,#848,#849,#850));
#184=EDGE_LOOP('',(#851,#852,#853,#854));
#185=EDGE_LOOP('',(#855,#856,#857,#858));
#186=EDGE_LOOP('',(#859,#860,#861,#862,#863,#864));
#187=EDGE_LOOP('',(#865,#866,#867,#868));
#188=EDGE_LOOP('',(#869,#870,#871,#872,#873,#874));
#189=EDGE_LOOP('',(#875,#876,#877,#878));
#190=EDGE_LOOP('',(#879,#880,#881,#882));
#191=EDGE_LOOP('',(#883,#884,#885,#886));
#192=EDGE_LOOP('',(#887,#888,#889,#890,#891,#892));
#193=EDGE_LOOP('',(#893,#894,#895,#896));
#194=EDGE_LOOP('',(#897,#898,#899,#900));
#195=EDGE_LOOP('',(#901,#902,#903,#904));
#196=EDGE_LOOP('',(#905,#906,#907,#908));
#197=EDGE_LOOP('',(#909,#910,#911,#912));
#198=EDGE_LOOP('',(#913,#914,#915,#916,#917,#918));
#199=CIRCLE('',#1022,0.0787401574803133);
#200=CIRCLE('',#1026,0.0393700787401552);
#201=CIRCLE('',#1032,0.0787401574803145);
#202=CIRCLE('',#1035,0.039370078740157);
#203=CIRCLE('',#1042,0.0787401574803147);
#204=CIRCLE('',#1046,0.0393700787401566);
#205=CIRCLE('',#1052,0.0787401574803133);
#206=CIRCLE('',#1055,0.039370078740158);
#207=CIRCLE('',#1063,0.0393700787401565);
#208=CIRCLE('',#1064,0.0787401574803145);
#209=CIRCLE('',#1066,0.0787401574803145);
#210=CIRCLE('',#1069,0.0393700787401565);
#211=CIRCLE('',#1070,0.0787401574803145);
#212=CIRCLE('',#1073,0.0393700787401565);
#213=CIRCLE('',#1074,0.0787401574803145);
#214=CIRCLE('',#1078,0.0393700787401565);
#215=CIRCLE('',#1080,0.0393700787401559);
#216=CIRCLE('',#1081,0.0787401574803139);
#217=CIRCLE('',#1084,0.0787401574803139);
#218=CIRCLE('',#1086,0.0393700787401559);
#219=B_SPLINE_CURVE_WITH_KNOTS('',3,(#1379,#1380,#1381,#1382,#1383,#1384,
#1385),.UNSPECIFIED.,.F.,.F.,(4,3,4),(0.,0.897597901025696,1.57079632679497),
 .UNSPECIFIED.);
#220=B_SPLINE_CURVE_WITH_KNOTS('',3,(#1429,#1430,#1431,#1432,#1433,#1434,
#1435),.UNSPECIFIED.,.F.,.F.,(4,3,4),(0.,0.897597901025695,1.57079632679497),
 .UNSPECIFIED.);
#221=B_SPLINE_CURVE_WITH_KNOTS('',3,(#1436,#1437,#1438,#1439),
 .UNSPECIFIED.,.F.,.F.,(4,4),(-0.10000000000001,6.20017092439102E-16),
 .UNSPECIFIED.);
#222=B_SPLINE_CURVE_WITH_KNOTS('',3,(#1457,#1458,#1459,#1460,#1461,#1462,
#1463),.UNSPECIFIED.,.F.,.F.,(4,3,4),(0.,0.897597901025654,1.57079632679489),
 .UNSPECIFIED.);
#223=B_SPLINE_CURVE_WITH_KNOTS('',3,(#1504,#1505,#1506,#1507),
 .UNSPECIFIED.,.F.,.F.,(4,4),(0.,0.1),.UNSPECIFIED.);
#224=B_SPLINE_CURVE_WITH_KNOTS('',3,(#1508,#1509,#1510,#1511,#1512,#1513,
#1514),.UNSPECIFIED.,.F.,.F.,(4,3,4),(0.,0.67319842576924,1.57079632679489),
 .UNSPECIFIED.);
#225=B_SPLINE_CURVE_WITH_KNOTS('',3,(#1529,#1530,#1531,#1532,#1533,#1534,
#1535),.UNSPECIFIED.,.F.,.F.,(4,3,4),(0.,0.897597901025671,1.57079632679491),
 .UNSPECIFIED.);
#226=B_SPLINE_CURVE_WITH_KNOTS('',3,(#1579,#1580,#1581,#1582,#1583,#1584,
#1585),.UNSPECIFIED.,.F.,.F.,(4,3,4),(0.,0.897597901025667,1.57079632679491),
 .UNSPECIFIED.);
#227=B_SPLINE_CURVE_WITH_KNOTS('',3,(#1586,#1587,#1588,#1589),
 .UNSPECIFIED.,.F.,.F.,(4,4),(-0.1,0.),.UNSPECIFIED.);
#228=B_SPLINE_CURVE_WITH_KNOTS('',3,(#1607,#1608,#1609,#1610,#1611,#1612,
#1613),.UNSPECIFIED.,.F.,.F.,(4,3,4),(0.,0.89759790102567,1.57079632679491),
 .UNSPECIFIED.);
#229=B_SPLINE_CURVE_WITH_KNOTS('',3,(#1654,#1655,#1656,#1657),
 .UNSPECIFIED.,.F.,.F.,(4,4),(-6.2803698347354E-16,0.100000000000016),
 .UNSPECIFIED.);
#230=B_SPLINE_CURVE_WITH_KNOTS('',3,(#1658,#1659,#1660,#1661,#1662,#1663,
#1664),.UNSPECIFIED.,.F.,.F.,(4,3,4),(0.,0.673198425769256,1.57079632679491),
 .UNSPECIFIED.);
#231=LINE('',#1377,#335);
#232=LINE('',#1387,#336);
#233=LINE('',#1391,#337);
#234=LINE('',#1393,#338);
#235=LINE('',#1395,#339);
#236=LINE('',#1396,#340);
#237=LINE('',#1399,#341);
#238=LINE('',#1401,#342);
#239=LINE('',#1402,#343);
#240=LINE('',#1405,#344);
#241=LINE('',#1427,#345);
#242=LINE('',#1442,#346);
#243=LINE('',#1443,#347);
#244=LINE('',#1445,#348);
#245=LINE('',#1448,#349);
#246=LINE('',#1452,#350);
#247=LINE('',#1456,#351);
#248=LINE('',#1467,#352);
#249=LINE('',#1469,#353);
#250=LINE('',#1471,#354);
#251=LINE('',#1472,#355);
#252=LINE('',#1474,#356);
#253=LINE('',#1477,#357);
#254=LINE('',#1480,#358);
#255=LINE('',#1481,#359);
#256=LINE('',#1482,#360);
#257=LINE('',#1517,#361);
#258=LINE('',#1518,#362);
#259=LINE('',#1520,#363);
#260=LINE('',#1523,#364);
#261=LINE('',#1527,#365);
#262=LINE('',#1537,#366);
#263=LINE('',#1541,#367);
#264=LINE('',#1543,#368);
#265=LINE('',#1545,#369);
#266=LINE('',#1546,#370);
#267=LINE('',#1549,#371);
#268=LINE('',#1551,#372);
#269=LINE('',#1552,#373);
#270=LINE('',#1555,#374);
#271=LINE('',#1577,#375);
#272=LINE('',#1592,#376);
#273=LINE('',#1593,#377);
#274=LINE('',#1595,#378);
#275=LINE('',#1598,#379);
#276=LINE('',#1602,#380);
#277=LINE('',#1606,#381);
#278=LINE('',#1617,#382);
#279=LINE('',#1619,#383);
#280=LINE('',#1621,#384);
#281=LINE('',#1622,#385);
#282=LINE('',#1624,#386);
#283=LINE('',#1627,#387);
#284=LINE('',#1630,#388);
#285=LINE('',#1631,#389);
#286=LINE('',#1632,#390);
#287=LINE('',#1667,#391);
#288=LINE('',#1668,#392);
#289=LINE('',#1670,#393);
#290=LINE('',#1673,#394);
#291=LINE('',#1677,#395);
#292=LINE('',#1679,#396);
#293=LINE('',#1681,#397);
#294=LINE('',#1682,#398);
#295=LINE('',#1687,#399);
#296=LINE('',#1690,#400);
#297=LINE('',#1694,#401);
#298=LINE('',#1696,#402);
#299=LINE('',#1698,#403);
#300=LINE('',#1699,#404);
#301=LINE('',#1706,#405);
#302=LINE('',#1708,#406);
#303=LINE('',#1710,#407);
#304=LINE('',#1711,#408);
#305=LINE('',#1716,#409);
#306=LINE('',#1717,#410);
#307=LINE('',#1721,#411);
#308=LINE('',#1722,#412);
#309=LINE('',#1724,#413);
#310=LINE('',#1725,#414);
#311=LINE('',#1732,#415);
#312=LINE('',#1734,#416);
#313=LINE('',#1741,#417);
#314=LINE('',#1743,#418);
#315=LINE('',#1744,#419);
#316=LINE('',#1746,#420);
#317=LINE('',#1747,#421);
#318=LINE('',#1750,#422);
#319=LINE('',#1751,#423);
#320=LINE('',#1754,#424);
#321=LINE('',#1755,#425);
#322=LINE('',#1757,#426);
#323=LINE('',#1759,#427);
#324=LINE('',#1760,#428);
#325=LINE('',#1763,#429);
#326=LINE('',#1764,#430);
#327=LINE('',#1767,#431);
#328=LINE('',#1769,#432);
#329=LINE('',#1770,#433);
#330=LINE('',#1774,#434);
#331=LINE('',#1775,#435);
#332=LINE('',#1778,#436);
#333=LINE('',#1779,#437);
#334=LINE('',#1781,#438);
#335=VECTOR('',#1107,0.393700787401575);
#336=VECTOR('',#1108,0.393700787401575);
#337=VECTOR('',#1113,0.393700787401575);
#338=VECTOR('',#1114,0.0566929133858273);
#339=VECTOR('',#1115,0.393700787401575);
#340=VECTOR('',#1116,0.0566929133858273);
#341=VECTOR('',#1119,0.393700787401575);
#342=VECTOR('',#1120,0.393700787401575);
#343=VECTOR('',#1121,0.393700787401575);
#344=VECTOR('',#1124,0.393700787401575);
#345=VECTOR('',#1127,0.393700787401575);
#346=VECTOR('',#1130,0.393700787401575);
#347=VECTOR('',#1131,0.393700787401575);
#348=VECTOR('',#1134,0.393700787401575);
#349=VECTOR('',#1139,0.393700787401575);
#350=VECTOR('',#1142,0.393700787401575);
#351=VECTOR('',#1145,0.393700787401575);
#352=VECTOR('',#1148,0.393700787401575);
#353=VECTOR('',#1149,0.0566929133858273);
#354=VECTOR('',#1150,0.393700787401575);
#355=VECTOR('',#1151,0.393700787401575);
#356=VECTOR('',#1154,0.393700787401575);
#357=VECTOR('',#1157,0.393700787401575);
#358=VECTOR('',#1160,0.393700787401575);
#359=VECTOR('',#1161,0.393700787401575);
#360=VECTOR('',#1162,0.393700787401575);
#361=VECTOR('',#1165,0.393700787401575);
#362=VECTOR('',#1166,0.393700787401575);
#363=VECTOR('',#1169,0.393700787401575);
#364=VECTOR('',#1174,0.393700787401575);
#365=VECTOR('',#1177,0.393700787401575);
#366=VECTOR('',#1178,0.393700787401575);
#367=VECTOR('',#1183,0.393700787401575);
#368=VECTOR('',#1184,0.0566929133858273);
#369=VECTOR('',#1185,0.393700787401575);
#370=VECTOR('',#1186,0.0566929133858273);
#371=VECTOR('',#1189,0.393700787401575);
#372=VECTOR('',#1190,0.393700787401575);
#373=VECTOR('',#1191,0.393700787401575);
#374=VECTOR('',#1194,0.393700787401575);
#375=VECTOR('',#1197,0.393700787401575);
#376=VECTOR('',#1200,0.393700787401575);
#377=VECTOR('',#1201,0.393700787401575);
#378=VECTOR('',#1204,0.393700787401575);
#379=VECTOR('',#1209,0.393700787401575);
#380=VECTOR('',#1212,0.393700787401575);
#381=VECTOR('',#1215,0.393700787401575);
#382=VECTOR('',#1218,0.393700787401575);
#383=VECTOR('',#1219,0.0566929133858273);
#384=VECTOR('',#1220,0.393700787401575);
#385=VECTOR('',#1221,0.393700787401575);
#386=VECTOR('',#1224,0.393700787401575);
#387=VECTOR('',#1227,0.393700787401575);
#388=VECTOR('',#1230,0.393700787401575);
#389=VECTOR('',#1231,0.393700787401575);
#390=VECTOR('',#1232,0.393700787401575);
#391=VECTOR('',#1235,0.393700787401575);
#392=VECTOR('',#1236,0.393700787401575);
#393=VECTOR('',#1239,0.393700787401575);
#394=VECTOR('',#1244,0.393700787401575);
#395=VECTOR('',#1247,0.393700787401575);
#396=VECTOR('',#1248,0.393700787401575);
#397=VECTOR('',#1249,0.393700787401575);
#398=VECTOR('',#1250,0.393700787401575);
#399=VECTOR('',#1259,0.393700787401575);
#400=VECTOR('',#1262,0.393700787401575);
#401=VECTOR('',#1265,0.393700787401575);
#402=VECTOR('',#1266,0.393700787401575);
#403=VECTOR('',#1267,0.393700787401575);
#404=VECTOR('',#1268,0.393700787401575);
#405=VECTOR('',#1277,0.393700787401575);
#406=VECTOR('',#1278,0.393700787401575);
#407=VECTOR('',#1279,0.393700787401575);
#408=VECTOR('',#1280,0.393700787401575);
#409=VECTOR('',#1289,0.393700787401575);
#410=VECTOR('',#1290,0.393700787401575);
#411=VECTOR('',#1293,0.393700787401575);
#412=VECTOR('',#1294,0.393700787401575);
#413=VECTOR('',#1295,0.393700787401575);
#414=VECTOR('',#1296,0.393700787401575);
#415=VECTOR('',#1309,0.393700787401575);
#416=VECTOR('',#1312,0.393700787401575);
#417=VECTOR('',#1323,0.393700787401575);
#418=VECTOR('',#1324,0.393700787401575);
#419=VECTOR('',#1325,0.393700787401575);
#420=VECTOR('',#1328,0.393700787401575);
#421=VECTOR('',#1329,0.393700787401575);
#422=VECTOR('',#1332,0.393700787401575);
#423=VECTOR('',#1333,0.393700787401575);
#424=VECTOR('',#1336,0.393700787401575);
#425=VECTOR('',#1337,0.393700787401575);
#426=VECTOR('',#1340,0.393700787401575);
#427=VECTOR('',#1343,0.393700787401575);
#428=VECTOR('',#1344,0.393700787401575);
#429=VECTOR('',#1349,0.393700787401575);
#430=VECTOR('',#1350,0.393700787401575);
#431=VECTOR('',#1353,0.393700787401575);
#432=VECTOR('',#1354,0.393700787401575);
#433=VECTOR('',#1355,0.393700787401575);
#434=VECTOR('',#1360,0.393700787401575);
#435=VECTOR('',#1361,0.393700787401575);
#436=VECTOR('',#1364,0.393700787401575);
#437=VECTOR('',#1365,0.393700787401575);
#438=VECTOR('',#1368,0.393700787401575);
#439=VERTEX_POINT('',#1375);
#440=VERTEX_POINT('',#1376);
#441=VERTEX_POINT('',#1378);
#442=VERTEX_POINT('',#1386);
#443=VERTEX_POINT('',#1390);
#444=VERTEX_POINT('',#1392);
#445=VERTEX_POINT('',#1394);
#446=VERTEX_POINT('',#1398);
#447=VERTEX_POINT('',#1400);
#448=VERTEX_POINT('',#1404);
#449=VERTEX_POINT('',#1428);
#450=VERTEX_POINT('',#1441);
#451=VERTEX_POINT('',#1450);
#452=VERTEX_POINT('',#1451);
#453=VERTEX_POINT('',#1453);
#454=VERTEX_POINT('',#1455);
#455=VERTEX_POINT('',#1465);
#456=VERTEX_POINT('',#1466);
#457=VERTEX_POINT('',#1468);
#458=VERTEX_POINT('',#1470);
#459=VERTEX_POINT('',#1475);
#460=VERTEX_POINT('',#1479);
#461=VERTEX_POINT('',#1503);
#462=VERTEX_POINT('',#1516);
#463=VERTEX_POINT('',#1525);
#464=VERTEX_POINT('',#1526);
#465=VERTEX_POINT('',#1528);
#466=VERTEX_POINT('',#1536);
#467=VERTEX_POINT('',#1540);
#468=VERTEX_POINT('',#1542);
#469=VERTEX_POINT('',#1544);
#470=VERTEX_POINT('',#1548);
#471=VERTEX_POINT('',#1550);
#472=VERTEX_POINT('',#1554);
#473=VERTEX_POINT('',#1578);
#474=VERTEX_POINT('',#1591);
#475=VERTEX_POINT('',#1600);
#476=VERTEX_POINT('',#1601);
#477=VERTEX_POINT('',#1603);
#478=VERTEX_POINT('',#1605);
#479=VERTEX_POINT('',#1615);
#480=VERTEX_POINT('',#1616);
#481=VERTEX_POINT('',#1618);
#482=VERTEX_POINT('',#1620);
#483=VERTEX_POINT('',#1625);
#484=VERTEX_POINT('',#1629);
#485=VERTEX_POINT('',#1653);
#486=VERTEX_POINT('',#1666);
#487=VERTEX_POINT('',#1675);
#488=VERTEX_POINT('',#1676);
#489=VERTEX_POINT('',#1678);
#490=VERTEX_POINT('',#1680);
#491=VERTEX_POINT('',#1688);
#492=VERTEX_POINT('',#1692);
#493=VERTEX_POINT('',#1693);
#494=VERTEX_POINT('',#1695);
#495=VERTEX_POINT('',#1697);
#496=VERTEX_POINT('',#1704);
#497=VERTEX_POINT('',#1705);
#498=VERTEX_POINT('',#1707);
#499=VERTEX_POINT('',#1709);
#500=VERTEX_POINT('',#1719);
#501=VERTEX_POINT('',#1720);
#502=VERTEX_POINT('',#1723);
#503=VERTEX_POINT('',#1740);
#504=VERTEX_POINT('',#1742);
#505=VERTEX_POINT('',#1749);
#506=VERTEX_POINT('',#1753);
#507=VERTEX_POINT('',#1766);
#508=VERTEX_POINT('',#1768);
#509=VERTEX_POINT('',#1773);
#510=VERTEX_POINT('',#1777);
#511=EDGE_CURVE('',#439,#440,#231,.T.);
#512=EDGE_CURVE('',#441,#439,#219,.T.);
#513=EDGE_CURVE('',#442,#441,#232,.T.);
#514=EDGE_CURVE('',#440,#442,#199,.T.);
#515=EDGE_CURVE('',#440,#443,#233,.T.);
#516=EDGE_CURVE('',#444,#443,#234,.T.);
#517=EDGE_CURVE('',#444,#445,#235,.T.);
#518=EDGE_CURVE('',#445,#440,#236,.T.);
#519=EDGE_CURVE('',#443,#446,#237,.T.);
#520=EDGE_CURVE('',#446,#447,#238,.T.);
#521=EDGE_CURVE('',#447,#444,#239,.T.);
#522=EDGE_CURVE('',#448,#442,#240,.T.);
#523=EDGE_CURVE('',#443,#448,#200,.T.);
#524=EDGE_CURVE('',#446,#439,#241,.T.);
#525=EDGE_CURVE('',#449,#446,#220,.T.);
#526=EDGE_CURVE('',#441,#449,#221,.T.);
#527=EDGE_CURVE('',#439,#450,#242,.T.);
#528=EDGE_CURVE('',#447,#450,#243,.T.);
#529=EDGE_CURVE('',#450,#445,#244,.T.);
#530=EDGE_CURVE('',#449,#448,#245,.T.);
#531=EDGE_CURVE('',#451,#452,#246,.T.);
#532=EDGE_CURVE('',#453,#451,#201,.T.);
#533=EDGE_CURVE('',#454,#453,#247,.T.);
#534=EDGE_CURVE('',#452,#454,#222,.T.);
#535=EDGE_CURVE('',#455,#456,#248,.T.);
#536=EDGE_CURVE('',#457,#456,#249,.T.);
#537=EDGE_CURVE('',#457,#458,#250,.T.);
#538=EDGE_CURVE('',#455,#458,#251,.T.);
#539=EDGE_CURVE('',#456,#451,#252,.T.);
#540=EDGE_CURVE('',#456,#459,#202,.T.);
#541=EDGE_CURVE('',#459,#453,#253,.T.);
#542=EDGE_CURVE('',#460,#452,#254,.T.);
#543=EDGE_CURVE('',#455,#452,#255,.T.);
#544=EDGE_CURVE('',#458,#460,#256,.T.);
#545=EDGE_CURVE('',#461,#454,#223,.T.);
#546=EDGE_CURVE('',#461,#455,#224,.T.);
#547=EDGE_CURVE('',#451,#462,#257,.T.);
#548=EDGE_CURVE('',#457,#462,#258,.T.);
#549=EDGE_CURVE('',#462,#460,#259,.T.);
#550=EDGE_CURVE('',#459,#461,#260,.T.);
#551=EDGE_CURVE('',#463,#464,#261,.T.);
#552=EDGE_CURVE('',#465,#463,#225,.T.);
#553=EDGE_CURVE('',#466,#465,#262,.T.);
#554=EDGE_CURVE('',#464,#466,#203,.T.);
#555=EDGE_CURVE('',#464,#467,#263,.T.);
#556=EDGE_CURVE('',#468,#467,#264,.T.);
#557=EDGE_CURVE('',#468,#469,#265,.T.);
#558=EDGE_CURVE('',#469,#464,#266,.T.);
#559=EDGE_CURVE('',#467,#470,#267,.T.);
#560=EDGE_CURVE('',#470,#471,#268,.T.);
#561=EDGE_CURVE('',#471,#468,#269,.T.);
#562=EDGE_CURVE('',#472,#466,#270,.T.);
#563=EDGE_CURVE('',#467,#472,#204,.T.);
#564=EDGE_CURVE('',#470,#463,#271,.T.);
#565=EDGE_CURVE('',#473,#470,#226,.T.);
#566=EDGE_CURVE('',#465,#473,#227,.T.);
#567=EDGE_CURVE('',#463,#474,#272,.T.);
#568=EDGE_CURVE('',#471,#474,#273,.T.);
#569=EDGE_CURVE('',#474,#469,#274,.T.);
#570=EDGE_CURVE('',#473,#472,#275,.T.);
#571=EDGE_CURVE('',#475,#476,#276,.T.);
#572=EDGE_CURVE('',#477,#475,#205,.T.);
#573=EDGE_CURVE('',#478,#477,#277,.T.);
#574=EDGE_CURVE('',#476,#478,#228,.T.);
#575=EDGE_CURVE('',#479,#480,#278,.T.);
#576=EDGE_CURVE('',#481,#480,#279,.T.);
#577=EDGE_CURVE('',#481,#482,#280,.T.);
#578=EDGE_CURVE('',#479,#482,#281,.T.);
#579=EDGE_CURVE('',#480,#475,#282,.T.);
#580=EDGE_CURVE('',#480,#483,#206,.T.);
#581=EDGE_CURVE('',#483,#477,#283,.T.);
#582=EDGE_CURVE('',#484,#476,#284,.T.);
#583=EDGE_CURVE('',#479,#476,#285,.T.);
#584=EDGE_CURVE('',#482,#484,#286,.T.);
#585=EDGE_CURVE('',#485,#478,#229,.T.);
#586=EDGE_CURVE('',#485,#479,#230,.T.);
#587=EDGE_CURVE('',#475,#486,#287,.T.);
#588=EDGE_CURVE('',#481,#486,#288,.T.);
#589=EDGE_CURVE('',#486,#484,#289,.T.);
#590=EDGE_CURVE('',#483,#485,#290,.T.);
#591=EDGE_CURVE('',#487,#488,#291,.T.);
#592=EDGE_CURVE('',#489,#487,#292,.T.);
#593=EDGE_CURVE('',#489,#490,#293,.T.);
#594=EDGE_CURVE('',#488,#490,#294,.T.);
#595=EDGE_CURVE('',#448,#489,#207,.T.);
#596=EDGE_CURVE('',#490,#442,#208,.T.);
#597=EDGE_CURVE('',#442,#477,#295,.T.);
#598=EDGE_CURVE('',#477,#491,#209,.T.);
#599=EDGE_CURVE('',#490,#491,#296,.T.);
#600=EDGE_CURVE('',#492,#493,#297,.T.);
#601=EDGE_CURVE('',#493,#494,#298,.T.);
#602=EDGE_CURVE('',#494,#495,#299,.T.);
#603=EDGE_CURVE('',#495,#492,#300,.T.);
#604=EDGE_CURVE('',#495,#459,#210,.T.);
#605=EDGE_CURVE('',#453,#494,#211,.T.);
#606=EDGE_CURVE('',#496,#497,#301,.T.);
#607=EDGE_CURVE('',#497,#498,#302,.T.);
#608=EDGE_CURVE('',#499,#498,#303,.T.);
#609=EDGE_CURVE('',#499,#496,#304,.T.);
#610=EDGE_CURVE('',#472,#498,#212,.T.);
#611=EDGE_CURVE('',#499,#466,#213,.T.);
#612=EDGE_CURVE('',#494,#499,#305,.T.);
#613=EDGE_CURVE('',#453,#466,#306,.T.);
#614=EDGE_CURVE('',#500,#501,#307,.T.);
#615=EDGE_CURVE('',#491,#500,#308,.T.);
#616=EDGE_CURVE('',#502,#491,#309,.T.);
#617=EDGE_CURVE('',#501,#502,#310,.T.);
#618=EDGE_CURVE('',#502,#483,#214,.T.);
#619=EDGE_CURVE('',#461,#449,#215,.T.);
#620=EDGE_CURVE('',#441,#454,#216,.T.);
#621=EDGE_CURVE('',#441,#478,#311,.T.);
#622=EDGE_CURVE('',#454,#465,#312,.T.);
#623=EDGE_CURVE('',#465,#478,#217,.T.);
#624=EDGE_CURVE('',#485,#473,#218,.T.);
#625=EDGE_CURVE('',#488,#503,#313,.T.);
#626=EDGE_CURVE('',#504,#503,#314,.T.);
#627=EDGE_CURVE('',#487,#504,#315,.T.);
#628=EDGE_CURVE('',#502,#489,#316,.T.);
#629=EDGE_CURVE('',#483,#448,#317,.T.);
#630=EDGE_CURVE('',#505,#500,#318,.T.);
#631=EDGE_CURVE('',#503,#505,#319,.T.);
#632=EDGE_CURVE('',#501,#506,#320,.T.);
#633=EDGE_CURVE('',#506,#505,#321,.T.);
#634=EDGE_CURVE('',#506,#504,#322,.T.);
#635=EDGE_CURVE('',#485,#449,#323,.T.);
#636=EDGE_CURVE('',#473,#461,#324,.T.);
#637=EDGE_CURVE('',#472,#459,#325,.T.);
#638=EDGE_CURVE('',#498,#495,#326,.T.);
#639=EDGE_CURVE('',#507,#493,#327,.T.);
#640=EDGE_CURVE('',#508,#507,#328,.T.);
#641=EDGE_CURVE('',#496,#508,#329,.T.);
#642=EDGE_CURVE('',#509,#492,#330,.T.);
#643=EDGE_CURVE('',#509,#507,#331,.T.);
#644=EDGE_CURVE('',#510,#508,#332,.T.);
#645=EDGE_CURVE('',#510,#497,#333,.T.);
#646=EDGE_CURVE('',#510,#509,#334,.T.);
#647=ORIENTED_EDGE('',*,*,#511,.F.);
#648=ORIENTED_EDGE('',*,*,#512,.F.);
#649=ORIENTED_EDGE('',*,*,#513,.F.);
#650=ORIENTED_EDGE('',*,*,#514,.F.);
#651=ORIENTED_EDGE('',*,*,#515,.T.);
#652=ORIENTED_EDGE('',*,*,#516,.F.);
#653=ORIENTED_EDGE('',*,*,#517,.T.);
#654=ORIENTED_EDGE('',*,*,#518,.T.);
#655=ORIENTED_EDGE('',*,*,#519,.T.);
#656=ORIENTED_EDGE('',*,*,#520,.T.);
#657=ORIENTED_EDGE('',*,*,#521,.T.);
#658=ORIENTED_EDGE('',*,*,#516,.T.);
#659=ORIENTED_EDGE('',*,*,#515,.F.);
#660=ORIENTED_EDGE('',*,*,#514,.T.);
#661=ORIENTED_EDGE('',*,*,#522,.F.);
#662=ORIENTED_EDGE('',*,*,#523,.F.);
#663=ORIENTED_EDGE('',*,*,#512,.T.);
#664=ORIENTED_EDGE('',*,*,#524,.F.);
#665=ORIENTED_EDGE('',*,*,#525,.F.);
#666=ORIENTED_EDGE('',*,*,#526,.F.);
#667=ORIENTED_EDGE('',*,*,#527,.T.);
#668=ORIENTED_EDGE('',*,*,#528,.F.);
#669=ORIENTED_EDGE('',*,*,#520,.F.);
#670=ORIENTED_EDGE('',*,*,#524,.T.);
#671=ORIENTED_EDGE('',*,*,#529,.T.);
#672=ORIENTED_EDGE('',*,*,#517,.F.);
#673=ORIENTED_EDGE('',*,*,#521,.F.);
#674=ORIENTED_EDGE('',*,*,#528,.T.);
#675=ORIENTED_EDGE('',*,*,#511,.T.);
#676=ORIENTED_EDGE('',*,*,#518,.F.);
#677=ORIENTED_EDGE('',*,*,#529,.F.);
#678=ORIENTED_EDGE('',*,*,#527,.F.);
#679=ORIENTED_EDGE('',*,*,#519,.F.);
#680=ORIENTED_EDGE('',*,*,#523,.T.);
#681=ORIENTED_EDGE('',*,*,#530,.F.);
#682=ORIENTED_EDGE('',*,*,#525,.T.);
#683=ORIENTED_EDGE('',*,*,#531,.F.);
#684=ORIENTED_EDGE('',*,*,#532,.F.);
#685=ORIENTED_EDGE('',*,*,#533,.F.);
#686=ORIENTED_EDGE('',*,*,#534,.F.);
#687=ORIENTED_EDGE('',*,*,#535,.T.);
#688=ORIENTED_EDGE('',*,*,#536,.F.);
#689=ORIENTED_EDGE('',*,*,#537,.T.);
#690=ORIENTED_EDGE('',*,*,#538,.F.);
#691=ORIENTED_EDGE('',*,*,#539,.F.);
#692=ORIENTED_EDGE('',*,*,#540,.T.);
#693=ORIENTED_EDGE('',*,*,#541,.T.);
#694=ORIENTED_EDGE('',*,*,#532,.T.);
#695=ORIENTED_EDGE('',*,*,#542,.T.);
#696=ORIENTED_EDGE('',*,*,#543,.F.);
#697=ORIENTED_EDGE('',*,*,#538,.T.);
#698=ORIENTED_EDGE('',*,*,#544,.T.);
#699=ORIENTED_EDGE('',*,*,#534,.T.);
#700=ORIENTED_EDGE('',*,*,#545,.F.);
#701=ORIENTED_EDGE('',*,*,#546,.T.);
#702=ORIENTED_EDGE('',*,*,#543,.T.);
#703=ORIENTED_EDGE('',*,*,#539,.T.);
#704=ORIENTED_EDGE('',*,*,#547,.T.);
#705=ORIENTED_EDGE('',*,*,#548,.F.);
#706=ORIENTED_EDGE('',*,*,#536,.T.);
#707=ORIENTED_EDGE('',*,*,#549,.T.);
#708=ORIENTED_EDGE('',*,*,#544,.F.);
#709=ORIENTED_EDGE('',*,*,#537,.F.);
#710=ORIENTED_EDGE('',*,*,#548,.T.);
#711=ORIENTED_EDGE('',*,*,#531,.T.);
#712=ORIENTED_EDGE('',*,*,#542,.F.);
#713=ORIENTED_EDGE('',*,*,#549,.F.);
#714=ORIENTED_EDGE('',*,*,#547,.F.);
#715=ORIENTED_EDGE('',*,*,#535,.F.);
#716=ORIENTED_EDGE('',*,*,#546,.F.);
#717=ORIENTED_EDGE('',*,*,#550,.F.);
#718=ORIENTED_EDGE('',*,*,#540,.F.);
#719=ORIENTED_EDGE('',*,*,#551,.F.);
#720=ORIENTED_EDGE('',*,*,#552,.F.);
#721=ORIENTED_EDGE('',*,*,#553,.F.);
#722=ORIENTED_EDGE('',*,*,#554,.F.);
#723=ORIENTED_EDGE('',*,*,#555,.T.);
#724=ORIENTED_EDGE('',*,*,#556,.F.);
#725=ORIENTED_EDGE('',*,*,#557,.T.);
#726=ORIENTED_EDGE('',*,*,#558,.T.);
#727=ORIENTED_EDGE('',*,*,#559,.T.);
#728=ORIENTED_EDGE('',*,*,#560,.T.);
#729=ORIENTED_EDGE('',*,*,#561,.T.);
#730=ORIENTED_EDGE('',*,*,#556,.T.);
#731=ORIENTED_EDGE('',*,*,#555,.F.);
#732=ORIENTED_EDGE('',*,*,#554,.T.);
#733=ORIENTED_EDGE('',*,*,#562,.F.);
#734=ORIENTED_EDGE('',*,*,#563,.F.);
#735=ORIENTED_EDGE('',*,*,#552,.T.);
#736=ORIENTED_EDGE('',*,*,#564,.F.);
#737=ORIENTED_EDGE('',*,*,#565,.F.);
#738=ORIENTED_EDGE('',*,*,#566,.F.);
#739=ORIENTED_EDGE('',*,*,#567,.T.);
#740=ORIENTED_EDGE('',*,*,#568,.F.);
#741=ORIENTED_EDGE('',*,*,#560,.F.);
#742=ORIENTED_EDGE('',*,*,#564,.T.);
#743=ORIENTED_EDGE('',*,*,#569,.T.);
#744=ORIENTED_EDGE('',*,*,#557,.F.);
#745=ORIENTED_EDGE('',*,*,#561,.F.);
#746=ORIENTED_EDGE('',*,*,#568,.T.);
#747=ORIENTED_EDGE('',*,*,#551,.T.);
#748=ORIENTED_EDGE('',*,*,#558,.F.);
#749=ORIENTED_EDGE('',*,*,#569,.F.);
#750=ORIENTED_EDGE('',*,*,#567,.F.);
#751=ORIENTED_EDGE('',*,*,#559,.F.);
#752=ORIENTED_EDGE('',*,*,#563,.T.);
#753=ORIENTED_EDGE('',*,*,#570,.F.);
#754=ORIENTED_EDGE('',*,*,#565,.T.);
#755=ORIENTED_EDGE('',*,*,#571,.F.);
#756=ORIENTED_EDGE('',*,*,#572,.F.);
#757=ORIENTED_EDGE('',*,*,#573,.F.);
#758=ORIENTED_EDGE('',*,*,#574,.F.);
#759=ORIENTED_EDGE('',*,*,#575,.T.);
#760=ORIENTED_EDGE('',*,*,#576,.F.);
#761=ORIENTED_EDGE('',*,*,#577,.T.);
#762=ORIENTED_EDGE('',*,*,#578,.F.);
#763=ORIENTED_EDGE('',*,*,#579,.F.);
#764=ORIENTED_EDGE('',*,*,#580,.T.);
#765=ORIENTED_EDGE('',*,*,#581,.T.);
#766=ORIENTED_EDGE('',*,*,#572,.T.);
#767=ORIENTED_EDGE('',*,*,#582,.T.);
#768=ORIENTED_EDGE('',*,*,#583,.F.);
#769=ORIENTED_EDGE('',*,*,#578,.T.);
#770=ORIENTED_EDGE('',*,*,#584,.T.);
#771=ORIENTED_EDGE('',*,*,#574,.T.);
#772=ORIENTED_EDGE('',*,*,#585,.F.);
#773=ORIENTED_EDGE('',*,*,#586,.T.);
#774=ORIENTED_EDGE('',*,*,#583,.T.);
#775=ORIENTED_EDGE('',*,*,#579,.T.);
#776=ORIENTED_EDGE('',*,*,#587,.T.);
#777=ORIENTED_EDGE('',*,*,#588,.F.);
#778=ORIENTED_EDGE('',*,*,#576,.T.);
#779=ORIENTED_EDGE('',*,*,#589,.T.);
#780=ORIENTED_EDGE('',*,*,#584,.F.);
#781=ORIENTED_EDGE('',*,*,#577,.F.);
#782=ORIENTED_EDGE('',*,*,#588,.T.);
#783=ORIENTED_EDGE('',*,*,#571,.T.);
#784=ORIENTED_EDGE('',*,*,#582,.F.);
#785=ORIENTED_EDGE('',*,*,#589,.F.);
#786=ORIENTED_EDGE('',*,*,#587,.F.);
#787=ORIENTED_EDGE('',*,*,#575,.F.);
#788=ORIENTED_EDGE('',*,*,#586,.F.);
#789=ORIENTED_EDGE('',*,*,#590,.F.);
#790=ORIENTED_EDGE('',*,*,#580,.F.);
#791=ORIENTED_EDGE('',*,*,#591,.F.);
#792=ORIENTED_EDGE('',*,*,#592,.F.);
#793=ORIENTED_EDGE('',*,*,#593,.T.);
#794=ORIENTED_EDGE('',*,*,#594,.F.);
#795=ORIENTED_EDGE('',*,*,#595,.F.);
#796=ORIENTED_EDGE('',*,*,#522,.T.);
#797=ORIENTED_EDGE('',*,*,#596,.F.);
#798=ORIENTED_EDGE('',*,*,#593,.F.);
#799=ORIENTED_EDGE('',*,*,#596,.T.);
#800=ORIENTED_EDGE('',*,*,#597,.T.);
#801=ORIENTED_EDGE('',*,*,#598,.T.);
#802=ORIENTED_EDGE('',*,*,#599,.F.);
#803=ORIENTED_EDGE('',*,*,#600,.T.);
#804=ORIENTED_EDGE('',*,*,#601,.T.);
#805=ORIENTED_EDGE('',*,*,#602,.T.);
#806=ORIENTED_EDGE('',*,*,#603,.T.);
#807=ORIENTED_EDGE('',*,*,#604,.F.);
#808=ORIENTED_EDGE('',*,*,#602,.F.);
#809=ORIENTED_EDGE('',*,*,#605,.F.);
#810=ORIENTED_EDGE('',*,*,#541,.F.);
#811=ORIENTED_EDGE('',*,*,#606,.T.);
#812=ORIENTED_EDGE('',*,*,#607,.T.);
#813=ORIENTED_EDGE('',*,*,#608,.F.);
#814=ORIENTED_EDGE('',*,*,#609,.T.);
#815=ORIENTED_EDGE('',*,*,#610,.F.);
#816=ORIENTED_EDGE('',*,*,#562,.T.);
#817=ORIENTED_EDGE('',*,*,#611,.F.);
#818=ORIENTED_EDGE('',*,*,#608,.T.);
#819=ORIENTED_EDGE('',*,*,#605,.T.);
#820=ORIENTED_EDGE('',*,*,#612,.T.);
#821=ORIENTED_EDGE('',*,*,#611,.T.);
#822=ORIENTED_EDGE('',*,*,#613,.F.);
#823=ORIENTED_EDGE('',*,*,#614,.F.);
#824=ORIENTED_EDGE('',*,*,#615,.F.);
#825=ORIENTED_EDGE('',*,*,#616,.F.);
#826=ORIENTED_EDGE('',*,*,#617,.F.);
#827=ORIENTED_EDGE('',*,*,#618,.F.);
#828=ORIENTED_EDGE('',*,*,#616,.T.);
#829=ORIENTED_EDGE('',*,*,#598,.F.);
#830=ORIENTED_EDGE('',*,*,#581,.F.);
#831=ORIENTED_EDGE('',*,*,#526,.T.);
#832=ORIENTED_EDGE('',*,*,#619,.F.);
#833=ORIENTED_EDGE('',*,*,#545,.T.);
#834=ORIENTED_EDGE('',*,*,#620,.F.);
#835=ORIENTED_EDGE('',*,*,#513,.T.);
#836=ORIENTED_EDGE('',*,*,#621,.T.);
#837=ORIENTED_EDGE('',*,*,#573,.T.);
#838=ORIENTED_EDGE('',*,*,#597,.F.);
#839=ORIENTED_EDGE('',*,*,#620,.T.);
#840=ORIENTED_EDGE('',*,*,#622,.T.);
#841=ORIENTED_EDGE('',*,*,#623,.T.);
#842=ORIENTED_EDGE('',*,*,#621,.F.);
#843=ORIENTED_EDGE('',*,*,#566,.T.);
#844=ORIENTED_EDGE('',*,*,#624,.F.);
#845=ORIENTED_EDGE('',*,*,#585,.T.);
#846=ORIENTED_EDGE('',*,*,#623,.F.);
#847=ORIENTED_EDGE('',*,*,#533,.T.);
#848=ORIENTED_EDGE('',*,*,#613,.T.);
#849=ORIENTED_EDGE('',*,*,#553,.T.);
#850=ORIENTED_EDGE('',*,*,#622,.F.);
#851=ORIENTED_EDGE('',*,*,#591,.T.);
#852=ORIENTED_EDGE('',*,*,#625,.T.);
#853=ORIENTED_EDGE('',*,*,#626,.F.);
#854=ORIENTED_EDGE('',*,*,#627,.F.);
#855=ORIENTED_EDGE('',*,*,#595,.T.);
#856=ORIENTED_EDGE('',*,*,#628,.F.);
#857=ORIENTED_EDGE('',*,*,#618,.T.);
#858=ORIENTED_EDGE('',*,*,#629,.T.);
#859=ORIENTED_EDGE('',*,*,#594,.T.);
#860=ORIENTED_EDGE('',*,*,#599,.T.);
#861=ORIENTED_EDGE('',*,*,#615,.T.);
#862=ORIENTED_EDGE('',*,*,#630,.F.);
#863=ORIENTED_EDGE('',*,*,#631,.F.);
#864=ORIENTED_EDGE('',*,*,#625,.F.);
#865=ORIENTED_EDGE('',*,*,#614,.T.);
#866=ORIENTED_EDGE('',*,*,#632,.T.);
#867=ORIENTED_EDGE('',*,*,#633,.T.);
#868=ORIENTED_EDGE('',*,*,#630,.T.);
#869=ORIENTED_EDGE('',*,*,#617,.T.);
#870=ORIENTED_EDGE('',*,*,#628,.T.);
#871=ORIENTED_EDGE('',*,*,#592,.T.);
#872=ORIENTED_EDGE('',*,*,#627,.T.);
#873=ORIENTED_EDGE('',*,*,#634,.F.);
#874=ORIENTED_EDGE('',*,*,#632,.F.);
#875=ORIENTED_EDGE('',*,*,#619,.T.);
#876=ORIENTED_EDGE('',*,*,#635,.F.);
#877=ORIENTED_EDGE('',*,*,#624,.T.);
#878=ORIENTED_EDGE('',*,*,#636,.T.);
#879=ORIENTED_EDGE('',*,*,#530,.T.);
#880=ORIENTED_EDGE('',*,*,#629,.F.);
#881=ORIENTED_EDGE('',*,*,#590,.T.);
#882=ORIENTED_EDGE('',*,*,#635,.T.);
#883=ORIENTED_EDGE('',*,*,#604,.T.);
#884=ORIENTED_EDGE('',*,*,#637,.F.);
#885=ORIENTED_EDGE('',*,*,#610,.T.);
#886=ORIENTED_EDGE('',*,*,#638,.T.);
#887=ORIENTED_EDGE('',*,*,#601,.F.);
#888=ORIENTED_EDGE('',*,*,#639,.F.);
#889=ORIENTED_EDGE('',*,*,#640,.F.);
#890=ORIENTED_EDGE('',*,*,#641,.F.);
#891=ORIENTED_EDGE('',*,*,#609,.F.);
#892=ORIENTED_EDGE('',*,*,#612,.F.);
#893=ORIENTED_EDGE('',*,*,#550,.T.);
#894=ORIENTED_EDGE('',*,*,#636,.F.);
#895=ORIENTED_EDGE('',*,*,#570,.T.);
#896=ORIENTED_EDGE('',*,*,#637,.T.);
#897=ORIENTED_EDGE('',*,*,#600,.F.);
#898=ORIENTED_EDGE('',*,*,#642,.F.);
#899=ORIENTED_EDGE('',*,*,#643,.T.);
#900=ORIENTED_EDGE('',*,*,#639,.T.);
#901=ORIENTED_EDGE('',*,*,#606,.F.);
#902=ORIENTED_EDGE('',*,*,#641,.T.);
#903=ORIENTED_EDGE('',*,*,#644,.F.);
#904=ORIENTED_EDGE('',*,*,#645,.T.);
#905=ORIENTED_EDGE('',*,*,#640,.T.);
#906=ORIENTED_EDGE('',*,*,#643,.F.);
#907=ORIENTED_EDGE('',*,*,#646,.F.);
#908=ORIENTED_EDGE('',*,*,#644,.T.);
#909=ORIENTED_EDGE('',*,*,#631,.T.);
#910=ORIENTED_EDGE('',*,*,#633,.F.);
#911=ORIENTED_EDGE('',*,*,#634,.T.);
#912=ORIENTED_EDGE('',*,*,#626,.T.);
#913=ORIENTED_EDGE('',*,*,#607,.F.);
#914=ORIENTED_EDGE('',*,*,#645,.F.);
#915=ORIENTED_EDGE('',*,*,#646,.T.);
#916=ORIENTED_EDGE('',*,*,#642,.T.);
#917=ORIENTED_EDGE('',*,*,#603,.F.);
#918=ORIENTED_EDGE('',*,*,#638,.F.);
#919=CYLINDRICAL_SURFACE('',#1021,0.0787401574803145);
#920=CYLINDRICAL_SURFACE('',#1030,0.0393700787401592);
#921=CYLINDRICAL_SURFACE('',#1031,0.0787401574803147);
#922=CYLINDRICAL_SURFACE('',#1040,0.0393700787401574);
#923=CYLINDRICAL_SURFACE('',#1041,0.0787401574803144);
#924=CYLINDRICAL_SURFACE('',#1050,0.0393700787401569);
#925=CYLINDRICAL_SURFACE('',#1051,0.0787401574803201);
#926=CYLINDRICAL_SURFACE('',#1060,0.039370078740162);
#927=CYLINDRICAL_SURFACE('',#1065,0.0787401574803145);
#928=CYLINDRICAL_SURFACE('',#1075,0.0787401574803145);
#929=CYLINDRICAL_SURFACE('',#1083,0.0787401574803139);
#930=CYLINDRICAL_SURFACE('',#1089,0.0393700787401565);
#931=CYLINDRICAL_SURFACE('',#1093,0.0393700787401559);
#932=CYLINDRICAL_SURFACE('',#1095,0.0393700787401565);
#933=ADVANCED_FACE('',(#67),#919,.T.);
#934=ADVANCED_FACE('',(#68),#19,.T.);
#935=ADVANCED_FACE('',(#69),#20,.F.);
#936=ADVANCED_FACE('',(#70),#21,.T.);
#937=ADVANCED_FACE('',(#71),#15,.T.);
#938=ADVANCED_FACE('',(#72),#22,.T.);
#939=ADVANCED_FACE('',(#73),#23,.T.);
#940=ADVANCED_FACE('',(#74),#24,.T.);
#941=ADVANCED_FACE('',(#75),#920,.F.);
#942=ADVANCED_FACE('',(#76),#921,.T.);
#943=ADVANCED_FACE('',(#77),#25,.F.);
#944=ADVANCED_FACE('',(#78),#26,.T.);
#945=ADVANCED_FACE('',(#79),#27,.T.);
#946=ADVANCED_FACE('',(#80),#16,.T.);
#947=ADVANCED_FACE('',(#81),#28,.T.);
#948=ADVANCED_FACE('',(#82),#29,.T.);
#949=ADVANCED_FACE('',(#83),#30,.T.);
#950=ADVANCED_FACE('',(#84),#922,.F.);
#951=ADVANCED_FACE('',(#85),#923,.T.);
#952=ADVANCED_FACE('',(#86),#31,.T.);
#953=ADVANCED_FACE('',(#87),#32,.F.);
#954=ADVANCED_FACE('',(#88),#33,.T.);
#955=ADVANCED_FACE('',(#89),#17,.T.);
#956=ADVANCED_FACE('',(#90),#34,.T.);
#957=ADVANCED_FACE('',(#91),#35,.T.);
#958=ADVANCED_FACE('',(#92),#36,.T.);
#959=ADVANCED_FACE('',(#93),#924,.F.);
#960=ADVANCED_FACE('',(#94),#925,.T.);
#961=ADVANCED_FACE('',(#95),#37,.F.);
#962=ADVANCED_FACE('',(#96),#38,.T.);
#963=ADVANCED_FACE('',(#97),#39,.T.);
#964=ADVANCED_FACE('',(#98),#18,.T.);
#965=ADVANCED_FACE('',(#99),#40,.T.);
#966=ADVANCED_FACE('',(#100),#41,.T.);
#967=ADVANCED_FACE('',(#101),#42,.T.);
#968=ADVANCED_FACE('',(#102),#926,.F.);
#969=ADVANCED_FACE('',(#103),#43,.F.);
#970=ADVANCED_FACE('',(#104),#44,.T.);
#971=ADVANCED_FACE('',(#105),#927,.T.);
#972=ADVANCED_FACE('',(#106),#45,.F.);
#973=ADVANCED_FACE('',(#107),#46,.T.);
#974=ADVANCED_FACE('',(#108),#47,.F.);
#975=ADVANCED_FACE('',(#109),#48,.F.);
#976=ADVANCED_FACE('',(#110),#928,.T.);
#977=ADVANCED_FACE('',(#111),#49,.F.);
#978=ADVANCED_FACE('',(#112),#50,.F.);
#979=ADVANCED_FACE('',(#113),#51,.F.);
#980=ADVANCED_FACE('',(#114),#52,.F.);
#981=ADVANCED_FACE('',(#115),#929,.T.);
#982=ADVANCED_FACE('',(#116),#53,.F.);
#983=ADVANCED_FACE('',(#117),#54,.F.);
#984=ADVANCED_FACE('',(#118),#55,.T.);
#985=ADVANCED_FACE('',(#119),#930,.F.);
#986=ADVANCED_FACE('',(#120),#56,.F.);
#987=ADVANCED_FACE('',(#121),#57,.T.);
#988=ADVANCED_FACE('',(#122),#58,.T.);
#989=ADVANCED_FACE('',(#123),#931,.F.);
#990=ADVANCED_FACE('',(#124),#59,.T.);
#991=ADVANCED_FACE('',(#125),#932,.F.);
#992=ADVANCED_FACE('',(#126),#60,.F.);
#993=ADVANCED_FACE('',(#127),#61,.T.);
#994=ADVANCED_FACE('',(#128),#62,.T.);
#995=ADVANCED_FACE('',(#129),#63,.T.);
#996=ADVANCED_FACE('',(#130),#64,.T.);
#997=ADVANCED_FACE('',(#131),#65,.T.);
#998=ADVANCED_FACE('',(#132),#66,.T.);
#999=CLOSED_SHELL('',(#933,#934,#935,#936,#937,#938,#939,#940,#941,#942,
#943,#944,#945,#946,#947,#948,#949,#950,#951,#952,#953,#954,#955,#956,#957,
#958,#959,#960,#961,#962,#963,#964,#965,#966,#967,#968,#969,#970,#971,#972,
#973,#974,#975,#976,#977,#978,#979,#980,#981,#982,#983,#984,#985,#986,#987,
#988,#989,#990,#991,#992,#993,#994,#995,#996,#997,#998));
#1000=DERIVED_UNIT_ELEMENT(#1002,1.);
#1001=DERIVED_UNIT_ELEMENT(#1792,-3.);
#1002=(
CONVERSION_BASED_UNIT('gram',#1004)
MASS_UNIT()
NAMED_UNIT(#1789)
);
#1003=(
MASS_UNIT()
NAMED_UNIT(*)
SI_UNIT(.KILO.,.GRAM.)
);
#1004=MASS_MEASURE_WITH_UNIT(MASS_MEASURE(0.001),#1003);
#1005=DERIVED_UNIT((#1000,#1001));
#1006=MEASURE_REPRESENTATION_ITEM('density measure',
POSITIVE_RATIO_MEASURE(7.85),#1005);
#1007=PROPERTY_DEFINITION_REPRESENTATION(#1012,#1009);
#1008=PROPERTY_DEFINITION_REPRESENTATION(#1013,#1010);
#1009=REPRESENTATION('material name',(#1011),#1786);
#1010=REPRESENTATION('density',(#1006),#1786);
#1011=DESCRIPTIVE_REPRESENTATION_ITEM('Steel, Carbon','Steel, Carbon');
#1012=PROPERTY_DEFINITION('material property','material name',#1800);
#1013=PROPERTY_DEFINITION('material property','density of part',#1800);
#1014=DATE_TIME_ROLE('creation_date');
#1015=APPLIED_DATE_AND_TIME_ASSIGNMENT(#1016,#1014,(#1800));
#1016=DATE_AND_TIME(#1017,#1018);
#1017=CALENDAR_DATE(2024,2,5);
#1018=LOCAL_TIME(0,0,0.,#1019);
#1019=COORDINATED_UNIVERSAL_TIME_OFFSET(0,0,.BEHIND.);
#1020=AXIS2_PLACEMENT_3D('',#1373,#1103,#1104);
#1021=AXIS2_PLACEMENT_3D('',#1374,#1105,#1106);
#1022=AXIS2_PLACEMENT_3D('',#1388,#1109,#1110);
#1023=AXIS2_PLACEMENT_3D('',#1389,#1111,#1112);
#1024=AXIS2_PLACEMENT_3D('',#1397,#1117,#1118);
#1025=AXIS2_PLACEMENT_3D('',#1403,#1122,#1123);
#1026=AXIS2_PLACEMENT_3D('',#1406,#1125,#1126);
#1027=AXIS2_PLACEMENT_3D('',#1440,#1128,#1129);
#1028=AXIS2_PLACEMENT_3D('',#1444,#1132,#1133);
#1029=AXIS2_PLACEMENT_3D('',#1446,#1135,#1136);
#1030=AXIS2_PLACEMENT_3D('',#1447,#1137,#1138);
#1031=AXIS2_PLACEMENT_3D('',#1449,#1140,#1141);
#1032=AXIS2_PLACEMENT_3D('',#1454,#1143,#1144);
#1033=AXIS2_PLACEMENT_3D('',#1464,#1146,#1147);
#1034=AXIS2_PLACEMENT_3D('',#1473,#1152,#1153);
#1035=AXIS2_PLACEMENT_3D('',#1476,#1155,#1156);
#1036=AXIS2_PLACEMENT_3D('',#1478,#1158,#1159);
#1037=AXIS2_PLACEMENT_3D('',#1515,#1163,#1164);
#1038=AXIS2_PLACEMENT_3D('',#1519,#1167,#1168);
#1039=AXIS2_PLACEMENT_3D('',#1521,#1170,#1171);
#1040=AXIS2_PLACEMENT_3D('',#1522,#1172,#1173);
#1041=AXIS2_PLACEMENT_3D('',#1524,#1175,#1176);
#1042=AXIS2_PLACEMENT_3D('',#1538,#1179,#1180);
#1043=AXIS2_PLACEMENT_3D('',#1539,#1181,#1182);
#1044=AXIS2_PLACEMENT_3D('',#1547,#1187,#1188);
#1045=AXIS2_PLACEMENT_3D('',#1553,#1192,#1193);
#1046=AXIS2_PLACEMENT_3D('',#1556,#1195,#1196);
#1047=AXIS2_PLACEMENT_3D('',#1590,#1198,#1199);
#1048=AXIS2_PLACEMENT_3D('',#1594,#1202,#1203);
#1049=AXIS2_PLACEMENT_3D('',#1596,#1205,#1206);
#1050=AXIS2_PLACEMENT_3D('',#1597,#1207,#1208);
#1051=AXIS2_PLACEMENT_3D('',#1599,#1210,#1211);
#1052=AXIS2_PLACEMENT_3D('',#1604,#1213,#1214);
#1053=AXIS2_PLACEMENT_3D('',#1614,#1216,#1217);
#1054=AXIS2_PLACEMENT_3D('',#1623,#1222,#1223);
#1055=AXIS2_PLACEMENT_3D('',#1626,#1225,#1226);
#1056=AXIS2_PLACEMENT_3D('',#1628,#1228,#1229);
#1057=AXIS2_PLACEMENT_3D('',#1665,#1233,#1234);
#1058=AXIS2_PLACEMENT_3D('',#1669,#1237,#1238);
#1059=AXIS2_PLACEMENT_3D('',#1671,#1240,#1241);
#1060=AXIS2_PLACEMENT_3D('',#1672,#1242,#1243);
#1061=AXIS2_PLACEMENT_3D('',#1674,#1245,#1246);
#1062=AXIS2_PLACEMENT_3D('',#1683,#1251,#1252);
#1063=AXIS2_PLACEMENT_3D('',#1684,#1253,#1254);
#1064=AXIS2_PLACEMENT_3D('',#1685,#1255,#1256);
#1065=AXIS2_PLACEMENT_3D('',#1686,#1257,#1258);
#1066=AXIS2_PLACEMENT_3D('',#1689,#1260,#1261);
#1067=AXIS2_PLACEMENT_3D('',#1691,#1263,#1264);
#1068=AXIS2_PLACEMENT_3D('',#1700,#1269,#1270);
#1069=AXIS2_PLACEMENT_3D('',#1701,#1271,#1272);
#1070=AXIS2_PLACEMENT_3D('',#1702,#1273,#1274);
#1071=AXIS2_PLACEMENT_3D('',#1703,#1275,#1276);
#1072=AXIS2_PLACEMENT_3D('',#1712,#1281,#1282);
#1073=AXIS2_PLACEMENT_3D('',#1713,#1283,#1284);
#1074=AXIS2_PLACEMENT_3D('',#1714,#1285,#1286);
#1075=AXIS2_PLACEMENT_3D('',#1715,#1287,#1288);
#1076=AXIS2_PLACEMENT_3D('',#1718,#1291,#1292);
#1077=AXIS2_PLACEMENT_3D('',#1726,#1297,#1298);
#1078=AXIS2_PLACEMENT_3D('',#1727,#1299,#1300);
#1079=AXIS2_PLACEMENT_3D('',#1728,#1301,#1302);
#1080=AXIS2_PLACEMENT_3D('',#1729,#1303,#1304);
#1081=AXIS2_PLACEMENT_3D('',#1730,#1305,#1306);
#1082=AXIS2_PLACEMENT_3D('',#1731,#1307,#1308);
#1083=AXIS2_PLACEMENT_3D('',#1733,#1310,#1311);
#1084=AXIS2_PLACEMENT_3D('',#1735,#1313,#1314);
#1085=AXIS2_PLACEMENT_3D('',#1736,#1315,#1316);
#1086=AXIS2_PLACEMENT_3D('',#1737,#1317,#1318);
#1087=AXIS2_PLACEMENT_3D('',#1738,#1319,#1320);
#1088=AXIS2_PLACEMENT_3D('',#1739,#1321,#1322);
#1089=AXIS2_PLACEMENT_3D('',#1745,#1326,#1327);
#1090=AXIS2_PLACEMENT_3D('',#1748,#1330,#1331);
#1091=AXIS2_PLACEMENT_3D('',#1752,#1334,#1335);
#1092=AXIS2_PLACEMENT_3D('',#1756,#1338,#1339);
#1093=AXIS2_PLACEMENT_3D('',#1758,#1341,#1342);
#1094=AXIS2_PLACEMENT_3D('',#1761,#1345,#1346);
#1095=AXIS2_PLACEMENT_3D('',#1762,#1347,#1348);
#1096=AXIS2_PLACEMENT_3D('',#1765,#1351,#1352);
#1097=AXIS2_PLACEMENT_3D('',#1771,#1356,#1357);
#1098=AXIS2_PLACEMENT_3D('',#1772,#1358,#1359);
#1099=AXIS2_PLACEMENT_3D('',#1776,#1362,#1363);
#1100=AXIS2_PLACEMENT_3D('',#1780,#1366,#1367);
#1101=AXIS2_PLACEMENT_3D('',#1782,#1369,#1370);
#1102=AXIS2_PLACEMENT_3D('',#1783,#1371,#1372);
#1103=DIRECTION('axis',(0.,0.,1.));
#1104=DIRECTION('refdir',(1.,0.,0.));
#1105=DIRECTION('center_axis',(8.55651532061872E-15,-1.55661174167656E-34,
1.));
#1106=DIRECTION('ref_axis',(1.,-2.38199280095824E-18,-8.55651532061872E-15));
#1107=DIRECTION('',(-8.55651532061871E-15,-3.38953339815058E-15,-1.));
#1108=DIRECTION('',(8.55651532061872E-15,0.,1.));
#1109=DIRECTION('center_axis',(-8.55651532061872E-15,1.55661174167656E-34,
-1.));
#1110=DIRECTION('ref_axis',(0.,1.,0.));
#1111=DIRECTION('center_axis',(-8.55651532061872E-15,2.16758188129513E-17,
-1.));
#1112=DIRECTION('ref_axis',(1.71512449944288E-15,-1.,-2.16758188129655E-17));
#1113=DIRECTION('',(1.71274250664192E-15,-1.,-2.16758188129655E-17));
#1114=DIRECTION('',(1.,5.11186760477619E-14,-8.55651532061872E-15));
#1115=DIRECTION('',(-1.71512449944288E-15,1.,2.16758188129655E-17));
#1116=DIRECTION('',(1.,5.11186760477619E-14,-8.55651532061872E-15));
#1117=DIRECTION('center_axis',(-8.2522151337181E-16,1.,-3.38953339815059E-15));
#1118=DIRECTION('ref_axis',(-8.55651532061871E-15,-3.38953339815059E-15,
-1.));
#1119=DIRECTION('',(8.55651532061871E-15,3.38953339815059E-15,1.));
#1120=DIRECTION('',(-0.70710678118655,-1.16488302287101E-15,-0.707106781186545));
#1121=DIRECTION('',(-2.03895454606098E-15,-4.47860622849673E-15,-1.));
#1122=DIRECTION('center_axis',(-8.55651532061872E-15,1.55661174167656E-34,
-1.));
#1123=DIRECTION('ref_axis',(-1.,0.,8.55651532061872E-15));
#1124=DIRECTION('',(1.,0.,-8.88178419700113E-15));
#1125=DIRECTION('center_axis',(-8.55651532061872E-15,1.55661174167656E-34,
-1.));
#1126=DIRECTION('ref_axis',(0.,1.,0.));
#1127=DIRECTION('',(-1.71512449944288E-15,1.,2.16758188129655E-17));
#1128=DIRECTION('center_axis',(-0.707106781186545,-1.22810328260566E-15,
0.70710678118655));
#1129=DIRECTION('ref_axis',(-1.71512449944288E-15,1.,2.16758188129655E-17));
#1130=DIRECTION('',(-0.70710678118655,-1.16488302287101E-15,-0.707106781186545));
#1131=DIRECTION('',(-1.71512449944288E-15,1.,2.16758188129655E-17));
#1132=DIRECTION('center_axis',(-1.,-1.71512449944288E-15,2.03895454606099E-15));
#1133=DIRECTION('ref_axis',(2.038954546061E-15,-8.55651532061873E-15,1.));
#1134=DIRECTION('',(-2.03895454606098E-15,-4.47860622849673E-15,-1.));
#1135=DIRECTION('center_axis',(-8.25221513372332E-16,1.,-3.38953339815058E-15));
#1136=DIRECTION('ref_axis',(-8.55651532061871E-15,-3.38953339815058E-15,
-1.));
#1137=DIRECTION('center_axis',(8.55651532061872E-15,-1.55661174167656E-34,
1.));
#1138=DIRECTION('ref_axis',(1.,-2.38199280095824E-18,-8.55651532061872E-15));
#1139=DIRECTION('',(-8.55651532061872E-15,0.,-1.));
#1140=DIRECTION('center_axis',(-1.,-1.55661174167659E-34,-2.64036536425164E-16));
#1141=DIRECTION('ref_axis',(-2.64036536425164E-16,-2.38199280095824E-18,
1.));
#1142=DIRECTION('',(1.,8.13639575845581E-17,2.64036536425164E-16));
#1143=DIRECTION('center_axis',(-1.,-1.55661174167659E-34,-2.64036536425164E-16));
#1144=DIRECTION('ref_axis',(0.,8.88178419700131E-15,1.));
#1145=DIRECTION('',(-1.,0.,-2.64036536425164E-16));
#1146=DIRECTION('center_axis',(-8.13704703744417E-17,1.,5.49058847115656E-15));
#1147=DIRECTION('ref_axis',(1.,8.13704703744403E-17,2.64036536425164E-16));
#1148=DIRECTION('',(-1.,-8.13704703744403E-17,-2.64036536425164E-16));
#1149=DIRECTION('',(-2.64036536425164E-16,-5.32999684873446E-15,1.));
#1150=DIRECTION('',(1.,1.12366655658017E-16,2.64036536425164E-16));
#1151=DIRECTION('',(-0.707106781186551,3.76699520891317E-15,-0.707106781186544));
#1152=DIRECTION('center_axis',(-1.,-1.55661174167659E-34,-2.64036536425164E-16));
#1153=DIRECTION('ref_axis',(-2.64036536425164E-16,0.,1.));
#1154=DIRECTION('',(2.64036536425162E-16,1.,5.39268485095908E-15));
#1155=DIRECTION('center_axis',(1.,1.55661174167659E-34,2.64036536425164E-16));
#1156=DIRECTION('ref_axis',(0.,1.,5.55111512312585E-15));
#1157=DIRECTION('',(0.,0.,1.));
#1158=DIRECTION('center_axis',(0.707106781186544,3.62481767826561E-15,-0.707106781186551));
#1159=DIRECTION('ref_axis',(-2.64036536425162E-16,-1.,-5.39030285815812E-15));
#1160=DIRECTION('',(0.707106781186551,-3.76699520891317E-15,0.707106781186544));
#1161=DIRECTION('',(2.64036536425162E-16,1.,5.39030285815812E-15));
#1162=DIRECTION('',(2.64036536425162E-16,1.,5.39030285815812E-15));
#1163=DIRECTION('center_axis',(-1.,2.64036536425162E-16,6.53491371195757E-17));
#1164=DIRECTION('ref_axis',(2.64036536425162E-16,1.,5.39030285815812E-15));
#1165=DIRECTION('',(-6.53491371195743E-17,5.39268485095908E-15,-1.));
#1166=DIRECTION('',(2.64036536425162E-16,1.,5.39030285815812E-15));
#1167=DIRECTION('center_axis',(2.64036536425164E-16,5.39030285815812E-15,
-1.));
#1168=DIRECTION('ref_axis',(2.64036536425162E-16,1.,5.39030285815812E-15));
#1169=DIRECTION('',(1.,1.12366655658017E-16,2.64036536425164E-16));
#1170=DIRECTION('center_axis',(-8.13639575845596E-17,1.,5.49992589853318E-15));
#1171=DIRECTION('ref_axis',(1.,8.13639575845581E-17,2.64036536425164E-16));
#1172=DIRECTION('center_axis',(-1.,-1.55661174167659E-34,-2.64036536425164E-16));
#1173=DIRECTION('ref_axis',(-2.64036536425164E-16,-2.38199280095824E-18,
1.));
#1174=DIRECTION('',(1.,0.,2.64036536425164E-16));
#1175=DIRECTION('center_axis',(1.,1.55661174167659E-34,2.64036536425164E-16));
#1176=DIRECTION('ref_axis',(-2.64036536425164E-16,-2.38199280095824E-18,
1.));
#1177=DIRECTION('',(-1.,1.62215196899597E-17,-2.64036536425163E-16));
#1178=DIRECTION('',(1.,0.,2.64036536425164E-16));
#1179=DIRECTION('center_axis',(-1.,-1.55661174167659E-34,-2.64036536425164E-16));
#1180=DIRECTION('ref_axis',(0.,-1.,-2.27595720048158E-14));
#1181=DIRECTION('center_axis',(-1.,-2.64036536425164E-16,-2.6403653642517E-16));
#1182=DIRECTION('ref_axis',(2.6403653642517E-16,-1.,-2.30314065722459E-14));
#1183=DIRECTION('',(-2.6403653642517E-16,1.,2.30337885650468E-14));
#1184=DIRECTION('',(-2.64036536425164E-16,-2.30950209050042E-14,1.));
#1185=DIRECTION('',(2.6403653642517E-16,-1.,-2.30314065722459E-14));
#1186=DIRECTION('',(-2.64036536425164E-16,-2.30950209050042E-14,1.));
#1187=DIRECTION('center_axis',(-2.73755186398819E-17,-1.,-2.53904638127115E-14));
#1188=DIRECTION('ref_axis',(1.,-2.73755186398886E-17,2.64036536425163E-16));
#1189=DIRECTION('',(1.,-2.73755186398886E-17,2.64036536425163E-16));
#1190=DIRECTION('',(-0.707106781186551,1.63335569087636E-14,-0.707106781186544));
#1191=DIRECTION('',(-1.,-1.31010750363768E-17,-2.64036536425164E-16));
#1192=DIRECTION('center_axis',(-1.,-1.55661174167659E-34,-2.64036536425164E-16));
#1193=DIRECTION('ref_axis',(-2.64036536425164E-16,0.,1.));
#1194=DIRECTION('',(0.,0.,1.));
#1195=DIRECTION('center_axis',(-1.,-1.55661174167659E-34,-2.64036536425164E-16));
#1196=DIRECTION('ref_axis',(0.,-1.,-2.22044604925036E-14));
#1197=DIRECTION('',(2.6403653642517E-16,-1.,-2.30314065722459E-14));
#1198=DIRECTION('center_axis',(0.707106781186544,1.64723657928868E-14,-0.707106781186551));
#1199=DIRECTION('ref_axis',(-2.6403653642517E-16,1.,2.30314065722459E-14));
#1200=DIRECTION('',(-0.707106781186551,1.63335569087636E-14,-0.707106781186544));
#1201=DIRECTION('',(2.6403653642517E-16,-1.,-2.30314065722459E-14));
#1202=DIRECTION('center_axis',(2.64036536425164E-16,2.30314065722459E-14,
-1.));
#1203=DIRECTION('ref_axis',(-2.6403653642517E-16,1.,2.30314065722459E-14));
#1204=DIRECTION('',(-1.,-1.31010750363768E-17,-2.64036536425164E-16));
#1205=DIRECTION('center_axis',(-1.6221519689953E-17,-1.,-2.5367181233489E-14));
#1206=DIRECTION('ref_axis',(1.,-1.62215196899597E-17,2.64036536425163E-16));
#1207=DIRECTION('center_axis',(1.,1.55661174167659E-34,2.64036536425164E-16));
#1208=DIRECTION('ref_axis',(-2.64036536425164E-16,-2.38199280095824E-18,
1.));
#1209=DIRECTION('',(-1.,0.,-2.64036536425164E-16));
#1210=DIRECTION('center_axis',(-8.55651532061872E-15,1.55661174167656E-34,
-1.));
#1211=DIRECTION('ref_axis',(1.,-2.38199280095824E-18,-8.55651532061872E-15));
#1212=DIRECTION('',(8.55651532061872E-15,-4.19133608962139E-17,1.));
#1213=DIRECTION('center_axis',(-8.55651532061872E-15,1.55661174167656E-34,
-1.));
#1214=DIRECTION('ref_axis',(1.,-3.55271367880058E-14,-8.88178419700144E-15));
#1215=DIRECTION('',(-8.55651532061872E-15,0.,-1.));
#1216=DIRECTION('center_axis',(-2.9757127052643E-14,-1.,8.72008440615562E-17));
#1217=DIRECTION('ref_axis',(-8.55651532061872E-15,-8.72008440613022E-17,
-1.));
#1218=DIRECTION('',(-8.55651532061872E-15,-8.72008440613022E-17,-1.));
#1219=DIRECTION('',(1.,-2.30950209050042E-14,-8.55651532061872E-15));
#1220=DIRECTION('',(8.55651532061869E-15,-1.21982584121788E-15,1.));
#1221=DIRECTION('',(-0.707106781186551,1.62411392727598E-14,-0.707106781186544));
#1222=DIRECTION('center_axis',(-8.55651532061872E-15,1.55661174167656E-34,
-1.));
#1223=DIRECTION('ref_axis',(-1.,0.,8.55651532061872E-15));
#1224=DIRECTION('',(-2.30337885650468E-14,-1.,-3.25268876382208E-16));
#1225=DIRECTION('center_axis',(8.55651532061872E-15,-1.55661174167656E-34,
1.));
#1226=DIRECTION('ref_axis',(0.,-1.,0.));
#1227=DIRECTION('',(1.,0.,-8.88178419700113E-15));
#1228=DIRECTION('center_axis',(-0.707106781186544,1.60556639393006E-14,
0.707106781186552));
#1229=DIRECTION('ref_axis',(-2.30314065722459E-14,-1.,-3.25268876382208E-16));
#1230=DIRECTION('',(0.707106781186551,-1.62411392727598E-14,0.707106781186544));
#1231=DIRECTION('',(-2.30314065722459E-14,-1.,-3.25268876382208E-16));
#1232=DIRECTION('',(-2.30314065722459E-14,-1.,-3.25268876382208E-16));
#1233=DIRECTION('center_axis',(-9.89817456487872E-15,3.25268876382437E-16,
-1.));
#1234=DIRECTION('ref_axis',(2.30314065722459E-14,1.,3.25268876382208E-16));
#1235=DIRECTION('',(-1.,2.30337885650468E-14,9.89817456487873E-15));
#1236=DIRECTION('',(-2.30314065722459E-14,-1.,-3.25268876382208E-16));
#1237=DIRECTION('center_axis',(-1.,2.30314065722459E-14,8.55651532061872E-15));
#1238=DIRECTION('ref_axis',(-8.55651532061892E-15,-8.55651532061872E-15,
-1.));
#1239=DIRECTION('',(8.55651532061869E-15,-1.21982584121788E-15,1.));
#1240=DIRECTION('center_axis',(-2.97022818424805E-14,-1.,-4.19133608959599E-17));
#1241=DIRECTION('ref_axis',(-8.55651532061872E-15,4.19133608962139E-17,
-1.));
#1242=DIRECTION('center_axis',(-8.55651532061872E-15,1.55661174167656E-34,
-1.));
#1243=DIRECTION('ref_axis',(1.,-2.38199280095824E-18,-8.55651532061872E-15));
#1244=DIRECTION('',(8.55651532061872E-15,0.,1.));
#1245=DIRECTION('center_axis',(-1.,0.,0.));
#1246=DIRECTION('ref_axis',(0.,0.,1.));
#1247=DIRECTION('',(-3.10086332534103E-15,0.,-1.));
#1248=DIRECTION('',(-7.38623411771776E-33,1.,-2.38199280095824E-18));
#1249=DIRECTION('',(0.,0.,-1.));
#1250=DIRECTION('',(-7.38623411791213E-33,-1.,-2.38199280102092E-18));
#1251=DIRECTION('center_axis',(1.95019960745274E-26,1.,-1.42260670808296E-26));
#1252=DIRECTION('ref_axis',(0.,1.42260670808296E-26,1.));
#1253=DIRECTION('center_axis',(1.95019960745274E-26,1.,-1.42260670808296E-26));
#1254=DIRECTION('ref_axis',(1.,0.,-8.49116618349915E-15));
#1255=DIRECTION('center_axis',(-1.95019960745274E-26,-1.,1.42260670808296E-26));
#1256=DIRECTION('ref_axis',(1.,0.,-8.49116618349915E-15));
#1257=DIRECTION('center_axis',(0.,1.,0.));
#1258=DIRECTION('ref_axis',(1.,0.,-8.49116618349915E-15));
#1259=DIRECTION('',(2.38199280102092E-18,-1.,-2.02258967213673E-32));
#1260=DIRECTION('center_axis',(1.13537975582997E-25,1.,-8.60004361888946E-26));
#1261=DIRECTION('ref_axis',(1.,0.,-8.49116618349915E-15));
#1262=DIRECTION('',(-7.38623411791213E-33,-1.,-2.38199280102092E-18));
#1263=DIRECTION('center_axis',(-2.22044604925028E-15,0.,-1.));
#1264=DIRECTION('ref_axis',(-1.,0.,2.22044604925028E-15));
#1265=DIRECTION('',(-1.,0.,-1.1563317532875E-15));
#1266=DIRECTION('',(-2.38199280102092E-18,-1.,-2.75437391192272E-33));
#1267=DIRECTION('',(1.,0.,-2.22044604925028E-15));
#1268=DIRECTION('',(-2.38199280095824E-18,1.,-2.75437391185023E-33));
#1269=DIRECTION('center_axis',(-7.22556530943088E-27,1.,4.99153155624498E-27));
#1270=DIRECTION('ref_axis',(0.,-4.99153155624498E-27,1.));
#1271=DIRECTION('center_axis',(-7.22556530943088E-27,1.,4.99153155624498E-27));
#1272=DIRECTION('ref_axis',(-1.,0.,-1.1563317532875E-15));
#1273=DIRECTION('center_axis',(7.22556530943088E-27,-1.,-4.99153155624498E-27));
#1274=DIRECTION('ref_axis',(-1.,0.,-1.1563317532875E-15));
#1275=DIRECTION('center_axis',(-2.22044604925028E-15,0.,-1.));
#1276=DIRECTION('ref_axis',(-1.,0.,2.22044604925028E-15));
#1277=DIRECTION('',(1.,0.,1.1563317532875E-15));
#1278=DIRECTION('',(-2.38199280095824E-18,1.,-2.75437391185023E-33));
#1279=DIRECTION('',(1.,0.,-2.22044604925028E-15));
#1280=DIRECTION('',(-2.38199280102092E-18,-1.,-2.75437391192272E-33));
#1281=DIRECTION('center_axis',(1.38756854163544E-25,1.,-9.48440714281102E-26));
#1282=DIRECTION('ref_axis',(0.,9.48440714281102E-26,1.));
#1283=DIRECTION('center_axis',(-1.38756854163544E-25,-1.,9.48440714281102E-26));
#1284=DIRECTION('ref_axis',(-1.,0.,-1.1563317532875E-15));
#1285=DIRECTION('center_axis',(1.38756854163544E-25,1.,-9.48440714281102E-26));
#1286=DIRECTION('ref_axis',(-1.,0.,-1.1563317532875E-15));
#1287=DIRECTION('center_axis',(0.,1.,0.));
#1288=DIRECTION('ref_axis',(-1.,0.,-1.1563317532875E-15));
#1289=DIRECTION('',(-2.38199280102092E-18,-1.,-2.75437391192272E-33));
#1290=DIRECTION('',(-7.84594303142994E-34,-1.,2.38199280102092E-18));
#1291=DIRECTION('center_axis',(-1.,0.,0.));
#1292=DIRECTION('ref_axis',(0.,0.,1.));
#1293=DIRECTION('',(3.10086332534103E-15,0.,1.));
#1294=DIRECTION('',(-7.38623411791213E-33,-1.,-2.38199280102092E-18));
#1295=DIRECTION('',(0.,0.,-1.));
#1296=DIRECTION('',(-7.38623411771776E-33,1.,-2.38199280095824E-18));
#1297=DIRECTION('center_axis',(1.13537975582997E-25,1.,-8.60004361888946E-26));
#1298=DIRECTION('ref_axis',(0.,8.60004361888946E-26,1.));
#1299=DIRECTION('center_axis',(-1.13537975582997E-25,-1.,8.60004361888946E-26));
#1300=DIRECTION('ref_axis',(1.,0.,-8.49116618349915E-15));
#1301=DIRECTION('center_axis',(0.,-1.,0.));
#1302=DIRECTION('ref_axis',(0.,0.,-1.));
#1303=DIRECTION('center_axis',(0.,1.,0.));
#1304=DIRECTION('ref_axis',(-3.29385673544738E-16,0.,1.));
#1305=DIRECTION('center_axis',(0.,-1.,0.));
#1306=DIRECTION('ref_axis',(-3.29385673544738E-16,0.,1.));
#1307=DIRECTION('center_axis',(-1.,-2.38199280102092E-18,8.55651532061872E-15));
#1308=DIRECTION('ref_axis',(8.55651532061872E-15,0.,1.));
#1309=DIRECTION('',(2.38199280102092E-18,-1.,-2.02258967213673E-32));
#1310=DIRECTION('center_axis',(0.,1.,0.));
#1311=DIRECTION('ref_axis',(-3.29385673544738E-16,0.,1.));
#1312=DIRECTION('',(-7.84594303142994E-34,-1.,2.38199280102092E-18));
#1313=DIRECTION('center_axis',(0.,1.,0.));
#1314=DIRECTION('ref_axis',(-3.29385673544738E-16,0.,1.));
#1315=DIRECTION('center_axis',(0.,1.,0.));
#1316=DIRECTION('ref_axis',(0.,0.,1.));
#1317=DIRECTION('center_axis',(0.,-1.,0.));
#1318=DIRECTION('ref_axis',(-3.29385673544738E-16,0.,1.));
#1319=DIRECTION('center_axis',(2.64036536425164E-16,-2.38199280102092E-18,
-1.));
#1320=DIRECTION('ref_axis',(-1.,0.,-2.64036536425164E-16));
#1321=DIRECTION('center_axis',(0.,1.,0.));
#1322=DIRECTION('ref_axis',(-1.,0.,4.25719507862852E-15));
#1323=DIRECTION('',(-1.,0.,3.10086332534103E-15));
#1324=DIRECTION('',(-4.25719507862852E-15,0.,-1.));
#1325=DIRECTION('',(-1.,0.,3.10086332534103E-15));
#1326=DIRECTION('center_axis',(0.,1.,0.));
#1327=DIRECTION('ref_axis',(1.,0.,-8.49116618349915E-15));
#1328=DIRECTION('',(-7.38623411771776E-33,1.,-2.38199280095824E-18));
#1329=DIRECTION('',(2.38199280095824E-18,1.,-2.0225896720835E-32));
#1330=DIRECTION('center_axis',(3.1662124624606E-15,-2.38199280102092E-18,
1.));
#1331=DIRECTION('ref_axis',(1.,0.,-3.1662124624606E-15));
#1332=DIRECTION('',(1.,0.,-3.10086332534103E-15));
#1333=DIRECTION('',(0.,-1.,0.));
#1334=DIRECTION('center_axis',(0.,-1.,0.));
#1335=DIRECTION('ref_axis',(1.,0.,-4.25719507862852E-15));
#1336=DIRECTION('',(-1.,0.,3.10086332534103E-15));
#1337=DIRECTION('',(-4.25719507862852E-15,0.,-1.));
#1338=DIRECTION('center_axis',(3.1662124624606E-15,2.38199280095824E-18,
1.));
#1339=DIRECTION('ref_axis',(1.,0.,-3.1662124624606E-15));
#1340=DIRECTION('',(0.,1.,0.));
#1341=DIRECTION('center_axis',(0.,1.,0.));
#1342=DIRECTION('ref_axis',(-3.29385673544738E-16,0.,1.));
#1343=DIRECTION('',(2.38199280095824E-18,1.,-2.0225896720835E-32));
#1344=DIRECTION('',(-7.84594303122347E-34,1.,2.38199280095824E-18));
#1345=DIRECTION('center_axis',(-1.,2.38199280095824E-18,8.55651532061872E-15));
#1346=DIRECTION('ref_axis',(8.55651532061872E-15,0.,1.));
#1347=DIRECTION('center_axis',(0.,1.,0.));
#1348=DIRECTION('ref_axis',(-1.,0.,-1.1563317532875E-15));
#1349=DIRECTION('',(-7.84594303122347E-34,1.,2.38199280095824E-18));
#1350=DIRECTION('',(-2.38199280095824E-18,1.,-2.75437391185023E-33));
#1351=DIRECTION('center_axis',(1.,-2.38199280102092E-18,1.09098261616792E-15));
#1352=DIRECTION('ref_axis',(1.09098261616792E-15,0.,-1.));
#1353=DIRECTION('',(-1.1563317532875E-15,0.,1.));
#1354=DIRECTION('',(0.,1.,0.));
#1355=DIRECTION('',(1.1563317532875E-15,0.,-1.));
#1356=DIRECTION('center_axis',(2.64036536425164E-16,2.38199280095824E-18,
-1.));
#1357=DIRECTION('ref_axis',(-1.,0.,-2.64036536425164E-16));
#1358=DIRECTION('center_axis',(0.,1.,0.));
#1359=DIRECTION('ref_axis',(0.,0.,1.));
#1360=DIRECTION('',(-1.1563317532875E-15,0.,1.));
#1361=DIRECTION('',(-1.,0.,0.));
#1362=DIRECTION('center_axis',(0.,-1.,0.));
#1363=DIRECTION('ref_axis',(0.,0.,-1.));
#1364=DIRECTION('',(-1.,0.,0.));
#1365=DIRECTION('',(-1.1563317532875E-15,0.,1.));
#1366=DIRECTION('center_axis',(0.,0.,-1.));
#1367=DIRECTION('ref_axis',(-1.,0.,0.));
#1368=DIRECTION('',(0.,1.,0.));
#1369=DIRECTION('center_axis',(-1.,0.,4.25719507862852E-15));
#1370=DIRECTION('ref_axis',(4.25719507862852E-15,0.,1.));
#1371=DIRECTION('center_axis',(1.,2.38199280095824E-18,1.09098261616792E-15));
#1372=DIRECTION('ref_axis',(1.09098261616792E-15,0.,-1.));
#1373=CARTESIAN_POINT('',(0.,0.,0.));
#1374=CARTESIAN_POINT('Origin',(17.9182261417323,-2.02718283464567,-0.729625984251966));
#1375=CARTESIAN_POINT('',(17.9182261417323,-1.94844267716536,0.245192646409977));
#1376=CARTESIAN_POINT('',(17.9182261417323,-1.94844267716536,-1.73228346456693));
#1377=CARTESIAN_POINT('',(17.9182261417323,-1.94844267716536,-0.751100090382484));
#1378=CARTESIAN_POINT('',(17.9969662992126,-2.02718283464567,0.27303149606299));
#1379=CARTESIAN_POINT('Ctrl Pts',(17.9969662992126,-2.02718283464567,0.273031496062995));
#1380=CARTESIAN_POINT('Ctrl Pts',(17.9969662992126,-2.00362383461875,0.267728858033848));
#1381=CARTESIAN_POINT('Ctrl Pts',(17.9856568915136,-1.98032872671032,0.262426220004702));
#1382=CARTESIAN_POINT('Ctrl Pts',(17.9673310003816,-1.96563826214103,0.257123581975556));
#1383=CARTESIAN_POINT('Ctrl Pts',(17.9535865820325,-1.95462041371406,0.253146603453696));
#1384=CARTESIAN_POINT('Ctrl Pts',(17.9358953917525,-1.94844267716535,0.249169624931837));
#1385=CARTESIAN_POINT('Ctrl Pts',(17.9182261417323,-1.94844267716536,0.245192646409977));
#1386=CARTESIAN_POINT('',(17.9969662992126,-2.02718283464567,-1.73228346456693));
#1387=CARTESIAN_POINT('',(17.9969662992126,-2.02718283464567,0.238768058175047));
#1388=CARTESIAN_POINT('Origin',(17.9182261417323,-2.02718283464567,-1.73228346456693));
#1389=CARTESIAN_POINT('Origin',(17.9182261417323,-1.98781275590552,-1.73228346456693));
#1390=CARTESIAN_POINT('',(17.9182261417323,-1.98781275590552,-1.73228346456693));
#1391=CARTESIAN_POINT('',(17.9182261417323,-1.97915133858269,-1.73228346456693));
#1392=CARTESIAN_POINT('',(17.6575962204724,-1.98781275590552,-1.73228346456692));
#1393=CARTESIAN_POINT('',(18.0963321819358,-1.98781275590551,-1.73228346456693));
#1394=CARTESIAN_POINT('',(17.6575962204724,-1.94844267716536,-1.73228346456692));
#1395=CARTESIAN_POINT('',(17.6575962204724,-1.98781275590552,-1.73228346456692));
#1396=CARTESIAN_POINT('',(18.0963321819358,-1.94844267716535,-1.73228346456693));
#1397=CARTESIAN_POINT('Origin',(17.8426242651041,-1.98781275590552,-0.772574196513001));
#1398=CARTESIAN_POINT('',(17.9182261417323,-1.98781275590551,0.245192646409977));
#1399=CARTESIAN_POINT('',(17.9182261417323,-1.98781275590552,-0.751100090382484));
#1400=CARTESIAN_POINT('',(17.6575962204724,-1.98781275590551,-0.0154372748498629));
#1401=CARTESIAN_POINT('',(17.9182261417323,-1.98781275590551,0.24519264640998));
#1402=CARTESIAN_POINT('',(17.6575962204724,-1.98781275590551,-0.0154372748498629));
#1403=CARTESIAN_POINT('Origin',(17.9182261417323,-1.94844267716536,-1.73228346456693));
#1404=CARTESIAN_POINT('',(17.9575962204724,-2.02718283464567,-1.73228346456693));
#1405=CARTESIAN_POINT('',(17.9575962204724,-2.02718283464567,-1.73228346456693));
#1406=CARTESIAN_POINT('Origin',(17.9182261417323,-2.02718283464567,-1.73228346456693));
#1407=CARTESIAN_POINT('Ctrl Pts',(17.9575962204724,-2.02718283464567,0.273031496062995));
#1408=CARTESIAN_POINT('Ctrl Pts',(17.9575962204724,-2.01540333463221,0.267728858033849));
#1409=CARTESIAN_POINT('Ctrl Pts',(17.9477004887358,-1.99502011521234,0.258449241482843));
#1410=CARTESIAN_POINT('Ctrl Pts',(17.9270607667424,-1.98781275590551,0.249169624931837));
#1411=CARTESIAN_POINT('Ctrl Pts',(17.9182261417323,-1.98781275590551,0.245192646409977));
#1412=CARTESIAN_POINT('Ctrl Pts',(17.9707195800525,-2.02718283464567,0.273031496062995));
#1413=CARTESIAN_POINT('Ctrl Pts',(17.9707195800525,-2.01147683462772,0.267728858033849));
#1414=CARTESIAN_POINT('Ctrl Pts',(17.9575252710703,-1.98429920873456,0.258449241482843));
#1415=CARTESIAN_POINT('Ctrl Pts',(17.9300056417457,-1.97468939632546,0.249169624931837));
#1416=CARTESIAN_POINT('Ctrl Pts',(17.9182261417323,-1.97468939632546,0.245192646409977));
#1417=CARTESIAN_POINT('Ctrl Pts',(17.9838429396325,-2.02718283464567,0.273031496062995));
#1418=CARTESIAN_POINT('Ctrl Pts',(17.9838429396325,-2.00755033462323,0.267728858033848));
#1419=CARTESIAN_POINT('Ctrl Pts',(17.9673500534048,-1.97357830225678,0.258449241482843));
#1420=CARTESIAN_POINT('Ctrl Pts',(17.9329505167491,-1.9615660367454,0.249169624931837));
#1421=CARTESIAN_POINT('Ctrl Pts',(17.9182261417323,-1.96156603674541,0.245192646409977));
#1422=CARTESIAN_POINT('Ctrl Pts',(17.9969662992126,-2.02718283464567,0.273031496062995));
#1423=CARTESIAN_POINT('Ctrl Pts',(17.9969662992126,-2.00362383461875,0.267728858033848));
#1424=CARTESIAN_POINT('Ctrl Pts',(17.9771748357393,-1.962857395779,0.258449241482842));
#1425=CARTESIAN_POINT('Ctrl Pts',(17.9358953917525,-1.94844267716535,0.249169624931837));
#1426=CARTESIAN_POINT('Ctrl Pts',(17.9182261417323,-1.94844267716535,0.245192646409977));
#1427=CARTESIAN_POINT('',(17.9182261417323,-1.98781275590551,0.245192646409977));
#1428=CARTESIAN_POINT('',(17.9575962204724,-2.02718283464567,0.273031496062995));
#1429=CARTESIAN_POINT('Ctrl Pts',(17.9575962204724,-2.02718283464567,0.273031496062995));
#1430=CARTESIAN_POINT('Ctrl Pts',(17.9575962204724,-2.01540333463221,0.267728858033849));
#1431=CARTESIAN_POINT('Ctrl Pts',(17.9519415166229,-2.003755780678,0.262426220004702));
#1432=CARTESIAN_POINT('Ctrl Pts',(17.9427785710569,-1.99641054839335,0.257123581975556));
#1433=CARTESIAN_POINT('Ctrl Pts',(17.9359063618824,-1.99090162417987,0.253146603453696));
#1434=CARTESIAN_POINT('Ctrl Pts',(17.9270607667424,-1.98781275590551,0.249169624931837));
#1435=CARTESIAN_POINT('Ctrl Pts',(17.9182261417323,-1.98781275590551,0.245192646409977));
#1436=CARTESIAN_POINT('Ctrl Pts',(17.9969662992126,-2.02718283464567,0.273031496062995));
#1437=CARTESIAN_POINT('Ctrl Pts',(17.9838429396325,-2.02718283464567,0.273031496062995));
#1438=CARTESIAN_POINT('Ctrl Pts',(17.9707195800525,-2.02718283464567,0.273031496062995));
#1439=CARTESIAN_POINT('Ctrl Pts',(17.9575962204724,-2.02718283464567,0.273031496062995));
#1440=CARTESIAN_POINT('Origin',(17.9182261417323,-1.98781275590551,0.245192646409977));
#1441=CARTESIAN_POINT('',(17.6575962204724,-1.94844267716536,-0.0154372748498629));
#1442=CARTESIAN_POINT('',(17.9182261417323,-1.94844267716535,0.24519264640998));
#1443=CARTESIAN_POINT('',(17.6575962204724,-1.98781275590551,-0.0154372748498629));
#1444=CARTESIAN_POINT('Origin',(17.6575962204724,-1.98781275590551,-0.0154372748498629));
#1445=CARTESIAN_POINT('',(17.6575962204724,-1.94844267716535,-0.0154372748498629));
#1446=CARTESIAN_POINT('Origin',(17.8426242651041,-1.94844267716536,-0.772574196513001));
#1447=CARTESIAN_POINT('Origin',(17.9182261417323,-2.02718283464567,-0.729625984251966));
#1448=CARTESIAN_POINT('',(17.9575962204724,-2.02718283464567,0.238768058175048));
#1449=CARTESIAN_POINT('Origin',(14.9870078740157,-2.02718283464567,0.273031496062993));
#1450=CARTESIAN_POINT('',(12.0557896062992,-1.94844267716536,0.273031496062993));
#1451=CARTESIAN_POINT('',(17.8903872920793,-1.94844267716536,0.273031496062994));
#1452=CARTESIAN_POINT('',(14.9651818823385,-1.94844267716536,0.273031496062993));
#1453=CARTESIAN_POINT('',(12.0557896062992,-2.02718283464567,0.351771653543308));
#1454=CARTESIAN_POINT('Origin',(12.0557896062992,-2.02718283464567,0.273031496062992));
#1455=CARTESIAN_POINT('',(17.9182261417323,-2.02718283464567,0.351771653543309));
#1456=CARTESIAN_POINT('',(16.9943586093561,-2.02718283464567,0.351771653543308));
#1457=CARTESIAN_POINT('Ctrl Pts',(17.8903872920793,-1.94844267716536,0.273031496062994));
#1458=CARTESIAN_POINT('Ctrl Pts',(17.8956899301084,-1.94844267716536,0.296590496089914));
#1459=CARTESIAN_POINT('Ctrl Pts',(17.9009925681376,-1.95975208486436,0.319885603998337));
#1460=CARTESIAN_POINT('Ctrl Pts',(17.9062952061667,-1.97807797599638,0.33457606856763));
#1461=CARTESIAN_POINT('Ctrl Pts',(17.9102721846886,-1.9918223943454,0.345593916994599));
#1462=CARTESIAN_POINT('Ctrl Pts',(17.9142491632104,-2.00951358462548,0.351771653543309));
#1463=CARTESIAN_POINT('Ctrl Pts',(17.9182261417323,-2.02718283464567,0.351771653543309));
#1464=CARTESIAN_POINT('Origin',(14.9433558906612,-1.98781275590551,0.191013726337831));
#1465=CARTESIAN_POINT('',(17.8903872920793,-1.98781275590551,0.273031496062994));
#1466=CARTESIAN_POINT('',(12.0557896062992,-1.98781275590551,0.273031496062993));
#1467=CARTESIAN_POINT('',(14.9651818823385,-1.98781275590551,0.273031496062993));
#1468=CARTESIAN_POINT('',(12.0557896062992,-1.98781275590551,0.0124015748031501));
#1469=CARTESIAN_POINT('',(12.0557896062992,-1.98781275590551,0.45113753626651));
#1470=CARTESIAN_POINT('',(17.6297573708194,-1.98781275590551,0.0124015748031515));
#1471=CARTESIAN_POINT('',(12.0557896062992,-1.98781275590551,0.0124015748031501));
#1472=CARTESIAN_POINT('',(17.8903872920793,-1.98781275590551,0.273031496062994));
#1473=CARTESIAN_POINT('Origin',(12.0557896062992,-1.98781275590551,0.273031496062992));
#1474=CARTESIAN_POINT('',(12.0557896062992,-1.97915133858268,0.273031496062992));
#1475=CARTESIAN_POINT('',(12.0557896062992,-2.02718283464567,0.31240157480315));
#1476=CARTESIAN_POINT('Origin',(12.0557896062992,-2.02718283464567,0.273031496062992));
#1477=CARTESIAN_POINT('',(12.0557896062992,-2.02718283464567,0.31240157480315));
#1478=CARTESIAN_POINT('Origin',(17.6297573708194,-1.98781275590551,0.0124015748031515));
#1479=CARTESIAN_POINT('',(17.6297573708194,-1.94844267716535,0.0124015748031515));
#1480=CARTESIAN_POINT('',(17.8903872920793,-1.94844267716536,0.273031496062994));
#1481=CARTESIAN_POINT('',(17.8903872920793,-1.98781275590551,0.273031496062994));
#1482=CARTESIAN_POINT('',(17.6297573708194,-1.98781275590551,0.0124015748031515));
#1483=CARTESIAN_POINT('Ctrl Pts',(17.9182261417323,-2.02718283464567,0.351771653543309));
#1484=CARTESIAN_POINT('Ctrl Pts',(17.9142491632104,-2.00951358462548,0.351771653543309));
#1485=CARTESIAN_POINT('Ctrl Pts',(17.9049695466594,-1.96823414063862,0.337356934929654));
#1486=CARTESIAN_POINT('Ctrl Pts',(17.8956899301084,-1.94844267716536,0.296590496089914));
#1487=CARTESIAN_POINT('Ctrl Pts',(17.8903872920793,-1.94844267716536,0.273031496062994));
#1488=CARTESIAN_POINT('Ctrl Pts',(17.9182261417323,-2.02718283464567,0.338648293963256));
#1489=CARTESIAN_POINT('Ctrl Pts',(17.9142491632104,-2.01245845962885,0.338648293963256));
#1490=CARTESIAN_POINT('Ctrl Pts',(17.9049695466594,-1.97805892297313,0.326636028451877));
#1491=CARTESIAN_POINT('Ctrl Pts',(17.8956899301084,-1.96156603674541,0.292663996085427));
#1492=CARTESIAN_POINT('Ctrl Pts',(17.8903872920793,-1.96156603674541,0.273031496062994));
#1493=CARTESIAN_POINT('Ctrl Pts',(17.9182261417323,-2.02718283464567,0.325524934383204));
#1494=CARTESIAN_POINT('Ctrl Pts',(17.9142491632104,-2.01540333463221,0.325524934383204));
#1495=CARTESIAN_POINT('Ctrl Pts',(17.9049695466594,-1.98788370530764,0.3159151219741));
#1496=CARTESIAN_POINT('Ctrl Pts',(17.8956899301084,-1.97468939632546,0.28873749608094));
#1497=CARTESIAN_POINT('Ctrl Pts',(17.8903872920793,-1.97468939632546,0.273031496062994));
#1498=CARTESIAN_POINT('Ctrl Pts',(17.9182261417323,-2.02718283464567,0.312401574803151));
#1499=CARTESIAN_POINT('Ctrl Pts',(17.9142491632104,-2.01834820963558,0.312401574803151));
#1500=CARTESIAN_POINT('Ctrl Pts',(17.9049695466594,-1.99770848764215,0.305194215496324));
#1501=CARTESIAN_POINT('Ctrl Pts',(17.8956899301084,-1.98781275590551,0.284810996076454));
#1502=CARTESIAN_POINT('Ctrl Pts',(17.8903872920793,-1.98781275590551,0.273031496062994));
#1503=CARTESIAN_POINT('',(17.9182261417323,-2.02718283464567,0.312401574803152));
#1504=CARTESIAN_POINT('Ctrl Pts',(17.9182261417323,-2.02718283464567,0.312401574803151));
#1505=CARTESIAN_POINT('Ctrl Pts',(17.9182261417323,-2.02718283464567,0.325524934383204));
#1506=CARTESIAN_POINT('Ctrl Pts',(17.9182261417323,-2.02718283464567,0.338648293963256));
#1507=CARTESIAN_POINT('Ctrl Pts',(17.9182261417323,-2.02718283464567,0.351771653543309));
#1508=CARTESIAN_POINT('Ctrl Pts',(17.9182261417323,-2.02718283464567,0.312401574803151));
#1509=CARTESIAN_POINT('Ctrl Pts',(17.9142491632104,-2.01834820963558,0.312401574803151));
#1510=CARTESIAN_POINT('Ctrl Pts',(17.9102721846886,-2.00950261449553,0.309312706528797));
#1511=CARTESIAN_POINT('Ctrl Pts',(17.9062952061667,-2.00263040532103,0.303803782315312));
#1512=CARTESIAN_POINT('Ctrl Pts',(17.9009925681376,-1.99346745975502,0.296458550030665));
#1513=CARTESIAN_POINT('Ctrl Pts',(17.8956899301084,-1.98781275590551,0.284810996076454));
#1514=CARTESIAN_POINT('Ctrl Pts',(17.8903872920793,-1.98781275590551,0.273031496062994));
#1515=CARTESIAN_POINT('Origin',(12.0557896062992,-1.98781275590551,0.273031496062992));
#1516=CARTESIAN_POINT('',(12.0557896062992,-1.94844267716536,0.0124015748031501));
#1517=CARTESIAN_POINT('',(12.0557896062992,-1.94844267716536,0.273031496062992));
#1518=CARTESIAN_POINT('',(12.0557896062992,-1.98781275590551,0.0124015748031501));
#1519=CARTESIAN_POINT('Origin',(12.0557896062992,-1.98781275590551,0.0124015748031501));
#1520=CARTESIAN_POINT('',(12.0557896062992,-1.94844267716536,0.0124015748031501));
#1521=CARTESIAN_POINT('Origin',(14.9433558906612,-1.94844267716536,0.19101372633783));
#1522=CARTESIAN_POINT('Origin',(14.9870078740157,-2.02718283464567,0.273031496062993));
#1523=CARTESIAN_POINT('',(16.9943586093561,-2.02718283464567,0.312401574803151));
#1524=CARTESIAN_POINT('Origin',(14.9870078740157,-9.86970251968504,0.273031496062993));
#1525=CARTESIAN_POINT('',(17.8903872920793,-9.94844267716535,0.273031496062991));
#1526=CARTESIAN_POINT('',(12.0557896062992,-9.94844267716535,0.273031496062989));
#1527=CARTESIAN_POINT('',(14.9651818823385,-9.94844267716535,0.273031496062991));
#1528=CARTESIAN_POINT('',(17.9182261417323,-9.86970251968504,0.351771653543309));
#1529=CARTESIAN_POINT('Ctrl Pts',(17.9182261417323,-9.86970251968504,0.351771653543309));
#1530=CARTESIAN_POINT('Ctrl Pts',(17.9129235037031,-9.89326151971196,0.351771653543309));
#1531=CARTESIAN_POINT('Ctrl Pts',(17.907620865674,-9.91655659031943,0.340462214756518));
#1532=CARTESIAN_POINT('Ctrl Pts',(17.9023182276448,-9.93124706021743,0.32213632806561));
#1533=CARTESIAN_POINT('Ctrl Pts',(17.898341249123,-9.94226491264093,0.308391913047429));
#1534=CARTESIAN_POINT('Ctrl Pts',(17.8943642706011,-9.94844267716535,0.290700746083183));
#1535=CARTESIAN_POINT('Ctrl Pts',(17.8903872920793,-9.94844267716535,0.273031496062993));
#1536=CARTESIAN_POINT('',(12.0557896062992,-9.86970251968504,0.351771653543308));
#1537=CARTESIAN_POINT('',(14.0631403416396,-9.86970251968504,0.351771653543308));
#1538=CARTESIAN_POINT('Origin',(12.0557896062992,-9.86970251968504,0.273031496062992));
#1539=CARTESIAN_POINT('Origin',(12.0557896062992,-9.9090725984252,0.273031496062991));
#1540=CARTESIAN_POINT('',(12.0557896062992,-9.9090725984252,0.273031496062991));
#1541=CARTESIAN_POINT('',(12.0557896062992,-9.91773401574803,0.273031496062991));
#1542=CARTESIAN_POINT('',(12.0557896062992,-9.90907259842519,0.0124015748031487));
#1543=CARTESIAN_POINT('',(12.0557896062992,-9.9090725984252,0.45113753626651));
#1544=CARTESIAN_POINT('',(12.0557896062992,-9.94844267716535,0.0124015748031473));
#1545=CARTESIAN_POINT('',(12.0557896062992,-9.90907259842519,0.0124015748031487));
#1546=CARTESIAN_POINT('',(12.0557896062992,-9.94844267716536,0.451137536266508));
#1547=CARTESIAN_POINT('Origin',(14.9433558906612,-9.90907259842519,0.19101372633783));
#1548=CARTESIAN_POINT('',(17.8903872920793,-9.9090725984252,0.273031496062992));
#1549=CARTESIAN_POINT('',(14.9651818823385,-9.9090725984252,0.273031496062992));
#1550=CARTESIAN_POINT('',(17.6297573708194,-9.90907259842519,0.0124015748031501));
#1551=CARTESIAN_POINT('',(17.8903872920793,-9.9090725984252,0.273031496062992));
#1552=CARTESIAN_POINT('',(17.6297573708194,-9.90907259842519,0.0124015748031501));
#1553=CARTESIAN_POINT('Origin',(12.0557896062992,-9.94844267716535,0.27303149606299));
#1554=CARTESIAN_POINT('',(12.0557896062992,-9.86970251968504,0.31240157480315));
#1555=CARTESIAN_POINT('',(12.0557896062992,-9.86970251968504,0.31240157480315));
#1556=CARTESIAN_POINT('Origin',(12.0557896062992,-9.86970251968504,0.273031496062992));
#1557=CARTESIAN_POINT('Ctrl Pts',(17.8903872920793,-9.94844267716535,0.273031496062992));
#1558=CARTESIAN_POINT('Ctrl Pts',(17.8943642706011,-9.94844267716535,0.290700746083182));
#1559=CARTESIAN_POINT('Ctrl Pts',(17.9036438871521,-9.93402789327503,0.331980135666426));
#1560=CARTESIAN_POINT('Ctrl Pts',(17.9129235037031,-9.89326151971196,0.351771653543309));
#1561=CARTESIAN_POINT('Ctrl Pts',(17.9182261417323,-9.86970251968504,0.351771653543309));
#1562=CARTESIAN_POINT('Ctrl Pts',(17.8903872920793,-9.9353193175853,0.273031496062992));
#1563=CARTESIAN_POINT('Ctrl Pts',(17.8943642706011,-9.9353193175853,0.287755871079817));
#1564=CARTESIAN_POINT('Ctrl Pts',(17.9036438871521,-9.92330699767669,0.322155362399187));
#1565=CARTESIAN_POINT('Ctrl Pts',(17.9129235037031,-9.88933501970747,0.338648293963256));
#1566=CARTESIAN_POINT('Ctrl Pts',(17.9182261417323,-9.86970251968504,0.338648293963256));
#1567=CARTESIAN_POINT('Ctrl Pts',(17.8903872920793,-9.92219595800525,0.273031496062993));
#1568=CARTESIAN_POINT('Ctrl Pts',(17.8943642706011,-9.92219595800525,0.284810996076453));
#1569=CARTESIAN_POINT('Ctrl Pts',(17.9036438871521,-9.91258610207836,0.312330589131948));
#1570=CARTESIAN_POINT('Ctrl Pts',(17.9129235037031,-9.88540851970299,0.325524934383204));
#1571=CARTESIAN_POINT('Ctrl Pts',(17.9182261417323,-9.86970251968504,0.325524934383204));
#1572=CARTESIAN_POINT('Ctrl Pts',(17.8903872920793,-9.9090725984252,0.273031496062993));
#1573=CARTESIAN_POINT('Ctrl Pts',(17.8943642706011,-9.9090725984252,0.281866121073088));
#1574=CARTESIAN_POINT('Ctrl Pts',(17.9036438871521,-9.90186520648003,0.30250581586471));
#1575=CARTESIAN_POINT('Ctrl Pts',(17.9129235037031,-9.8814820196985,0.312401574803151));
#1576=CARTESIAN_POINT('Ctrl Pts',(17.9182261417323,-9.86970251968504,0.312401574803151));
#1577=CARTESIAN_POINT('',(17.8903872920793,-9.9090725984252,0.273031496062992));
#1578=CARTESIAN_POINT('',(17.9182261417323,-9.86970251968504,0.312401574803152));
#1579=CARTESIAN_POINT('Ctrl Pts',(17.9182261417323,-9.86970251968504,0.312401574803151));
#1580=CARTESIAN_POINT('Ctrl Pts',(17.9129235037031,-9.8814820196985,0.312401574803151));
#1581=CARTESIAN_POINT('Ctrl Pts',(17.907620865674,-9.89312955500223,0.306746855409756));
#1582=CARTESIAN_POINT('Ctrl Pts',(17.9023182276448,-9.90047478995123,0.297583912064302));
#1583=CARTESIAN_POINT('Ctrl Pts',(17.898341249123,-9.90598371616298,0.290711704555212));
#1584=CARTESIAN_POINT('Ctrl Pts',(17.8943642706011,-9.9090725984252,0.281866121073088));
#1585=CARTESIAN_POINT('Ctrl Pts',(17.8903872920793,-9.9090725984252,0.273031496062993));
#1586=CARTESIAN_POINT('Ctrl Pts',(17.9182261417323,-9.86970251968504,0.351771653543309));
#1587=CARTESIAN_POINT('Ctrl Pts',(17.9182261417323,-9.86970251968504,0.338648293963256));
#1588=CARTESIAN_POINT('Ctrl Pts',(17.9182261417323,-9.86970251968504,0.325524934383204));
#1589=CARTESIAN_POINT('Ctrl Pts',(17.9182261417323,-9.86970251968504,0.312401574803151));
#1590=CARTESIAN_POINT('Origin',(17.8903872920793,-9.9090725984252,0.273031496062992));
#1591=CARTESIAN_POINT('',(17.6297573708194,-9.94844267716535,0.0124015748031487));
#1592=CARTESIAN_POINT('',(17.8903872920793,-9.94844267716535,0.273031496062991));
#1593=CARTESIAN_POINT('',(17.6297573708194,-9.90907259842519,0.0124015748031501));
#1594=CARTESIAN_POINT('Origin',(17.6297573708194,-9.90907259842519,0.0124015748031501));
#1595=CARTESIAN_POINT('',(17.6297573708194,-9.94844267716535,0.0124015748031487));
#1596=CARTESIAN_POINT('Origin',(14.9433558906612,-9.94844267716535,0.191013726337827));
#1597=CARTESIAN_POINT('Origin',(14.9870078740157,-9.86970251968504,0.273031496062993));
#1598=CARTESIAN_POINT('',(14.0631403416396,-9.86970251968504,0.31240157480315));
#1599=CARTESIAN_POINT('Origin',(17.9182261417323,-9.86970251968504,-0.729625984251966));
#1600=CARTESIAN_POINT('',(17.9182261417323,-9.94844267716535,-1.73228346456693));
#1601=CARTESIAN_POINT('',(17.9182261417323,-9.94844267716536,0.24519264640998));
#1602=CARTESIAN_POINT('',(17.9182261417323,-9.94844267716536,-0.751100090382484));
#1603=CARTESIAN_POINT('',(17.9969662992126,-9.86970251968504,-1.73228346456693));
#1604=CARTESIAN_POINT('Origin',(17.9182261417323,-9.86970251968504,-1.73228346456693));
#1605=CARTESIAN_POINT('',(17.9969662992126,-9.86970251968504,0.273031496062995));
#1606=CARTESIAN_POINT('',(17.9969662992126,-9.86970251968504,1.24142553849001));
#1607=CARTESIAN_POINT('Ctrl Pts',(17.9182261417323,-9.94844267716535,0.245192646409979));
#1608=CARTESIAN_POINT('Ctrl Pts',(17.9417851417592,-9.94844267716535,0.250495284439125));
#1609=CARTESIAN_POINT('Ctrl Pts',(17.9650802123667,-9.93713323837856,0.255797922468271));
#1610=CARTESIAN_POINT('Ctrl Pts',(17.9797706822647,-9.91880735168766,0.261100560497417));
#1611=CARTESIAN_POINT('Ctrl Pts',(17.9907885346882,-9.90506293666948,0.265077539019276));
#1612=CARTESIAN_POINT('Ctrl Pts',(17.9969662992126,-9.88737176970523,0.269054517541135));
#1613=CARTESIAN_POINT('Ctrl Pts',(17.9969662992126,-9.86970251968504,0.273031496062994));
#1614=CARTESIAN_POINT('Origin',(17.8426242651041,-9.9090725984252,-0.772574196513002));
#1615=CARTESIAN_POINT('',(17.9182261417323,-9.9090725984252,0.24519264640998));
#1616=CARTESIAN_POINT('',(17.9182261417323,-9.9090725984252,-1.73228346456693));
#1617=CARTESIAN_POINT('',(17.9182261417323,-9.9090725984252,-0.751100090382484));
#1618=CARTESIAN_POINT('',(17.6575962204724,-9.90907259842519,-1.73228346456692));
#1619=CARTESIAN_POINT('',(18.0963321819358,-9.9090725984252,-1.73228346456693));
#1620=CARTESIAN_POINT('',(17.6575962204724,-9.90907259842519,-0.0154372748498625));
#1621=CARTESIAN_POINT('',(17.6575962204724,-9.90907259842519,-1.73228346456692));
#1622=CARTESIAN_POINT('',(17.9182261417323,-9.90907259842519,0.24519264640998));
#1623=CARTESIAN_POINT('Origin',(17.9182261417323,-9.9090725984252,-1.73228346456693));
#1624=CARTESIAN_POINT('',(17.9182261417323,-9.91773401574803,-1.73228346456693));
#1625=CARTESIAN_POINT('',(17.9575962204724,-9.86970251968504,-1.73228346456693));
#1626=CARTESIAN_POINT('Origin',(17.9182261417323,-9.86970251968504,-1.73228346456693));
#1627=CARTESIAN_POINT('',(17.9575962204724,-9.86970251968504,-1.73228346456693));
#1628=CARTESIAN_POINT('Origin',(17.6575962204724,-9.90907259842519,-0.0154372748498625));
#1629=CARTESIAN_POINT('',(17.6575962204724,-9.94844267716535,-0.0154372748498625));
#1630=CARTESIAN_POINT('',(17.9182261417323,-9.94844267716535,0.24519264640998));
#1631=CARTESIAN_POINT('',(17.9182261417323,-9.9090725984252,0.24519264640998));
#1632=CARTESIAN_POINT('',(17.6575962204724,-9.90907259842519,-0.0154372748498625));
#1633=CARTESIAN_POINT('Ctrl Pts',(17.9182261417323,-9.9090725984252,0.245192646409979));
#1634=CARTESIAN_POINT('Ctrl Pts',(17.9300056417457,-9.9090725984252,0.250495284439125));
#1635=CARTESIAN_POINT('Ctrl Pts',(17.9503888285273,-9.89917683948675,0.25977490099013));
#1636=CARTESIAN_POINT('Ctrl Pts',(17.9575962204724,-9.87853714469513,0.269054517541136));
#1637=CARTESIAN_POINT('Ctrl Pts',(17.9575962204724,-9.86970251968504,0.273031496062995));
#1638=CARTESIAN_POINT('Ctrl Pts',(17.9182261417323,-9.92219595800525,0.245192646409979));
#1639=CARTESIAN_POINT('Ctrl Pts',(17.9339321417502,-9.92219595800525,0.250495284439125));
#1640=CARTESIAN_POINT('Ctrl Pts',(17.9611097241256,-9.909001612754,0.25977490099013));
#1641=CARTESIAN_POINT('Ctrl Pts',(17.9707195800525,-9.8814820196985,0.269054517541136));
#1642=CARTESIAN_POINT('Ctrl Pts',(17.9707195800525,-9.86970251968504,0.273031496062995));
#1643=CARTESIAN_POINT('Ctrl Pts',(17.9182261417323,-9.93531931758531,0.245192646409979));
#1644=CARTESIAN_POINT('Ctrl Pts',(17.9378586417547,-9.93531931758531,0.250495284439125));
#1645=CARTESIAN_POINT('Ctrl Pts',(17.9718306197239,-9.91882638602124,0.25977490099013));
#1646=CARTESIAN_POINT('Ctrl Pts',(17.9838429396325,-9.88442689470186,0.269054517541136));
#1647=CARTESIAN_POINT('Ctrl Pts',(17.9838429396325,-9.86970251968504,0.273031496062995));
#1648=CARTESIAN_POINT('Ctrl Pts',(17.9182261417323,-9.94844267716536,0.245192646409979));
#1649=CARTESIAN_POINT('Ctrl Pts',(17.9417851417592,-9.94844267716536,0.250495284439125));
#1650=CARTESIAN_POINT('Ctrl Pts',(17.9825515153223,-9.92865115928848,0.25977490099013));
#1651=CARTESIAN_POINT('Ctrl Pts',(17.9969662992126,-9.88737176970523,0.269054517541135));
#1652=CARTESIAN_POINT('Ctrl Pts',(17.9969662992126,-9.86970251968504,0.273031496062995));
#1653=CARTESIAN_POINT('',(17.9575962204724,-9.86970251968504,0.273031496062995));
#1654=CARTESIAN_POINT('Ctrl Pts',(17.9575962204724,-9.86970251968504,0.273031496062995));
#1655=CARTESIAN_POINT('Ctrl Pts',(17.9707195800525,-9.86970251968504,0.273031496062995));
#1656=CARTESIAN_POINT('Ctrl Pts',(17.9838429396325,-9.86970251968504,0.273031496062995));
#1657=CARTESIAN_POINT('Ctrl Pts',(17.9969662992126,-9.86970251968504,0.273031496062995));
#1658=CARTESIAN_POINT('Ctrl Pts',(17.9575962204724,-9.86970251968504,0.273031496062995));
#1659=CARTESIAN_POINT('Ctrl Pts',(17.9575962204724,-9.87853714469513,0.269054517541136));
#1660=CARTESIAN_POINT('Ctrl Pts',(17.9545073382102,-9.88738272817726,0.265077539019276));
#1661=CARTESIAN_POINT('Ctrl Pts',(17.9489984119985,-9.89425493568635,0.261100560497417));
#1662=CARTESIAN_POINT('Ctrl Pts',(17.9416531770495,-9.9034178790318,0.255797922468271));
#1663=CARTESIAN_POINT('Ctrl Pts',(17.9300056417457,-9.9090725984252,0.250495284439126));
#1664=CARTESIAN_POINT('Ctrl Pts',(17.9182261417323,-9.9090725984252,0.24519264640998));
#1665=CARTESIAN_POINT('Origin',(17.9182261417323,-9.9090725984252,-1.73228346456693));
#1666=CARTESIAN_POINT('',(17.6575962204724,-9.94844267716535,-1.73228346456692));
#1667=CARTESIAN_POINT('',(17.9182261417323,-9.94844267716535,-1.73228346456693));
#1668=CARTESIAN_POINT('',(17.6575962204724,-9.90907259842519,-1.73228346456692));
#1669=CARTESIAN_POINT('Origin',(17.6575962204724,-9.90907259842519,-1.73228346456692));
#1670=CARTESIAN_POINT('',(17.6575962204724,-9.94844267716535,-1.73228346456692));
#1671=CARTESIAN_POINT('Origin',(17.8426242651041,-9.94844267716535,-0.772574196513002));
#1672=CARTESIAN_POINT('Origin',(17.9182261417323,-9.86970251968504,-0.729625984251966));
#1673=CARTESIAN_POINT('',(17.9575962204724,-9.86970251968504,1.24142553849001));
#1674=CARTESIAN_POINT('Origin',(17.9182261417323,-2.02718283464567,-1.77165354330708));
#1675=CARTESIAN_POINT('',(17.9182261417323,-1.94844267716535,-1.77165354330708));
#1676=CARTESIAN_POINT('',(17.9182261417323,-1.94844267716535,-1.81102362204724));
#1677=CARTESIAN_POINT('',(17.9182261417323,-1.94844267716535,-1.78031496062992));
#1678=CARTESIAN_POINT('',(17.9182261417323,-2.02718283464567,-1.77165354330708));
#1679=CARTESIAN_POINT('',(17.9182261417323,-5.94844267716535,-1.77165354330708));
#1680=CARTESIAN_POINT('',(17.9182261417323,-2.02718283464567,-1.81102362204724));
#1681=CARTESIAN_POINT('',(17.9182261417323,-2.02718283464567,-1.77165354330708));
#1682=CARTESIAN_POINT('',(17.9182261417323,-5.94844267716535,-1.81102362204724));
#1683=CARTESIAN_POINT('Origin',(17.9557235207988,-2.02718283464567,-1.7697808436335));
#1684=CARTESIAN_POINT('Origin',(17.9182261417323,-2.02718283464567,-1.73228346456693));
#1685=CARTESIAN_POINT('Origin',(17.9182261417323,-2.02718283464567,-1.73228346456693));
#1686=CARTESIAN_POINT('Origin',(17.9182261417323,-5.94844267716535,-1.73228346456693));
#1687=CARTESIAN_POINT('',(17.9969662992126,-5.94844267716535,-1.73228346456693));
#1688=CARTESIAN_POINT('',(17.9182261417323,-9.86970251968504,-1.81102362204724));
#1689=CARTESIAN_POINT('Origin',(17.9182261417323,-9.86970251968504,-1.73228346456693));
#1690=CARTESIAN_POINT('',(17.9182261417323,-5.94844267716535,-1.81102362204724));
#1691=CARTESIAN_POINT('Origin',(11.9770494488189,-2.02718283464567,0.273031496062992));
#1692=CARTESIAN_POINT('',(12.0164195275591,-1.94844267716535,0.273031496062992));
#1693=CARTESIAN_POINT('',(11.9770494488189,-1.94844267716535,0.273031496062992));
#1694=CARTESIAN_POINT('',(12.0077581102362,-1.94844267716535,0.273031496062992));
#1695=CARTESIAN_POINT('',(11.9770494488189,-2.02718283464567,0.273031496062992));
#1696=CARTESIAN_POINT('',(11.9770494488189,-5.94844267716535,0.273031496062992));
#1697=CARTESIAN_POINT('',(12.0164195275591,-2.02718283464567,0.273031496062992));
#1698=CARTESIAN_POINT('',(11.9770494488189,-2.02718283464567,0.273031496062992));
#1699=CARTESIAN_POINT('',(12.0164195275591,-5.94844267716535,0.273031496062992));
#1700=CARTESIAN_POINT('Origin',(12.0182922272326,-2.02718283464567,0.310528875129561));
#1701=CARTESIAN_POINT('Origin',(12.0557896062992,-2.02718283464567,0.273031496062992));
#1702=CARTESIAN_POINT('Origin',(12.0557896062992,-2.02718283464567,0.273031496062992));
#1703=CARTESIAN_POINT('Origin',(12.0164195275591,-9.86970251968504,0.273031496062992));
#1704=CARTESIAN_POINT('',(11.9770494488189,-9.94844267716535,0.273031496062992));
#1705=CARTESIAN_POINT('',(12.0164195275591,-9.94844267716535,0.273031496062992));
#1706=CARTESIAN_POINT('',(12.0077581102362,-9.94844267716535,0.273031496062992));
#1707=CARTESIAN_POINT('',(12.0164195275591,-9.86970251968504,0.273031496062992));
#1708=CARTESIAN_POINT('',(12.0164195275591,-5.94844267716535,0.273031496062992));
#1709=CARTESIAN_POINT('',(11.9770494488189,-9.86970251968504,0.273031496062992));
#1710=CARTESIAN_POINT('',(11.9770494488189,-9.86970251968504,0.273031496062992));
#1711=CARTESIAN_POINT('',(11.9770494488189,-5.94844267716535,0.273031496062992));
#1712=CARTESIAN_POINT('Origin',(12.0182922272326,-9.86970251968504,0.310528875129561));
#1713=CARTESIAN_POINT('Origin',(12.0557896062992,-9.86970251968504,0.273031496062992));
#1714=CARTESIAN_POINT('Origin',(12.0557896062992,-9.86970251968504,0.273031496062992));
#1715=CARTESIAN_POINT('Origin',(12.0557896062992,-5.94844267716535,0.273031496062992));
#1716=CARTESIAN_POINT('',(11.9770494488189,-5.94844267716535,0.273031496062992));
#1717=CARTESIAN_POINT('',(12.0557896062992,-5.94844267716535,0.351771653543308));
#1718=CARTESIAN_POINT('Origin',(17.9182261417323,-9.86970251968504,-1.81102362204724));
#1719=CARTESIAN_POINT('',(17.9182261417323,-9.94844267716535,-1.81102362204724));
#1720=CARTESIAN_POINT('',(17.9182261417323,-9.94844267716535,-1.77165354330708));
#1721=CARTESIAN_POINT('',(17.9182261417323,-9.94844267716535,-1.78031496062992));
#1722=CARTESIAN_POINT('',(17.9182261417323,-5.94844267716535,-1.81102362204724));
#1723=CARTESIAN_POINT('',(17.9182261417323,-9.86970251968504,-1.77165354330708));
#1724=CARTESIAN_POINT('',(17.9182261417323,-9.86970251968504,-1.77165354330708));
#1725=CARTESIAN_POINT('',(17.9182261417323,-5.94844267716535,-1.77165354330708));
#1726=CARTESIAN_POINT('Origin',(17.9557235207988,-9.86970251968504,-1.7697808436335));
#1727=CARTESIAN_POINT('Origin',(17.9182261417323,-9.86970251968504,-1.73228346456693));
#1728=CARTESIAN_POINT('Origin',(17.9182261417323,-2.02718283464567,0.312401574803152));
#1729=CARTESIAN_POINT('Origin',(17.9182261417323,-2.02718283464567,0.273031496062995));
#1730=CARTESIAN_POINT('Origin',(17.9182261417323,-2.02718283464567,0.273031496062995));
#1731=CARTESIAN_POINT('Origin',(17.9969662992126,-5.94844267716535,2.20981958091702));
#1732=CARTESIAN_POINT('',(17.9969662992126,-5.94844267716535,0.273031496062995));
#1733=CARTESIAN_POINT('Origin',(17.9182261417323,-5.94844267716535,0.273031496062995));
#1734=CARTESIAN_POINT('',(17.9182261417323,-5.94844267716535,0.351771653543308));
#1735=CARTESIAN_POINT('Origin',(17.9182261417323,-9.86970251968504,0.273031496062995));
#1736=CARTESIAN_POINT('Origin',(17.9575962204724,-9.86970251968504,0.273031496062995));
#1737=CARTESIAN_POINT('Origin',(17.9182261417323,-9.86970251968504,0.273031496062995));
#1738=CARTESIAN_POINT('Origin',(16.07049107698,-5.94844267716535,0.351771653543308));
#1739=CARTESIAN_POINT('Origin',(17.9182261417323,-1.94844267716535,-1.77165354330708));
#1740=CARTESIAN_POINT('',(17.5825962204724,-1.94844267716535,-1.81102362204724));
#1741=CARTESIAN_POINT('',(17.9182261417323,-1.94844267716535,-1.81102362204724));
#1742=CARTESIAN_POINT('',(17.5825962204724,-1.94844267716535,-1.77165354330708));
#1743=CARTESIAN_POINT('',(17.5825962204724,-1.94844267716535,-1.77165354330708));
#1744=CARTESIAN_POINT('',(26.3161681941635,-1.94844267716535,-1.77165354330711));
#1745=CARTESIAN_POINT('Origin',(17.9182261417323,-5.94844267716535,-1.73228346456693));
#1746=CARTESIAN_POINT('',(17.9182261417323,-5.94844267716535,-1.77165354330708));
#1747=CARTESIAN_POINT('',(17.9575962204724,-5.94844267716535,-1.73228346456693));
#1748=CARTESIAN_POINT('Origin',(21.949382207318,-5.94844267716535,-1.81102362204725));
#1749=CARTESIAN_POINT('',(17.5825962204724,-9.94844267716535,-1.81102362204724));
#1750=CARTESIAN_POINT('',(26.3161681941635,-9.94844267716535,-1.81102362204727));
#1751=CARTESIAN_POINT('',(17.5825962204724,-9.94844267716535,-1.81102362204724));
#1752=CARTESIAN_POINT('Origin',(26.0531366981005,-9.94844267716535,-1.77165354330711));
#1753=CARTESIAN_POINT('',(17.5825962204724,-9.94844267716535,-1.77165354330708));
#1754=CARTESIAN_POINT('',(26.3161681941635,-9.94844267716535,-1.77165354330711));
#1755=CARTESIAN_POINT('',(17.5825962204724,-9.94844267716535,-1.77165354330708));
#1756=CARTESIAN_POINT('Origin',(21.949382207318,-5.94844267716535,-1.7716535433071));
#1757=CARTESIAN_POINT('',(17.5825962204724,-9.94844267716535,-1.77165354330708));
#1758=CARTESIAN_POINT('Origin',(17.9182261417323,-5.94844267716535,0.273031496062995));
#1759=CARTESIAN_POINT('',(17.9575962204724,-5.94844267716535,0.273031496062995));
#1760=CARTESIAN_POINT('',(17.9182261417323,-5.94844267716535,0.31240157480315));
#1761=CARTESIAN_POINT('Origin',(17.9575962204725,-5.94844267716535,2.20981958091702));
#1762=CARTESIAN_POINT('Origin',(12.0557896062992,-5.94844267716535,0.273031496062992));
#1763=CARTESIAN_POINT('',(12.0557896062992,-5.94844267716535,0.31240157480315));
#1764=CARTESIAN_POINT('',(12.0164195275591,-5.94844267716535,0.273031496062992));
#1765=CARTESIAN_POINT('Origin',(11.9770494488189,-5.94844267716535,4.37678598684555));
#1766=CARTESIAN_POINT('',(11.9770494488189,-1.94844267716535,0.01));
#1767=CARTESIAN_POINT('',(11.9770494488189,-1.94844267716535,8.40794205243126));
#1768=CARTESIAN_POINT('',(11.9770494488189,-9.94844267716535,0.01));
#1769=CARTESIAN_POINT('',(11.9770494488189,-9.94844267716535,0.01));
#1770=CARTESIAN_POINT('',(11.9770494488189,-9.94844267716535,0.01));
#1771=CARTESIAN_POINT('Origin',(16.07049107698,-5.94844267716535,0.31240157480315));
#1772=CARTESIAN_POINT('Origin',(12.016419527559,-1.94844267716535,8.40794205243126));
#1773=CARTESIAN_POINT('',(12.0164195275591,-1.94844267716535,0.01));
#1774=CARTESIAN_POINT('',(12.0164195275591,-1.94844267716535,0.01));
#1775=CARTESIAN_POINT('',(12.0164195275591,-1.94844267716535,0.01));
#1776=CARTESIAN_POINT('Origin',(12.0164195275591,-9.94844267716535,0.273031496062992));
#1777=CARTESIAN_POINT('',(12.0164195275591,-9.94844267716535,0.01));
#1778=CARTESIAN_POINT('',(12.0164195275591,-9.94844267716535,0.01));
#1779=CARTESIAN_POINT('',(12.0164195275591,-9.94844267716535,0.01));
#1780=CARTESIAN_POINT('Origin',(12.0164195275591,-9.94844267716535,0.01));
#1781=CARTESIAN_POINT('',(12.0164195275591,-9.94844267716535,0.01));
#1782=CARTESIAN_POINT('Origin',(17.5825962204724,-1.94844267716535,-1.77165354330708));
#1783=CARTESIAN_POINT('Origin',(12.016419527559,-5.94844267716535,4.37678598684555));
#1784=UNCERTAINTY_MEASURE_WITH_UNIT(LENGTH_MEASURE(0.000393700787401575),
#1790,'DISTANCE_ACCURACY_VALUE',
'Maximum model space distance between geometric entities at asserted c
onnectivities');
#1785=UNCERTAINTY_MEASURE_WITH_UNIT(LENGTH_MEASURE(0.000393700787401575),
#1790,'DISTANCE_ACCURACY_VALUE',
'Maximum model space distance between geometric entities at asserted c
onnectivities');
#1786=(
GEOMETRIC_REPRESENTATION_CONTEXT(3)
GLOBAL_UNCERTAINTY_ASSIGNED_CONTEXT((#1784))
GLOBAL_UNIT_ASSIGNED_CONTEXT((#1790,#1794,#1795))
REPRESENTATION_CONTEXT('','3D')
);
#1787=(
GEOMETRIC_REPRESENTATION_CONTEXT(3)
GLOBAL_UNCERTAINTY_ASSIGNED_CONTEXT((#1785))
GLOBAL_UNIT_ASSIGNED_CONTEXT((#1790,#1794,#1795))
REPRESENTATION_CONTEXT('','3D')
);
#1788=DIMENSIONAL_EXPONENTS(1.,0.,0.,0.,0.,0.,0.);
#1789=DIMENSIONAL_EXPONENTS(0.,1.,0.,0.,0.,0.,0.);
#1790=(
CONVERSION_BASED_UNIT('inch',#1793)
LENGTH_UNIT()
NAMED_UNIT(#1788)
);
#1791=(
LENGTH_UNIT()
NAMED_UNIT(*)
SI_UNIT(.MILLI.,.METRE.)
);
#1792=(
LENGTH_UNIT()
NAMED_UNIT(*)
SI_UNIT(.CENTI.,.METRE.)
);
#1793=LENGTH_MEASURE_WITH_UNIT(LENGTH_MEASURE(25.4),#1791);
#1794=(
NAMED_UNIT(*)
PLANE_ANGLE_UNIT()
SI_UNIT($,.RADIAN.)
);
#1795=(
NAMED_UNIT(*)
SI_UNIT($,.STERADIAN.)
SOLID_ANGLE_UNIT()
);
#1796=SHAPE_DEFINITION_REPRESENTATION(#1797,#1798);
#1797=PRODUCT_DEFINITION_SHAPE('',$,#1800);
#1798=SHAPE_REPRESENTATION('',(#1020),#1786);
#1799=PRODUCT_DEFINITION_CONTEXT('part definition',#1804,'design');
#1800=PRODUCT_DEFINITION('case v2','case v2',#1801,#1799);
#1801=PRODUCT_DEFINITION_FORMATION('1',$,#1806);
#1802=PRODUCT_RELATED_PRODUCT_CATEGORY('case v2','case v2',(#1806));
#1803=APPLICATION_PROTOCOL_DEFINITION('international standard',
'automotive_design',2009,#1804);
#1804=APPLICATION_CONTEXT(
'Core Data for Automotive Mechanical Design Process');
#1805=PRODUCT_CONTEXT('part definition',#1804,'mechanical');
#1806=PRODUCT('case v2','case v2',$,(#1805));
#1807=PRESENTATION_STYLE_ASSIGNMENT((#1809));
#1808=PRESENTATION_STYLE_ASSIGNMENT((#1810));
#1809=SURFACE_STYLE_USAGE(.BOTH.,#1815);
#1810=SURFACE_STYLE_USAGE(.BOTH.,#1816);
#1811=SURFACE_STYLE_RENDERING_WITH_PROPERTIES($,#1823,(#1813));
#1812=SURFACE_STYLE_RENDERING_WITH_PROPERTIES($,#1824,(#1814));
#1813=SURFACE_STYLE_TRANSPARENT(0.);
#1814=SURFACE_STYLE_TRANSPARENT(0.);
#1815=SURFACE_SIDE_STYLE('',(#1817,#1811));
#1816=SURFACE_SIDE_STYLE('',(#1818,#1812));
#1817=SURFACE_STYLE_FILL_AREA(#1819);
#1818=SURFACE_STYLE_FILL_AREA(#1820);
#1819=FILL_AREA_STYLE('',(#1821));
#1820=FILL_AREA_STYLE('',(#1822));
#1821=FILL_AREA_STYLE_COLOUR('',#1823);
#1822=FILL_AREA_STYLE_COLOUR('',#1824);
#1823=COLOUR_RGB('',0.745098039215686,0.737254901960784,0.729411764705882);
#1824=COLOUR_RGB('',0.313725490196078,0.486274509803922,0.411764705882353);
ENDSEC;
END-ISO-10303-21;
