%TF.GenerationSoftware,KiCad,Pcbnew,8.0.1*%
%TF.CreationDate,2025-01-31T22:20:11-05:00*%
%TF.ProjectId,HV servo drive v1,48562073-6572-4766-9f20-647269766520,rev?*%
%TF.SameCoordinates,Original*%
%TF.FileFunction,Profile,NP*%
%FSLAX46Y46*%
G04 Gerber Fmt 4.6, Leading zero omitted, Abs format (unit mm)*
G04 Created by KiCad (PCBNEW 8.0.1) date 2025-01-31 22:20:11*
%MOMM*%
%LPD*%
G01*
G04 APERTURE LIST*
%TA.AperFunction,Profile*%
%ADD10C,0.100000*%
%TD*%
%TA.AperFunction,Profile*%
%ADD11C,0.120000*%
%TD*%
G04 APERTURE END LIST*
D10*
X360800000Y-85800000D02*
X330000000Y-85800000D01*
X446102944Y-251102944D02*
X312697056Y-251102944D01*
X384000000Y-67200000D02*
G75*
G02*
X384000000Y-69200000I0J-1000000D01*
G01*
X310300000Y-53100000D02*
G75*
G02*
X312700000Y-50700000I2400000J0D01*
G01*
X446105888Y-50700000D02*
G75*
G02*
X448505900Y-53100000I-88J-2400100D01*
G01*
X310297056Y-248702944D02*
X310300000Y-53100000D01*
X448502944Y-248702944D02*
G75*
G02*
X446102944Y-251102944I-2400044J44D01*
G01*
X312697056Y-251102944D02*
G75*
G02*
X310297056Y-248702944I44J2400044D01*
G01*
X330000000Y-87800000D02*
X360800000Y-87800000D01*
X312700000Y-50700000D02*
X446105888Y-50700000D01*
X330000000Y-87800000D02*
G75*
G02*
X330000000Y-85800000I0J1000000D01*
G01*
X384000000Y-67200000D02*
X365800000Y-67200000D01*
X360800000Y-85800000D02*
G75*
G02*
X360800000Y-87800000I0J-1000000D01*
G01*
X448505888Y-53100000D02*
X448502944Y-248702944D01*
X365800000Y-69200000D02*
G75*
G02*
X365800000Y-67200000I0J1000000D01*
G01*
X365800000Y-69200000D02*
X384000000Y-69200000D01*
D11*
%TO.C,Q6*%
X424969657Y-199848031D02*
G75*
G02*
X416969657Y-199848031I-4000000J0D01*
G01*
X416969657Y-199848031D02*
G75*
G02*
X424969657Y-199848031I4000000J0D01*
G01*
%TO.C,Q3*%
X376380343Y-117401969D02*
G75*
G02*
X368380343Y-117401969I-4000000J0D01*
G01*
X368380343Y-117401969D02*
G75*
G02*
X376380343Y-117401969I4000000J0D01*
G01*
%TO.C,Q4*%
X424969657Y-161148031D02*
G75*
G02*
X416969657Y-161148031I-4000000J0D01*
G01*
X416969657Y-161148031D02*
G75*
G02*
X424969657Y-161148031I4000000J0D01*
G01*
%TO.C,Q5*%
X376380343Y-155901969D02*
G75*
G02*
X368380343Y-155901969I-4000000J0D01*
G01*
X368380343Y-155901969D02*
G75*
G02*
X376380343Y-155901969I4000000J0D01*
G01*
%TO.C,Q2*%
X424969657Y-122648031D02*
G75*
G02*
X416969657Y-122648031I-4000000J0D01*
G01*
X416969657Y-122648031D02*
G75*
G02*
X424969657Y-122648031I4000000J0D01*
G01*
%TO.C,Q7*%
X376380343Y-194601969D02*
G75*
G02*
X368380343Y-194601969I-4000000J0D01*
G01*
X368380343Y-194601969D02*
G75*
G02*
X376380343Y-194601969I4000000J0D01*
G01*
%TD*%
M02*
