%TF.GenerationSoftware,KiCad,Pcbnew,8.0.1*%
%TF.CreationDate,2025-01-31T22:20:11-05:00*%
%TF.ProjectId,HV servo drive v1,48562073-6572-4766-9f20-647269766520,rev?*%
%TF.SameCoordinates,Original*%
%TF.FileFunction,Paste,Top*%
%TF.FilePolarity,Positive*%
%FSLAX46Y46*%
G04 Gerber Fmt 4.6, Leading zero omitted, Abs format (unit mm)*
G04 Created by KiCad (PCBNEW 8.0.1) date 2025-01-31 22:20:11*
%MOMM*%
%LPD*%
G01*
G04 APERTURE LIST*
G04 Aperture macros list*
%AMRoundRect*
0 Rectangle with rounded corners*
0 $1 Rounding radius*
0 $2 $3 $4 $5 $6 $7 $8 $9 X,Y pos of 4 corners*
0 Add a 4 corners polygon primitive as box body*
4,1,4,$2,$3,$4,$5,$6,$7,$8,$9,$2,$3,0*
0 Add four circle primitives for the rounded corners*
1,1,$1+$1,$2,$3*
1,1,$1+$1,$4,$5*
1,1,$1+$1,$6,$7*
1,1,$1+$1,$8,$9*
0 Add four rect primitives between the rounded corners*
20,1,$1+$1,$2,$3,$4,$5,0*
20,1,$1+$1,$4,$5,$6,$7,0*
20,1,$1+$1,$6,$7,$8,$9,0*
20,1,$1+$1,$8,$9,$2,$3,0*%
%AMRotRect*
0 Rectangle, with rotation*
0 The origin of the aperture is its center*
0 $1 length*
0 $2 width*
0 $3 Rotation angle, in degrees counterclockwise*
0 Add horizontal line*
21,1,$1,$2,0,0,$3*%
%AMFreePoly0*
4,1,9,3.862500,-0.866500,0.737500,-0.866500,0.737500,-0.450000,-0.737500,-0.450000,-0.737500,0.450000,0.737500,0.450000,0.737500,0.866500,3.862500,0.866500,3.862500,-0.866500,3.862500,-0.866500,$1*%
G04 Aperture macros list end*
%ADD10RoundRect,0.250000X-0.625000X0.312500X-0.625000X-0.312500X0.625000X-0.312500X0.625000X0.312500X0*%
%ADD11R,1.200000X1.400000*%
%ADD12RoundRect,0.200000X-0.275000X0.200000X-0.275000X-0.200000X0.275000X-0.200000X0.275000X0.200000X0*%
%ADD13RoundRect,0.218750X0.256250X-0.218750X0.256250X0.218750X-0.256250X0.218750X-0.256250X-0.218750X0*%
%ADD14RoundRect,0.218750X-0.218750X-0.256250X0.218750X-0.256250X0.218750X0.256250X-0.218750X0.256250X0*%
%ADD15R,1.952800X3.807000*%
%ADD16RoundRect,0.225000X-0.225000X-0.250000X0.225000X-0.250000X0.225000X0.250000X-0.225000X0.250000X0*%
%ADD17RoundRect,0.250000X0.325000X1.100000X-0.325000X1.100000X-0.325000X-1.100000X0.325000X-1.100000X0*%
%ADD18RoundRect,0.200000X-0.200000X-0.275000X0.200000X-0.275000X0.200000X0.275000X-0.200000X0.275000X0*%
%ADD19RoundRect,0.225000X0.329006X-0.069856X0.104006X0.319856X-0.329006X0.069856X-0.104006X-0.319856X0*%
%ADD20RoundRect,0.250000X0.450000X-0.262500X0.450000X0.262500X-0.450000X0.262500X-0.450000X-0.262500X0*%
%ADD21RoundRect,0.225000X0.225000X0.250000X-0.225000X0.250000X-0.225000X-0.250000X0.225000X-0.250000X0*%
%ADD22RoundRect,0.225000X0.225000X0.375000X-0.225000X0.375000X-0.225000X-0.375000X0.225000X-0.375000X0*%
%ADD23RoundRect,0.225000X0.250000X-0.225000X0.250000X0.225000X-0.250000X0.225000X-0.250000X-0.225000X0*%
%ADD24R,0.558800X1.752600*%
%ADD25RoundRect,0.250000X0.262500X0.450000X-0.262500X0.450000X-0.262500X-0.450000X0.262500X-0.450000X0*%
%ADD26RoundRect,0.250000X0.250000X0.475000X-0.250000X0.475000X-0.250000X-0.475000X0.250000X-0.475000X0*%
%ADD27RoundRect,0.250000X0.536362X0.020994X0.286362X0.454006X-0.536362X-0.020994X-0.286362X-0.454006X0*%
%ADD28RoundRect,0.200000X0.200000X0.275000X-0.200000X0.275000X-0.200000X-0.275000X0.200000X-0.275000X0*%
%ADD29RoundRect,0.218750X0.218750X0.256250X-0.218750X0.256250X-0.218750X-0.256250X0.218750X-0.256250X0*%
%ADD30RoundRect,0.250000X0.625000X-0.312500X0.625000X0.312500X-0.625000X0.312500X-0.625000X-0.312500X0*%
%ADD31RoundRect,0.150000X-0.587500X-0.150000X0.587500X-0.150000X0.587500X0.150000X-0.587500X0.150000X0*%
%ADD32RoundRect,0.250000X0.475000X-0.250000X0.475000X0.250000X-0.475000X0.250000X-0.475000X-0.250000X0*%
%ADD33RoundRect,0.225000X-0.250000X0.225000X-0.250000X-0.225000X0.250000X-0.225000X0.250000X0.225000X0*%
%ADD34R,3.825000X12.320000*%
%ADD35RoundRect,0.250000X-0.041867X0.697516X-0.583133X0.385016X0.041867X-0.697516X0.583133X-0.385016X0*%
%ADD36RoundRect,0.250000X-0.625000X0.375000X-0.625000X-0.375000X0.625000X-0.375000X0.625000X0.375000X0*%
%ADD37RoundRect,0.250000X-0.312500X-0.625000X0.312500X-0.625000X0.312500X0.625000X-0.312500X0.625000X0*%
%ADD38RoundRect,0.250000X-0.475000X0.250000X-0.475000X-0.250000X0.475000X-0.250000X0.475000X0.250000X0*%
%ADD39RoundRect,0.250000X-0.250000X-0.475000X0.250000X-0.475000X0.250000X0.475000X-0.250000X0.475000X0*%
%ADD40R,1.346200X1.955800*%
%ADD41RoundRect,0.250000X0.312500X0.625000X-0.312500X0.625000X-0.312500X-0.625000X0.312500X-0.625000X0*%
%ADD42RoundRect,0.150000X0.587500X0.150000X-0.587500X0.150000X-0.587500X-0.150000X0.587500X-0.150000X0*%
%ADD43R,3.352800X5.207000*%
%ADD44R,0.558800X1.460500*%
%ADD45RoundRect,0.250000X0.650000X-0.325000X0.650000X0.325000X-0.650000X0.325000X-0.650000X-0.325000X0*%
%ADD46RoundRect,0.225000X-0.225000X0.425000X-0.225000X-0.425000X0.225000X-0.425000X0.225000X0.425000X0*%
%ADD47FreePoly0,270.000000*%
%ADD48RoundRect,0.150000X-0.150000X0.587500X-0.150000X-0.587500X0.150000X-0.587500X0.150000X0.587500X0*%
%ADD49RotRect,1.358900X0.533400X210.000000*%
%ADD50RoundRect,0.200000X0.275000X-0.200000X0.275000X0.200000X-0.275000X0.200000X-0.275000X-0.200000X0*%
%ADD51RoundRect,0.150000X0.150000X-0.662500X0.150000X0.662500X-0.150000X0.662500X-0.150000X-0.662500X0*%
%ADD52RoundRect,0.150000X-0.150000X0.512500X-0.150000X-0.512500X0.150000X-0.512500X0.150000X0.512500X0*%
%ADD53R,1.799999X0.599999*%
%ADD54RoundRect,0.250000X-0.262500X-0.450000X0.262500X-0.450000X0.262500X0.450000X-0.262500X0.450000X0*%
%ADD55RoundRect,0.150000X0.150000X-0.587500X0.150000X0.587500X-0.150000X0.587500X-0.150000X-0.587500X0*%
%ADD56RoundRect,0.150000X0.825000X0.150000X-0.825000X0.150000X-0.825000X-0.150000X0.825000X-0.150000X0*%
%ADD57R,2.000000X1.800000*%
%ADD58RoundRect,0.225000X0.225000X-0.425000X0.225000X0.425000X-0.225000X0.425000X-0.225000X-0.425000X0*%
%ADD59FreePoly0,90.000000*%
%ADD60RoundRect,0.218750X-0.256250X0.218750X-0.256250X-0.218750X0.256250X-0.218750X0.256250X0.218750X0*%
%ADD61RoundRect,0.150000X-0.512500X-0.150000X0.512500X-0.150000X0.512500X0.150000X-0.512500X0.150000X0*%
%ADD62RoundRect,0.225000X0.425000X0.225000X-0.425000X0.225000X-0.425000X-0.225000X0.425000X-0.225000X0*%
%ADD63FreePoly0,180.000000*%
%ADD64RoundRect,0.100000X-0.637500X-0.100000X0.637500X-0.100000X0.637500X0.100000X-0.637500X0.100000X0*%
%ADD65R,1.193800X0.280000*%
%ADD66R,0.280000X1.193800*%
%ADD67RoundRect,0.150000X0.512500X0.150000X-0.512500X0.150000X-0.512500X-0.150000X0.512500X-0.150000X0*%
%ADD68RoundRect,0.150000X-0.825000X-0.150000X0.825000X-0.150000X0.825000X0.150000X-0.825000X0.150000X0*%
%ADD69RoundRect,0.225000X0.375000X-0.225000X0.375000X0.225000X-0.375000X0.225000X-0.375000X-0.225000X0*%
G04 APERTURE END LIST*
D10*
%TO.C,R109*%
X395500000Y-201937500D03*
X395500000Y-204862500D03*
%TD*%
D11*
%TO.C,D11*%
X409250000Y-132800000D03*
X412350000Y-132800000D03*
%TD*%
D12*
%TO.C,R17*%
X336800000Y-79775000D03*
X336800000Y-81425000D03*
%TD*%
D13*
%TO.C,FB2*%
X404000000Y-117987500D03*
X404000000Y-116412500D03*
%TD*%
D14*
%TO.C,FB4*%
X404812500Y-186600000D03*
X406387500Y-186600000D03*
%TD*%
D15*
%TO.C,R48*%
X388822500Y-122600000D03*
X384377500Y-122600000D03*
%TD*%
D16*
%TO.C,C2*%
X430625000Y-79600000D03*
X432175000Y-79600000D03*
%TD*%
D17*
%TO.C,C109*%
X385675000Y-112600000D03*
X382725000Y-112600000D03*
%TD*%
D18*
%TO.C,R35*%
X437175000Y-66050000D03*
X438825000Y-66050000D03*
%TD*%
D19*
%TO.C,C39*%
X418237500Y-151971170D03*
X417462500Y-150628830D03*
%TD*%
D20*
%TO.C,R52*%
X405850000Y-208612500D03*
X405850000Y-206787500D03*
%TD*%
D11*
%TO.C,D9*%
X412350000Y-128200000D03*
X409250000Y-128200000D03*
%TD*%
D21*
%TO.C,C4*%
X408525000Y-60500000D03*
X406975000Y-60500000D03*
%TD*%
D22*
%TO.C,D17*%
X401500000Y-180250000D03*
X398200000Y-180250000D03*
%TD*%
D23*
%TO.C,C16*%
X397800000Y-96025000D03*
X397800000Y-94475000D03*
%TD*%
D24*
%TO.C,U6*%
X389150000Y-66667500D03*
X391690000Y-66667500D03*
X399310000Y-66667500D03*
X401850000Y-66667500D03*
X401850000Y-53332500D03*
X399310000Y-53332500D03*
X391690000Y-53332500D03*
X389150000Y-53332500D03*
%TD*%
D25*
%TO.C,R8*%
X406112500Y-137600000D03*
X404287500Y-137600000D03*
%TD*%
D26*
%TO.C,C18*%
X356700000Y-65750000D03*
X354800000Y-65750000D03*
%TD*%
D27*
%TO.C,C56*%
X405825000Y-154122724D03*
X404875000Y-152477276D03*
%TD*%
D28*
%TO.C,R90*%
X412025000Y-64800000D03*
X410375000Y-64800000D03*
%TD*%
D21*
%TO.C,C26*%
X367775000Y-63250000D03*
X366225000Y-63250000D03*
%TD*%
D17*
%TO.C,C113*%
X385675000Y-134600000D03*
X382725000Y-134600000D03*
%TD*%
D29*
%TO.C,FB10*%
X322037500Y-54500000D03*
X320462500Y-54500000D03*
%TD*%
D21*
%TO.C,C93*%
X418175000Y-62800000D03*
X416625000Y-62800000D03*
%TD*%
D28*
%TO.C,R15*%
X340625000Y-62750000D03*
X338975000Y-62750000D03*
%TD*%
D30*
%TO.C,R84*%
X355800000Y-123862500D03*
X355800000Y-120937500D03*
%TD*%
D31*
%TO.C,D1*%
X335112500Y-61037500D03*
X335112500Y-62937500D03*
X336987500Y-61987500D03*
%TD*%
D18*
%TO.C,R4*%
X426425000Y-111750000D03*
X428075000Y-111750000D03*
%TD*%
D32*
%TO.C,C35*%
X347000000Y-75400000D03*
X347000000Y-73500000D03*
%TD*%
D21*
%TO.C,C89*%
X421775000Y-136000000D03*
X420225000Y-136000000D03*
%TD*%
D33*
%TO.C,C29*%
X382000000Y-57725000D03*
X382000000Y-59275000D03*
%TD*%
D34*
%TO.C,L18*%
X375722500Y-130600000D03*
X359477500Y-130600000D03*
%TD*%
D33*
%TO.C,C5*%
X435500000Y-67375000D03*
X435500000Y-68925000D03*
%TD*%
D23*
%TO.C,C9*%
X420250000Y-74775000D03*
X420250000Y-73225000D03*
%TD*%
D32*
%TO.C,C24*%
X389000000Y-95950000D03*
X389000000Y-94050000D03*
%TD*%
D12*
%TO.C,R81*%
X314500000Y-95425000D03*
X314500000Y-97075000D03*
%TD*%
D16*
%TO.C,C22*%
X343225000Y-64500000D03*
X344775000Y-64500000D03*
%TD*%
D35*
%TO.C,R42*%
X405416562Y-125318750D03*
X402883438Y-126781250D03*
%TD*%
D36*
%TO.C,F2*%
X317000000Y-72600000D03*
X317000000Y-75400000D03*
%TD*%
D32*
%TO.C,C12*%
X431200000Y-191550000D03*
X431200000Y-189650000D03*
%TD*%
D37*
%TO.C,R101*%
X378737500Y-220200000D03*
X381662500Y-220200000D03*
%TD*%
D21*
%TO.C,C45*%
X419725000Y-138850000D03*
X418175000Y-138850000D03*
%TD*%
D17*
%TO.C,C111*%
X385675000Y-128200000D03*
X382725000Y-128200000D03*
%TD*%
D38*
%TO.C,C100*%
X410000000Y-66450000D03*
X410000000Y-68350000D03*
%TD*%
D32*
%TO.C,C25*%
X385750000Y-64700000D03*
X385750000Y-62800000D03*
%TD*%
D20*
%TO.C,R39*%
X405850000Y-174312500D03*
X405850000Y-172487500D03*
%TD*%
D11*
%TO.C,D12*%
X409250000Y-171600000D03*
X412350000Y-171600000D03*
%TD*%
D33*
%TO.C,C92*%
X389200000Y-227025000D03*
X389200000Y-228575000D03*
%TD*%
D20*
%TO.C,R53*%
X405800000Y-213562500D03*
X405800000Y-211737500D03*
%TD*%
D39*
%TO.C,C43*%
X401700000Y-173800000D03*
X403600000Y-173800000D03*
%TD*%
D40*
%TO.C,U11*%
X347310000Y-81989900D03*
X344770000Y-81989900D03*
X342230000Y-81989900D03*
X339690000Y-81989900D03*
X339690000Y-91210100D03*
X342230000Y-91210100D03*
X344770000Y-91210100D03*
X347310000Y-91210100D03*
%TD*%
D41*
%TO.C,R56*%
X400662500Y-189600000D03*
X397737500Y-189600000D03*
%TD*%
D42*
%TO.C,D2*%
X336937500Y-57212500D03*
X336937500Y-55312500D03*
X335062500Y-56262500D03*
%TD*%
D12*
%TO.C,R78*%
X342750000Y-101675000D03*
X342750000Y-103325000D03*
%TD*%
D43*
%TO.C,R58*%
X388622500Y-199800000D03*
X384177500Y-199800000D03*
%TD*%
D19*
%TO.C,C79*%
X406087500Y-189821170D03*
X405312500Y-188478830D03*
%TD*%
D33*
%TO.C,C65*%
X405150000Y-140675000D03*
X405150000Y-142225000D03*
%TD*%
D27*
%TO.C,C76*%
X405775000Y-192822724D03*
X404825000Y-191177276D03*
%TD*%
D17*
%TO.C,C126*%
X385675000Y-205400000D03*
X382725000Y-205400000D03*
%TD*%
D23*
%TO.C,C95*%
X392400000Y-99825000D03*
X392400000Y-98275000D03*
%TD*%
D33*
%TO.C,C86*%
X389200000Y-234675000D03*
X389200000Y-236225000D03*
%TD*%
D21*
%TO.C,C10*%
X408525000Y-54000000D03*
X406975000Y-54000000D03*
%TD*%
D18*
%TO.C,R50*%
X398425000Y-105450000D03*
X400075000Y-105450000D03*
%TD*%
D44*
%TO.C,U9*%
X378595000Y-70974150D03*
X379865000Y-70974150D03*
X381135000Y-70974150D03*
X382405000Y-70974150D03*
X382405000Y-65525850D03*
X381135000Y-65525850D03*
X379865000Y-65525850D03*
X378595000Y-65525850D03*
%TD*%
D42*
%TO.C,D20*%
X385587500Y-240150000D03*
X385587500Y-238250000D03*
X383712500Y-239200000D03*
%TD*%
D38*
%TO.C,C41*%
X404000000Y-168250000D03*
X404000000Y-170150000D03*
%TD*%
D19*
%TO.C,C50*%
X411787500Y-122121170D03*
X411012500Y-120778830D03*
%TD*%
D44*
%TO.C,U7*%
X367345000Y-70974150D03*
X368615000Y-70974150D03*
X369885000Y-70974150D03*
X371155000Y-70974150D03*
X371155000Y-65525850D03*
X369885000Y-65525850D03*
X368615000Y-65525850D03*
X367345000Y-65525850D03*
%TD*%
D27*
%TO.C,C53*%
X404075000Y-112622724D03*
X403125000Y-110977276D03*
%TD*%
D45*
%TO.C,C133*%
X392800000Y-166775000D03*
X392800000Y-163825000D03*
%TD*%
D37*
%TO.C,R60*%
X369537500Y-243000000D03*
X372462500Y-243000000D03*
%TD*%
%TO.C,R68*%
X369537500Y-231600000D03*
X372462500Y-231600000D03*
%TD*%
%TO.C,R105*%
X378737500Y-227800000D03*
X381662500Y-227800000D03*
%TD*%
D14*
%TO.C,FB6*%
X404812500Y-185000000D03*
X406387500Y-185000000D03*
%TD*%
D10*
%TO.C,R108*%
X395400000Y-124737500D03*
X395400000Y-127662500D03*
%TD*%
D19*
%TO.C,C74*%
X411687500Y-199321170D03*
X410912500Y-197978830D03*
%TD*%
D23*
%TO.C,C67*%
X401700000Y-145525000D03*
X401700000Y-143975000D03*
%TD*%
D17*
%TO.C,C120*%
X385675000Y-147800000D03*
X382725000Y-147800000D03*
%TD*%
D12*
%TO.C,R26*%
X349250000Y-77625000D03*
X349250000Y-79275000D03*
%TD*%
D33*
%TO.C,C83*%
X389200000Y-242225000D03*
X389200000Y-243775000D03*
%TD*%
D27*
%TO.C,C77*%
X404025000Y-189822724D03*
X403075000Y-188177276D03*
%TD*%
D13*
%TO.C,D28*%
X312750000Y-104037500D03*
X312750000Y-102462500D03*
%TD*%
D22*
%TO.C,D14*%
X401600000Y-141550000D03*
X398300000Y-141550000D03*
%TD*%
D33*
%TO.C,C63*%
X403450000Y-140675000D03*
X403450000Y-142225000D03*
%TD*%
D11*
%TO.C,D16*%
X409250000Y-211400000D03*
X412350000Y-211400000D03*
%TD*%
D28*
%TO.C,R12*%
X340575000Y-55500000D03*
X338925000Y-55500000D03*
%TD*%
D35*
%TO.C,R55*%
X405366562Y-202518750D03*
X402833438Y-203981250D03*
%TD*%
D27*
%TO.C,C46*%
X410575000Y-123822724D03*
X409625000Y-122177276D03*
%TD*%
D46*
%TO.C,U22*%
X384062500Y-101350000D03*
D47*
X382562500Y-101437500D03*
D46*
X381062500Y-101350000D03*
%TD*%
D19*
%TO.C,C54*%
X411737500Y-160621170D03*
X410962500Y-159278830D03*
%TD*%
D17*
%TO.C,C129*%
X385675000Y-186600000D03*
X382725000Y-186600000D03*
%TD*%
D12*
%TO.C,R69*%
X387700000Y-230775000D03*
X387700000Y-232425000D03*
%TD*%
D30*
%TO.C,R86*%
X361300000Y-197562500D03*
X361300000Y-194637500D03*
%TD*%
D12*
%TO.C,R29*%
X335000000Y-91775000D03*
X335000000Y-93425000D03*
%TD*%
D27*
%TO.C,C49*%
X408825000Y-159272724D03*
X407875000Y-157627276D03*
%TD*%
D48*
%TO.C,D4*%
X344950000Y-73562500D03*
X343050000Y-73562500D03*
X344000000Y-75437500D03*
%TD*%
D12*
%TO.C,R65*%
X387700000Y-234625000D03*
X387700000Y-236275000D03*
%TD*%
D33*
%TO.C,C62*%
X403450000Y-102175000D03*
X403450000Y-103725000D03*
%TD*%
D20*
%TO.C,R37*%
X405850000Y-169112500D03*
X405850000Y-167287500D03*
%TD*%
D45*
%TO.C,C137*%
X392800000Y-205475000D03*
X392800000Y-202525000D03*
%TD*%
D11*
%TO.C,D32*%
X355850000Y-118700000D03*
X358950000Y-118700000D03*
%TD*%
D12*
%TO.C,R28*%
X331500000Y-91775000D03*
X331500000Y-93425000D03*
%TD*%
D33*
%TO.C,C32*%
X378750000Y-72825000D03*
X378750000Y-74375000D03*
%TD*%
D18*
%TO.C,R57*%
X398325000Y-184250000D03*
X399975000Y-184250000D03*
%TD*%
D20*
%TO.C,R38*%
X405850000Y-135512500D03*
X405850000Y-133687500D03*
%TD*%
D49*
%TO.C,U14*%
X417475677Y-116512008D03*
X416840677Y-115412156D03*
X416205677Y-114312303D03*
X415570677Y-113212451D03*
X414935677Y-112112599D03*
X414300677Y-111012747D03*
X413665677Y-109912894D03*
X413030677Y-108813042D03*
X408224323Y-111587992D03*
X408859323Y-112687844D03*
X409494323Y-113787697D03*
X410129323Y-114887549D03*
X410764323Y-115987401D03*
X411399323Y-117087253D03*
X412034323Y-118187106D03*
X412669323Y-119286958D03*
%TD*%
D50*
%TO.C,R79*%
X329500000Y-94575000D03*
X329500000Y-92925000D03*
%TD*%
D12*
%TO.C,R77*%
X340000000Y-100175000D03*
X340000000Y-101825000D03*
%TD*%
D42*
%TO.C,D18*%
X385587500Y-243962500D03*
X385587500Y-242062500D03*
X383712500Y-243012500D03*
%TD*%
D33*
%TO.C,C96*%
X412000000Y-66625000D03*
X412000000Y-68175000D03*
%TD*%
D26*
%TO.C,C15*%
X356700000Y-59000000D03*
X354800000Y-59000000D03*
%TD*%
D12*
%TO.C,R24*%
X347500000Y-77625000D03*
X347500000Y-79275000D03*
%TD*%
D39*
%TO.C,C14*%
X343050000Y-66500000D03*
X344950000Y-66500000D03*
%TD*%
D13*
%TO.C,FB5*%
X403800000Y-195187500D03*
X403800000Y-193612500D03*
%TD*%
D51*
%TO.C,U13*%
X335115000Y-89787500D03*
X336385000Y-89787500D03*
X336385000Y-83412500D03*
X335115000Y-83412500D03*
%TD*%
D12*
%TO.C,R80*%
X314500000Y-91925000D03*
X314500000Y-93575000D03*
%TD*%
D36*
%TO.C,F1*%
X317000000Y-80600000D03*
X317000000Y-83400000D03*
%TD*%
D12*
%TO.C,R20*%
X353000000Y-77625000D03*
X353000000Y-79275000D03*
%TD*%
D37*
%TO.C,R94*%
X374137500Y-235400000D03*
X377062500Y-235400000D03*
%TD*%
D21*
%TO.C,C84*%
X417775000Y-89300000D03*
X416225000Y-89300000D03*
%TD*%
D12*
%TO.C,R74*%
X387700000Y-223175000D03*
X387700000Y-224825000D03*
%TD*%
D33*
%TO.C,C102*%
X387562500Y-101325000D03*
X387562500Y-102875000D03*
%TD*%
D19*
%TO.C,C61*%
X406137500Y-151121170D03*
X405362500Y-149778830D03*
%TD*%
D33*
%TO.C,C101*%
X384562500Y-97525000D03*
X384562500Y-99075000D03*
%TD*%
D11*
%TO.C,D33*%
X359650000Y-184600000D03*
X362750000Y-184600000D03*
%TD*%
D12*
%TO.C,R30*%
X408000000Y-73675000D03*
X408000000Y-75325000D03*
%TD*%
D42*
%TO.C,D19*%
X385587500Y-236400000D03*
X385587500Y-234500000D03*
X383712500Y-235450000D03*
%TD*%
D12*
%TO.C,R27*%
X358500000Y-77625000D03*
X358500000Y-79275000D03*
%TD*%
D19*
%TO.C,C55*%
X410237500Y-157971170D03*
X409462500Y-156628830D03*
%TD*%
%TO.C,C78*%
X407587500Y-192421170D03*
X406812500Y-191078830D03*
%TD*%
D33*
%TO.C,C87*%
X389200000Y-238425000D03*
X389200000Y-239975000D03*
%TD*%
D14*
%TO.C,FB1*%
X404812500Y-109400000D03*
X406387500Y-109400000D03*
%TD*%
D18*
%TO.C,R2*%
X426175000Y-154250000D03*
X427825000Y-154250000D03*
%TD*%
D28*
%TO.C,R13*%
X340575000Y-57000000D03*
X338925000Y-57000000D03*
%TD*%
D14*
%TO.C,FB3*%
X404812500Y-107800000D03*
X406387500Y-107800000D03*
%TD*%
D35*
%TO.C,R44*%
X405416562Y-163818750D03*
X402883438Y-165281250D03*
%TD*%
D13*
%TO.C,D26*%
X312750000Y-97037500D03*
X312750000Y-95462500D03*
%TD*%
D52*
%TO.C,U1*%
X424962500Y-93862500D03*
X424012500Y-93862500D03*
X423062500Y-93862500D03*
X423062500Y-96137500D03*
X424012500Y-96137500D03*
X424962500Y-96137500D03*
%TD*%
D38*
%TO.C,C40*%
X403800000Y-129650000D03*
X403800000Y-131550000D03*
%TD*%
D23*
%TO.C,C66*%
X401700000Y-107025000D03*
X401700000Y-105475000D03*
%TD*%
D53*
%TO.C,U17*%
X407800001Y-140945000D03*
X407800001Y-142215000D03*
X407800001Y-143485000D03*
X407800001Y-144755000D03*
X418699999Y-144755000D03*
X418699999Y-143485000D03*
X418699999Y-142215000D03*
X418699999Y-140945000D03*
%TD*%
D23*
%TO.C,C23*%
X391000000Y-96025000D03*
X391000000Y-94475000D03*
%TD*%
D39*
%TO.C,C42*%
X401700000Y-135200000D03*
X403600000Y-135200000D03*
%TD*%
D26*
%TO.C,C17*%
X356700000Y-63750000D03*
X354800000Y-63750000D03*
%TD*%
D33*
%TO.C,C64*%
X405150000Y-102175000D03*
X405150000Y-103725000D03*
%TD*%
D54*
%TO.C,R54*%
X410437500Y-203350000D03*
X412262500Y-203350000D03*
%TD*%
D17*
%TO.C,C121*%
X385675000Y-173000000D03*
X382725000Y-173000000D03*
%TD*%
D22*
%TO.C,D13*%
X401600000Y-103050000D03*
X398300000Y-103050000D03*
%TD*%
D55*
%TO.C,D3*%
X331300000Y-77787500D03*
X333200000Y-77787500D03*
X332250000Y-75912500D03*
%TD*%
D33*
%TO.C,C94*%
X385962500Y-101325000D03*
X385962500Y-102875000D03*
%TD*%
D26*
%TO.C,C69*%
X403600000Y-208400000D03*
X401700000Y-208400000D03*
%TD*%
D51*
%TO.C,U12*%
X331615000Y-89787500D03*
X332885000Y-89787500D03*
X332885000Y-83412500D03*
X331615000Y-83412500D03*
%TD*%
D12*
%TO.C,R22*%
X343750000Y-77625000D03*
X343750000Y-79275000D03*
%TD*%
D56*
%TO.C,U5*%
X347975000Y-62832500D03*
X347975000Y-61562500D03*
X347975000Y-60292500D03*
X347975000Y-59022500D03*
X347975000Y-57752500D03*
X347975000Y-56482500D03*
X347975000Y-55212500D03*
X343025000Y-55212500D03*
X343025000Y-56482500D03*
X343025000Y-57752500D03*
X343025000Y-59022500D03*
X343025000Y-60292500D03*
X343025000Y-61562500D03*
X343025000Y-62832500D03*
%TD*%
D37*
%TO.C,R96*%
X374137500Y-239200000D03*
X377062500Y-239200000D03*
%TD*%
D12*
%TO.C,R25*%
X356750000Y-77625000D03*
X356750000Y-79275000D03*
%TD*%
D20*
%TO.C,R41*%
X413000000Y-163912500D03*
X413000000Y-162087500D03*
%TD*%
D28*
%TO.C,R70*%
X421825000Y-134000000D03*
X420175000Y-134000000D03*
%TD*%
D37*
%TO.C,R100*%
X374137500Y-220200000D03*
X377062500Y-220200000D03*
%TD*%
D43*
%TO.C,R49*%
X388622500Y-161200000D03*
X384177500Y-161200000D03*
%TD*%
D19*
%TO.C,C60*%
X407637500Y-153721170D03*
X406862500Y-152378830D03*
%TD*%
D13*
%TO.C,FB8*%
X403800000Y-156387500D03*
X403800000Y-154812500D03*
%TD*%
D23*
%TO.C,C19*%
X399400000Y-96025000D03*
X399400000Y-94475000D03*
%TD*%
D27*
%TO.C,C52*%
X405825000Y-115622724D03*
X404875000Y-113977276D03*
%TD*%
D11*
%TO.C,D31*%
X358950000Y-115200000D03*
X355850000Y-115200000D03*
%TD*%
D19*
%TO.C,C38*%
X418237500Y-113471170D03*
X417462500Y-112128830D03*
%TD*%
D50*
%TO.C,R21*%
X354750000Y-79275000D03*
X354750000Y-77625000D03*
%TD*%
D20*
%TO.C,R40*%
X413600000Y-125112500D03*
X413600000Y-123287500D03*
%TD*%
D17*
%TO.C,C128*%
X385675000Y-189800000D03*
X382725000Y-189800000D03*
%TD*%
D12*
%TO.C,R32*%
X408000000Y-76925000D03*
X408000000Y-78575000D03*
%TD*%
D17*
%TO.C,C112*%
X385675000Y-131400000D03*
X382725000Y-131400000D03*
%TD*%
D53*
%TO.C,U16*%
X407800001Y-102445000D03*
X407800001Y-103715000D03*
X407800001Y-104985000D03*
X407800001Y-106255000D03*
X418699999Y-106255000D03*
X418699999Y-104985000D03*
X418699999Y-103715000D03*
X418699999Y-102445000D03*
%TD*%
D14*
%TO.C,FB7*%
X404812500Y-148000000D03*
X406387500Y-148000000D03*
%TD*%
D18*
%TO.C,R63*%
X412175000Y-91000000D03*
X413825000Y-91000000D03*
%TD*%
D11*
%TO.C,D37*%
X409250000Y-176200000D03*
X412350000Y-176200000D03*
%TD*%
D18*
%TO.C,R3*%
X426175000Y-193000000D03*
X427825000Y-193000000D03*
%TD*%
D19*
%TO.C,C75*%
X410187500Y-196721170D03*
X409412500Y-195378830D03*
%TD*%
D37*
%TO.C,R103*%
X378737500Y-224000000D03*
X381662500Y-224000000D03*
%TD*%
D57*
%TO.C,X1*%
X414300000Y-64860000D03*
X414300000Y-67400000D03*
X414300000Y-69940000D03*
X418500000Y-69900000D03*
X418500000Y-67360000D03*
X418500000Y-64820000D03*
%TD*%
D37*
%TO.C,R99*%
X378737500Y-231600000D03*
X381662500Y-231600000D03*
%TD*%
%TO.C,R73*%
X369537500Y-224000000D03*
X372462500Y-224000000D03*
%TD*%
D32*
%TO.C,C34*%
X356250000Y-75400000D03*
X356250000Y-73500000D03*
%TD*%
D18*
%TO.C,TH3*%
X420175000Y-132000000D03*
X421825000Y-132000000D03*
%TD*%
D58*
%TO.C,U21*%
X377000000Y-59087500D03*
D59*
X378500000Y-59000000D03*
D58*
X380000000Y-59087500D03*
%TD*%
D33*
%TO.C,C88*%
X389200000Y-230825000D03*
X389200000Y-232375000D03*
%TD*%
D27*
%TO.C,C72*%
X410525000Y-201022724D03*
X409575000Y-199377276D03*
%TD*%
D11*
%TO.C,D35*%
X409250000Y-137400000D03*
X412350000Y-137400000D03*
%TD*%
D18*
%TO.C,R5*%
X426175000Y-150250000D03*
X427825000Y-150250000D03*
%TD*%
D27*
%TO.C,C47*%
X408825000Y-120772724D03*
X407875000Y-119127276D03*
%TD*%
D29*
%TO.C,FB11*%
X317787500Y-59250000D03*
X316212500Y-59250000D03*
%TD*%
D50*
%TO.C,R23*%
X345500000Y-79275000D03*
X345500000Y-77625000D03*
%TD*%
D23*
%TO.C,C82*%
X401700000Y-184225000D03*
X401700000Y-182675000D03*
%TD*%
D25*
%TO.C,R9*%
X407412500Y-215500000D03*
X405587500Y-215500000D03*
%TD*%
D37*
%TO.C,R85*%
X354937500Y-181100000D03*
X357862500Y-181100000D03*
%TD*%
D16*
%TO.C,C131*%
X430625000Y-81100000D03*
X432175000Y-81100000D03*
%TD*%
D50*
%TO.C,R88*%
X410400000Y-79025000D03*
X410400000Y-77375000D03*
%TD*%
D13*
%TO.C,D25*%
X312750000Y-93537500D03*
X312750000Y-91962500D03*
%TD*%
D44*
%TO.C,U8*%
X372945000Y-70974150D03*
X374215000Y-70974150D03*
X375485000Y-70974150D03*
X376755000Y-70974150D03*
X376755000Y-65525850D03*
X375485000Y-65525850D03*
X374215000Y-65525850D03*
X372945000Y-65525850D03*
%TD*%
D17*
%TO.C,C123*%
X385675000Y-166600000D03*
X382725000Y-166600000D03*
%TD*%
D11*
%TO.C,D10*%
X412350000Y-167000000D03*
X409250000Y-167000000D03*
%TD*%
D21*
%TO.C,C99*%
X381737500Y-95500000D03*
X380187500Y-95500000D03*
%TD*%
D42*
%TO.C,D23*%
X385587500Y-224950000D03*
X385587500Y-223050000D03*
X383712500Y-224000000D03*
%TD*%
D23*
%TO.C,C1*%
X421500000Y-95775000D03*
X421500000Y-94225000D03*
%TD*%
D21*
%TO.C,C28*%
X379025000Y-63250000D03*
X377475000Y-63250000D03*
%TD*%
D19*
%TO.C,C68*%
X418137500Y-190671170D03*
X417362500Y-189328830D03*
%TD*%
D18*
%TO.C,R33*%
X437175000Y-64500000D03*
X438825000Y-64500000D03*
%TD*%
D37*
%TO.C,R107*%
X378737500Y-243000000D03*
X381662500Y-243000000D03*
%TD*%
D49*
%TO.C,U18*%
X417425677Y-193712008D03*
X416790677Y-192612156D03*
X416155677Y-191512303D03*
X415520677Y-190412451D03*
X414885677Y-189312599D03*
X414250677Y-188212747D03*
X413615677Y-187112894D03*
X412980677Y-186013042D03*
X408174323Y-188787992D03*
X408809323Y-189887844D03*
X409444323Y-190987697D03*
X410079323Y-192087549D03*
X410714323Y-193187401D03*
X411349323Y-194287253D03*
X411984323Y-195387106D03*
X412619323Y-196486958D03*
%TD*%
D11*
%TO.C,D34*%
X361350000Y-191800000D03*
X364450000Y-191800000D03*
%TD*%
D37*
%TO.C,R102*%
X374137500Y-224000000D03*
X377062500Y-224000000D03*
%TD*%
D42*
%TO.C,D21*%
X385587500Y-232550000D03*
X385587500Y-230650000D03*
X383712500Y-231600000D03*
%TD*%
D18*
%TO.C,R16*%
X338975000Y-79600000D03*
X340625000Y-79600000D03*
%TD*%
D19*
%TO.C,C51*%
X410237500Y-119471170D03*
X409462500Y-118128830D03*
%TD*%
D33*
%TO.C,C36*%
X360600000Y-91425000D03*
X360600000Y-92975000D03*
%TD*%
D11*
%TO.C,D30*%
X364450000Y-188300000D03*
X361350000Y-188300000D03*
%TD*%
D21*
%TO.C,C27*%
X373525000Y-63250000D03*
X371975000Y-63250000D03*
%TD*%
D26*
%TO.C,C33*%
X401950000Y-69250000D03*
X400050000Y-69250000D03*
%TD*%
D60*
%TO.C,FB13*%
X387400000Y-89412500D03*
X387400000Y-90987500D03*
%TD*%
D27*
%TO.C,C48*%
X410575000Y-162322724D03*
X409625000Y-160677276D03*
%TD*%
D33*
%TO.C,C30*%
X367500000Y-72825000D03*
X367500000Y-74375000D03*
%TD*%
D18*
%TO.C,R6*%
X426175000Y-189000000D03*
X427825000Y-189000000D03*
%TD*%
D33*
%TO.C,C81*%
X405050000Y-179375000D03*
X405050000Y-180925000D03*
%TD*%
D40*
%TO.C,U10*%
X358560000Y-81989900D03*
X356020000Y-81989900D03*
X353480000Y-81989900D03*
X350940000Y-81989900D03*
X350940000Y-91210100D03*
X353480000Y-91210100D03*
X356020000Y-91210100D03*
X358560000Y-91210100D03*
%TD*%
D12*
%TO.C,R61*%
X387700000Y-242175000D03*
X387700000Y-243825000D03*
%TD*%
D37*
%TO.C,R64*%
X378737500Y-235400000D03*
X381662500Y-235400000D03*
%TD*%
D22*
%TO.C,D8*%
X333650000Y-73600000D03*
X330350000Y-73600000D03*
%TD*%
D33*
%TO.C,C80*%
X403350000Y-179375000D03*
X403350000Y-180925000D03*
%TD*%
D41*
%TO.C,R45*%
X400762500Y-150900000D03*
X397837500Y-150900000D03*
%TD*%
D17*
%TO.C,C118*%
X385675000Y-154200000D03*
X382725000Y-154200000D03*
%TD*%
D18*
%TO.C,R7*%
X428925000Y-60250000D03*
X430575000Y-60250000D03*
%TD*%
D17*
%TO.C,C119*%
X385675000Y-151000000D03*
X382725000Y-151000000D03*
%TD*%
D49*
%TO.C,U15*%
X417475677Y-155012008D03*
X416840677Y-153912156D03*
X416205677Y-152812303D03*
X415570677Y-151712451D03*
X414935677Y-150612599D03*
X414300677Y-149512747D03*
X413665677Y-148412894D03*
X413030677Y-147313042D03*
X408224323Y-150087992D03*
X408859323Y-151187844D03*
X409494323Y-152287697D03*
X410129323Y-153387549D03*
X410764323Y-154487401D03*
X411399323Y-155587253D03*
X412034323Y-156687106D03*
X412669323Y-157786958D03*
%TD*%
D48*
%TO.C,D5*%
X354200000Y-73512500D03*
X352300000Y-73512500D03*
X353250000Y-75387500D03*
%TD*%
D61*
%TO.C,U25*%
X380225000Y-97350000D03*
X380225000Y-98300000D03*
X380225000Y-99250000D03*
X382500000Y-99250000D03*
X382500000Y-97350000D03*
%TD*%
D13*
%TO.C,D27*%
X312750000Y-100537500D03*
X312750000Y-98962500D03*
%TD*%
D28*
%TO.C,R14*%
X340625000Y-61250000D03*
X338975000Y-61250000D03*
%TD*%
D11*
%TO.C,D29*%
X362750000Y-181100000D03*
X359650000Y-181100000D03*
%TD*%
D60*
%TO.C,FB12*%
X389800000Y-89425000D03*
X389800000Y-91000000D03*
%TD*%
D37*
%TO.C,R97*%
X378737500Y-239200000D03*
X381662500Y-239200000D03*
%TD*%
D26*
%TO.C,C21*%
X356700000Y-65750000D03*
X354800000Y-65750000D03*
%TD*%
D12*
%TO.C,R76*%
X387700000Y-226975000D03*
X387700000Y-228625000D03*
%TD*%
D23*
%TO.C,C20*%
X399200000Y-99825000D03*
X399200000Y-98275000D03*
%TD*%
D11*
%TO.C,D15*%
X412350000Y-206800000D03*
X409250000Y-206800000D03*
%TD*%
D33*
%TO.C,C91*%
X389200000Y-223225000D03*
X389200000Y-224775000D03*
%TD*%
%TO.C,C97*%
X379162500Y-101325000D03*
X379162500Y-102875000D03*
%TD*%
D62*
%TO.C,U24*%
X408450000Y-58750000D03*
D63*
X408362500Y-57250000D03*
D62*
X408450000Y-55750000D03*
%TD*%
D19*
%TO.C,C58*%
X407637500Y-115221170D03*
X406862500Y-113878830D03*
%TD*%
D33*
%TO.C,C90*%
X389200000Y-219425000D03*
X389200000Y-220975000D03*
%TD*%
D10*
%TO.C,R91*%
X395400000Y-163237500D03*
X395400000Y-166162500D03*
%TD*%
D23*
%TO.C,C132*%
X375000000Y-59275000D03*
X375000000Y-57725000D03*
%TD*%
D38*
%TO.C,C11*%
X414600000Y-74050000D03*
X414600000Y-75950000D03*
%TD*%
D33*
%TO.C,C98*%
X377562500Y-101325000D03*
X377562500Y-102875000D03*
%TD*%
D12*
%TO.C,R83*%
X314500000Y-102425000D03*
X314500000Y-104075000D03*
%TD*%
D16*
%TO.C,C6*%
X432925000Y-78050000D03*
X434475000Y-78050000D03*
%TD*%
D27*
%TO.C,C57*%
X404075000Y-151122724D03*
X403125000Y-149477276D03*
%TD*%
D64*
%TO.C,U23*%
X331137500Y-96175000D03*
X331137500Y-96825000D03*
X331137500Y-97475000D03*
X331137500Y-98125000D03*
X331137500Y-98775000D03*
X331137500Y-99425000D03*
X331137500Y-100075000D03*
X331137500Y-100725000D03*
X331137500Y-101375000D03*
X331137500Y-102025000D03*
X331137500Y-102675000D03*
X331137500Y-103325000D03*
X336862500Y-103325000D03*
X336862500Y-102675000D03*
X336862500Y-102025000D03*
X336862500Y-101375000D03*
X336862500Y-100725000D03*
X336862500Y-100075000D03*
X336862500Y-99425000D03*
X336862500Y-98775000D03*
X336862500Y-98125000D03*
X336862500Y-97475000D03*
X336862500Y-96825000D03*
X336862500Y-96175000D03*
%TD*%
D42*
%TO.C,D22*%
X385587500Y-221150000D03*
X385587500Y-219250000D03*
X383712500Y-220200000D03*
%TD*%
D37*
%TO.C,R98*%
X374137500Y-231600000D03*
X377062500Y-231600000D03*
%TD*%
D19*
%TO.C,C59*%
X406137500Y-112621170D03*
X405362500Y-111278830D03*
%TD*%
D37*
%TO.C,R66*%
X369537500Y-239200000D03*
X372462500Y-239200000D03*
%TD*%
D17*
%TO.C,C124*%
X385675000Y-211800000D03*
X382725000Y-211800000D03*
%TD*%
D16*
%TO.C,C85*%
X412225000Y-89300000D03*
X413775000Y-89300000D03*
%TD*%
D18*
%TO.C,R1*%
X426425000Y-115750000D03*
X428075000Y-115750000D03*
%TD*%
D16*
%TO.C,C3*%
X423275000Y-64350000D03*
X424825000Y-64350000D03*
%TD*%
D20*
%TO.C,R36*%
X405850000Y-130312500D03*
X405850000Y-128487500D03*
%TD*%
D17*
%TO.C,C122*%
X385675000Y-169800000D03*
X382725000Y-169800000D03*
%TD*%
D37*
%TO.C,R104*%
X374137500Y-227800000D03*
X377062500Y-227800000D03*
%TD*%
%TO.C,R75*%
X369537500Y-227800000D03*
X372462500Y-227800000D03*
%TD*%
D18*
%TO.C,R47*%
X398425000Y-145550000D03*
X400075000Y-145550000D03*
%TD*%
D12*
%TO.C,R19*%
X335000000Y-79775000D03*
X335000000Y-81425000D03*
%TD*%
D33*
%TO.C,C103*%
X338750000Y-96225000D03*
X338750000Y-97775000D03*
%TD*%
D17*
%TO.C,C125*%
X385675000Y-208600000D03*
X382725000Y-208600000D03*
%TD*%
D34*
%TO.C,L19*%
X375722500Y-169200000D03*
X359477500Y-169200000D03*
%TD*%
D65*
%TO.C,U2*%
X422250001Y-68250000D03*
X422250001Y-68749999D03*
X422250001Y-69250000D03*
X422250001Y-69749999D03*
X422250001Y-70250001D03*
X422250001Y-70750000D03*
X422250001Y-71249999D03*
X422250001Y-71750000D03*
X422250001Y-72250000D03*
X422250001Y-72750001D03*
X422250001Y-73250000D03*
X422250001Y-73749999D03*
X422250001Y-74250001D03*
X422250001Y-74750000D03*
X422250001Y-75250001D03*
X422250001Y-75750000D03*
D66*
X424250000Y-77749999D03*
X424749999Y-77749999D03*
X425250000Y-77749999D03*
X425749999Y-77749999D03*
X426250001Y-77749999D03*
X426750000Y-77749999D03*
X427249999Y-77749999D03*
X427750000Y-77749999D03*
X428250000Y-77749999D03*
X428750001Y-77749999D03*
X429250000Y-77749999D03*
X429749999Y-77749999D03*
X430250001Y-77749999D03*
X430750000Y-77749999D03*
X431250001Y-77749999D03*
X431750000Y-77749999D03*
D65*
X433749999Y-75750000D03*
X433749999Y-75250001D03*
X433749999Y-74750000D03*
X433749999Y-74250001D03*
X433749999Y-73749999D03*
X433749999Y-73250000D03*
X433749999Y-72750001D03*
X433749999Y-72250000D03*
X433749999Y-71750000D03*
X433749999Y-71249999D03*
X433749999Y-70750000D03*
X433749999Y-70250001D03*
X433749999Y-69749999D03*
X433749999Y-69250000D03*
X433749999Y-68749999D03*
X433749999Y-68250000D03*
D66*
X431750000Y-66250001D03*
X431250001Y-66250001D03*
X430750000Y-66250001D03*
X430250001Y-66250001D03*
X429749999Y-66250001D03*
X429250000Y-66250001D03*
X428750001Y-66250001D03*
X428250000Y-66250001D03*
X427750000Y-66250001D03*
X427249999Y-66250001D03*
X426750000Y-66250001D03*
X426250001Y-66250001D03*
X425749999Y-66250001D03*
X425250000Y-66250001D03*
X424749999Y-66250001D03*
X424250000Y-66250001D03*
%TD*%
D37*
%TO.C,R95*%
X369537500Y-235400000D03*
X372462500Y-235400000D03*
%TD*%
D28*
%TO.C,R31*%
X438825000Y-63000000D03*
X437175000Y-63000000D03*
%TD*%
D39*
%TO.C,C70*%
X401600000Y-213350000D03*
X403500000Y-213350000D03*
%TD*%
D25*
%TO.C,R89*%
X406112500Y-176400000D03*
X404287500Y-176400000D03*
%TD*%
D12*
%TO.C,R82*%
X314500000Y-98925000D03*
X314500000Y-100575000D03*
%TD*%
D18*
%TO.C,R10*%
X337675000Y-64500000D03*
X339325000Y-64500000D03*
%TD*%
%TO.C,R59*%
X398325000Y-182650000D03*
X399975000Y-182650000D03*
%TD*%
D67*
%TO.C,U4*%
X396737500Y-100000000D03*
X396737500Y-99050000D03*
X396737500Y-98100000D03*
X394462500Y-98100000D03*
X394462500Y-100000000D03*
%TD*%
D17*
%TO.C,C110*%
X385675000Y-115800000D03*
X382725000Y-115800000D03*
%TD*%
D12*
%TO.C,R34*%
X367500000Y-79175000D03*
X367500000Y-80825000D03*
%TD*%
D23*
%TO.C,C7*%
X412000000Y-71775000D03*
X412000000Y-70225000D03*
%TD*%
D12*
%TO.C,R18*%
X331500000Y-79775000D03*
X331500000Y-81425000D03*
%TD*%
D27*
%TO.C,C73*%
X408775000Y-198022724D03*
X407825000Y-196377276D03*
%TD*%
D68*
%TO.C,Q1*%
X335795000Y-73945000D03*
X335795000Y-75215000D03*
X335795000Y-76485000D03*
X335795000Y-77755000D03*
X340745000Y-77755000D03*
X340745000Y-76485000D03*
X340745000Y-75215000D03*
X340745000Y-73945000D03*
%TD*%
D14*
%TO.C,FB9*%
X404812500Y-146400000D03*
X406387500Y-146400000D03*
%TD*%
D28*
%TO.C,R62*%
X417825000Y-91000000D03*
X416175000Y-91000000D03*
%TD*%
D33*
%TO.C,C31*%
X373100000Y-72825000D03*
X373100000Y-74375000D03*
%TD*%
D17*
%TO.C,C127*%
X385675000Y-193000000D03*
X382725000Y-193000000D03*
%TD*%
D12*
%TO.C,R67*%
X387700000Y-238375000D03*
X387700000Y-240025000D03*
%TD*%
D21*
%TO.C,C8*%
X425825000Y-79600000D03*
X424275000Y-79600000D03*
%TD*%
D37*
%TO.C,R71*%
X369537500Y-220200000D03*
X372462500Y-220200000D03*
%TD*%
D11*
%TO.C,D36*%
X409250000Y-215500000D03*
X412350000Y-215500000D03*
%TD*%
D34*
%TO.C,L20*%
X375722500Y-208000000D03*
X359477500Y-208000000D03*
%TD*%
D16*
%TO.C,C37*%
X347475000Y-93500000D03*
X349025000Y-93500000D03*
%TD*%
D21*
%TO.C,C44*%
X419725000Y-100350000D03*
X418175000Y-100350000D03*
%TD*%
D37*
%TO.C,R106*%
X374137500Y-243000000D03*
X377062500Y-243000000D03*
%TD*%
D69*
%TO.C,D6*%
X358750000Y-75850000D03*
X358750000Y-72550000D03*
%TD*%
D45*
%TO.C,C136*%
X392800000Y-128075000D03*
X392800000Y-125125000D03*
%TD*%
D17*
%TO.C,C108*%
X385675000Y-109400000D03*
X382725000Y-109400000D03*
%TD*%
D18*
%TO.C,R46*%
X398425000Y-107050000D03*
X400075000Y-107050000D03*
%TD*%
D53*
%TO.C,U19*%
X407719787Y-179695000D03*
X407719787Y-180965000D03*
X407719787Y-182235000D03*
X407719787Y-183505000D03*
X418619785Y-183505000D03*
X418619785Y-182235000D03*
X418619785Y-180965000D03*
X418619785Y-179695000D03*
%TD*%
D69*
%TO.C,D7*%
X349500000Y-75850000D03*
X349500000Y-72550000D03*
%TD*%
D12*
%TO.C,R11*%
X334500000Y-65175000D03*
X334500000Y-66825000D03*
%TD*%
D26*
%TO.C,C13*%
X356700000Y-57000000D03*
X354800000Y-57000000D03*
%TD*%
D41*
%TO.C,R43*%
X400762500Y-112400000D03*
X397837500Y-112400000D03*
%TD*%
D18*
%TO.C,R51*%
X398425000Y-143950000D03*
X400075000Y-143950000D03*
%TD*%
D21*
%TO.C,C71*%
X419625000Y-177550000D03*
X418075000Y-177550000D03*
%TD*%
D58*
%TO.C,U20*%
X392900000Y-95950000D03*
D59*
X394400000Y-95862500D03*
D58*
X395900000Y-95950000D03*
%TD*%
D42*
%TO.C,D24*%
X385587500Y-228750000D03*
X385587500Y-226850000D03*
X383712500Y-227800000D03*
%TD*%
D12*
%TO.C,R72*%
X387700000Y-219375000D03*
X387700000Y-221025000D03*
%TD*%
M02*
