M48
; DRILL file {KiCad 8.0.1} date 2025-01-31T22:20:14-0500
; FORMAT={-:-/ absolute / inch / decimal}
; #@! TF.CreationDate,2025-01-31T22:20:14-05:00
; #@! TF.GenerationSoftware,Kicad,Pcbnew,8.0.1
; #@! TF.FileFunction,Plated,1,4,PTH
FMAT,2
INCH
; #@! TA.AperFunction,Plated,PTH,ViaDrill
T1C0.0157
; #@! TA.AperFunction,Plated,PTH,ComponentDrill
T2C0.0315
; #@! TA.AperFunction,Plated,PTH,ComponentDrill
T3C0.0335
; #@! TA.AperFunction,Plated,PTH,ComponentDrill
T4C0.0350
; #@! TA.AperFunction,Plated,PTH,ComponentDrill
T5C0.0394
; #@! TA.AperFunction,Plated,PTH,ComponentDrill
T6C0.0591
; #@! TA.AperFunction,Plated,PTH,ComponentDrill
T7C0.0709
; #@! TA.AperFunction,Plated,PTH,ComponentDrill
T8C0.0787
; #@! TA.AperFunction,Plated,PTH,ComponentDrill
T9C0.1260
%
G90
G05
T1
X12.4114Y-3.9862
X12.4213Y-3.6614
X12.4213Y-3.7992
X12.4213Y-4.091
X12.4409Y-2.4016
X12.4409Y-2.4409
X12.4705Y-3.1102
X12.5197Y-2.4114
X12.5197Y-2.4508
X12.9173Y-2.3386
X12.9626Y-4.0551
X12.9724Y-3.622
X12.9734Y-4.0167
X13.0413Y-2.9823
X13.0807Y-3.061
X13.0929Y-3.9918
X13.1004Y-3.6516
X13.1004Y-3.8091
X13.1004Y-3.9469
X13.1004Y-4.065
X13.1339Y-2.2441
X13.1417Y-2.4094
X13.1594Y-3.7303
X13.1988Y-3.7992
X13.1988Y-3.8583
X13.2111Y-2.4409
X13.2185Y-2.5591
X13.2382Y-3.6516
X13.248Y-2.2146
X13.3071Y-2.2146
X13.3169Y-3.6024
X13.3268Y-2.9134
X13.3366Y-3.0807
X13.376Y-3.7894
X13.376Y-3.8484
X13.3858Y-4.0551
X13.4449Y-3.9173
X13.4449Y-3.9764
X13.4449Y-4.065
X13.4547Y-2.5394
X13.5039Y-2.9724
X13.563Y-3.7303
X13.5728Y-2.4902
X13.6319Y-2.2244
X13.6319Y-2.372
X13.6319Y-3.6811
X13.6614Y-2.8445
X13.6693Y-6.248
X13.6732Y-6.9488
X13.7402Y-3.6024
X13.7692Y-2.3233
X13.7795Y-3.75
X13.9173Y-2.2441
X13.9173Y-2.3228
X13.9173Y-2.5098
X13.9173Y-2.5886
X13.9469Y-2.9724
X13.9665Y-3.75
X14.0256Y-2.8445
X14.1437Y-3.6614
X14.1732Y-4.5039
X14.1732Y-4.5354
X14.1732Y-4.5669
X14.1732Y-4.6417
X14.1732Y-4.6732
X14.1732Y-4.7047
X14.2421Y-3.5925
X14.3228Y-7.0984
X14.3228Y-7.1299
X14.3228Y-7.1614
X14.3228Y-7.2362
X14.3228Y-7.2677
X14.3228Y-7.2992
X14.3504Y-2.2933
X14.3898Y-7.3819
X14.3898Y-7.4134
X14.3898Y-7.4449
X14.3898Y-7.5197
X14.3898Y-7.5512
X14.3898Y-7.5827
X14.4094Y-2.5492
X14.4094Y-9.5669
X14.4193Y-2.8642
X14.4646Y-8.6693
X14.4646Y-8.8189
X14.4685Y-2.9724
X14.4685Y-3.0217
X14.4685Y-3.0709
X14.4803Y-9.1181
X14.4803Y-9.2677
X14.4803Y-9.4173
X14.4839Y-2.5295
X14.498Y-3.2283
X14.5276Y-2.9626
X14.5276Y-3.2579
X14.5768Y-2.9331
X14.6063Y-2.8445
X14.626Y-2.4508
X14.6457Y-2.8642
X14.6752Y-2.4508
X14.7343Y-2.9232
X14.7441Y-3.0217
X14.7827Y-3.001
X14.7933Y-2.5098
X14.8228Y-2.4508
X14.8327Y-2.8445
X14.8425Y-2.185
X14.8425Y-2.2244
X14.8425Y-2.2638
X14.8622Y-2.1457
X14.872Y-2.8642
X14.9016Y-2.1457
X14.9016Y-2.4508
X14.9409Y-2.1457
X14.9606Y-2.185
X14.9606Y-2.2244
X14.9606Y-2.2638
X14.9606Y-2.9232
X14.9803Y-2.4902
X14.9843Y-4.252
X14.9843Y-4.3701
X14.9843Y-4.4882
X14.9843Y-4.6063
X14.9843Y-4.9921
X14.9843Y-5.1102
X14.9843Y-5.2283
X14.9843Y-5.3465
X14.9843Y-5.7638
X14.9843Y-5.8819
X14.9843Y-6.0
X14.9843Y-6.1181
X14.9843Y-6.5039
X14.9843Y-6.622
X14.9843Y-6.7402
X14.9843Y-6.8583
X14.9843Y-7.2913
X14.9843Y-7.4094
X14.9843Y-7.5276
X14.9843Y-7.6457
X14.9843Y-8.0315
X14.9843Y-8.1496
X14.9843Y-8.2677
X14.9843Y-8.3858
X14.9892Y-3.0206
X15.0Y-2.3228
X15.0236Y-4.252
X15.0236Y-4.3701
X15.0236Y-4.4882
X15.0236Y-4.6063
X15.0236Y-4.9921
X15.0236Y-5.1102
X15.0236Y-5.2283
X15.0236Y-5.3465
X15.0236Y-5.7638
X15.0236Y-5.8819
X15.0236Y-6.0
X15.0236Y-6.1181
X15.0236Y-6.5039
X15.0236Y-6.622
X15.0236Y-6.7402
X15.0236Y-6.8583
X15.0236Y-7.2913
X15.0236Y-7.4094
X15.0236Y-7.5276
X15.0236Y-7.6457
X15.0236Y-8.0315
X15.0236Y-8.1496
X15.0236Y-8.2677
X15.0236Y-8.3858
X15.0295Y-2.4902
X15.0492Y-2.8445
X15.0984Y-2.5689
X15.1969Y-3.8425
X15.2232Y-9.0016
X15.2232Y-9.1516
X15.2232Y-9.3027
X15.2238Y-8.5989
X15.2238Y-8.7023
X15.2238Y-8.7485
X15.2238Y-8.8519
X15.2238Y-8.8981
X15.2238Y-9.0581
X15.2238Y-9.1951
X15.2238Y-9.3469
X15.2238Y-9.4504
X15.2238Y-9.4965
X15.2238Y-9.6
X15.2283Y-4.252
X15.2283Y-4.3701
X15.2283Y-4.4882
X15.2283Y-4.6063
X15.2283Y-4.9921
X15.2283Y-5.1102
X15.2283Y-5.2283
X15.2283Y-5.3465
X15.2283Y-5.7638
X15.2283Y-5.8819
X15.2283Y-6.0
X15.2283Y-6.1181
X15.2283Y-6.5039
X15.2283Y-6.622
X15.2283Y-6.7402
X15.2283Y-6.8583
X15.2283Y-7.2913
X15.2283Y-7.4094
X15.2283Y-7.5276
X15.2283Y-7.6457
X15.2283Y-8.0315
X15.2283Y-8.1496
X15.2283Y-8.2677
X15.2283Y-8.3858
X15.2421Y-2.4705
X15.2677Y-4.252
X15.2677Y-4.3701
X15.2677Y-4.4882
X15.2677Y-4.6063
X15.2677Y-4.9921
X15.2677Y-5.1102
X15.2677Y-5.2283
X15.2677Y-5.3465
X15.2677Y-5.7638
X15.2677Y-5.8819
X15.2677Y-6.0
X15.2677Y-6.1181
X15.2677Y-6.5039
X15.2677Y-6.622
X15.2677Y-6.7402
X15.2677Y-6.8583
X15.2677Y-7.2913
X15.2677Y-7.4094
X15.2677Y-7.5276
X15.2677Y-7.6457
X15.2677Y-8.0315
X15.2677Y-8.1496
X15.2677Y-8.2677
X15.2677Y-8.3858
X15.3071Y-3.9921
X15.3465Y-3.4724
X15.3839Y-2.1063
X15.3839Y-2.6181
X15.4331Y-3.7805
X15.4331Y-4.9606
X15.4331Y-6.4843
X15.4331Y-8.0079
X15.4646Y-4.9606
X15.4646Y-6.4843
X15.4646Y-8.0079
X15.4724Y-3.6772
X15.4724Y-3.7165
X15.4961Y-4.9606
X15.4961Y-6.4843
X15.4961Y-8.0079
X15.5197Y-2.9213
X15.5669Y-2.9242
X15.5827Y-3.6772
X15.5827Y-3.7165
X15.6299Y-2.877
X15.6693Y-3.937
X15.7567Y-8.3984
X15.7574Y-2.657
X15.7579Y-5.3228
X15.7581Y-6.8431
X15.7606Y-8.2055
X15.811Y-5.4173
X15.811Y-6.9291
X15.8236Y-7.4456
X15.8236Y-7.481
X15.8248Y-4.4075
X15.8248Y-4.4429
X15.825Y-5.9238
X15.825Y-5.9593
X15.8895Y-7.344
X15.8906Y-4.3058
X15.8908Y-5.8222
X15.8944Y-7.3049
X15.8956Y-4.2668
X15.8957Y-2.2146
X15.8957Y-2.2539
X15.8957Y-2.2933
X15.8958Y-5.7831
X15.8976Y-5.2205
X15.9055Y-6.7402
X15.9173Y-8.4843
X15.9291Y-5.3307
X15.9291Y-6.8627
X15.9297Y-8.2132
X15.9297Y-8.4057
X15.937Y-5.6398
X15.9449Y-2.1949
X15.9449Y-2.313
X15.9449Y-7.1575
X15.9457Y-7.6818
X15.9469Y-4.6437
X15.947Y-6.16
X15.9528Y-4.1182
X15.9843Y-2.1949
X15.9843Y-2.313
X15.9843Y-5.1772
X15.9843Y-6.7008
X15.9968Y-7.2212
X15.998Y-4.1831
X15.9988Y-5.6945
X16.0138Y-3.0994
X16.0165Y-7.922
X16.0169Y-7.9614
X16.0177Y-4.8839
X16.0177Y-4.9232
X16.0179Y-6.4002
X16.0183Y-6.4396
X16.0236Y-2.1949
X16.0236Y-2.313
X16.0598Y-7.4968
X16.061Y-4.4587
X16.0612Y-5.975
X16.0827Y-2.1555
X16.0827Y-3.1496
X16.0945Y-4.2795
X16.0984Y-5.7835
X16.0984Y-7.315
X16.1102Y-3.0472
X16.1732Y-2.7638
X16.1858Y-7.7133
X16.187Y-4.6752
X16.1872Y-6.1915
X16.1909Y-2.2343
X16.1909Y-2.4331
X16.2047Y-3.1102
X16.2283Y-2.4616
X16.2323Y-5.3543
X16.2323Y-6.626
X16.2323Y-6.8858
X16.2343Y-5.1004
X16.2343Y-8.1969
X16.2362Y-8.4252
X16.237Y-7.9456
X16.2449Y-7.7763
X16.2461Y-4.7382
X16.2463Y-6.2545
X16.2677Y-6.3386
X16.2835Y-4.8031
X16.3Y-7.2881
X16.3012Y-4.25
X16.3014Y-5.7663
X16.3386Y-3.5138
X16.3771Y-2.0866
X16.378Y-2.376
X16.3819Y-2.9134
X16.3819Y-2.9823
X16.3858Y-2.7638
X16.4016Y-2.5276
X16.4331Y-3.1998
X16.4446Y-7.3423
X16.4614Y-6.9456
X16.4626Y-3.9075
X16.4628Y-5.4238
X16.4732Y-7.4299
X16.4744Y-4.3917
X16.4746Y-5.9081
X16.4764Y-3.1594
X16.4764Y-3.1988
X16.4862Y-2.2638
X16.4968Y-7.4771
X16.498Y-4.439
X16.4982Y-5.9553
X16.5039Y-2.4902
X16.5059Y-2.8937
X16.5059Y-2.9429
X16.5059Y-5.1969
X16.5205Y-6.9456
X16.5217Y-3.9075
X16.5218Y-5.4238
X16.5433Y-7.4409
X16.5453Y-3.7697
X16.5906Y-5.8169
X16.5945Y-3.6713
X16.6299Y-5.8504
X16.6378Y-7.5354
X16.6535Y-5.2756
X16.654Y-5.9995
X16.6732Y-2.4902
X16.6732Y-2.9429
X16.6732Y-2.9823
X16.6732Y-3.0216
X16.6929Y-3.6417
X16.6929Y-5.3947
X16.7126Y-3.002
X16.7126Y-3.1791
X16.7224Y-2.4902
X16.7229Y-3.967
X16.7415Y-2.9048
X16.7416Y-2.8647
X16.7421Y-2.6673
X16.7421Y-2.7854
X16.7421Y-2.8248
X16.752Y-3.002
X16.752Y-4.311
X16.7525Y-5.3351
X16.7559Y-5.189
X16.7618Y-3.1791
X16.7618Y-3.8878
X16.7618Y-4.626
X16.7727Y-2.5455
X16.7835Y-2.7756
X16.7913Y-3.002
X16.7923Y-2.5114
X16.8012Y-5.2657
X16.8022Y-3.1064
X16.8209Y-2.4046
X16.8209Y-3.7008
X16.8307Y-3.2623
X16.8307Y-3.9567
X16.8406Y-5.9646
X16.8406Y-6.0236
X16.8406Y-7.4902
X16.8406Y-7.5492
X16.8504Y-2.6575
X16.8504Y-4.4488
X16.8504Y-4.5079
X16.8524Y-2.1516
X16.8594Y-3.7841
X16.8602Y-3.1299
X16.8602Y-3.2283
X16.8612Y-4.0256
X16.8661Y-6.8504
X16.8898Y-2.4902
X16.8898Y-3.8091
X16.9094Y-2.9833
X16.9104Y-3.248
X16.9193Y-3.7697
X16.9213Y-5.378
X16.9213Y-5.9843
X16.9291Y-2.4331
X16.9291Y-6.8504
X16.939Y-3.2776
X16.9528Y-5.3386
X16.9528Y-6.0157
X16.9587Y-2.4705
X16.9764Y-7.4252
X16.9764Y-7.5827
X16.9773Y-3.8101
X16.9783Y-3.8976
X16.9841Y-2.654
X16.9843Y-2.7372
X16.9843Y-6.0472
X16.986Y-5.3005
X16.998Y-2.372
X17.0079Y-3.9764
X17.0157Y-5.2677
X17.0157Y-6.0787
X17.0177Y-2.8248
X17.0472Y-3.1614
X17.0571Y-3.1201
X17.0714Y-3.9316
X17.0965Y-2.1063
X17.0965Y-2.3622
X17.1063Y-3.1201
X17.127Y-3.002
X17.1358Y-3.9567
X17.1363Y-3.9965
X17.1752Y-4.0256
X17.1757Y-4.0654
X17.1949Y-2.6575
X17.1949Y-2.7067
X17.2146Y-4.0945
X17.2441Y-4.124
X17.2736Y-2.8642
X17.2736Y-4.1535
T2
X12.4783Y-3.698
X12.4783Y-3.798
X12.4783Y-3.898
X12.4783Y-3.998
X12.7783Y-3.698
X12.7783Y-3.798
X12.7783Y-3.898
X12.7783Y-3.998
X13.2671Y-2.328
X13.2671Y-2.628
X13.3671Y-2.328
X13.3671Y-2.628
T3
X13.9665Y-2.1496
X13.9665Y-2.4154
X14.065Y-2.1496
X14.065Y-2.4154
X14.1634Y-2.1496
X14.1634Y-2.4154
X14.2618Y-2.1496
X14.2618Y-2.4154
T4
X12.7081Y-2.2766
X12.7081Y-2.3766
X12.7081Y-2.4766
X12.7081Y-2.5766
X12.8081Y-2.2266
X12.8081Y-2.3266
X12.8081Y-2.4266
X12.8081Y-2.5266
X12.9681Y-2.2766
X12.9681Y-2.3766
X12.9681Y-2.4766
X12.9681Y-2.5766
X13.0681Y-2.2266
X13.0681Y-2.3266
X13.0681Y-2.4266
X13.0681Y-2.5266
T5
X12.9134Y-7.3307
X12.9134Y-7.7244
X13.1142Y-6.4331
X13.1142Y-7.0236
X13.8661Y-5.7126
X13.8661Y-6.3031
X13.8858Y-7.1535
X13.8858Y-7.7441
X16.2598Y-3.3065
X16.2598Y-3.4065
X16.4173Y-3.3059
X16.4173Y-3.4059
X16.6526Y-2.114
X16.6526Y-2.214
X16.6526Y-2.314
X16.7526Y-2.114
X16.7526Y-2.214
X16.7526Y-2.314
T6
X15.4999Y-4.422
X15.4999Y-4.522
X15.4999Y-4.622
X15.4999Y-4.822
X15.4999Y-5.9378
X15.4999Y-6.0378
X15.4999Y-6.1378
X15.4999Y-6.3378
X15.4999Y-7.4614
X15.4999Y-7.5614
X15.4999Y-7.6614
X15.4999Y-7.8614
X15.7343Y-4.6287
X15.7343Y-4.8287
X15.7343Y-4.9287
X15.7343Y-5.0287
X15.7343Y-6.1445
X15.7343Y-6.3445
X15.7343Y-6.4445
X15.7343Y-6.5445
X15.7343Y-7.6681
X15.7343Y-7.8681
X15.7343Y-7.9681
X15.7343Y-8.0681
T7
X12.6289Y-2.9055
X12.6289Y-3.0709
X12.6289Y-3.2362
X12.6604Y-8.1063
X12.6604Y-8.2717
X12.7077Y-4.9665
X12.7077Y-5.1909
X12.7077Y-5.5374
X12.7077Y-5.7618
X12.7077Y-6.4545
X12.7077Y-6.6789
X12.7077Y-6.9033
X12.7077Y-7.1278
X12.8455Y-2.9055
X12.8455Y-3.0709
X12.8455Y-3.2362
X12.877Y-8.1063
X12.877Y-8.2717
X12.9242Y-4.9665
X12.9242Y-5.1909
X12.9242Y-5.5374
X12.9242Y-5.7618
X12.9242Y-6.4545
X12.9242Y-6.6789
X12.9242Y-6.9033
X12.9242Y-7.1278
T8
X12.6725Y-9.2677
X13.0662Y-9.2677
X13.2165Y-6.1102
X13.2165Y-7.5866
X13.2205Y-4.3624
X13.2205Y-5.8387
X13.4206Y-8.3228
X13.8143Y-8.3228
X14.0157Y-6.1102
X14.0157Y-7.5866
X14.0197Y-4.3624
X14.0197Y-5.8387
T9
X12.4016Y-4.6063
X12.4016Y-6.1024
X12.4016Y-7.7559
X13.5827Y-9.685
X14.6614Y-5.6457
X14.6614Y-7.1654
X16.8898Y-5.6457
X16.8898Y-7.1654
X17.4803Y-2.1732
X17.4803Y-3.8583
X17.4803Y-6.1811
X17.4803Y-8.4252
X17.4803Y-9.685
M30
