%TF.GenerationSoftware,KiCad,Pcbnew,8.0.1*%
%TF.CreationDate,2025-09-05T12:26:36-04:00*%
%TF.ProjectId,HV servo drive v1,48562073-6572-4766-9f20-647269766520,rev?*%
%TF.SameCoordinates,Original*%
%TF.FileFunction,Legend,Bot*%
%TF.FilePolarity,Positive*%
%FSLAX46Y46*%
G04 Gerber Fmt 4.6, Leading zero omitted, Abs format (unit mm)*
G04 Created by KiCad (PCBNEW 8.0.1) date 2025-09-05 12:26:36*
%MOMM*%
%LPD*%
G01*
G04 APERTURE LIST*
%ADD10C,0.500000*%
%ADD11C,0.150000*%
%ADD12C,0.125000*%
%ADD13C,0.100000*%
%ADD14C,0.400000*%
%ADD15C,0.120000*%
%ADD16C,0.200000*%
%ADD17C,0.800000*%
%ADD18C,0.010000*%
G04 APERTURE END LIST*
D10*
X308750000Y-87050000D02*
X314250000Y-87050000D01*
X316250000Y-87050000D02*
X321750000Y-87050000D01*
X323750000Y-87050000D02*
X329250000Y-87050000D01*
X331250000Y-87050000D02*
X336750000Y-87050000D01*
X338750000Y-87050000D02*
X344250000Y-87050000D01*
X346250000Y-87050000D02*
X351750000Y-87050000D01*
X353750000Y-87050000D02*
X359250000Y-87050000D01*
X361250000Y-87050000D02*
X363000000Y-87050000D01*
X394250000Y-70300000D02*
X389500000Y-70300000D01*
X363000000Y-87050000D02*
X363000000Y-81550000D01*
X363000000Y-79550000D02*
X363000000Y-74050000D01*
X363000000Y-72050000D02*
X363000000Y-68300000D01*
X395500000Y-69300000D02*
X395500000Y-63800000D01*
X395500000Y-61800000D02*
X395500000Y-56300000D01*
X395500000Y-54300000D02*
X395500000Y-49800000D01*
X387750000Y-70300000D02*
X385750000Y-68300000D01*
X363000000Y-68300000D02*
X368500000Y-68300000D01*
X370500000Y-68300000D02*
X376000000Y-68300000D01*
X378000000Y-68300000D02*
X383500000Y-68300000D01*
X385500000Y-68300000D02*
X385750000Y-68300000D01*
D11*
X350529887Y-61846009D02*
X350863220Y-61846009D01*
X350863220Y-62369819D02*
X350863220Y-61369819D01*
X350863220Y-61369819D02*
X350387030Y-61369819D01*
X350053696Y-62084104D02*
X349577506Y-62084104D01*
X350148934Y-62369819D02*
X349815601Y-61369819D01*
X349815601Y-61369819D02*
X349482268Y-62369819D01*
X349148934Y-62369819D02*
X349148934Y-61369819D01*
X349148934Y-61369819D02*
X348577506Y-62369819D01*
X348577506Y-62369819D02*
X348577506Y-61369819D01*
X348148934Y-61465057D02*
X348101315Y-61417438D01*
X348101315Y-61417438D02*
X348006077Y-61369819D01*
X348006077Y-61369819D02*
X347767982Y-61369819D01*
X347767982Y-61369819D02*
X347672744Y-61417438D01*
X347672744Y-61417438D02*
X347625125Y-61465057D01*
X347625125Y-61465057D02*
X347577506Y-61560295D01*
X347577506Y-61560295D02*
X347577506Y-61655533D01*
X347577506Y-61655533D02*
X347625125Y-61798390D01*
X347625125Y-61798390D02*
X348196553Y-62369819D01*
X348196553Y-62369819D02*
X347577506Y-62369819D01*
X419630180Y-88306077D02*
X419630180Y-87734649D01*
X418630180Y-88020363D02*
X419630180Y-88020363D01*
X418630180Y-87401315D02*
X419630180Y-87401315D01*
X419153990Y-87401315D02*
X419153990Y-86829887D01*
X418630180Y-86829887D02*
X419630180Y-86829887D01*
X419153990Y-86353696D02*
X419153990Y-86020363D01*
X418630180Y-85877506D02*
X418630180Y-86353696D01*
X418630180Y-86353696D02*
X419630180Y-86353696D01*
X419630180Y-86353696D02*
X419630180Y-85877506D01*
X418630180Y-84877506D02*
X419106371Y-85210839D01*
X418630180Y-85448934D02*
X419630180Y-85448934D01*
X419630180Y-85448934D02*
X419630180Y-85067982D01*
X419630180Y-85067982D02*
X419582561Y-84972744D01*
X419582561Y-84972744D02*
X419534942Y-84925125D01*
X419534942Y-84925125D02*
X419439704Y-84877506D01*
X419439704Y-84877506D02*
X419296847Y-84877506D01*
X419296847Y-84877506D02*
X419201609Y-84925125D01*
X419201609Y-84925125D02*
X419153990Y-84972744D01*
X419153990Y-84972744D02*
X419106371Y-85067982D01*
X419106371Y-85067982D02*
X419106371Y-85448934D01*
X418630180Y-84448934D02*
X419630180Y-84448934D01*
X419630180Y-84448934D02*
X418915895Y-84115601D01*
X418915895Y-84115601D02*
X419630180Y-83782268D01*
X419630180Y-83782268D02*
X418630180Y-83782268D01*
X419534942Y-82591791D02*
X419582561Y-82544172D01*
X419582561Y-82544172D02*
X419630180Y-82448934D01*
X419630180Y-82448934D02*
X419630180Y-82210839D01*
X419630180Y-82210839D02*
X419582561Y-82115601D01*
X419582561Y-82115601D02*
X419534942Y-82067982D01*
X419534942Y-82067982D02*
X419439704Y-82020363D01*
X419439704Y-82020363D02*
X419344466Y-82020363D01*
X419344466Y-82020363D02*
X419201609Y-82067982D01*
X419201609Y-82067982D02*
X418630180Y-82639410D01*
X418630180Y-82639410D02*
X418630180Y-82020363D01*
D12*
X421250475Y-53954750D02*
X421179047Y-53990464D01*
X421179047Y-53990464D02*
X421059999Y-53990464D01*
X421059999Y-53990464D02*
X421012380Y-53954750D01*
X421012380Y-53954750D02*
X420988571Y-53919035D01*
X420988571Y-53919035D02*
X420964761Y-53847607D01*
X420964761Y-53847607D02*
X420964761Y-53776178D01*
X420964761Y-53776178D02*
X420988571Y-53704750D01*
X420988571Y-53704750D02*
X421012380Y-53669035D01*
X421012380Y-53669035D02*
X421059999Y-53633321D01*
X421059999Y-53633321D02*
X421155237Y-53597607D01*
X421155237Y-53597607D02*
X421202856Y-53561892D01*
X421202856Y-53561892D02*
X421226666Y-53526178D01*
X421226666Y-53526178D02*
X421250475Y-53454750D01*
X421250475Y-53454750D02*
X421250475Y-53383321D01*
X421250475Y-53383321D02*
X421226666Y-53311892D01*
X421226666Y-53311892D02*
X421202856Y-53276178D01*
X421202856Y-53276178D02*
X421155237Y-53240464D01*
X421155237Y-53240464D02*
X421036190Y-53240464D01*
X421036190Y-53240464D02*
X420964761Y-53276178D01*
X420798095Y-53240464D02*
X420679047Y-53990464D01*
X420679047Y-53990464D02*
X420583809Y-53454750D01*
X420583809Y-53454750D02*
X420488571Y-53990464D01*
X420488571Y-53990464D02*
X420369524Y-53240464D01*
X420083809Y-53240464D02*
X419988571Y-53240464D01*
X419988571Y-53240464D02*
X419940952Y-53276178D01*
X419940952Y-53276178D02*
X419893333Y-53347607D01*
X419893333Y-53347607D02*
X419869523Y-53490464D01*
X419869523Y-53490464D02*
X419869523Y-53740464D01*
X419869523Y-53740464D02*
X419893333Y-53883321D01*
X419893333Y-53883321D02*
X419940952Y-53954750D01*
X419940952Y-53954750D02*
X419988571Y-53990464D01*
X419988571Y-53990464D02*
X420083809Y-53990464D01*
X420083809Y-53990464D02*
X420131428Y-53954750D01*
X420131428Y-53954750D02*
X420179047Y-53883321D01*
X420179047Y-53883321D02*
X420202856Y-53740464D01*
X420202856Y-53740464D02*
X420202856Y-53490464D01*
X420202856Y-53490464D02*
X420179047Y-53347607D01*
X420179047Y-53347607D02*
X420131428Y-53276178D01*
X420131428Y-53276178D02*
X420083809Y-53240464D01*
D13*
X360777068Y-51409133D02*
X360434211Y-51409133D01*
X360605639Y-52109133D02*
X360605639Y-51409133D01*
X360262782Y-51909133D02*
X359977068Y-51909133D01*
X360319925Y-52109133D02*
X360119925Y-51409133D01*
X360119925Y-51409133D02*
X359919925Y-52109133D01*
X359377067Y-52042466D02*
X359405639Y-52075800D01*
X359405639Y-52075800D02*
X359491353Y-52109133D01*
X359491353Y-52109133D02*
X359548496Y-52109133D01*
X359548496Y-52109133D02*
X359634210Y-52075800D01*
X359634210Y-52075800D02*
X359691353Y-52009133D01*
X359691353Y-52009133D02*
X359719924Y-51942466D01*
X359719924Y-51942466D02*
X359748496Y-51809133D01*
X359748496Y-51809133D02*
X359748496Y-51709133D01*
X359748496Y-51709133D02*
X359719924Y-51575800D01*
X359719924Y-51575800D02*
X359691353Y-51509133D01*
X359691353Y-51509133D02*
X359634210Y-51442466D01*
X359634210Y-51442466D02*
X359548496Y-51409133D01*
X359548496Y-51409133D02*
X359491353Y-51409133D01*
X359491353Y-51409133D02*
X359405639Y-51442466D01*
X359405639Y-51442466D02*
X359377067Y-51475800D01*
X359119924Y-52109133D02*
X359119924Y-51409133D01*
X359119924Y-51742466D02*
X358777067Y-51742466D01*
X358777067Y-52109133D02*
X358777067Y-51409133D01*
D12*
X428333809Y-58990464D02*
X428500475Y-58633321D01*
X428619523Y-58990464D02*
X428619523Y-58240464D01*
X428619523Y-58240464D02*
X428429047Y-58240464D01*
X428429047Y-58240464D02*
X428381428Y-58276178D01*
X428381428Y-58276178D02*
X428357618Y-58311892D01*
X428357618Y-58311892D02*
X428333809Y-58383321D01*
X428333809Y-58383321D02*
X428333809Y-58490464D01*
X428333809Y-58490464D02*
X428357618Y-58561892D01*
X428357618Y-58561892D02*
X428381428Y-58597607D01*
X428381428Y-58597607D02*
X428429047Y-58633321D01*
X428429047Y-58633321D02*
X428619523Y-58633321D01*
X428143332Y-58954750D02*
X428071904Y-58990464D01*
X428071904Y-58990464D02*
X427952856Y-58990464D01*
X427952856Y-58990464D02*
X427905237Y-58954750D01*
X427905237Y-58954750D02*
X427881428Y-58919035D01*
X427881428Y-58919035D02*
X427857618Y-58847607D01*
X427857618Y-58847607D02*
X427857618Y-58776178D01*
X427857618Y-58776178D02*
X427881428Y-58704750D01*
X427881428Y-58704750D02*
X427905237Y-58669035D01*
X427905237Y-58669035D02*
X427952856Y-58633321D01*
X427952856Y-58633321D02*
X428048094Y-58597607D01*
X428048094Y-58597607D02*
X428095713Y-58561892D01*
X428095713Y-58561892D02*
X428119523Y-58526178D01*
X428119523Y-58526178D02*
X428143332Y-58454750D01*
X428143332Y-58454750D02*
X428143332Y-58383321D01*
X428143332Y-58383321D02*
X428119523Y-58311892D01*
X428119523Y-58311892D02*
X428095713Y-58276178D01*
X428095713Y-58276178D02*
X428048094Y-58240464D01*
X428048094Y-58240464D02*
X427929047Y-58240464D01*
X427929047Y-58240464D02*
X427857618Y-58276178D01*
X427714761Y-58240464D02*
X427429047Y-58240464D01*
X427571904Y-58990464D02*
X427571904Y-58240464D01*
X428440952Y-53276178D02*
X428488571Y-53240464D01*
X428488571Y-53240464D02*
X428560000Y-53240464D01*
X428560000Y-53240464D02*
X428631428Y-53276178D01*
X428631428Y-53276178D02*
X428679047Y-53347607D01*
X428679047Y-53347607D02*
X428702857Y-53419035D01*
X428702857Y-53419035D02*
X428726666Y-53561892D01*
X428726666Y-53561892D02*
X428726666Y-53669035D01*
X428726666Y-53669035D02*
X428702857Y-53811892D01*
X428702857Y-53811892D02*
X428679047Y-53883321D01*
X428679047Y-53883321D02*
X428631428Y-53954750D01*
X428631428Y-53954750D02*
X428560000Y-53990464D01*
X428560000Y-53990464D02*
X428512381Y-53990464D01*
X428512381Y-53990464D02*
X428440952Y-53954750D01*
X428440952Y-53954750D02*
X428417143Y-53919035D01*
X428417143Y-53919035D02*
X428417143Y-53669035D01*
X428417143Y-53669035D02*
X428512381Y-53669035D01*
X428202857Y-53990464D02*
X428202857Y-53240464D01*
X428202857Y-53240464D02*
X427917143Y-53990464D01*
X427917143Y-53990464D02*
X427917143Y-53240464D01*
X427679047Y-53990464D02*
X427679047Y-53240464D01*
X427679047Y-53240464D02*
X427559999Y-53240464D01*
X427559999Y-53240464D02*
X427488571Y-53276178D01*
X427488571Y-53276178D02*
X427440952Y-53347607D01*
X427440952Y-53347607D02*
X427417142Y-53419035D01*
X427417142Y-53419035D02*
X427393333Y-53561892D01*
X427393333Y-53561892D02*
X427393333Y-53669035D01*
X427393333Y-53669035D02*
X427417142Y-53811892D01*
X427417142Y-53811892D02*
X427440952Y-53883321D01*
X427440952Y-53883321D02*
X427488571Y-53954750D01*
X427488571Y-53954750D02*
X427559999Y-53990464D01*
X427559999Y-53990464D02*
X427679047Y-53990464D01*
D14*
X361322557Y-76212057D02*
X361322557Y-73212057D01*
X360036843Y-76069200D02*
X359608272Y-76212057D01*
X359608272Y-76212057D02*
X358893986Y-76212057D01*
X358893986Y-76212057D02*
X358608272Y-76069200D01*
X358608272Y-76069200D02*
X358465414Y-75926342D01*
X358465414Y-75926342D02*
X358322557Y-75640628D01*
X358322557Y-75640628D02*
X358322557Y-75354914D01*
X358322557Y-75354914D02*
X358465414Y-75069200D01*
X358465414Y-75069200D02*
X358608272Y-74926342D01*
X358608272Y-74926342D02*
X358893986Y-74783485D01*
X358893986Y-74783485D02*
X359465414Y-74640628D01*
X359465414Y-74640628D02*
X359751129Y-74497771D01*
X359751129Y-74497771D02*
X359893986Y-74354914D01*
X359893986Y-74354914D02*
X360036843Y-74069200D01*
X360036843Y-74069200D02*
X360036843Y-73783485D01*
X360036843Y-73783485D02*
X359893986Y-73497771D01*
X359893986Y-73497771D02*
X359751129Y-73354914D01*
X359751129Y-73354914D02*
X359465414Y-73212057D01*
X359465414Y-73212057D02*
X358751129Y-73212057D01*
X358751129Y-73212057D02*
X358322557Y-73354914D01*
X356465414Y-73212057D02*
X355893986Y-73212057D01*
X355893986Y-73212057D02*
X355608271Y-73354914D01*
X355608271Y-73354914D02*
X355322557Y-73640628D01*
X355322557Y-73640628D02*
X355179700Y-74212057D01*
X355179700Y-74212057D02*
X355179700Y-75212057D01*
X355179700Y-75212057D02*
X355322557Y-75783485D01*
X355322557Y-75783485D02*
X355608271Y-76069200D01*
X355608271Y-76069200D02*
X355893986Y-76212057D01*
X355893986Y-76212057D02*
X356465414Y-76212057D01*
X356465414Y-76212057D02*
X356751129Y-76069200D01*
X356751129Y-76069200D02*
X357036843Y-75783485D01*
X357036843Y-75783485D02*
X357179700Y-75212057D01*
X357179700Y-75212057D02*
X357179700Y-74212057D01*
X357179700Y-74212057D02*
X357036843Y-73640628D01*
X357036843Y-73640628D02*
X356751129Y-73354914D01*
X356751129Y-73354914D02*
X356465414Y-73212057D01*
X352465414Y-76212057D02*
X353893986Y-76212057D01*
X353893986Y-76212057D02*
X353893986Y-73212057D01*
X351608272Y-75354914D02*
X350179701Y-75354914D01*
X351893986Y-76212057D02*
X350893986Y-73212057D01*
X350893986Y-73212057D02*
X349893986Y-76212057D01*
X349322557Y-73212057D02*
X347608272Y-73212057D01*
X348465414Y-76212057D02*
X348465414Y-73212057D01*
X346608272Y-74640628D02*
X345608272Y-74640628D01*
X345179700Y-76212057D02*
X346608272Y-76212057D01*
X346608272Y-76212057D02*
X346608272Y-73212057D01*
X346608272Y-73212057D02*
X345179700Y-73212057D01*
X343893986Y-76212057D02*
X343893986Y-73212057D01*
X343893986Y-73212057D02*
X343179700Y-73212057D01*
X343179700Y-73212057D02*
X342751129Y-73354914D01*
X342751129Y-73354914D02*
X342465414Y-73640628D01*
X342465414Y-73640628D02*
X342322557Y-73926342D01*
X342322557Y-73926342D02*
X342179700Y-74497771D01*
X342179700Y-74497771D02*
X342179700Y-74926342D01*
X342179700Y-74926342D02*
X342322557Y-75497771D01*
X342322557Y-75497771D02*
X342465414Y-75783485D01*
X342465414Y-75783485D02*
X342751129Y-76069200D01*
X342751129Y-76069200D02*
X343179700Y-76212057D01*
X343179700Y-76212057D02*
X343893986Y-76212057D01*
X338751129Y-75354914D02*
X337322558Y-75354914D01*
X339036843Y-76212057D02*
X338036843Y-73212057D01*
X338036843Y-73212057D02*
X337036843Y-76212057D01*
X334322557Y-76212057D02*
X335322557Y-74783485D01*
X336036843Y-76212057D02*
X336036843Y-73212057D01*
X336036843Y-73212057D02*
X334893986Y-73212057D01*
X334893986Y-73212057D02*
X334608271Y-73354914D01*
X334608271Y-73354914D02*
X334465414Y-73497771D01*
X334465414Y-73497771D02*
X334322557Y-73783485D01*
X334322557Y-73783485D02*
X334322557Y-74212057D01*
X334322557Y-74212057D02*
X334465414Y-74497771D01*
X334465414Y-74497771D02*
X334608271Y-74640628D01*
X334608271Y-74640628D02*
X334893986Y-74783485D01*
X334893986Y-74783485D02*
X336036843Y-74783485D01*
X333036843Y-74640628D02*
X332036843Y-74640628D01*
X331608271Y-76212057D02*
X333036843Y-76212057D01*
X333036843Y-76212057D02*
X333036843Y-73212057D01*
X333036843Y-73212057D02*
X331608271Y-73212057D01*
X330465414Y-75354914D02*
X329036843Y-75354914D01*
X330751128Y-76212057D02*
X329751128Y-73212057D01*
X329751128Y-73212057D02*
X328751128Y-76212057D01*
X409566665Y-79682225D02*
X409566665Y-76682225D01*
X409566665Y-78110796D02*
X407966665Y-78110796D01*
X407966665Y-79682225D02*
X407966665Y-76682225D01*
X406633332Y-79682225D02*
X406633332Y-76682225D01*
X403833332Y-76825082D02*
X404099999Y-76682225D01*
X404099999Y-76682225D02*
X404499999Y-76682225D01*
X404499999Y-76682225D02*
X404899999Y-76825082D01*
X404899999Y-76825082D02*
X405166666Y-77110796D01*
X405166666Y-77110796D02*
X405299999Y-77396510D01*
X405299999Y-77396510D02*
X405433332Y-77967939D01*
X405433332Y-77967939D02*
X405433332Y-78396510D01*
X405433332Y-78396510D02*
X405299999Y-78967939D01*
X405299999Y-78967939D02*
X405166666Y-79253653D01*
X405166666Y-79253653D02*
X404899999Y-79539368D01*
X404899999Y-79539368D02*
X404499999Y-79682225D01*
X404499999Y-79682225D02*
X404233332Y-79682225D01*
X404233332Y-79682225D02*
X403833332Y-79539368D01*
X403833332Y-79539368D02*
X403699999Y-79396510D01*
X403699999Y-79396510D02*
X403699999Y-78396510D01*
X403699999Y-78396510D02*
X404233332Y-78396510D01*
X402499999Y-79682225D02*
X402499999Y-76682225D01*
X402499999Y-78110796D02*
X400899999Y-78110796D01*
X400899999Y-79682225D02*
X400899999Y-76682225D01*
X397833333Y-76682225D02*
X396900000Y-79682225D01*
X396900000Y-79682225D02*
X395966666Y-76682225D01*
X394500000Y-76682225D02*
X393966666Y-76682225D01*
X393966666Y-76682225D02*
X393700000Y-76825082D01*
X393700000Y-76825082D02*
X393433333Y-77110796D01*
X393433333Y-77110796D02*
X393300000Y-77682225D01*
X393300000Y-77682225D02*
X393300000Y-78682225D01*
X393300000Y-78682225D02*
X393433333Y-79253653D01*
X393433333Y-79253653D02*
X393700000Y-79539368D01*
X393700000Y-79539368D02*
X393966666Y-79682225D01*
X393966666Y-79682225D02*
X394500000Y-79682225D01*
X394500000Y-79682225D02*
X394766666Y-79539368D01*
X394766666Y-79539368D02*
X395033333Y-79253653D01*
X395033333Y-79253653D02*
X395166666Y-78682225D01*
X395166666Y-78682225D02*
X395166666Y-77682225D01*
X395166666Y-77682225D02*
X395033333Y-77110796D01*
X395033333Y-77110796D02*
X394766666Y-76825082D01*
X394766666Y-76825082D02*
X394500000Y-76682225D01*
X390766667Y-79682225D02*
X392100000Y-79682225D01*
X392100000Y-79682225D02*
X392100000Y-76682225D01*
X390233333Y-76682225D02*
X388633333Y-76682225D01*
X389433333Y-79682225D02*
X389433333Y-76682225D01*
X387833333Y-78825082D02*
X386500000Y-78825082D01*
X388100000Y-79682225D02*
X387166667Y-76682225D01*
X387166667Y-76682225D02*
X386233333Y-79682225D01*
X383833333Y-76825082D02*
X384100000Y-76682225D01*
X384100000Y-76682225D02*
X384500000Y-76682225D01*
X384500000Y-76682225D02*
X384900000Y-76825082D01*
X384900000Y-76825082D02*
X385166667Y-77110796D01*
X385166667Y-77110796D02*
X385300000Y-77396510D01*
X385300000Y-77396510D02*
X385433333Y-77967939D01*
X385433333Y-77967939D02*
X385433333Y-78396510D01*
X385433333Y-78396510D02*
X385300000Y-78967939D01*
X385300000Y-78967939D02*
X385166667Y-79253653D01*
X385166667Y-79253653D02*
X384900000Y-79539368D01*
X384900000Y-79539368D02*
X384500000Y-79682225D01*
X384500000Y-79682225D02*
X384233333Y-79682225D01*
X384233333Y-79682225D02*
X383833333Y-79539368D01*
X383833333Y-79539368D02*
X383700000Y-79396510D01*
X383700000Y-79396510D02*
X383700000Y-78396510D01*
X383700000Y-78396510D02*
X384233333Y-78396510D01*
X382500000Y-78110796D02*
X381566667Y-78110796D01*
X381166667Y-79682225D02*
X382500000Y-79682225D01*
X382500000Y-79682225D02*
X382500000Y-76682225D01*
X382500000Y-76682225D02*
X381166667Y-76682225D01*
X377966667Y-78825082D02*
X376633334Y-78825082D01*
X378233334Y-79682225D02*
X377300001Y-76682225D01*
X377300001Y-76682225D02*
X376366667Y-79682225D01*
X373833334Y-79682225D02*
X374766667Y-78253653D01*
X375433334Y-79682225D02*
X375433334Y-76682225D01*
X375433334Y-76682225D02*
X374366667Y-76682225D01*
X374366667Y-76682225D02*
X374100001Y-76825082D01*
X374100001Y-76825082D02*
X373966667Y-76967939D01*
X373966667Y-76967939D02*
X373833334Y-77253653D01*
X373833334Y-77253653D02*
X373833334Y-77682225D01*
X373833334Y-77682225D02*
X373966667Y-77967939D01*
X373966667Y-77967939D02*
X374100001Y-78110796D01*
X374100001Y-78110796D02*
X374366667Y-78253653D01*
X374366667Y-78253653D02*
X375433334Y-78253653D01*
X372633334Y-78110796D02*
X371700001Y-78110796D01*
X371300001Y-79682225D02*
X372633334Y-79682225D01*
X372633334Y-79682225D02*
X372633334Y-76682225D01*
X372633334Y-76682225D02*
X371300001Y-76682225D01*
X370233334Y-78825082D02*
X368900001Y-78825082D01*
X370500001Y-79682225D02*
X369566668Y-76682225D01*
X369566668Y-76682225D02*
X368633334Y-79682225D01*
X403299998Y-84512057D02*
X403299998Y-81512057D01*
X403299998Y-81512057D02*
X402633331Y-81512057D01*
X402633331Y-81512057D02*
X402233331Y-81654914D01*
X402233331Y-81654914D02*
X401966665Y-81940628D01*
X401966665Y-81940628D02*
X401833331Y-82226342D01*
X401833331Y-82226342D02*
X401699998Y-82797771D01*
X401699998Y-82797771D02*
X401699998Y-83226342D01*
X401699998Y-83226342D02*
X401833331Y-83797771D01*
X401833331Y-83797771D02*
X401966665Y-84083485D01*
X401966665Y-84083485D02*
X402233331Y-84369200D01*
X402233331Y-84369200D02*
X402633331Y-84512057D01*
X402633331Y-84512057D02*
X403299998Y-84512057D01*
X399966665Y-81512057D02*
X399433331Y-81512057D01*
X399433331Y-81512057D02*
X399166665Y-81654914D01*
X399166665Y-81654914D02*
X398899998Y-81940628D01*
X398899998Y-81940628D02*
X398766665Y-82512057D01*
X398766665Y-82512057D02*
X398766665Y-83512057D01*
X398766665Y-83512057D02*
X398899998Y-84083485D01*
X398899998Y-84083485D02*
X399166665Y-84369200D01*
X399166665Y-84369200D02*
X399433331Y-84512057D01*
X399433331Y-84512057D02*
X399966665Y-84512057D01*
X399966665Y-84512057D02*
X400233331Y-84369200D01*
X400233331Y-84369200D02*
X400499998Y-84083485D01*
X400499998Y-84083485D02*
X400633331Y-83512057D01*
X400633331Y-83512057D02*
X400633331Y-82512057D01*
X400633331Y-82512057D02*
X400499998Y-81940628D01*
X400499998Y-81940628D02*
X400233331Y-81654914D01*
X400233331Y-81654914D02*
X399966665Y-81512057D01*
X397566665Y-84512057D02*
X397566665Y-81512057D01*
X397566665Y-81512057D02*
X395966665Y-84512057D01*
X395966665Y-84512057D02*
X395966665Y-81512057D01*
X394499999Y-81512057D02*
X394766665Y-82083485D01*
X393699999Y-81512057D02*
X392099999Y-81512057D01*
X392899999Y-84512057D02*
X392899999Y-81512057D01*
X389433333Y-81512057D02*
X387833333Y-81512057D01*
X388633333Y-84512057D02*
X388633333Y-81512057D01*
X386366667Y-81512057D02*
X385833333Y-81512057D01*
X385833333Y-81512057D02*
X385566667Y-81654914D01*
X385566667Y-81654914D02*
X385300000Y-81940628D01*
X385300000Y-81940628D02*
X385166667Y-82512057D01*
X385166667Y-82512057D02*
X385166667Y-83512057D01*
X385166667Y-83512057D02*
X385300000Y-84083485D01*
X385300000Y-84083485D02*
X385566667Y-84369200D01*
X385566667Y-84369200D02*
X385833333Y-84512057D01*
X385833333Y-84512057D02*
X386366667Y-84512057D01*
X386366667Y-84512057D02*
X386633333Y-84369200D01*
X386633333Y-84369200D02*
X386900000Y-84083485D01*
X386900000Y-84083485D02*
X387033333Y-83512057D01*
X387033333Y-83512057D02*
X387033333Y-82512057D01*
X387033333Y-82512057D02*
X386900000Y-81940628D01*
X386900000Y-81940628D02*
X386633333Y-81654914D01*
X386633333Y-81654914D02*
X386366667Y-81512057D01*
X383966667Y-81512057D02*
X383966667Y-83940628D01*
X383966667Y-83940628D02*
X383833334Y-84226342D01*
X383833334Y-84226342D02*
X383700000Y-84369200D01*
X383700000Y-84369200D02*
X383433334Y-84512057D01*
X383433334Y-84512057D02*
X382900000Y-84512057D01*
X382900000Y-84512057D02*
X382633334Y-84369200D01*
X382633334Y-84369200D02*
X382500000Y-84226342D01*
X382500000Y-84226342D02*
X382366667Y-83940628D01*
X382366667Y-83940628D02*
X382366667Y-81512057D01*
X379433334Y-84226342D02*
X379566667Y-84369200D01*
X379566667Y-84369200D02*
X379966667Y-84512057D01*
X379966667Y-84512057D02*
X380233334Y-84512057D01*
X380233334Y-84512057D02*
X380633334Y-84369200D01*
X380633334Y-84369200D02*
X380900001Y-84083485D01*
X380900001Y-84083485D02*
X381033334Y-83797771D01*
X381033334Y-83797771D02*
X381166667Y-83226342D01*
X381166667Y-83226342D02*
X381166667Y-82797771D01*
X381166667Y-82797771D02*
X381033334Y-82226342D01*
X381033334Y-82226342D02*
X380900001Y-81940628D01*
X380900001Y-81940628D02*
X380633334Y-81654914D01*
X380633334Y-81654914D02*
X380233334Y-81512057D01*
X380233334Y-81512057D02*
X379966667Y-81512057D01*
X379966667Y-81512057D02*
X379566667Y-81654914D01*
X379566667Y-81654914D02*
X379433334Y-81797771D01*
X378233334Y-84512057D02*
X378233334Y-81512057D01*
X378233334Y-82940628D02*
X376633334Y-82940628D01*
X376633334Y-84512057D02*
X376633334Y-81512057D01*
X375300001Y-84226342D02*
X375166668Y-84369200D01*
X375166668Y-84369200D02*
X375300001Y-84512057D01*
X375300001Y-84512057D02*
X375433334Y-84369200D01*
X375433334Y-84369200D02*
X375300001Y-84226342D01*
X375300001Y-84226342D02*
X375300001Y-84512057D01*
X375300001Y-83369200D02*
X375433334Y-81654914D01*
X375433334Y-81654914D02*
X375300001Y-81512057D01*
X375300001Y-81512057D02*
X375166668Y-81654914D01*
X375166668Y-81654914D02*
X375300001Y-83369200D01*
X375300001Y-83369200D02*
X375300001Y-81512057D01*
D12*
X421190951Y-56454750D02*
X421119523Y-56490464D01*
X421119523Y-56490464D02*
X421000475Y-56490464D01*
X421000475Y-56490464D02*
X420952856Y-56454750D01*
X420952856Y-56454750D02*
X420929047Y-56419035D01*
X420929047Y-56419035D02*
X420905237Y-56347607D01*
X420905237Y-56347607D02*
X420905237Y-56276178D01*
X420905237Y-56276178D02*
X420929047Y-56204750D01*
X420929047Y-56204750D02*
X420952856Y-56169035D01*
X420952856Y-56169035D02*
X421000475Y-56133321D01*
X421000475Y-56133321D02*
X421095713Y-56097607D01*
X421095713Y-56097607D02*
X421143332Y-56061892D01*
X421143332Y-56061892D02*
X421167142Y-56026178D01*
X421167142Y-56026178D02*
X421190951Y-55954750D01*
X421190951Y-55954750D02*
X421190951Y-55883321D01*
X421190951Y-55883321D02*
X421167142Y-55811892D01*
X421167142Y-55811892D02*
X421143332Y-55776178D01*
X421143332Y-55776178D02*
X421095713Y-55740464D01*
X421095713Y-55740464D02*
X420976666Y-55740464D01*
X420976666Y-55740464D02*
X420905237Y-55776178D01*
X420738571Y-55740464D02*
X420619523Y-56490464D01*
X420619523Y-56490464D02*
X420524285Y-55954750D01*
X420524285Y-55954750D02*
X420429047Y-56490464D01*
X420429047Y-56490464D02*
X420310000Y-55740464D01*
X419833809Y-56419035D02*
X419857618Y-56454750D01*
X419857618Y-56454750D02*
X419929047Y-56490464D01*
X419929047Y-56490464D02*
X419976666Y-56490464D01*
X419976666Y-56490464D02*
X420048094Y-56454750D01*
X420048094Y-56454750D02*
X420095713Y-56383321D01*
X420095713Y-56383321D02*
X420119523Y-56311892D01*
X420119523Y-56311892D02*
X420143332Y-56169035D01*
X420143332Y-56169035D02*
X420143332Y-56061892D01*
X420143332Y-56061892D02*
X420119523Y-55919035D01*
X420119523Y-55919035D02*
X420095713Y-55847607D01*
X420095713Y-55847607D02*
X420048094Y-55776178D01*
X420048094Y-55776178D02*
X419976666Y-55740464D01*
X419976666Y-55740464D02*
X419929047Y-55740464D01*
X419929047Y-55740464D02*
X419857618Y-55776178D01*
X419857618Y-55776178D02*
X419833809Y-55811892D01*
X419381428Y-56490464D02*
X419619523Y-56490464D01*
X419619523Y-56490464D02*
X419619523Y-55740464D01*
X419214761Y-56490464D02*
X419214761Y-55740464D01*
X418929047Y-56490464D02*
X419143332Y-56061892D01*
X418929047Y-55740464D02*
X419214761Y-56169035D01*
D13*
X362991353Y-52109133D02*
X362991353Y-51409133D01*
X362991353Y-51409133D02*
X362762782Y-51409133D01*
X362762782Y-51409133D02*
X362705639Y-51442466D01*
X362705639Y-51442466D02*
X362677068Y-51475800D01*
X362677068Y-51475800D02*
X362648496Y-51542466D01*
X362648496Y-51542466D02*
X362648496Y-51642466D01*
X362648496Y-51642466D02*
X362677068Y-51709133D01*
X362677068Y-51709133D02*
X362705639Y-51742466D01*
X362705639Y-51742466D02*
X362762782Y-51775800D01*
X362762782Y-51775800D02*
X362991353Y-51775800D01*
X362448496Y-51409133D02*
X362305639Y-52109133D01*
X362305639Y-52109133D02*
X362191353Y-51609133D01*
X362191353Y-51609133D02*
X362077068Y-52109133D01*
X362077068Y-52109133D02*
X361934211Y-51409133D01*
X361705639Y-52109133D02*
X361705639Y-51409133D01*
X361705639Y-51409133D02*
X361505639Y-51909133D01*
X361505639Y-51909133D02*
X361305639Y-51409133D01*
X361305639Y-51409133D02*
X361305639Y-52109133D01*
X355177068Y-51442466D02*
X355234211Y-51409133D01*
X355234211Y-51409133D02*
X355319925Y-51409133D01*
X355319925Y-51409133D02*
X355405639Y-51442466D01*
X355405639Y-51442466D02*
X355462782Y-51509133D01*
X355462782Y-51509133D02*
X355491353Y-51575800D01*
X355491353Y-51575800D02*
X355519925Y-51709133D01*
X355519925Y-51709133D02*
X355519925Y-51809133D01*
X355519925Y-51809133D02*
X355491353Y-51942466D01*
X355491353Y-51942466D02*
X355462782Y-52009133D01*
X355462782Y-52009133D02*
X355405639Y-52075800D01*
X355405639Y-52075800D02*
X355319925Y-52109133D01*
X355319925Y-52109133D02*
X355262782Y-52109133D01*
X355262782Y-52109133D02*
X355177068Y-52075800D01*
X355177068Y-52075800D02*
X355148496Y-52042466D01*
X355148496Y-52042466D02*
X355148496Y-51809133D01*
X355148496Y-51809133D02*
X355262782Y-51809133D01*
X354891353Y-52109133D02*
X354891353Y-51409133D01*
X354891353Y-51409133D02*
X354548496Y-52109133D01*
X354548496Y-52109133D02*
X354548496Y-51409133D01*
X354262782Y-52109133D02*
X354262782Y-51409133D01*
X354262782Y-51409133D02*
X354119925Y-51409133D01*
X354119925Y-51409133D02*
X354034211Y-51442466D01*
X354034211Y-51442466D02*
X353977068Y-51509133D01*
X353977068Y-51509133D02*
X353948497Y-51575800D01*
X353948497Y-51575800D02*
X353919925Y-51709133D01*
X353919925Y-51709133D02*
X353919925Y-51809133D01*
X353919925Y-51809133D02*
X353948497Y-51942466D01*
X353948497Y-51942466D02*
X353977068Y-52009133D01*
X353977068Y-52009133D02*
X354034211Y-52075800D01*
X354034211Y-52075800D02*
X354119925Y-52109133D01*
X354119925Y-52109133D02*
X354262782Y-52109133D01*
D11*
X444093712Y-63099999D02*
X442593712Y-63099999D01*
X442593712Y-63099999D02*
X442593712Y-63557142D01*
X442593712Y-63557142D02*
X442665141Y-63671427D01*
X442665141Y-63671427D02*
X442736569Y-63728570D01*
X442736569Y-63728570D02*
X442879426Y-63785713D01*
X442879426Y-63785713D02*
X443093712Y-63785713D01*
X443093712Y-63785713D02*
X443236569Y-63728570D01*
X443236569Y-63728570D02*
X443307998Y-63671427D01*
X443307998Y-63671427D02*
X443379426Y-63557142D01*
X443379426Y-63557142D02*
X443379426Y-63099999D01*
X444093712Y-64985713D02*
X443379426Y-64585713D01*
X444093712Y-64299999D02*
X442593712Y-64299999D01*
X442593712Y-64299999D02*
X442593712Y-64757142D01*
X442593712Y-64757142D02*
X442665141Y-64871427D01*
X442665141Y-64871427D02*
X442736569Y-64928570D01*
X442736569Y-64928570D02*
X442879426Y-64985713D01*
X442879426Y-64985713D02*
X443093712Y-64985713D01*
X443093712Y-64985713D02*
X443236569Y-64928570D01*
X443236569Y-64928570D02*
X443307998Y-64871427D01*
X443307998Y-64871427D02*
X443379426Y-64757142D01*
X443379426Y-64757142D02*
X443379426Y-64299999D01*
X442593712Y-65728570D02*
X442593712Y-65957142D01*
X442593712Y-65957142D02*
X442665141Y-66071427D01*
X442665141Y-66071427D02*
X442807998Y-66185713D01*
X442807998Y-66185713D02*
X443093712Y-66242856D01*
X443093712Y-66242856D02*
X443593712Y-66242856D01*
X443593712Y-66242856D02*
X443879426Y-66185713D01*
X443879426Y-66185713D02*
X444022284Y-66071427D01*
X444022284Y-66071427D02*
X444093712Y-65957142D01*
X444093712Y-65957142D02*
X444093712Y-65728570D01*
X444093712Y-65728570D02*
X444022284Y-65614285D01*
X444022284Y-65614285D02*
X443879426Y-65499999D01*
X443879426Y-65499999D02*
X443593712Y-65442856D01*
X443593712Y-65442856D02*
X443093712Y-65442856D01*
X443093712Y-65442856D02*
X442807998Y-65499999D01*
X442807998Y-65499999D02*
X442665141Y-65614285D01*
X442665141Y-65614285D02*
X442593712Y-65728570D01*
X442665141Y-67385713D02*
X442593712Y-67271428D01*
X442593712Y-67271428D02*
X442593712Y-67099999D01*
X442593712Y-67099999D02*
X442665141Y-66928570D01*
X442665141Y-66928570D02*
X442807998Y-66814285D01*
X442807998Y-66814285D02*
X442950855Y-66757142D01*
X442950855Y-66757142D02*
X443236569Y-66699999D01*
X443236569Y-66699999D02*
X443450855Y-66699999D01*
X443450855Y-66699999D02*
X443736569Y-66757142D01*
X443736569Y-66757142D02*
X443879426Y-66814285D01*
X443879426Y-66814285D02*
X444022284Y-66928570D01*
X444022284Y-66928570D02*
X444093712Y-67099999D01*
X444093712Y-67099999D02*
X444093712Y-67214285D01*
X444093712Y-67214285D02*
X444022284Y-67385713D01*
X444022284Y-67385713D02*
X443950855Y-67442856D01*
X443950855Y-67442856D02*
X443450855Y-67442856D01*
X443450855Y-67442856D02*
X443450855Y-67214285D01*
X444093712Y-68642856D02*
X443379426Y-68242856D01*
X444093712Y-67957142D02*
X442593712Y-67957142D01*
X442593712Y-67957142D02*
X442593712Y-68414285D01*
X442593712Y-68414285D02*
X442665141Y-68528570D01*
X442665141Y-68528570D02*
X442736569Y-68585713D01*
X442736569Y-68585713D02*
X442879426Y-68642856D01*
X442879426Y-68642856D02*
X443093712Y-68642856D01*
X443093712Y-68642856D02*
X443236569Y-68585713D01*
X443236569Y-68585713D02*
X443307998Y-68528570D01*
X443307998Y-68528570D02*
X443379426Y-68414285D01*
X443379426Y-68414285D02*
X443379426Y-67957142D01*
X443665141Y-69099999D02*
X443665141Y-69671428D01*
X444093712Y-68985713D02*
X442593712Y-69385713D01*
X442593712Y-69385713D02*
X444093712Y-69785713D01*
X444093712Y-70185713D02*
X442593712Y-70185713D01*
X442593712Y-70185713D02*
X443665141Y-70585713D01*
X443665141Y-70585713D02*
X442593712Y-70985713D01*
X442593712Y-70985713D02*
X444093712Y-70985713D01*
X444093712Y-71557142D02*
X442593712Y-71557142D01*
X442593712Y-71557142D02*
X443665141Y-71957142D01*
X443665141Y-71957142D02*
X442593712Y-72357142D01*
X442593712Y-72357142D02*
X444093712Y-72357142D01*
X443307998Y-72928571D02*
X443307998Y-73328571D01*
X444093712Y-73499999D02*
X444093712Y-72928571D01*
X444093712Y-72928571D02*
X442593712Y-72928571D01*
X442593712Y-72928571D02*
X442593712Y-73499999D01*
X444093712Y-74699999D02*
X443379426Y-74299999D01*
X444093712Y-74014285D02*
X442593712Y-74014285D01*
X442593712Y-74014285D02*
X442593712Y-74471428D01*
X442593712Y-74471428D02*
X442665141Y-74585713D01*
X442665141Y-74585713D02*
X442736569Y-74642856D01*
X442736569Y-74642856D02*
X442879426Y-74699999D01*
X442879426Y-74699999D02*
X443093712Y-74699999D01*
X443093712Y-74699999D02*
X443236569Y-74642856D01*
X443236569Y-74642856D02*
X443307998Y-74585713D01*
X443307998Y-74585713D02*
X443379426Y-74471428D01*
X443379426Y-74471428D02*
X443379426Y-74014285D01*
X444093712Y-76128571D02*
X442593712Y-76128571D01*
X444022284Y-76642857D02*
X444093712Y-76814286D01*
X444093712Y-76814286D02*
X444093712Y-77100000D01*
X444093712Y-77100000D02*
X444022284Y-77214286D01*
X444022284Y-77214286D02*
X443950855Y-77271428D01*
X443950855Y-77271428D02*
X443807998Y-77328571D01*
X443807998Y-77328571D02*
X443665141Y-77328571D01*
X443665141Y-77328571D02*
X443522284Y-77271428D01*
X443522284Y-77271428D02*
X443450855Y-77214286D01*
X443450855Y-77214286D02*
X443379426Y-77100000D01*
X443379426Y-77100000D02*
X443307998Y-76871428D01*
X443307998Y-76871428D02*
X443236569Y-76757143D01*
X443236569Y-76757143D02*
X443165141Y-76700000D01*
X443165141Y-76700000D02*
X443022284Y-76642857D01*
X443022284Y-76642857D02*
X442879426Y-76642857D01*
X442879426Y-76642857D02*
X442736569Y-76700000D01*
X442736569Y-76700000D02*
X442665141Y-76757143D01*
X442665141Y-76757143D02*
X442593712Y-76871428D01*
X442593712Y-76871428D02*
X442593712Y-77157143D01*
X442593712Y-77157143D02*
X442665141Y-77328571D01*
X444093712Y-78757143D02*
X442593712Y-78757143D01*
X442593712Y-78757143D02*
X444093712Y-79442857D01*
X444093712Y-79442857D02*
X442593712Y-79442857D01*
X442593712Y-80242857D02*
X442593712Y-80471429D01*
X442593712Y-80471429D02*
X442665141Y-80585714D01*
X442665141Y-80585714D02*
X442807998Y-80700000D01*
X442807998Y-80700000D02*
X443093712Y-80757143D01*
X443093712Y-80757143D02*
X443593712Y-80757143D01*
X443593712Y-80757143D02*
X443879426Y-80700000D01*
X443879426Y-80700000D02*
X444022284Y-80585714D01*
X444022284Y-80585714D02*
X444093712Y-80471429D01*
X444093712Y-80471429D02*
X444093712Y-80242857D01*
X444093712Y-80242857D02*
X444022284Y-80128572D01*
X444022284Y-80128572D02*
X443879426Y-80014286D01*
X443879426Y-80014286D02*
X443593712Y-79957143D01*
X443593712Y-79957143D02*
X443093712Y-79957143D01*
X443093712Y-79957143D02*
X442807998Y-80014286D01*
X442807998Y-80014286D02*
X442665141Y-80128572D01*
X442665141Y-80128572D02*
X442593712Y-80242857D01*
X442593712Y-81100000D02*
X442593712Y-81785715D01*
X444093712Y-81442857D02*
X442593712Y-81442857D01*
X444093712Y-83100001D02*
X442593712Y-83100001D01*
X444022284Y-83614287D02*
X444093712Y-83785716D01*
X444093712Y-83785716D02*
X444093712Y-84071430D01*
X444093712Y-84071430D02*
X444022284Y-84185716D01*
X444022284Y-84185716D02*
X443950855Y-84242858D01*
X443950855Y-84242858D02*
X443807998Y-84300001D01*
X443807998Y-84300001D02*
X443665141Y-84300001D01*
X443665141Y-84300001D02*
X443522284Y-84242858D01*
X443522284Y-84242858D02*
X443450855Y-84185716D01*
X443450855Y-84185716D02*
X443379426Y-84071430D01*
X443379426Y-84071430D02*
X443307998Y-83842858D01*
X443307998Y-83842858D02*
X443236569Y-83728573D01*
X443236569Y-83728573D02*
X443165141Y-83671430D01*
X443165141Y-83671430D02*
X443022284Y-83614287D01*
X443022284Y-83614287D02*
X442879426Y-83614287D01*
X442879426Y-83614287D02*
X442736569Y-83671430D01*
X442736569Y-83671430D02*
X442665141Y-83728573D01*
X442665141Y-83728573D02*
X442593712Y-83842858D01*
X442593712Y-83842858D02*
X442593712Y-84128573D01*
X442593712Y-84128573D02*
X442665141Y-84300001D01*
X442593712Y-85042858D02*
X442593712Y-85271430D01*
X442593712Y-85271430D02*
X442665141Y-85385715D01*
X442665141Y-85385715D02*
X442807998Y-85500001D01*
X442807998Y-85500001D02*
X443093712Y-85557144D01*
X443093712Y-85557144D02*
X443593712Y-85557144D01*
X443593712Y-85557144D02*
X443879426Y-85500001D01*
X443879426Y-85500001D02*
X444022284Y-85385715D01*
X444022284Y-85385715D02*
X444093712Y-85271430D01*
X444093712Y-85271430D02*
X444093712Y-85042858D01*
X444093712Y-85042858D02*
X444022284Y-84928573D01*
X444022284Y-84928573D02*
X443879426Y-84814287D01*
X443879426Y-84814287D02*
X443593712Y-84757144D01*
X443593712Y-84757144D02*
X443093712Y-84757144D01*
X443093712Y-84757144D02*
X442807998Y-84814287D01*
X442807998Y-84814287D02*
X442665141Y-84928573D01*
X442665141Y-84928573D02*
X442593712Y-85042858D01*
X444093712Y-86642858D02*
X444093712Y-86071430D01*
X444093712Y-86071430D02*
X442593712Y-86071430D01*
X443665141Y-86985716D02*
X443665141Y-87557145D01*
X444093712Y-86871430D02*
X442593712Y-87271430D01*
X442593712Y-87271430D02*
X444093712Y-87671430D01*
X442593712Y-87900001D02*
X442593712Y-88585716D01*
X444093712Y-88242858D02*
X442593712Y-88242858D01*
X443307998Y-88985716D02*
X443307998Y-89385716D01*
X444093712Y-89557144D02*
X444093712Y-88985716D01*
X444093712Y-88985716D02*
X442593712Y-88985716D01*
X442593712Y-88985716D02*
X442593712Y-89557144D01*
X444093712Y-90071430D02*
X442593712Y-90071430D01*
X442593712Y-90071430D02*
X442593712Y-90357144D01*
X442593712Y-90357144D02*
X442665141Y-90528573D01*
X442665141Y-90528573D02*
X442807998Y-90642858D01*
X442807998Y-90642858D02*
X442950855Y-90700001D01*
X442950855Y-90700001D02*
X443236569Y-90757144D01*
X443236569Y-90757144D02*
X443450855Y-90757144D01*
X443450855Y-90757144D02*
X443736569Y-90700001D01*
X443736569Y-90700001D02*
X443879426Y-90642858D01*
X443879426Y-90642858D02*
X444022284Y-90528573D01*
X444022284Y-90528573D02*
X444093712Y-90357144D01*
X444093712Y-90357144D02*
X444093712Y-90071430D01*
X446508628Y-62185712D02*
X445008628Y-62185712D01*
X445008628Y-62185712D02*
X445008628Y-62471426D01*
X445008628Y-62471426D02*
X445080057Y-62642855D01*
X445080057Y-62642855D02*
X445222914Y-62757140D01*
X445222914Y-62757140D02*
X445365771Y-62814283D01*
X445365771Y-62814283D02*
X445651485Y-62871426D01*
X445651485Y-62871426D02*
X445865771Y-62871426D01*
X445865771Y-62871426D02*
X446151485Y-62814283D01*
X446151485Y-62814283D02*
X446294342Y-62757140D01*
X446294342Y-62757140D02*
X446437200Y-62642855D01*
X446437200Y-62642855D02*
X446508628Y-62471426D01*
X446508628Y-62471426D02*
X446508628Y-62185712D01*
X445008628Y-63614283D02*
X445008628Y-63842855D01*
X445008628Y-63842855D02*
X445080057Y-63957140D01*
X445080057Y-63957140D02*
X445222914Y-64071426D01*
X445222914Y-64071426D02*
X445508628Y-64128569D01*
X445508628Y-64128569D02*
X446008628Y-64128569D01*
X446008628Y-64128569D02*
X446294342Y-64071426D01*
X446294342Y-64071426D02*
X446437200Y-63957140D01*
X446437200Y-63957140D02*
X446508628Y-63842855D01*
X446508628Y-63842855D02*
X446508628Y-63614283D01*
X446508628Y-63614283D02*
X446437200Y-63499998D01*
X446437200Y-63499998D02*
X446294342Y-63385712D01*
X446294342Y-63385712D02*
X446008628Y-63328569D01*
X446008628Y-63328569D02*
X445508628Y-63328569D01*
X445508628Y-63328569D02*
X445222914Y-63385712D01*
X445222914Y-63385712D02*
X445080057Y-63499998D01*
X445080057Y-63499998D02*
X445008628Y-63614283D01*
X446508628Y-65557141D02*
X445008628Y-65557141D01*
X445008628Y-65557141D02*
X446508628Y-66242855D01*
X446508628Y-66242855D02*
X445008628Y-66242855D01*
X445008628Y-67042855D02*
X445008628Y-67271427D01*
X445008628Y-67271427D02*
X445080057Y-67385712D01*
X445080057Y-67385712D02*
X445222914Y-67499998D01*
X445222914Y-67499998D02*
X445508628Y-67557141D01*
X445508628Y-67557141D02*
X446008628Y-67557141D01*
X446008628Y-67557141D02*
X446294342Y-67499998D01*
X446294342Y-67499998D02*
X446437200Y-67385712D01*
X446437200Y-67385712D02*
X446508628Y-67271427D01*
X446508628Y-67271427D02*
X446508628Y-67042855D01*
X446508628Y-67042855D02*
X446437200Y-66928570D01*
X446437200Y-66928570D02*
X446294342Y-66814284D01*
X446294342Y-66814284D02*
X446008628Y-66757141D01*
X446008628Y-66757141D02*
X445508628Y-66757141D01*
X445508628Y-66757141D02*
X445222914Y-66814284D01*
X445222914Y-66814284D02*
X445080057Y-66928570D01*
X445080057Y-66928570D02*
X445008628Y-67042855D01*
X445008628Y-67899998D02*
X445008628Y-68585713D01*
X446508628Y-68242855D02*
X445008628Y-68242855D01*
X445008628Y-69899999D02*
X446222914Y-69899999D01*
X446222914Y-69899999D02*
X446365771Y-69957142D01*
X446365771Y-69957142D02*
X446437200Y-70014285D01*
X446437200Y-70014285D02*
X446508628Y-70128570D01*
X446508628Y-70128570D02*
X446508628Y-70357142D01*
X446508628Y-70357142D02*
X446437200Y-70471427D01*
X446437200Y-70471427D02*
X446365771Y-70528570D01*
X446365771Y-70528570D02*
X446222914Y-70585713D01*
X446222914Y-70585713D02*
X445008628Y-70585713D01*
X446437200Y-71099999D02*
X446508628Y-71271428D01*
X446508628Y-71271428D02*
X446508628Y-71557142D01*
X446508628Y-71557142D02*
X446437200Y-71671428D01*
X446437200Y-71671428D02*
X446365771Y-71728570D01*
X446365771Y-71728570D02*
X446222914Y-71785713D01*
X446222914Y-71785713D02*
X446080057Y-71785713D01*
X446080057Y-71785713D02*
X445937200Y-71728570D01*
X445937200Y-71728570D02*
X445865771Y-71671428D01*
X445865771Y-71671428D02*
X445794342Y-71557142D01*
X445794342Y-71557142D02*
X445722914Y-71328570D01*
X445722914Y-71328570D02*
X445651485Y-71214285D01*
X445651485Y-71214285D02*
X445580057Y-71157142D01*
X445580057Y-71157142D02*
X445437200Y-71099999D01*
X445437200Y-71099999D02*
X445294342Y-71099999D01*
X445294342Y-71099999D02*
X445151485Y-71157142D01*
X445151485Y-71157142D02*
X445080057Y-71214285D01*
X445080057Y-71214285D02*
X445008628Y-71328570D01*
X445008628Y-71328570D02*
X445008628Y-71614285D01*
X445008628Y-71614285D02*
X445080057Y-71785713D01*
X445722914Y-72299999D02*
X445722914Y-72699999D01*
X446508628Y-72871427D02*
X446508628Y-72299999D01*
X446508628Y-72299999D02*
X445008628Y-72299999D01*
X445008628Y-72299999D02*
X445008628Y-72871427D01*
X446508628Y-74299999D02*
X445008628Y-74299999D01*
X445008628Y-74699999D02*
X445008628Y-75385714D01*
X446508628Y-75042856D02*
X445008628Y-75042856D01*
X445008628Y-76585714D02*
X446508628Y-76871428D01*
X446508628Y-76871428D02*
X445437200Y-77100000D01*
X445437200Y-77100000D02*
X446508628Y-77328571D01*
X446508628Y-77328571D02*
X445008628Y-77614286D01*
X446508628Y-78071429D02*
X445008628Y-78071429D01*
X445722914Y-78071429D02*
X445722914Y-78757143D01*
X446508628Y-78757143D02*
X445008628Y-78757143D01*
X445722914Y-79328572D02*
X445722914Y-79728572D01*
X446508628Y-79900000D02*
X446508628Y-79328572D01*
X446508628Y-79328572D02*
X445008628Y-79328572D01*
X445008628Y-79328572D02*
X445008628Y-79900000D01*
X446508628Y-80414286D02*
X445008628Y-80414286D01*
X445008628Y-80414286D02*
X446508628Y-81100000D01*
X446508628Y-81100000D02*
X445008628Y-81100000D01*
X446508628Y-82585715D02*
X445008628Y-82585715D01*
X445008628Y-82585715D02*
X445008628Y-82871429D01*
X445008628Y-82871429D02*
X445080057Y-83042858D01*
X445080057Y-83042858D02*
X445222914Y-83157143D01*
X445222914Y-83157143D02*
X445365771Y-83214286D01*
X445365771Y-83214286D02*
X445651485Y-83271429D01*
X445651485Y-83271429D02*
X445865771Y-83271429D01*
X445865771Y-83271429D02*
X446151485Y-83214286D01*
X446151485Y-83214286D02*
X446294342Y-83157143D01*
X446294342Y-83157143D02*
X446437200Y-83042858D01*
X446437200Y-83042858D02*
X446508628Y-82871429D01*
X446508628Y-82871429D02*
X446508628Y-82585715D01*
X446365771Y-84471429D02*
X446437200Y-84414286D01*
X446437200Y-84414286D02*
X446508628Y-84242858D01*
X446508628Y-84242858D02*
X446508628Y-84128572D01*
X446508628Y-84128572D02*
X446437200Y-83957143D01*
X446437200Y-83957143D02*
X446294342Y-83842858D01*
X446294342Y-83842858D02*
X446151485Y-83785715D01*
X446151485Y-83785715D02*
X445865771Y-83728572D01*
X445865771Y-83728572D02*
X445651485Y-83728572D01*
X445651485Y-83728572D02*
X445365771Y-83785715D01*
X445365771Y-83785715D02*
X445222914Y-83842858D01*
X445222914Y-83842858D02*
X445080057Y-83957143D01*
X445080057Y-83957143D02*
X445008628Y-84128572D01*
X445008628Y-84128572D02*
X445008628Y-84242858D01*
X445008628Y-84242858D02*
X445080057Y-84414286D01*
X445080057Y-84414286D02*
X445151485Y-84471429D01*
X446508628Y-85900001D02*
X445008628Y-85900001D01*
X446437200Y-86414287D02*
X446508628Y-86585716D01*
X446508628Y-86585716D02*
X446508628Y-86871430D01*
X446508628Y-86871430D02*
X446437200Y-86985716D01*
X446437200Y-86985716D02*
X446365771Y-87042858D01*
X446365771Y-87042858D02*
X446222914Y-87100001D01*
X446222914Y-87100001D02*
X446080057Y-87100001D01*
X446080057Y-87100001D02*
X445937200Y-87042858D01*
X445937200Y-87042858D02*
X445865771Y-86985716D01*
X445865771Y-86985716D02*
X445794342Y-86871430D01*
X445794342Y-86871430D02*
X445722914Y-86642858D01*
X445722914Y-86642858D02*
X445651485Y-86528573D01*
X445651485Y-86528573D02*
X445580057Y-86471430D01*
X445580057Y-86471430D02*
X445437200Y-86414287D01*
X445437200Y-86414287D02*
X445294342Y-86414287D01*
X445294342Y-86414287D02*
X445151485Y-86471430D01*
X445151485Y-86471430D02*
X445080057Y-86528573D01*
X445080057Y-86528573D02*
X445008628Y-86642858D01*
X445008628Y-86642858D02*
X445008628Y-86928573D01*
X445008628Y-86928573D02*
X445080057Y-87100001D01*
X445008628Y-88757144D02*
X445008628Y-88985716D01*
X445008628Y-88985716D02*
X445080057Y-89100001D01*
X445080057Y-89100001D02*
X445222914Y-89214287D01*
X445222914Y-89214287D02*
X445508628Y-89271430D01*
X445508628Y-89271430D02*
X446008628Y-89271430D01*
X446008628Y-89271430D02*
X446294342Y-89214287D01*
X446294342Y-89214287D02*
X446437200Y-89100001D01*
X446437200Y-89100001D02*
X446508628Y-88985716D01*
X446508628Y-88985716D02*
X446508628Y-88757144D01*
X446508628Y-88757144D02*
X446437200Y-88642859D01*
X446437200Y-88642859D02*
X446294342Y-88528573D01*
X446294342Y-88528573D02*
X446008628Y-88471430D01*
X446008628Y-88471430D02*
X445508628Y-88471430D01*
X445508628Y-88471430D02*
X445222914Y-88528573D01*
X445222914Y-88528573D02*
X445080057Y-88642859D01*
X445080057Y-88642859D02*
X445008628Y-88757144D01*
X446508628Y-89785716D02*
X445008628Y-89785716D01*
X445008628Y-89785716D02*
X446508628Y-90471430D01*
X446508628Y-90471430D02*
X445008628Y-90471430D01*
X446365771Y-91042859D02*
X446437200Y-91100002D01*
X446437200Y-91100002D02*
X446508628Y-91042859D01*
X446508628Y-91042859D02*
X446437200Y-90985716D01*
X446437200Y-90985716D02*
X446365771Y-91042859D01*
X446365771Y-91042859D02*
X446508628Y-91042859D01*
X445937200Y-91042859D02*
X445080057Y-90985716D01*
X445080057Y-90985716D02*
X445008628Y-91042859D01*
X445008628Y-91042859D02*
X445080057Y-91100002D01*
X445080057Y-91100002D02*
X445937200Y-91042859D01*
X445937200Y-91042859D02*
X445008628Y-91042859D01*
X446365771Y-91614288D02*
X446437200Y-91671431D01*
X446437200Y-91671431D02*
X446508628Y-91614288D01*
X446508628Y-91614288D02*
X446437200Y-91557145D01*
X446437200Y-91557145D02*
X446365771Y-91614288D01*
X446365771Y-91614288D02*
X446508628Y-91614288D01*
X445937200Y-91614288D02*
X445080057Y-91557145D01*
X445080057Y-91557145D02*
X445008628Y-91614288D01*
X445008628Y-91614288D02*
X445080057Y-91671431D01*
X445080057Y-91671431D02*
X445937200Y-91614288D01*
X445937200Y-91614288D02*
X445008628Y-91614288D01*
D12*
X428798094Y-55740464D02*
X428488570Y-55740464D01*
X428488570Y-55740464D02*
X428655237Y-56026178D01*
X428655237Y-56026178D02*
X428583808Y-56026178D01*
X428583808Y-56026178D02*
X428536189Y-56061892D01*
X428536189Y-56061892D02*
X428512380Y-56097607D01*
X428512380Y-56097607D02*
X428488570Y-56169035D01*
X428488570Y-56169035D02*
X428488570Y-56347607D01*
X428488570Y-56347607D02*
X428512380Y-56419035D01*
X428512380Y-56419035D02*
X428536189Y-56454750D01*
X428536189Y-56454750D02*
X428583808Y-56490464D01*
X428583808Y-56490464D02*
X428726665Y-56490464D01*
X428726665Y-56490464D02*
X428774284Y-56454750D01*
X428774284Y-56454750D02*
X428798094Y-56419035D01*
X428274285Y-56419035D02*
X428250475Y-56454750D01*
X428250475Y-56454750D02*
X428274285Y-56490464D01*
X428274285Y-56490464D02*
X428298094Y-56454750D01*
X428298094Y-56454750D02*
X428274285Y-56419035D01*
X428274285Y-56419035D02*
X428274285Y-56490464D01*
X428083809Y-55740464D02*
X427774285Y-55740464D01*
X427774285Y-55740464D02*
X427940952Y-56026178D01*
X427940952Y-56026178D02*
X427869523Y-56026178D01*
X427869523Y-56026178D02*
X427821904Y-56061892D01*
X427821904Y-56061892D02*
X427798095Y-56097607D01*
X427798095Y-56097607D02*
X427774285Y-56169035D01*
X427774285Y-56169035D02*
X427774285Y-56347607D01*
X427774285Y-56347607D02*
X427798095Y-56419035D01*
X427798095Y-56419035D02*
X427821904Y-56454750D01*
X427821904Y-56454750D02*
X427869523Y-56490464D01*
X427869523Y-56490464D02*
X428012380Y-56490464D01*
X428012380Y-56490464D02*
X428059999Y-56454750D01*
X428059999Y-56454750D02*
X428083809Y-56419035D01*
X427631428Y-55740464D02*
X427464762Y-56490464D01*
X427464762Y-56490464D02*
X427298095Y-55740464D01*
X421119523Y-59204750D02*
X421048095Y-59240464D01*
X421048095Y-59240464D02*
X420929047Y-59240464D01*
X420929047Y-59240464D02*
X420881428Y-59204750D01*
X420881428Y-59204750D02*
X420857619Y-59169035D01*
X420857619Y-59169035D02*
X420833809Y-59097607D01*
X420833809Y-59097607D02*
X420833809Y-59026178D01*
X420833809Y-59026178D02*
X420857619Y-58954750D01*
X420857619Y-58954750D02*
X420881428Y-58919035D01*
X420881428Y-58919035D02*
X420929047Y-58883321D01*
X420929047Y-58883321D02*
X421024285Y-58847607D01*
X421024285Y-58847607D02*
X421071904Y-58811892D01*
X421071904Y-58811892D02*
X421095714Y-58776178D01*
X421095714Y-58776178D02*
X421119523Y-58704750D01*
X421119523Y-58704750D02*
X421119523Y-58633321D01*
X421119523Y-58633321D02*
X421095714Y-58561892D01*
X421095714Y-58561892D02*
X421071904Y-58526178D01*
X421071904Y-58526178D02*
X421024285Y-58490464D01*
X421024285Y-58490464D02*
X420905238Y-58490464D01*
X420905238Y-58490464D02*
X420833809Y-58526178D01*
X420667143Y-58490464D02*
X420548095Y-59240464D01*
X420548095Y-59240464D02*
X420452857Y-58704750D01*
X420452857Y-58704750D02*
X420357619Y-59240464D01*
X420357619Y-59240464D02*
X420238572Y-58490464D01*
X420048095Y-59240464D02*
X420048095Y-58490464D01*
X420048095Y-58490464D02*
X419929047Y-58490464D01*
X419929047Y-58490464D02*
X419857619Y-58526178D01*
X419857619Y-58526178D02*
X419810000Y-58597607D01*
X419810000Y-58597607D02*
X419786190Y-58669035D01*
X419786190Y-58669035D02*
X419762381Y-58811892D01*
X419762381Y-58811892D02*
X419762381Y-58919035D01*
X419762381Y-58919035D02*
X419786190Y-59061892D01*
X419786190Y-59061892D02*
X419810000Y-59133321D01*
X419810000Y-59133321D02*
X419857619Y-59204750D01*
X419857619Y-59204750D02*
X419929047Y-59240464D01*
X419929047Y-59240464D02*
X420048095Y-59240464D01*
X419548095Y-59240464D02*
X419548095Y-58490464D01*
X419214762Y-58490464D02*
X419119524Y-58490464D01*
X419119524Y-58490464D02*
X419071905Y-58526178D01*
X419071905Y-58526178D02*
X419024286Y-58597607D01*
X419024286Y-58597607D02*
X419000476Y-58740464D01*
X419000476Y-58740464D02*
X419000476Y-58990464D01*
X419000476Y-58990464D02*
X419024286Y-59133321D01*
X419024286Y-59133321D02*
X419071905Y-59204750D01*
X419071905Y-59204750D02*
X419119524Y-59240464D01*
X419119524Y-59240464D02*
X419214762Y-59240464D01*
X419214762Y-59240464D02*
X419262381Y-59204750D01*
X419262381Y-59204750D02*
X419310000Y-59133321D01*
X419310000Y-59133321D02*
X419333809Y-58990464D01*
X419333809Y-58990464D02*
X419333809Y-58740464D01*
X419333809Y-58740464D02*
X419310000Y-58597607D01*
X419310000Y-58597607D02*
X419262381Y-58526178D01*
X419262381Y-58526178D02*
X419214762Y-58490464D01*
D14*
X379433332Y-245812057D02*
X379433332Y-242812057D01*
X379433332Y-244240628D02*
X377833332Y-244240628D01*
X377833332Y-245812057D02*
X377833332Y-242812057D01*
X376499999Y-245812057D02*
X376499999Y-242812057D01*
X373699999Y-242954914D02*
X373966666Y-242812057D01*
X373966666Y-242812057D02*
X374366666Y-242812057D01*
X374366666Y-242812057D02*
X374766666Y-242954914D01*
X374766666Y-242954914D02*
X375033333Y-243240628D01*
X375033333Y-243240628D02*
X375166666Y-243526342D01*
X375166666Y-243526342D02*
X375299999Y-244097771D01*
X375299999Y-244097771D02*
X375299999Y-244526342D01*
X375299999Y-244526342D02*
X375166666Y-245097771D01*
X375166666Y-245097771D02*
X375033333Y-245383485D01*
X375033333Y-245383485D02*
X374766666Y-245669200D01*
X374766666Y-245669200D02*
X374366666Y-245812057D01*
X374366666Y-245812057D02*
X374099999Y-245812057D01*
X374099999Y-245812057D02*
X373699999Y-245669200D01*
X373699999Y-245669200D02*
X373566666Y-245526342D01*
X373566666Y-245526342D02*
X373566666Y-244526342D01*
X373566666Y-244526342D02*
X374099999Y-244526342D01*
X372366666Y-245812057D02*
X372366666Y-242812057D01*
X372366666Y-244240628D02*
X370766666Y-244240628D01*
X370766666Y-245812057D02*
X370766666Y-242812057D01*
X367700000Y-242812057D02*
X366766667Y-245812057D01*
X366766667Y-245812057D02*
X365833333Y-242812057D01*
X364366667Y-242812057D02*
X363833333Y-242812057D01*
X363833333Y-242812057D02*
X363566667Y-242954914D01*
X363566667Y-242954914D02*
X363300000Y-243240628D01*
X363300000Y-243240628D02*
X363166667Y-243812057D01*
X363166667Y-243812057D02*
X363166667Y-244812057D01*
X363166667Y-244812057D02*
X363300000Y-245383485D01*
X363300000Y-245383485D02*
X363566667Y-245669200D01*
X363566667Y-245669200D02*
X363833333Y-245812057D01*
X363833333Y-245812057D02*
X364366667Y-245812057D01*
X364366667Y-245812057D02*
X364633333Y-245669200D01*
X364633333Y-245669200D02*
X364900000Y-245383485D01*
X364900000Y-245383485D02*
X365033333Y-244812057D01*
X365033333Y-244812057D02*
X365033333Y-243812057D01*
X365033333Y-243812057D02*
X364900000Y-243240628D01*
X364900000Y-243240628D02*
X364633333Y-242954914D01*
X364633333Y-242954914D02*
X364366667Y-242812057D01*
X360633334Y-245812057D02*
X361966667Y-245812057D01*
X361966667Y-245812057D02*
X361966667Y-242812057D01*
X360100000Y-242812057D02*
X358500000Y-242812057D01*
X359300000Y-245812057D02*
X359300000Y-242812057D01*
X357700000Y-244954914D02*
X356366667Y-244954914D01*
X357966667Y-245812057D02*
X357033334Y-242812057D01*
X357033334Y-242812057D02*
X356100000Y-245812057D01*
X353700000Y-242954914D02*
X353966667Y-242812057D01*
X353966667Y-242812057D02*
X354366667Y-242812057D01*
X354366667Y-242812057D02*
X354766667Y-242954914D01*
X354766667Y-242954914D02*
X355033334Y-243240628D01*
X355033334Y-243240628D02*
X355166667Y-243526342D01*
X355166667Y-243526342D02*
X355300000Y-244097771D01*
X355300000Y-244097771D02*
X355300000Y-244526342D01*
X355300000Y-244526342D02*
X355166667Y-245097771D01*
X355166667Y-245097771D02*
X355033334Y-245383485D01*
X355033334Y-245383485D02*
X354766667Y-245669200D01*
X354766667Y-245669200D02*
X354366667Y-245812057D01*
X354366667Y-245812057D02*
X354100000Y-245812057D01*
X354100000Y-245812057D02*
X353700000Y-245669200D01*
X353700000Y-245669200D02*
X353566667Y-245526342D01*
X353566667Y-245526342D02*
X353566667Y-244526342D01*
X353566667Y-244526342D02*
X354100000Y-244526342D01*
X352366667Y-244240628D02*
X351433334Y-244240628D01*
X351033334Y-245812057D02*
X352366667Y-245812057D01*
X352366667Y-245812057D02*
X352366667Y-242812057D01*
X352366667Y-242812057D02*
X351033334Y-242812057D01*
D11*
X411330180Y-88306077D02*
X411330180Y-87734649D01*
X410330180Y-88020363D02*
X411330180Y-88020363D01*
X410330180Y-87401315D02*
X411330180Y-87401315D01*
X410853990Y-87401315D02*
X410853990Y-86829887D01*
X410330180Y-86829887D02*
X411330180Y-86829887D01*
X410853990Y-86353696D02*
X410853990Y-86020363D01*
X410330180Y-85877506D02*
X410330180Y-86353696D01*
X410330180Y-86353696D02*
X411330180Y-86353696D01*
X411330180Y-86353696D02*
X411330180Y-85877506D01*
X410330180Y-84877506D02*
X410806371Y-85210839D01*
X410330180Y-85448934D02*
X411330180Y-85448934D01*
X411330180Y-85448934D02*
X411330180Y-85067982D01*
X411330180Y-85067982D02*
X411282561Y-84972744D01*
X411282561Y-84972744D02*
X411234942Y-84925125D01*
X411234942Y-84925125D02*
X411139704Y-84877506D01*
X411139704Y-84877506D02*
X410996847Y-84877506D01*
X410996847Y-84877506D02*
X410901609Y-84925125D01*
X410901609Y-84925125D02*
X410853990Y-84972744D01*
X410853990Y-84972744D02*
X410806371Y-85067982D01*
X410806371Y-85067982D02*
X410806371Y-85448934D01*
X410330180Y-84448934D02*
X411330180Y-84448934D01*
X411330180Y-84448934D02*
X410615895Y-84115601D01*
X410615895Y-84115601D02*
X411330180Y-83782268D01*
X411330180Y-83782268D02*
X410330180Y-83782268D01*
X410330180Y-82020363D02*
X410330180Y-82591791D01*
X410330180Y-82306077D02*
X411330180Y-82306077D01*
X411330180Y-82306077D02*
X411187323Y-82401315D01*
X411187323Y-82401315D02*
X411092085Y-82496553D01*
X411092085Y-82496553D02*
X411044466Y-82591791D01*
D13*
X357919925Y-51475800D02*
X357891353Y-51442466D01*
X357891353Y-51442466D02*
X357834211Y-51409133D01*
X357834211Y-51409133D02*
X357691353Y-51409133D01*
X357691353Y-51409133D02*
X357634211Y-51442466D01*
X357634211Y-51442466D02*
X357605639Y-51475800D01*
X357605639Y-51475800D02*
X357577068Y-51542466D01*
X357577068Y-51542466D02*
X357577068Y-51609133D01*
X357577068Y-51609133D02*
X357605639Y-51709133D01*
X357605639Y-51709133D02*
X357948496Y-52109133D01*
X357948496Y-52109133D02*
X357577068Y-52109133D01*
X357062782Y-51642466D02*
X357062782Y-52109133D01*
X357205639Y-51375800D02*
X357348496Y-51875800D01*
X357348496Y-51875800D02*
X356977067Y-51875800D01*
X356834210Y-51409133D02*
X356634210Y-52109133D01*
X356634210Y-52109133D02*
X356434210Y-51409133D01*
D11*
X350529887Y-54946009D02*
X350863220Y-54946009D01*
X350863220Y-55469819D02*
X350863220Y-54469819D01*
X350863220Y-54469819D02*
X350387030Y-54469819D01*
X350053696Y-55184104D02*
X349577506Y-55184104D01*
X350148934Y-55469819D02*
X349815601Y-54469819D01*
X349815601Y-54469819D02*
X349482268Y-55469819D01*
X349148934Y-55469819D02*
X349148934Y-54469819D01*
X349148934Y-54469819D02*
X348577506Y-55469819D01*
X348577506Y-55469819D02*
X348577506Y-54469819D01*
X347577506Y-55469819D02*
X348148934Y-55469819D01*
X347863220Y-55469819D02*
X347863220Y-54469819D01*
X347863220Y-54469819D02*
X347958458Y-54612676D01*
X347958458Y-54612676D02*
X348053696Y-54707914D01*
X348053696Y-54707914D02*
X348148934Y-54755533D01*
D15*
%TO.C,TH1*%
X415670000Y-85240000D02*
X418330000Y-85240000D01*
X415670000Y-87840000D02*
X415670000Y-85240000D01*
X415670000Y-87840000D02*
X418330000Y-87840000D01*
X417000000Y-82640000D02*
X418330000Y-82640000D01*
X418330000Y-82640000D02*
X418330000Y-83970000D01*
X418330000Y-87840000D02*
X418330000Y-85240000D01*
%TO.C,J4*%
X307565000Y-203090000D02*
X320585000Y-203090000D01*
X307565000Y-208000000D02*
X307565000Y-203090000D01*
X307565000Y-208000000D02*
X307565000Y-212910000D01*
X307565000Y-212910000D02*
X320585000Y-212910000D01*
X320575000Y-208490000D02*
X320575000Y-207510000D01*
X320585000Y-203090000D02*
X320585000Y-203900000D01*
X320585000Y-212910000D02*
X320585000Y-212100000D01*
X321275000Y-203300000D02*
X321875000Y-203300000D01*
X321575000Y-203900000D02*
X321275000Y-203300000D01*
X321875000Y-203300000D02*
X321575000Y-203900000D01*
X324965000Y-205600000D02*
X323685000Y-205600000D01*
X324965000Y-206200000D02*
X323685000Y-206200000D01*
X324965000Y-209800000D02*
X323685000Y-209800000D01*
X324965000Y-210400000D02*
X323685000Y-210400000D01*
%TO.C,M2*%
X351890000Y-59140000D02*
X351890000Y-61550000D01*
X352190000Y-59440000D02*
X352190000Y-64560000D01*
X352190000Y-64560000D02*
X364810000Y-64560000D01*
X354300000Y-59140000D02*
X351890000Y-59140000D01*
X363810000Y-59440000D02*
X352190000Y-59440000D01*
X364810000Y-60440000D02*
X363810000Y-59440000D01*
X364810000Y-64560000D02*
X364810000Y-60440000D01*
%TO.C,M1*%
X351890000Y-52390000D02*
X351890000Y-54800000D01*
X352190000Y-52690000D02*
X352190000Y-57810000D01*
X352190000Y-57810000D02*
X364810000Y-57810000D01*
X354300000Y-52390000D02*
X351890000Y-52390000D01*
X363810000Y-52690000D02*
X352190000Y-52690000D01*
X364810000Y-53690000D02*
X363810000Y-52690000D01*
X364810000Y-57810000D02*
X364810000Y-53690000D01*
%TO.C,Q6*%
X406002107Y-194770000D02*
X402052107Y-194770000D01*
X406002107Y-202390000D02*
X402052107Y-202390000D01*
X406002107Y-204930000D02*
X402052107Y-204930000D01*
X406027893Y-199850000D02*
X402052107Y-199850000D01*
X406027893Y-207920000D02*
X406027893Y-191780000D01*
X427217893Y-191780000D02*
X406027893Y-191780000D01*
X427217893Y-207920000D02*
X406027893Y-207920000D01*
X427217893Y-207920000D02*
X427217893Y-191780000D01*
%TO.C,C130*%
X325380000Y-195070000D02*
X325380000Y-187330000D01*
X327364000Y-187330000D02*
X325380000Y-187330000D01*
X327364000Y-195070000D02*
X325380000Y-195070000D01*
X330620000Y-187330000D02*
X328636000Y-187330000D01*
X330620000Y-195070000D02*
X328636000Y-195070000D01*
X330620000Y-195070000D02*
X330620000Y-187330000D01*
%TO.C,Q3*%
X366132107Y-109330000D02*
X366132107Y-125470000D01*
X366132107Y-109330000D02*
X387322107Y-109330000D01*
X366132107Y-125470000D02*
X387322107Y-125470000D01*
X387322107Y-109330000D02*
X387322107Y-125470000D01*
X387322107Y-117400000D02*
X391297893Y-117400000D01*
X387347893Y-112320000D02*
X391297893Y-112320000D01*
X387347893Y-114860000D02*
X391297893Y-114860000D01*
X387347893Y-122480000D02*
X391297893Y-122480000D01*
%TO.C,J1*%
X421645000Y-52365000D02*
X421645000Y-57505000D01*
X421645000Y-60105000D02*
X421645000Y-58775000D01*
X422975000Y-60105000D02*
X421645000Y-60105000D01*
X424245000Y-57505000D02*
X421645000Y-57505000D01*
X424245000Y-60105000D02*
X424245000Y-57505000D01*
X426845000Y-52365000D02*
X421645000Y-52365000D01*
X426845000Y-52365000D02*
X426845000Y-60105000D01*
X426845000Y-60105000D02*
X424245000Y-60105000D01*
%TO.C,J2*%
D11*
X306403000Y-52491000D02*
X334597000Y-52491000D01*
X334597000Y-69509000D01*
X306403000Y-69509000D01*
X306403000Y-52491000D01*
%TO.C,C107*%
D16*
X360600000Y-195496000D02*
X330600000Y-195496000D01*
X330600000Y-152496000D01*
X360600000Y-152496000D01*
X360600000Y-195496000D01*
D15*
%TO.C,J8*%
X416905000Y-57250000D02*
X416905000Y-57885000D01*
X416905000Y-57885000D02*
X416270000Y-57885000D01*
D16*
%TO.C,REF\u002A\u002A*%
X419126842Y-77765366D02*
X419393161Y-78174632D01*
X426240000Y-65440000D02*
X426760000Y-65440000D01*
D17*
X426500000Y-64570000D02*
X434500000Y-78430000D01*
X426500105Y-64570061D02*
X418500000Y-78430000D01*
D16*
X433893161Y-77785368D02*
X433626839Y-78194632D01*
D17*
X434500000Y-78430000D02*
X418500000Y-78430000D01*
D16*
X428770000Y-73370000D02*
X426325250Y-72068249D01*
X426928500Y-75846500D01*
X427436500Y-75148000D01*
X426960251Y-77433999D01*
X425658500Y-75497250D01*
X426388750Y-75941749D01*
X424960000Y-70734750D01*
X427500000Y-72100000D01*
X425626751Y-67750250D01*
X427182501Y-67750250D01*
X428770000Y-73370000D01*
G36*
X428770000Y-73370000D02*
G01*
X426325250Y-72068249D01*
X426928500Y-75846500D01*
X427436500Y-75148000D01*
X426960251Y-77433999D01*
X425658500Y-75497250D01*
X426388750Y-75941749D01*
X424960000Y-70734750D01*
X427500000Y-72100000D01*
X425626751Y-67750250D01*
X427182501Y-67750250D01*
X428770000Y-73370000D01*
G37*
D15*
%TO.C,Q4*%
X406002107Y-156070000D02*
X402052107Y-156070000D01*
X406002107Y-163690000D02*
X402052107Y-163690000D01*
X406002107Y-166230000D02*
X402052107Y-166230000D01*
X406027893Y-161150000D02*
X402052107Y-161150000D01*
X406027893Y-169220000D02*
X406027893Y-153080000D01*
X427217893Y-153080000D02*
X406027893Y-153080000D01*
X427217893Y-169220000D02*
X406027893Y-169220000D01*
X427217893Y-169220000D02*
X427217893Y-153080000D01*
%TO.C,Q5*%
X366132107Y-147830000D02*
X366132107Y-163970000D01*
X366132107Y-147830000D02*
X387322107Y-147830000D01*
X366132107Y-163970000D02*
X387322107Y-163970000D01*
X387322107Y-147830000D02*
X387322107Y-163970000D01*
X387322107Y-155900000D02*
X391297893Y-155900000D01*
X387347893Y-150820000D02*
X391297893Y-150820000D01*
X387347893Y-153360000D02*
X391297893Y-153360000D01*
X387347893Y-160980000D02*
X391297893Y-160980000D01*
%TO.C,J5*%
X306765000Y-160660000D02*
X306765000Y-172495000D01*
X306765000Y-184330000D02*
X306765000Y-172495000D01*
X321785000Y-160660000D02*
X306765000Y-160660000D01*
X321785000Y-161835000D02*
X321785000Y-160660000D01*
X321785000Y-167535000D02*
X321785000Y-166055000D01*
X321785000Y-173235000D02*
X321785000Y-171755000D01*
X321785000Y-178935000D02*
X321785000Y-177455000D01*
X321785000Y-183155000D02*
X321785000Y-184330000D01*
X321785000Y-184330000D02*
X306765000Y-184330000D01*
X322475000Y-160845000D02*
X323075000Y-160845000D01*
X322775000Y-161445000D02*
X322475000Y-160845000D01*
X323075000Y-160845000D02*
X322775000Y-161445000D01*
X326165000Y-163645000D02*
X324885000Y-163645000D01*
X326165000Y-164245000D02*
X324885000Y-164245000D01*
X326165000Y-169345000D02*
X324885000Y-169345000D01*
X326165000Y-169945000D02*
X324885000Y-169945000D01*
X326165000Y-175045000D02*
X324885000Y-175045000D01*
X326165000Y-175645000D02*
X324885000Y-175645000D01*
X326165000Y-180745000D02*
X324885000Y-180745000D01*
X326165000Y-181345000D02*
X324885000Y-181345000D01*
X317235000Y-163945000D02*
G75*
G02*
X313715000Y-163945000I-1760000J0D01*
G01*
X313715000Y-163945000D02*
G75*
G02*
X317235000Y-163945000I1760000J0D01*
G01*
X317235000Y-181045000D02*
G75*
G02*
X313715000Y-181045000I-1760000J0D01*
G01*
X313715000Y-181045000D02*
G75*
G02*
X317235000Y-181045000I1760000J0D01*
G01*
%TO.C,C104*%
X312202935Y-242375000D02*
X312202935Y-245375000D01*
X313702935Y-243875000D02*
X310702935Y-243875000D01*
X326882066Y-220319000D02*
X326882066Y-250481000D01*
X326922066Y-220320000D02*
X326922066Y-250480000D01*
X326962066Y-220320000D02*
X326962066Y-250480000D01*
X327002066Y-220320000D02*
X327002066Y-250480000D01*
X327042066Y-220320000D02*
X327042066Y-250480000D01*
X327082066Y-220321000D02*
X327082066Y-250479000D01*
X327122066Y-220321000D02*
X327122066Y-250479000D01*
X327162066Y-220322000D02*
X327162066Y-250478000D01*
X327202066Y-220323000D02*
X327202066Y-250477000D01*
X327242066Y-220324000D02*
X327242066Y-250476000D01*
X327282066Y-220325000D02*
X327282066Y-250475000D01*
X327322066Y-220326000D02*
X327322066Y-250474000D01*
X327362066Y-220327000D02*
X327362066Y-250473000D01*
X327402066Y-220328000D02*
X327402066Y-250472000D01*
X327442066Y-220330000D02*
X327442066Y-250470000D01*
X327482066Y-220331000D02*
X327482066Y-250469000D01*
X327522066Y-220333000D02*
X327522066Y-250467000D01*
X327562066Y-220335000D02*
X327562066Y-250465000D01*
X327603066Y-220337000D02*
X327603066Y-250463000D01*
X327643066Y-220339000D02*
X327643066Y-250461000D01*
X327683066Y-220341000D02*
X327683066Y-250459000D01*
X327723066Y-220343000D02*
X327723066Y-250457000D01*
X327763066Y-220345000D02*
X327763066Y-250455000D01*
X327803066Y-220348000D02*
X327803066Y-250452000D01*
X327843066Y-220350000D02*
X327843066Y-250450000D01*
X327883066Y-220353000D02*
X327883066Y-250447000D01*
X327923066Y-220355000D02*
X327923066Y-250445000D01*
X327963066Y-220358000D02*
X327963066Y-250442000D01*
X328003066Y-220361000D02*
X328003066Y-250439000D01*
X328043066Y-220364000D02*
X328043066Y-250436000D01*
X328083066Y-220367000D02*
X328083066Y-250433000D01*
X328123066Y-220370000D02*
X328123066Y-250430000D01*
X328163066Y-220374000D02*
X328163066Y-250426000D01*
X328203066Y-220377000D02*
X328203066Y-250423000D01*
X328243066Y-220381000D02*
X328243066Y-250419000D01*
X328283066Y-220384000D02*
X328283066Y-250416000D01*
X328323066Y-220388000D02*
X328323066Y-250412000D01*
X328363066Y-220392000D02*
X328363066Y-250408000D01*
X328403066Y-220396000D02*
X328403066Y-250404000D01*
X328443066Y-220400000D02*
X328443066Y-250400000D01*
X328483066Y-220404000D02*
X328483066Y-250396000D01*
X328523066Y-220409000D02*
X328523066Y-250391000D01*
X328563066Y-220413000D02*
X328563066Y-250387000D01*
X328603066Y-220418000D02*
X328603066Y-250382000D01*
X328643066Y-220422000D02*
X328643066Y-250378000D01*
X328683066Y-220427000D02*
X328683066Y-250373000D01*
X328723066Y-220432000D02*
X328723066Y-250368000D01*
X328763066Y-220437000D02*
X328763066Y-250363000D01*
X328803066Y-220442000D02*
X328803066Y-250358000D01*
X328843066Y-220447000D02*
X328843066Y-250353000D01*
X328883066Y-220452000D02*
X328883066Y-250348000D01*
X328923066Y-220458000D02*
X328923066Y-250342000D01*
X328963066Y-220463000D02*
X328963066Y-250337000D01*
X329003066Y-220469000D02*
X329003066Y-250331000D01*
X329043066Y-220475000D02*
X329043066Y-250325000D01*
X329083066Y-220480000D02*
X329083066Y-250320000D01*
X329123066Y-220486000D02*
X329123066Y-250314000D01*
X329163066Y-220492000D02*
X329163066Y-250308000D01*
X329203066Y-220499000D02*
X329203066Y-250301000D01*
X329243066Y-220505000D02*
X329243066Y-250295000D01*
X329283066Y-220511000D02*
X329283066Y-250289000D01*
X329323066Y-220518000D02*
X329323066Y-250282000D01*
X329363066Y-220524000D02*
X329363066Y-250276000D01*
X329403066Y-220531000D02*
X329403066Y-250269000D01*
X329443066Y-220538000D02*
X329443066Y-250262000D01*
X329483066Y-220545000D02*
X329483066Y-250255000D01*
X329523066Y-220552000D02*
X329523066Y-250248000D01*
X329563066Y-220559000D02*
X329563066Y-250241000D01*
X329603066Y-220566000D02*
X329603066Y-250234000D01*
X329643066Y-220574000D02*
X329643066Y-233160000D01*
X329643066Y-237640000D02*
X329643066Y-250226000D01*
X329683066Y-220581000D02*
X329683066Y-233160000D01*
X329683066Y-237640000D02*
X329683066Y-250219000D01*
X329723066Y-220589000D02*
X329723066Y-233160000D01*
X329723066Y-237640000D02*
X329723066Y-250211000D01*
X329763066Y-220596000D02*
X329763066Y-233160000D01*
X329763066Y-237640000D02*
X329763066Y-250204000D01*
X329803066Y-220604000D02*
X329803066Y-233160000D01*
X329803066Y-237640000D02*
X329803066Y-250196000D01*
X329843066Y-220612000D02*
X329843066Y-233160000D01*
X329843066Y-237640000D02*
X329843066Y-250188000D01*
X329883066Y-220620000D02*
X329883066Y-233160000D01*
X329883066Y-237640000D02*
X329883066Y-250180000D01*
X329923066Y-220628000D02*
X329923066Y-233160000D01*
X329923066Y-237640000D02*
X329923066Y-250172000D01*
X329963066Y-220637000D02*
X329963066Y-233160000D01*
X329963066Y-237640000D02*
X329963066Y-250163000D01*
X330003066Y-220645000D02*
X330003066Y-233160000D01*
X330003066Y-237640000D02*
X330003066Y-250155000D01*
X330043066Y-220653000D02*
X330043066Y-233160000D01*
X330043066Y-237640000D02*
X330043066Y-250147000D01*
X330083066Y-220662000D02*
X330083066Y-233160000D01*
X330083066Y-237640000D02*
X330083066Y-250138000D01*
X330123066Y-220671000D02*
X330123066Y-233160000D01*
X330123066Y-237640000D02*
X330123066Y-250129000D01*
X330163066Y-220680000D02*
X330163066Y-233160000D01*
X330163066Y-237640000D02*
X330163066Y-250120000D01*
X330203066Y-220689000D02*
X330203066Y-233160000D01*
X330203066Y-237640000D02*
X330203066Y-250111000D01*
X330243066Y-220698000D02*
X330243066Y-233160000D01*
X330243066Y-237640000D02*
X330243066Y-250102000D01*
X330283066Y-220707000D02*
X330283066Y-233160000D01*
X330283066Y-237640000D02*
X330283066Y-250093000D01*
X330323066Y-220716000D02*
X330323066Y-233160000D01*
X330323066Y-237640000D02*
X330323066Y-250084000D01*
X330363066Y-220725000D02*
X330363066Y-233160000D01*
X330363066Y-237640000D02*
X330363066Y-250075000D01*
X330403066Y-220735000D02*
X330403066Y-233160000D01*
X330403066Y-237640000D02*
X330403066Y-250065000D01*
X330443066Y-220745000D02*
X330443066Y-233160000D01*
X330443066Y-237640000D02*
X330443066Y-250055000D01*
X330483066Y-220754000D02*
X330483066Y-233160000D01*
X330483066Y-237640000D02*
X330483066Y-250046000D01*
X330523066Y-220764000D02*
X330523066Y-233160000D01*
X330523066Y-237640000D02*
X330523066Y-250036000D01*
X330563066Y-220774000D02*
X330563066Y-233160000D01*
X330563066Y-237640000D02*
X330563066Y-250026000D01*
X330603066Y-220784000D02*
X330603066Y-233160000D01*
X330603066Y-237640000D02*
X330603066Y-250016000D01*
X330643066Y-220794000D02*
X330643066Y-233160000D01*
X330643066Y-237640000D02*
X330643066Y-250006000D01*
X330683066Y-220805000D02*
X330683066Y-233160000D01*
X330683066Y-237640000D02*
X330683066Y-249995000D01*
X330723066Y-220815000D02*
X330723066Y-233160000D01*
X330723066Y-237640000D02*
X330723066Y-249985000D01*
X330763066Y-220826000D02*
X330763066Y-233160000D01*
X330763066Y-237640000D02*
X330763066Y-249974000D01*
X330803066Y-220836000D02*
X330803066Y-233160000D01*
X330803066Y-237640000D02*
X330803066Y-249964000D01*
X330843066Y-220847000D02*
X330843066Y-233160000D01*
X330843066Y-237640000D02*
X330843066Y-249953000D01*
X330883066Y-220858000D02*
X330883066Y-233160000D01*
X330883066Y-237640000D02*
X330883066Y-249942000D01*
X330923066Y-220869000D02*
X330923066Y-233160000D01*
X330923066Y-237640000D02*
X330923066Y-249931000D01*
X330963066Y-220880000D02*
X330963066Y-233160000D01*
X330963066Y-237640000D02*
X330963066Y-249920000D01*
X331003066Y-220892000D02*
X331003066Y-233160000D01*
X331003066Y-237640000D02*
X331003066Y-249908000D01*
X331043066Y-220903000D02*
X331043066Y-233160000D01*
X331043066Y-237640000D02*
X331043066Y-249897000D01*
X331083066Y-220915000D02*
X331083066Y-233160000D01*
X331083066Y-237640000D02*
X331083066Y-249885000D01*
X331123066Y-220926000D02*
X331123066Y-233160000D01*
X331123066Y-237640000D02*
X331123066Y-249874000D01*
X331163066Y-220938000D02*
X331163066Y-233160000D01*
X331163066Y-237640000D02*
X331163066Y-249862000D01*
X331203066Y-220950000D02*
X331203066Y-233160000D01*
X331203066Y-237640000D02*
X331203066Y-249850000D01*
X331243066Y-220962000D02*
X331243066Y-233160000D01*
X331243066Y-237640000D02*
X331243066Y-249838000D01*
X331283066Y-220974000D02*
X331283066Y-233160000D01*
X331283066Y-237640000D02*
X331283066Y-249826000D01*
X331323066Y-220986000D02*
X331323066Y-233160000D01*
X331323066Y-237640000D02*
X331323066Y-249814000D01*
X331363066Y-220998000D02*
X331363066Y-233160000D01*
X331363066Y-237640000D02*
X331363066Y-249802000D01*
X331403066Y-221011000D02*
X331403066Y-233160000D01*
X331403066Y-237640000D02*
X331403066Y-249789000D01*
X331443066Y-221024000D02*
X331443066Y-233160000D01*
X331443066Y-237640000D02*
X331443066Y-249776000D01*
X331483066Y-221036000D02*
X331483066Y-233160000D01*
X331483066Y-237640000D02*
X331483066Y-249764000D01*
X331523066Y-221049000D02*
X331523066Y-233160000D01*
X331523066Y-237640000D02*
X331523066Y-249751000D01*
X331563066Y-221062000D02*
X331563066Y-233160000D01*
X331563066Y-237640000D02*
X331563066Y-249738000D01*
X331603066Y-221075000D02*
X331603066Y-233160000D01*
X331603066Y-237640000D02*
X331603066Y-249725000D01*
X331643066Y-221088000D02*
X331643066Y-233160000D01*
X331643066Y-237640000D02*
X331643066Y-249712000D01*
X331683066Y-221102000D02*
X331683066Y-233160000D01*
X331683066Y-237640000D02*
X331683066Y-249698000D01*
X331723066Y-221115000D02*
X331723066Y-233160000D01*
X331723066Y-237640000D02*
X331723066Y-249685000D01*
X331763066Y-221129000D02*
X331763066Y-233160000D01*
X331763066Y-237640000D02*
X331763066Y-249671000D01*
X331803066Y-221142000D02*
X331803066Y-233160000D01*
X331803066Y-237640000D02*
X331803066Y-249658000D01*
X331843066Y-221156000D02*
X331843066Y-233160000D01*
X331843066Y-237640000D02*
X331843066Y-249644000D01*
X331883066Y-221170000D02*
X331883066Y-233160000D01*
X331883066Y-237640000D02*
X331883066Y-249630000D01*
X331923066Y-221184000D02*
X331923066Y-233160000D01*
X331923066Y-237640000D02*
X331923066Y-249616000D01*
X331963066Y-221198000D02*
X331963066Y-233160000D01*
X331963066Y-237640000D02*
X331963066Y-249602000D01*
X332003066Y-221213000D02*
X332003066Y-233160000D01*
X332003066Y-237640000D02*
X332003066Y-249587000D01*
X332043066Y-221227000D02*
X332043066Y-233160000D01*
X332043066Y-237640000D02*
X332043066Y-249573000D01*
X332083066Y-221242000D02*
X332083066Y-233160000D01*
X332083066Y-237640000D02*
X332083066Y-249558000D01*
X332123066Y-221257000D02*
X332123066Y-233160000D01*
X332123066Y-237640000D02*
X332123066Y-249543000D01*
X332163066Y-221271000D02*
X332163066Y-233160000D01*
X332163066Y-237640000D02*
X332163066Y-249529000D01*
X332203066Y-221286000D02*
X332203066Y-233160000D01*
X332203066Y-237640000D02*
X332203066Y-249514000D01*
X332243066Y-221301000D02*
X332243066Y-233160000D01*
X332243066Y-237640000D02*
X332243066Y-249499000D01*
X332283066Y-221317000D02*
X332283066Y-233160000D01*
X332283066Y-237640000D02*
X332283066Y-249483000D01*
X332323066Y-221332000D02*
X332323066Y-233160000D01*
X332323066Y-237640000D02*
X332323066Y-249468000D01*
X332363066Y-221348000D02*
X332363066Y-233160000D01*
X332363066Y-237640000D02*
X332363066Y-249452000D01*
X332403066Y-221363000D02*
X332403066Y-233160000D01*
X332403066Y-237640000D02*
X332403066Y-249437000D01*
X332443066Y-221379000D02*
X332443066Y-233160000D01*
X332443066Y-237640000D02*
X332443066Y-249421000D01*
X332483066Y-221395000D02*
X332483066Y-233160000D01*
X332483066Y-237640000D02*
X332483066Y-249405000D01*
X332523066Y-221411000D02*
X332523066Y-233160000D01*
X332523066Y-237640000D02*
X332523066Y-249389000D01*
X332563066Y-221427000D02*
X332563066Y-233160000D01*
X332563066Y-237640000D02*
X332563066Y-249373000D01*
X332603066Y-221443000D02*
X332603066Y-233160000D01*
X332603066Y-237640000D02*
X332603066Y-249357000D01*
X332643066Y-221460000D02*
X332643066Y-233160000D01*
X332643066Y-237640000D02*
X332643066Y-249340000D01*
X332683066Y-221476000D02*
X332683066Y-233160000D01*
X332683066Y-237640000D02*
X332683066Y-249324000D01*
X332723066Y-221493000D02*
X332723066Y-233160000D01*
X332723066Y-237640000D02*
X332723066Y-249307000D01*
X332763066Y-221510000D02*
X332763066Y-233160000D01*
X332763066Y-237640000D02*
X332763066Y-249290000D01*
X332803066Y-221527000D02*
X332803066Y-233160000D01*
X332803066Y-237640000D02*
X332803066Y-249273000D01*
X332843066Y-221544000D02*
X332843066Y-233160000D01*
X332843066Y-237640000D02*
X332843066Y-249256000D01*
X332883066Y-221561000D02*
X332883066Y-233160000D01*
X332883066Y-237640000D02*
X332883066Y-249239000D01*
X332923066Y-221578000D02*
X332923066Y-233160000D01*
X332923066Y-237640000D02*
X332923066Y-249222000D01*
X332963066Y-221596000D02*
X332963066Y-233160000D01*
X332963066Y-237640000D02*
X332963066Y-249204000D01*
X333003066Y-221613000D02*
X333003066Y-233160000D01*
X333003066Y-237640000D02*
X333003066Y-249187000D01*
X333043066Y-221631000D02*
X333043066Y-233160000D01*
X333043066Y-237640000D02*
X333043066Y-249169000D01*
X333083066Y-221649000D02*
X333083066Y-233160000D01*
X333083066Y-237640000D02*
X333083066Y-249151000D01*
X333123066Y-221667000D02*
X333123066Y-233160000D01*
X333123066Y-237640000D02*
X333123066Y-249133000D01*
X333163066Y-221685000D02*
X333163066Y-233160000D01*
X333163066Y-237640000D02*
X333163066Y-249115000D01*
X333203066Y-221704000D02*
X333203066Y-233160000D01*
X333203066Y-237640000D02*
X333203066Y-249096000D01*
X333243066Y-221722000D02*
X333243066Y-233160000D01*
X333243066Y-237640000D02*
X333243066Y-249078000D01*
X333283066Y-221741000D02*
X333283066Y-233160000D01*
X333283066Y-237640000D02*
X333283066Y-249059000D01*
X333323066Y-221760000D02*
X333323066Y-233160000D01*
X333323066Y-237640000D02*
X333323066Y-249040000D01*
X333363066Y-221778000D02*
X333363066Y-233160000D01*
X333363066Y-237640000D02*
X333363066Y-249022000D01*
X333403066Y-221798000D02*
X333403066Y-233160000D01*
X333403066Y-237640000D02*
X333403066Y-249002000D01*
X333443066Y-221817000D02*
X333443066Y-233160000D01*
X333443066Y-237640000D02*
X333443066Y-248983000D01*
X333483066Y-221836000D02*
X333483066Y-233160000D01*
X333483066Y-237640000D02*
X333483066Y-248964000D01*
X333523066Y-221856000D02*
X333523066Y-233160000D01*
X333523066Y-237640000D02*
X333523066Y-248944000D01*
X333563066Y-221875000D02*
X333563066Y-233160000D01*
X333563066Y-237640000D02*
X333563066Y-248925000D01*
X333603066Y-221895000D02*
X333603066Y-233160000D01*
X333603066Y-237640000D02*
X333603066Y-248905000D01*
X333643066Y-221915000D02*
X333643066Y-233160000D01*
X333643066Y-237640000D02*
X333643066Y-248885000D01*
X333683066Y-221935000D02*
X333683066Y-233160000D01*
X333683066Y-237640000D02*
X333683066Y-248865000D01*
X333723066Y-221955000D02*
X333723066Y-233160000D01*
X333723066Y-237640000D02*
X333723066Y-248845000D01*
X333763066Y-221975000D02*
X333763066Y-233160000D01*
X333763066Y-237640000D02*
X333763066Y-248825000D01*
X333803066Y-221996000D02*
X333803066Y-233160000D01*
X333803066Y-237640000D02*
X333803066Y-248804000D01*
X333843066Y-222017000D02*
X333843066Y-233160000D01*
X333843066Y-237640000D02*
X333843066Y-248783000D01*
X333883066Y-222037000D02*
X333883066Y-233160000D01*
X333883066Y-237640000D02*
X333883066Y-248763000D01*
X333923066Y-222058000D02*
X333923066Y-233160000D01*
X333923066Y-237640000D02*
X333923066Y-248742000D01*
X333963066Y-222080000D02*
X333963066Y-233160000D01*
X333963066Y-237640000D02*
X333963066Y-248720000D01*
X334003066Y-222101000D02*
X334003066Y-233160000D01*
X334003066Y-237640000D02*
X334003066Y-248699000D01*
X334043066Y-222122000D02*
X334043066Y-233160000D01*
X334043066Y-237640000D02*
X334043066Y-248678000D01*
X334083066Y-222144000D02*
X334083066Y-233160000D01*
X334083066Y-237640000D02*
X334083066Y-248656000D01*
X334123066Y-222166000D02*
X334123066Y-248634000D01*
X334163066Y-222187000D02*
X334163066Y-248613000D01*
X334203066Y-222210000D02*
X334203066Y-248590000D01*
X334243066Y-222232000D02*
X334243066Y-248568000D01*
X334283066Y-222254000D02*
X334283066Y-248546000D01*
X334323066Y-222277000D02*
X334323066Y-248523000D01*
X334363066Y-222299000D02*
X334363066Y-248501000D01*
X334403066Y-222322000D02*
X334403066Y-248478000D01*
X334443066Y-222345000D02*
X334443066Y-248455000D01*
X334483066Y-222368000D02*
X334483066Y-248432000D01*
X334523066Y-222392000D02*
X334523066Y-248408000D01*
X334563066Y-222415000D02*
X334563066Y-248385000D01*
X334603066Y-222439000D02*
X334603066Y-248361000D01*
X334643066Y-222463000D02*
X334643066Y-248337000D01*
X334683066Y-222487000D02*
X334683066Y-248313000D01*
X334723066Y-222511000D02*
X334723066Y-248289000D01*
X334763066Y-222535000D02*
X334763066Y-248265000D01*
X334803066Y-222560000D02*
X334803066Y-248240000D01*
X334843066Y-222584000D02*
X334843066Y-248216000D01*
X334883066Y-222609000D02*
X334883066Y-248191000D01*
X334923066Y-222634000D02*
X334923066Y-248166000D01*
X334963066Y-222660000D02*
X334963066Y-248140000D01*
X335003066Y-222685000D02*
X335003066Y-248115000D01*
X335043066Y-222710000D02*
X335043066Y-248090000D01*
X335082066Y-222736000D02*
X335082066Y-248064000D01*
X335122066Y-222762000D02*
X335122066Y-248038000D01*
X335162066Y-222788000D02*
X335162066Y-248012000D01*
X335202066Y-222814000D02*
X335202066Y-247986000D01*
X335242066Y-222841000D02*
X335242066Y-247959000D01*
X335282066Y-222868000D02*
X335282066Y-247932000D01*
X335322066Y-222894000D02*
X335322066Y-247906000D01*
X335362066Y-222921000D02*
X335362066Y-247879000D01*
X335402066Y-222949000D02*
X335402066Y-247851000D01*
X335442066Y-222976000D02*
X335442066Y-247824000D01*
X335482066Y-223003000D02*
X335482066Y-247797000D01*
X335522066Y-223031000D02*
X335522066Y-247769000D01*
X335562066Y-223059000D02*
X335562066Y-247741000D01*
X335602066Y-223087000D02*
X335602066Y-247713000D01*
X335642066Y-223116000D02*
X335642066Y-247684000D01*
X335682066Y-223144000D02*
X335682066Y-247656000D01*
X335722066Y-223173000D02*
X335722066Y-247627000D01*
X335762066Y-223202000D02*
X335762066Y-247598000D01*
X335802066Y-223231000D02*
X335802066Y-247569000D01*
X335842066Y-223260000D02*
X335842066Y-247540000D01*
X335882066Y-223290000D02*
X335882066Y-247510000D01*
X335922066Y-223320000D02*
X335922066Y-247480000D01*
X335962066Y-223350000D02*
X335962066Y-247450000D01*
X336002066Y-223380000D02*
X336002066Y-247420000D01*
X336042066Y-223410000D02*
X336042066Y-247390000D01*
X336082066Y-223441000D02*
X336082066Y-247359000D01*
X336122066Y-223471000D02*
X336122066Y-247329000D01*
X336162066Y-223502000D02*
X336162066Y-247298000D01*
X336202066Y-223534000D02*
X336202066Y-247266000D01*
X336242066Y-223565000D02*
X336242066Y-247235000D01*
X336282066Y-223597000D02*
X336282066Y-247203000D01*
X336322066Y-223628000D02*
X336322066Y-247172000D01*
X336362066Y-223661000D02*
X336362066Y-247139000D01*
X336402066Y-223693000D02*
X336402066Y-247107000D01*
X336442066Y-223725000D02*
X336442066Y-247075000D01*
X336482066Y-223758000D02*
X336482066Y-247042000D01*
X336522066Y-223791000D02*
X336522066Y-247009000D01*
X336562066Y-223824000D02*
X336562066Y-246976000D01*
X336602066Y-223858000D02*
X336602066Y-246942000D01*
X336642066Y-223891000D02*
X336642066Y-246909000D01*
X336682066Y-223925000D02*
X336682066Y-246875000D01*
X336722066Y-223960000D02*
X336722066Y-246840000D01*
X336762066Y-223994000D02*
X336762066Y-246806000D01*
X336802066Y-224029000D02*
X336802066Y-246771000D01*
X336842066Y-224064000D02*
X336842066Y-246736000D01*
X336882066Y-224099000D02*
X336882066Y-246701000D01*
X336922066Y-224134000D02*
X336922066Y-246666000D01*
X336962066Y-224170000D02*
X336962066Y-246630000D01*
X337002066Y-224206000D02*
X337002066Y-246594000D01*
X337042066Y-224242000D02*
X337042066Y-246558000D01*
X337082066Y-224278000D02*
X337082066Y-246522000D01*
X337122066Y-224315000D02*
X337122066Y-246485000D01*
X337162066Y-224352000D02*
X337162066Y-246448000D01*
X337202066Y-224389000D02*
X337202066Y-246411000D01*
X337242066Y-224427000D02*
X337242066Y-246373000D01*
X337282066Y-224464000D02*
X337282066Y-246336000D01*
X337322066Y-224502000D02*
X337322066Y-246298000D01*
X337362066Y-224541000D02*
X337362066Y-246259000D01*
X337402066Y-224579000D02*
X337402066Y-246221000D01*
X337442066Y-224618000D02*
X337442066Y-246182000D01*
X337482066Y-224657000D02*
X337482066Y-246143000D01*
X337522066Y-224697000D02*
X337522066Y-246103000D01*
X337562066Y-224737000D02*
X337562066Y-246063000D01*
X337602066Y-224777000D02*
X337602066Y-246023000D01*
X337642066Y-224817000D02*
X337642066Y-245983000D01*
X337682066Y-224858000D02*
X337682066Y-245942000D01*
X337722066Y-224899000D02*
X337722066Y-245901000D01*
X337762066Y-224940000D02*
X337762066Y-245860000D01*
X337802066Y-224982000D02*
X337802066Y-245818000D01*
X337842066Y-225024000D02*
X337842066Y-245776000D01*
X337882066Y-225066000D02*
X337882066Y-245734000D01*
X337922066Y-225108000D02*
X337922066Y-245692000D01*
X337962066Y-225151000D02*
X337962066Y-245649000D01*
X338002066Y-225195000D02*
X338002066Y-245605000D01*
X338042066Y-225238000D02*
X338042066Y-245562000D01*
X338082066Y-225282000D02*
X338082066Y-245518000D01*
X338122066Y-225326000D02*
X338122066Y-245474000D01*
X338162066Y-225371000D02*
X338162066Y-245429000D01*
X338202066Y-225416000D02*
X338202066Y-245384000D01*
X338242066Y-225461000D02*
X338242066Y-245339000D01*
X338282066Y-225507000D02*
X338282066Y-245293000D01*
X338322066Y-225553000D02*
X338322066Y-245247000D01*
X338362066Y-225600000D02*
X338362066Y-245200000D01*
X338402066Y-225646000D02*
X338402066Y-245154000D01*
X338442066Y-225694000D02*
X338442066Y-245106000D01*
X338482066Y-225741000D02*
X338482066Y-245059000D01*
X338522066Y-225789000D02*
X338522066Y-245011000D01*
X338562066Y-225838000D02*
X338562066Y-244962000D01*
X338602066Y-225887000D02*
X338602066Y-244913000D01*
X338642066Y-225936000D02*
X338642066Y-244864000D01*
X338682066Y-225986000D02*
X338682066Y-244814000D01*
X338722066Y-226036000D02*
X338722066Y-244764000D01*
X338762066Y-226086000D02*
X338762066Y-244714000D01*
X338802066Y-226137000D02*
X338802066Y-244663000D01*
X338842066Y-226189000D02*
X338842066Y-244611000D01*
X338882066Y-226241000D02*
X338882066Y-244559000D01*
X338922066Y-226293000D02*
X338922066Y-244507000D01*
X338962066Y-226346000D02*
X338962066Y-244454000D01*
X339002066Y-226400000D02*
X339002066Y-244400000D01*
X339042066Y-226453000D02*
X339042066Y-244347000D01*
X339082066Y-226508000D02*
X339082066Y-244292000D01*
X339122066Y-226563000D02*
X339122066Y-244237000D01*
X339162066Y-226618000D02*
X339162066Y-244182000D01*
X339202066Y-226674000D02*
X339202066Y-244126000D01*
X339242066Y-226731000D02*
X339242066Y-244069000D01*
X339282066Y-226788000D02*
X339282066Y-244012000D01*
X339322066Y-226845000D02*
X339322066Y-243955000D01*
X339362066Y-226903000D02*
X339362066Y-243897000D01*
X339402066Y-226962000D02*
X339402066Y-243838000D01*
X339442066Y-227022000D02*
X339442066Y-243778000D01*
X339482066Y-227082000D02*
X339482066Y-243718000D01*
X339522066Y-227142000D02*
X339522066Y-243658000D01*
X339562066Y-227203000D02*
X339562066Y-243597000D01*
X339602066Y-227265000D02*
X339602066Y-243535000D01*
X339642066Y-227328000D02*
X339642066Y-243472000D01*
X339682066Y-227391000D02*
X339682066Y-243409000D01*
X339722066Y-227455000D02*
X339722066Y-243345000D01*
X339762066Y-227520000D02*
X339762066Y-243280000D01*
X339802066Y-227585000D02*
X339802066Y-243215000D01*
X339842066Y-227652000D02*
X339842066Y-243148000D01*
X339882066Y-227718000D02*
X339882066Y-243082000D01*
X339922066Y-227786000D02*
X339922066Y-243014000D01*
X339962066Y-227855000D02*
X339962066Y-242945000D01*
X340002066Y-227924000D02*
X340002066Y-242876000D01*
X340042066Y-227994000D02*
X340042066Y-242806000D01*
X340082066Y-228066000D02*
X340082066Y-242734000D01*
X340122066Y-228138000D02*
X340122066Y-242662000D01*
X340162066Y-228211000D02*
X340162066Y-242589000D01*
X340202066Y-228285000D02*
X340202066Y-242515000D01*
X340242066Y-228360000D02*
X340242066Y-242440000D01*
X340282066Y-228436000D02*
X340282066Y-242364000D01*
X340322066Y-228513000D02*
X340322066Y-242287000D01*
X340362066Y-228591000D02*
X340362066Y-242209000D01*
X340402066Y-228670000D02*
X340402066Y-242130000D01*
X340442066Y-228751000D02*
X340442066Y-242049000D01*
X340482066Y-228832000D02*
X340482066Y-241968000D01*
X340522066Y-228915000D02*
X340522066Y-241885000D01*
X340562066Y-229000000D02*
X340562066Y-241800000D01*
X340602066Y-229085000D02*
X340602066Y-241715000D01*
X340642066Y-229172000D02*
X340642066Y-241628000D01*
X340682066Y-229261000D02*
X340682066Y-241539000D01*
X340722066Y-229351000D02*
X340722066Y-241449000D01*
X340762066Y-229443000D02*
X340762066Y-241357000D01*
X340802066Y-229536000D02*
X340802066Y-241264000D01*
X340842066Y-229632000D02*
X340842066Y-241168000D01*
X340882066Y-229729000D02*
X340882066Y-241071000D01*
X340922066Y-229828000D02*
X340922066Y-240972000D01*
X340962066Y-229929000D02*
X340962066Y-240871000D01*
X341002066Y-230032000D02*
X341002066Y-240768000D01*
X341042066Y-230138000D02*
X341042066Y-240662000D01*
X341082066Y-230246000D02*
X341082066Y-240554000D01*
X341122066Y-230357000D02*
X341122066Y-240443000D01*
X341162066Y-230470000D02*
X341162066Y-240330000D01*
X341202066Y-230586000D02*
X341202066Y-240214000D01*
X341242066Y-230706000D02*
X341242066Y-240094000D01*
X341282066Y-230829000D02*
X341282066Y-239971000D01*
X341322066Y-230956000D02*
X341322066Y-239844000D01*
X341362066Y-231087000D02*
X341362066Y-239713000D01*
X341402066Y-231222000D02*
X341402066Y-239578000D01*
X341442066Y-231363000D02*
X341442066Y-239437000D01*
X341482066Y-231508000D02*
X341482066Y-239292000D01*
X341522066Y-231660000D02*
X341522066Y-239140000D01*
X341562066Y-231818000D02*
X341562066Y-238982000D01*
X341602066Y-231985000D02*
X341602066Y-238815000D01*
X341642066Y-232160000D02*
X341642066Y-238640000D01*
X341682066Y-232345000D02*
X341682066Y-238455000D01*
X341722066Y-232543000D02*
X341722066Y-238257000D01*
X341762066Y-232756000D02*
X341762066Y-238044000D01*
X341802066Y-232988000D02*
X341802066Y-237812000D01*
X341842066Y-233246000D02*
X341842066Y-237554000D01*
X341882066Y-233538000D02*
X341882066Y-237262000D01*
X341922066Y-233886000D02*
X341922066Y-236914000D01*
X341962066Y-234340000D02*
X341962066Y-236460000D01*
X342002066Y-235360000D02*
X342002066Y-235440000D01*
X342002066Y-235400000D02*
G75*
G02*
X311762066Y-235400000I-15120000J0D01*
G01*
X311762066Y-235400000D02*
G75*
G02*
X342002066Y-235400000I15120000J0D01*
G01*
%TO.C,C105*%
X331202935Y-218375000D02*
X331202935Y-221375000D01*
X332702935Y-219875000D02*
X329702935Y-219875000D01*
X345882066Y-196319000D02*
X345882066Y-226481000D01*
X345922066Y-196320000D02*
X345922066Y-226480000D01*
X345962066Y-196320000D02*
X345962066Y-226480000D01*
X346002066Y-196320000D02*
X346002066Y-226480000D01*
X346042066Y-196320000D02*
X346042066Y-226480000D01*
X346082066Y-196321000D02*
X346082066Y-226479000D01*
X346122066Y-196321000D02*
X346122066Y-226479000D01*
X346162066Y-196322000D02*
X346162066Y-226478000D01*
X346202066Y-196323000D02*
X346202066Y-226477000D01*
X346242066Y-196324000D02*
X346242066Y-226476000D01*
X346282066Y-196325000D02*
X346282066Y-226475000D01*
X346322066Y-196326000D02*
X346322066Y-226474000D01*
X346362066Y-196327000D02*
X346362066Y-226473000D01*
X346402066Y-196328000D02*
X346402066Y-226472000D01*
X346442066Y-196330000D02*
X346442066Y-226470000D01*
X346482066Y-196331000D02*
X346482066Y-226469000D01*
X346522066Y-196333000D02*
X346522066Y-226467000D01*
X346562066Y-196335000D02*
X346562066Y-226465000D01*
X346603066Y-196337000D02*
X346603066Y-226463000D01*
X346643066Y-196339000D02*
X346643066Y-226461000D01*
X346683066Y-196341000D02*
X346683066Y-226459000D01*
X346723066Y-196343000D02*
X346723066Y-226457000D01*
X346763066Y-196345000D02*
X346763066Y-226455000D01*
X346803066Y-196348000D02*
X346803066Y-226452000D01*
X346843066Y-196350000D02*
X346843066Y-226450000D01*
X346883066Y-196353000D02*
X346883066Y-226447000D01*
X346923066Y-196355000D02*
X346923066Y-226445000D01*
X346963066Y-196358000D02*
X346963066Y-226442000D01*
X347003066Y-196361000D02*
X347003066Y-226439000D01*
X347043066Y-196364000D02*
X347043066Y-226436000D01*
X347083066Y-196367000D02*
X347083066Y-226433000D01*
X347123066Y-196370000D02*
X347123066Y-226430000D01*
X347163066Y-196374000D02*
X347163066Y-226426000D01*
X347203066Y-196377000D02*
X347203066Y-226423000D01*
X347243066Y-196381000D02*
X347243066Y-226419000D01*
X347283066Y-196384000D02*
X347283066Y-226416000D01*
X347323066Y-196388000D02*
X347323066Y-226412000D01*
X347363066Y-196392000D02*
X347363066Y-226408000D01*
X347403066Y-196396000D02*
X347403066Y-226404000D01*
X347443066Y-196400000D02*
X347443066Y-226400000D01*
X347483066Y-196404000D02*
X347483066Y-226396000D01*
X347523066Y-196409000D02*
X347523066Y-226391000D01*
X347563066Y-196413000D02*
X347563066Y-226387000D01*
X347603066Y-196418000D02*
X347603066Y-226382000D01*
X347643066Y-196422000D02*
X347643066Y-226378000D01*
X347683066Y-196427000D02*
X347683066Y-226373000D01*
X347723066Y-196432000D02*
X347723066Y-226368000D01*
X347763066Y-196437000D02*
X347763066Y-226363000D01*
X347803066Y-196442000D02*
X347803066Y-226358000D01*
X347843066Y-196447000D02*
X347843066Y-226353000D01*
X347883066Y-196452000D02*
X347883066Y-226348000D01*
X347923066Y-196458000D02*
X347923066Y-226342000D01*
X347963066Y-196463000D02*
X347963066Y-226337000D01*
X348003066Y-196469000D02*
X348003066Y-226331000D01*
X348043066Y-196475000D02*
X348043066Y-226325000D01*
X348083066Y-196480000D02*
X348083066Y-226320000D01*
X348123066Y-196486000D02*
X348123066Y-226314000D01*
X348163066Y-196492000D02*
X348163066Y-226308000D01*
X348203066Y-196499000D02*
X348203066Y-226301000D01*
X348243066Y-196505000D02*
X348243066Y-226295000D01*
X348283066Y-196511000D02*
X348283066Y-226289000D01*
X348323066Y-196518000D02*
X348323066Y-226282000D01*
X348363066Y-196524000D02*
X348363066Y-226276000D01*
X348403066Y-196531000D02*
X348403066Y-226269000D01*
X348443066Y-196538000D02*
X348443066Y-226262000D01*
X348483066Y-196545000D02*
X348483066Y-226255000D01*
X348523066Y-196552000D02*
X348523066Y-226248000D01*
X348563066Y-196559000D02*
X348563066Y-226241000D01*
X348603066Y-196566000D02*
X348603066Y-226234000D01*
X348643066Y-196574000D02*
X348643066Y-209160000D01*
X348643066Y-213640000D02*
X348643066Y-226226000D01*
X348683066Y-196581000D02*
X348683066Y-209160000D01*
X348683066Y-213640000D02*
X348683066Y-226219000D01*
X348723066Y-196589000D02*
X348723066Y-209160000D01*
X348723066Y-213640000D02*
X348723066Y-226211000D01*
X348763066Y-196596000D02*
X348763066Y-209160000D01*
X348763066Y-213640000D02*
X348763066Y-226204000D01*
X348803066Y-196604000D02*
X348803066Y-209160000D01*
X348803066Y-213640000D02*
X348803066Y-226196000D01*
X348843066Y-196612000D02*
X348843066Y-209160000D01*
X348843066Y-213640000D02*
X348843066Y-226188000D01*
X348883066Y-196620000D02*
X348883066Y-209160000D01*
X348883066Y-213640000D02*
X348883066Y-226180000D01*
X348923066Y-196628000D02*
X348923066Y-209160000D01*
X348923066Y-213640000D02*
X348923066Y-226172000D01*
X348963066Y-196637000D02*
X348963066Y-209160000D01*
X348963066Y-213640000D02*
X348963066Y-226163000D01*
X349003066Y-196645000D02*
X349003066Y-209160000D01*
X349003066Y-213640000D02*
X349003066Y-226155000D01*
X349043066Y-196653000D02*
X349043066Y-209160000D01*
X349043066Y-213640000D02*
X349043066Y-226147000D01*
X349083066Y-196662000D02*
X349083066Y-209160000D01*
X349083066Y-213640000D02*
X349083066Y-226138000D01*
X349123066Y-196671000D02*
X349123066Y-209160000D01*
X349123066Y-213640000D02*
X349123066Y-226129000D01*
X349163066Y-196680000D02*
X349163066Y-209160000D01*
X349163066Y-213640000D02*
X349163066Y-226120000D01*
X349203066Y-196689000D02*
X349203066Y-209160000D01*
X349203066Y-213640000D02*
X349203066Y-226111000D01*
X349243066Y-196698000D02*
X349243066Y-209160000D01*
X349243066Y-213640000D02*
X349243066Y-226102000D01*
X349283066Y-196707000D02*
X349283066Y-209160000D01*
X349283066Y-213640000D02*
X349283066Y-226093000D01*
X349323066Y-196716000D02*
X349323066Y-209160000D01*
X349323066Y-213640000D02*
X349323066Y-226084000D01*
X349363066Y-196725000D02*
X349363066Y-209160000D01*
X349363066Y-213640000D02*
X349363066Y-226075000D01*
X349403066Y-196735000D02*
X349403066Y-209160000D01*
X349403066Y-213640000D02*
X349403066Y-226065000D01*
X349443066Y-196745000D02*
X349443066Y-209160000D01*
X349443066Y-213640000D02*
X349443066Y-226055000D01*
X349483066Y-196754000D02*
X349483066Y-209160000D01*
X349483066Y-213640000D02*
X349483066Y-226046000D01*
X349523066Y-196764000D02*
X349523066Y-209160000D01*
X349523066Y-213640000D02*
X349523066Y-226036000D01*
X349563066Y-196774000D02*
X349563066Y-209160000D01*
X349563066Y-213640000D02*
X349563066Y-226026000D01*
X349603066Y-196784000D02*
X349603066Y-209160000D01*
X349603066Y-213640000D02*
X349603066Y-226016000D01*
X349643066Y-196794000D02*
X349643066Y-209160000D01*
X349643066Y-213640000D02*
X349643066Y-226006000D01*
X349683066Y-196805000D02*
X349683066Y-209160000D01*
X349683066Y-213640000D02*
X349683066Y-225995000D01*
X349723066Y-196815000D02*
X349723066Y-209160000D01*
X349723066Y-213640000D02*
X349723066Y-225985000D01*
X349763066Y-196826000D02*
X349763066Y-209160000D01*
X349763066Y-213640000D02*
X349763066Y-225974000D01*
X349803066Y-196836000D02*
X349803066Y-209160000D01*
X349803066Y-213640000D02*
X349803066Y-225964000D01*
X349843066Y-196847000D02*
X349843066Y-209160000D01*
X349843066Y-213640000D02*
X349843066Y-225953000D01*
X349883066Y-196858000D02*
X349883066Y-209160000D01*
X349883066Y-213640000D02*
X349883066Y-225942000D01*
X349923066Y-196869000D02*
X349923066Y-209160000D01*
X349923066Y-213640000D02*
X349923066Y-225931000D01*
X349963066Y-196880000D02*
X349963066Y-209160000D01*
X349963066Y-213640000D02*
X349963066Y-225920000D01*
X350003066Y-196892000D02*
X350003066Y-209160000D01*
X350003066Y-213640000D02*
X350003066Y-225908000D01*
X350043066Y-196903000D02*
X350043066Y-209160000D01*
X350043066Y-213640000D02*
X350043066Y-225897000D01*
X350083066Y-196915000D02*
X350083066Y-209160000D01*
X350083066Y-213640000D02*
X350083066Y-225885000D01*
X350123066Y-196926000D02*
X350123066Y-209160000D01*
X350123066Y-213640000D02*
X350123066Y-225874000D01*
X350163066Y-196938000D02*
X350163066Y-209160000D01*
X350163066Y-213640000D02*
X350163066Y-225862000D01*
X350203066Y-196950000D02*
X350203066Y-209160000D01*
X350203066Y-213640000D02*
X350203066Y-225850000D01*
X350243066Y-196962000D02*
X350243066Y-209160000D01*
X350243066Y-213640000D02*
X350243066Y-225838000D01*
X350283066Y-196974000D02*
X350283066Y-209160000D01*
X350283066Y-213640000D02*
X350283066Y-225826000D01*
X350323066Y-196986000D02*
X350323066Y-209160000D01*
X350323066Y-213640000D02*
X350323066Y-225814000D01*
X350363066Y-196998000D02*
X350363066Y-209160000D01*
X350363066Y-213640000D02*
X350363066Y-225802000D01*
X350403066Y-197011000D02*
X350403066Y-209160000D01*
X350403066Y-213640000D02*
X350403066Y-225789000D01*
X350443066Y-197024000D02*
X350443066Y-209160000D01*
X350443066Y-213640000D02*
X350443066Y-225776000D01*
X350483066Y-197036000D02*
X350483066Y-209160000D01*
X350483066Y-213640000D02*
X350483066Y-225764000D01*
X350523066Y-197049000D02*
X350523066Y-209160000D01*
X350523066Y-213640000D02*
X350523066Y-225751000D01*
X350563066Y-197062000D02*
X350563066Y-209160000D01*
X350563066Y-213640000D02*
X350563066Y-225738000D01*
X350603066Y-197075000D02*
X350603066Y-209160000D01*
X350603066Y-213640000D02*
X350603066Y-225725000D01*
X350643066Y-197088000D02*
X350643066Y-209160000D01*
X350643066Y-213640000D02*
X350643066Y-225712000D01*
X350683066Y-197102000D02*
X350683066Y-209160000D01*
X350683066Y-213640000D02*
X350683066Y-225698000D01*
X350723066Y-197115000D02*
X350723066Y-209160000D01*
X350723066Y-213640000D02*
X350723066Y-225685000D01*
X350763066Y-197129000D02*
X350763066Y-209160000D01*
X350763066Y-213640000D02*
X350763066Y-225671000D01*
X350803066Y-197142000D02*
X350803066Y-209160000D01*
X350803066Y-213640000D02*
X350803066Y-225658000D01*
X350843066Y-197156000D02*
X350843066Y-209160000D01*
X350843066Y-213640000D02*
X350843066Y-225644000D01*
X350883066Y-197170000D02*
X350883066Y-209160000D01*
X350883066Y-213640000D02*
X350883066Y-225630000D01*
X350923066Y-197184000D02*
X350923066Y-209160000D01*
X350923066Y-213640000D02*
X350923066Y-225616000D01*
X350963066Y-197198000D02*
X350963066Y-209160000D01*
X350963066Y-213640000D02*
X350963066Y-225602000D01*
X351003066Y-197213000D02*
X351003066Y-209160000D01*
X351003066Y-213640000D02*
X351003066Y-225587000D01*
X351043066Y-197227000D02*
X351043066Y-209160000D01*
X351043066Y-213640000D02*
X351043066Y-225573000D01*
X351083066Y-197242000D02*
X351083066Y-209160000D01*
X351083066Y-213640000D02*
X351083066Y-225558000D01*
X351123066Y-197257000D02*
X351123066Y-209160000D01*
X351123066Y-213640000D02*
X351123066Y-225543000D01*
X351163066Y-197271000D02*
X351163066Y-209160000D01*
X351163066Y-213640000D02*
X351163066Y-225529000D01*
X351203066Y-197286000D02*
X351203066Y-209160000D01*
X351203066Y-213640000D02*
X351203066Y-225514000D01*
X351243066Y-197301000D02*
X351243066Y-209160000D01*
X351243066Y-213640000D02*
X351243066Y-225499000D01*
X351283066Y-197317000D02*
X351283066Y-209160000D01*
X351283066Y-213640000D02*
X351283066Y-225483000D01*
X351323066Y-197332000D02*
X351323066Y-209160000D01*
X351323066Y-213640000D02*
X351323066Y-225468000D01*
X351363066Y-197348000D02*
X351363066Y-209160000D01*
X351363066Y-213640000D02*
X351363066Y-225452000D01*
X351403066Y-197363000D02*
X351403066Y-209160000D01*
X351403066Y-213640000D02*
X351403066Y-225437000D01*
X351443066Y-197379000D02*
X351443066Y-209160000D01*
X351443066Y-213640000D02*
X351443066Y-225421000D01*
X351483066Y-197395000D02*
X351483066Y-209160000D01*
X351483066Y-213640000D02*
X351483066Y-225405000D01*
X351523066Y-197411000D02*
X351523066Y-209160000D01*
X351523066Y-213640000D02*
X351523066Y-225389000D01*
X351563066Y-197427000D02*
X351563066Y-209160000D01*
X351563066Y-213640000D02*
X351563066Y-225373000D01*
X351603066Y-197443000D02*
X351603066Y-209160000D01*
X351603066Y-213640000D02*
X351603066Y-225357000D01*
X351643066Y-197460000D02*
X351643066Y-209160000D01*
X351643066Y-213640000D02*
X351643066Y-225340000D01*
X351683066Y-197476000D02*
X351683066Y-209160000D01*
X351683066Y-213640000D02*
X351683066Y-225324000D01*
X351723066Y-197493000D02*
X351723066Y-209160000D01*
X351723066Y-213640000D02*
X351723066Y-225307000D01*
X351763066Y-197510000D02*
X351763066Y-209160000D01*
X351763066Y-213640000D02*
X351763066Y-225290000D01*
X351803066Y-197527000D02*
X351803066Y-209160000D01*
X351803066Y-213640000D02*
X351803066Y-225273000D01*
X351843066Y-197544000D02*
X351843066Y-209160000D01*
X351843066Y-213640000D02*
X351843066Y-225256000D01*
X351883066Y-197561000D02*
X351883066Y-209160000D01*
X351883066Y-213640000D02*
X351883066Y-225239000D01*
X351923066Y-197578000D02*
X351923066Y-209160000D01*
X351923066Y-213640000D02*
X351923066Y-225222000D01*
X351963066Y-197596000D02*
X351963066Y-209160000D01*
X351963066Y-213640000D02*
X351963066Y-225204000D01*
X352003066Y-197613000D02*
X352003066Y-209160000D01*
X352003066Y-213640000D02*
X352003066Y-225187000D01*
X352043066Y-197631000D02*
X352043066Y-209160000D01*
X352043066Y-213640000D02*
X352043066Y-225169000D01*
X352083066Y-197649000D02*
X352083066Y-209160000D01*
X352083066Y-213640000D02*
X352083066Y-225151000D01*
X352123066Y-197667000D02*
X352123066Y-209160000D01*
X352123066Y-213640000D02*
X352123066Y-225133000D01*
X352163066Y-197685000D02*
X352163066Y-209160000D01*
X352163066Y-213640000D02*
X352163066Y-225115000D01*
X352203066Y-197704000D02*
X352203066Y-209160000D01*
X352203066Y-213640000D02*
X352203066Y-225096000D01*
X352243066Y-197722000D02*
X352243066Y-209160000D01*
X352243066Y-213640000D02*
X352243066Y-225078000D01*
X352283066Y-197741000D02*
X352283066Y-209160000D01*
X352283066Y-213640000D02*
X352283066Y-225059000D01*
X352323066Y-197760000D02*
X352323066Y-209160000D01*
X352323066Y-213640000D02*
X352323066Y-225040000D01*
X352363066Y-197778000D02*
X352363066Y-209160000D01*
X352363066Y-213640000D02*
X352363066Y-225022000D01*
X352403066Y-197798000D02*
X352403066Y-209160000D01*
X352403066Y-213640000D02*
X352403066Y-225002000D01*
X352443066Y-197817000D02*
X352443066Y-209160000D01*
X352443066Y-213640000D02*
X352443066Y-224983000D01*
X352483066Y-197836000D02*
X352483066Y-209160000D01*
X352483066Y-213640000D02*
X352483066Y-224964000D01*
X352523066Y-197856000D02*
X352523066Y-209160000D01*
X352523066Y-213640000D02*
X352523066Y-224944000D01*
X352563066Y-197875000D02*
X352563066Y-209160000D01*
X352563066Y-213640000D02*
X352563066Y-224925000D01*
X352603066Y-197895000D02*
X352603066Y-209160000D01*
X352603066Y-213640000D02*
X352603066Y-224905000D01*
X352643066Y-197915000D02*
X352643066Y-209160000D01*
X352643066Y-213640000D02*
X352643066Y-224885000D01*
X352683066Y-197935000D02*
X352683066Y-209160000D01*
X352683066Y-213640000D02*
X352683066Y-224865000D01*
X352723066Y-197955000D02*
X352723066Y-209160000D01*
X352723066Y-213640000D02*
X352723066Y-224845000D01*
X352763066Y-197975000D02*
X352763066Y-209160000D01*
X352763066Y-213640000D02*
X352763066Y-224825000D01*
X352803066Y-197996000D02*
X352803066Y-209160000D01*
X352803066Y-213640000D02*
X352803066Y-224804000D01*
X352843066Y-198017000D02*
X352843066Y-209160000D01*
X352843066Y-213640000D02*
X352843066Y-224783000D01*
X352883066Y-198037000D02*
X352883066Y-209160000D01*
X352883066Y-213640000D02*
X352883066Y-224763000D01*
X352923066Y-198058000D02*
X352923066Y-209160000D01*
X352923066Y-213640000D02*
X352923066Y-224742000D01*
X352963066Y-198080000D02*
X352963066Y-209160000D01*
X352963066Y-213640000D02*
X352963066Y-224720000D01*
X353003066Y-198101000D02*
X353003066Y-209160000D01*
X353003066Y-213640000D02*
X353003066Y-224699000D01*
X353043066Y-198122000D02*
X353043066Y-209160000D01*
X353043066Y-213640000D02*
X353043066Y-224678000D01*
X353083066Y-198144000D02*
X353083066Y-209160000D01*
X353083066Y-213640000D02*
X353083066Y-224656000D01*
X353123066Y-198166000D02*
X353123066Y-224634000D01*
X353163066Y-198187000D02*
X353163066Y-224613000D01*
X353203066Y-198210000D02*
X353203066Y-224590000D01*
X353243066Y-198232000D02*
X353243066Y-224568000D01*
X353283066Y-198254000D02*
X353283066Y-224546000D01*
X353323066Y-198277000D02*
X353323066Y-224523000D01*
X353363066Y-198299000D02*
X353363066Y-224501000D01*
X353403066Y-198322000D02*
X353403066Y-224478000D01*
X353443066Y-198345000D02*
X353443066Y-224455000D01*
X353483066Y-198368000D02*
X353483066Y-224432000D01*
X353523066Y-198392000D02*
X353523066Y-224408000D01*
X353563066Y-198415000D02*
X353563066Y-224385000D01*
X353603066Y-198439000D02*
X353603066Y-224361000D01*
X353643066Y-198463000D02*
X353643066Y-224337000D01*
X353683066Y-198487000D02*
X353683066Y-224313000D01*
X353723066Y-198511000D02*
X353723066Y-224289000D01*
X353763066Y-198535000D02*
X353763066Y-224265000D01*
X353803066Y-198560000D02*
X353803066Y-224240000D01*
X353843066Y-198584000D02*
X353843066Y-224216000D01*
X353883066Y-198609000D02*
X353883066Y-224191000D01*
X353923066Y-198634000D02*
X353923066Y-224166000D01*
X353963066Y-198660000D02*
X353963066Y-224140000D01*
X354003066Y-198685000D02*
X354003066Y-224115000D01*
X354043066Y-198710000D02*
X354043066Y-224090000D01*
X354082066Y-198736000D02*
X354082066Y-224064000D01*
X354122066Y-198762000D02*
X354122066Y-224038000D01*
X354162066Y-198788000D02*
X354162066Y-224012000D01*
X354202066Y-198814000D02*
X354202066Y-223986000D01*
X354242066Y-198841000D02*
X354242066Y-223959000D01*
X354282066Y-198868000D02*
X354282066Y-223932000D01*
X354322066Y-198894000D02*
X354322066Y-223906000D01*
X354362066Y-198921000D02*
X354362066Y-223879000D01*
X354402066Y-198949000D02*
X354402066Y-223851000D01*
X354442066Y-198976000D02*
X354442066Y-223824000D01*
X354482066Y-199003000D02*
X354482066Y-223797000D01*
X354522066Y-199031000D02*
X354522066Y-223769000D01*
X354562066Y-199059000D02*
X354562066Y-223741000D01*
X354602066Y-199087000D02*
X354602066Y-223713000D01*
X354642066Y-199116000D02*
X354642066Y-223684000D01*
X354682066Y-199144000D02*
X354682066Y-223656000D01*
X354722066Y-199173000D02*
X354722066Y-223627000D01*
X354762066Y-199202000D02*
X354762066Y-223598000D01*
X354802066Y-199231000D02*
X354802066Y-223569000D01*
X354842066Y-199260000D02*
X354842066Y-223540000D01*
X354882066Y-199290000D02*
X354882066Y-223510000D01*
X354922066Y-199320000D02*
X354922066Y-223480000D01*
X354962066Y-199350000D02*
X354962066Y-223450000D01*
X355002066Y-199380000D02*
X355002066Y-223420000D01*
X355042066Y-199410000D02*
X355042066Y-223390000D01*
X355082066Y-199441000D02*
X355082066Y-223359000D01*
X355122066Y-199471000D02*
X355122066Y-223329000D01*
X355162066Y-199502000D02*
X355162066Y-223298000D01*
X355202066Y-199534000D02*
X355202066Y-223266000D01*
X355242066Y-199565000D02*
X355242066Y-223235000D01*
X355282066Y-199597000D02*
X355282066Y-223203000D01*
X355322066Y-199628000D02*
X355322066Y-223172000D01*
X355362066Y-199661000D02*
X355362066Y-223139000D01*
X355402066Y-199693000D02*
X355402066Y-223107000D01*
X355442066Y-199725000D02*
X355442066Y-223075000D01*
X355482066Y-199758000D02*
X355482066Y-223042000D01*
X355522066Y-199791000D02*
X355522066Y-223009000D01*
X355562066Y-199824000D02*
X355562066Y-222976000D01*
X355602066Y-199858000D02*
X355602066Y-222942000D01*
X355642066Y-199891000D02*
X355642066Y-222909000D01*
X355682066Y-199925000D02*
X355682066Y-222875000D01*
X355722066Y-199960000D02*
X355722066Y-222840000D01*
X355762066Y-199994000D02*
X355762066Y-222806000D01*
X355802066Y-200029000D02*
X355802066Y-222771000D01*
X355842066Y-200064000D02*
X355842066Y-222736000D01*
X355882066Y-200099000D02*
X355882066Y-222701000D01*
X355922066Y-200134000D02*
X355922066Y-222666000D01*
X355962066Y-200170000D02*
X355962066Y-222630000D01*
X356002066Y-200206000D02*
X356002066Y-222594000D01*
X356042066Y-200242000D02*
X356042066Y-222558000D01*
X356082066Y-200278000D02*
X356082066Y-222522000D01*
X356122066Y-200315000D02*
X356122066Y-222485000D01*
X356162066Y-200352000D02*
X356162066Y-222448000D01*
X356202066Y-200389000D02*
X356202066Y-222411000D01*
X356242066Y-200427000D02*
X356242066Y-222373000D01*
X356282066Y-200464000D02*
X356282066Y-222336000D01*
X356322066Y-200502000D02*
X356322066Y-222298000D01*
X356362066Y-200541000D02*
X356362066Y-222259000D01*
X356402066Y-200579000D02*
X356402066Y-222221000D01*
X356442066Y-200618000D02*
X356442066Y-222182000D01*
X356482066Y-200657000D02*
X356482066Y-222143000D01*
X356522066Y-200697000D02*
X356522066Y-222103000D01*
X356562066Y-200737000D02*
X356562066Y-222063000D01*
X356602066Y-200777000D02*
X356602066Y-222023000D01*
X356642066Y-200817000D02*
X356642066Y-221983000D01*
X356682066Y-200858000D02*
X356682066Y-221942000D01*
X356722066Y-200899000D02*
X356722066Y-221901000D01*
X356762066Y-200940000D02*
X356762066Y-221860000D01*
X356802066Y-200982000D02*
X356802066Y-221818000D01*
X356842066Y-201024000D02*
X356842066Y-221776000D01*
X356882066Y-201066000D02*
X356882066Y-221734000D01*
X356922066Y-201108000D02*
X356922066Y-221692000D01*
X356962066Y-201151000D02*
X356962066Y-221649000D01*
X357002066Y-201195000D02*
X357002066Y-221605000D01*
X357042066Y-201238000D02*
X357042066Y-221562000D01*
X357082066Y-201282000D02*
X357082066Y-221518000D01*
X357122066Y-201326000D02*
X357122066Y-221474000D01*
X357162066Y-201371000D02*
X357162066Y-221429000D01*
X357202066Y-201416000D02*
X357202066Y-221384000D01*
X357242066Y-201461000D02*
X357242066Y-221339000D01*
X357282066Y-201507000D02*
X357282066Y-221293000D01*
X357322066Y-201553000D02*
X357322066Y-221247000D01*
X357362066Y-201600000D02*
X357362066Y-221200000D01*
X357402066Y-201646000D02*
X357402066Y-221154000D01*
X357442066Y-201694000D02*
X357442066Y-221106000D01*
X357482066Y-201741000D02*
X357482066Y-221059000D01*
X357522066Y-201789000D02*
X357522066Y-221011000D01*
X357562066Y-201838000D02*
X357562066Y-220962000D01*
X357602066Y-201887000D02*
X357602066Y-220913000D01*
X357642066Y-201936000D02*
X357642066Y-220864000D01*
X357682066Y-201986000D02*
X357682066Y-220814000D01*
X357722066Y-202036000D02*
X357722066Y-220764000D01*
X357762066Y-202086000D02*
X357762066Y-220714000D01*
X357802066Y-202137000D02*
X357802066Y-220663000D01*
X357842066Y-202189000D02*
X357842066Y-220611000D01*
X357882066Y-202241000D02*
X357882066Y-220559000D01*
X357922066Y-202293000D02*
X357922066Y-220507000D01*
X357962066Y-202346000D02*
X357962066Y-220454000D01*
X358002066Y-202400000D02*
X358002066Y-220400000D01*
X358042066Y-202453000D02*
X358042066Y-220347000D01*
X358082066Y-202508000D02*
X358082066Y-220292000D01*
X358122066Y-202563000D02*
X358122066Y-220237000D01*
X358162066Y-202618000D02*
X358162066Y-220182000D01*
X358202066Y-202674000D02*
X358202066Y-220126000D01*
X358242066Y-202731000D02*
X358242066Y-220069000D01*
X358282066Y-202788000D02*
X358282066Y-220012000D01*
X358322066Y-202845000D02*
X358322066Y-219955000D01*
X358362066Y-202903000D02*
X358362066Y-219897000D01*
X358402066Y-202962000D02*
X358402066Y-219838000D01*
X358442066Y-203022000D02*
X358442066Y-219778000D01*
X358482066Y-203082000D02*
X358482066Y-219718000D01*
X358522066Y-203142000D02*
X358522066Y-219658000D01*
X358562066Y-203203000D02*
X358562066Y-219597000D01*
X358602066Y-203265000D02*
X358602066Y-219535000D01*
X358642066Y-203328000D02*
X358642066Y-219472000D01*
X358682066Y-203391000D02*
X358682066Y-219409000D01*
X358722066Y-203455000D02*
X358722066Y-219345000D01*
X358762066Y-203520000D02*
X358762066Y-219280000D01*
X358802066Y-203585000D02*
X358802066Y-219215000D01*
X358842066Y-203652000D02*
X358842066Y-219148000D01*
X358882066Y-203718000D02*
X358882066Y-219082000D01*
X358922066Y-203786000D02*
X358922066Y-219014000D01*
X358962066Y-203855000D02*
X358962066Y-218945000D01*
X359002066Y-203924000D02*
X359002066Y-218876000D01*
X359042066Y-203994000D02*
X359042066Y-218806000D01*
X359082066Y-204066000D02*
X359082066Y-218734000D01*
X359122066Y-204138000D02*
X359122066Y-218662000D01*
X359162066Y-204211000D02*
X359162066Y-218589000D01*
X359202066Y-204285000D02*
X359202066Y-218515000D01*
X359242066Y-204360000D02*
X359242066Y-218440000D01*
X359282066Y-204436000D02*
X359282066Y-218364000D01*
X359322066Y-204513000D02*
X359322066Y-218287000D01*
X359362066Y-204591000D02*
X359362066Y-218209000D01*
X359402066Y-204670000D02*
X359402066Y-218130000D01*
X359442066Y-204751000D02*
X359442066Y-218049000D01*
X359482066Y-204832000D02*
X359482066Y-217968000D01*
X359522066Y-204915000D02*
X359522066Y-217885000D01*
X359562066Y-205000000D02*
X359562066Y-217800000D01*
X359602066Y-205085000D02*
X359602066Y-217715000D01*
X359642066Y-205172000D02*
X359642066Y-217628000D01*
X359682066Y-205261000D02*
X359682066Y-217539000D01*
X359722066Y-205351000D02*
X359722066Y-217449000D01*
X359762066Y-205443000D02*
X359762066Y-217357000D01*
X359802066Y-205536000D02*
X359802066Y-217264000D01*
X359842066Y-205632000D02*
X359842066Y-217168000D01*
X359882066Y-205729000D02*
X359882066Y-217071000D01*
X359922066Y-205828000D02*
X359922066Y-216972000D01*
X359962066Y-205929000D02*
X359962066Y-216871000D01*
X360002066Y-206032000D02*
X360002066Y-216768000D01*
X360042066Y-206138000D02*
X360042066Y-216662000D01*
X360082066Y-206246000D02*
X360082066Y-216554000D01*
X360122066Y-206357000D02*
X360122066Y-216443000D01*
X360162066Y-206470000D02*
X360162066Y-216330000D01*
X360202066Y-206586000D02*
X360202066Y-216214000D01*
X360242066Y-206706000D02*
X360242066Y-216094000D01*
X360282066Y-206829000D02*
X360282066Y-215971000D01*
X360322066Y-206956000D02*
X360322066Y-215844000D01*
X360362066Y-207087000D02*
X360362066Y-215713000D01*
X360402066Y-207222000D02*
X360402066Y-215578000D01*
X360442066Y-207363000D02*
X360442066Y-215437000D01*
X360482066Y-207508000D02*
X360482066Y-215292000D01*
X360522066Y-207660000D02*
X360522066Y-215140000D01*
X360562066Y-207818000D02*
X360562066Y-214982000D01*
X360602066Y-207985000D02*
X360602066Y-214815000D01*
X360642066Y-208160000D02*
X360642066Y-214640000D01*
X360682066Y-208345000D02*
X360682066Y-214455000D01*
X360722066Y-208543000D02*
X360722066Y-214257000D01*
X360762066Y-208756000D02*
X360762066Y-214044000D01*
X360802066Y-208988000D02*
X360802066Y-213812000D01*
X360842066Y-209246000D02*
X360842066Y-213554000D01*
X360882066Y-209538000D02*
X360882066Y-213262000D01*
X360922066Y-209886000D02*
X360922066Y-212914000D01*
X360962066Y-210340000D02*
X360962066Y-212460000D01*
X361002066Y-211360000D02*
X361002066Y-211440000D01*
X361002066Y-211400000D02*
G75*
G02*
X330762066Y-211400000I-15120000J0D01*
G01*
X330762066Y-211400000D02*
G75*
G02*
X361002066Y-211400000I15120000J0D01*
G01*
%TO.C,Q2*%
X406002107Y-117570000D02*
X402052107Y-117570000D01*
X406002107Y-125190000D02*
X402052107Y-125190000D01*
X406002107Y-127730000D02*
X402052107Y-127730000D01*
X406027893Y-122650000D02*
X402052107Y-122650000D01*
X406027893Y-130720000D02*
X406027893Y-114580000D01*
X427217893Y-114580000D02*
X406027893Y-114580000D01*
X427217893Y-130720000D02*
X406027893Y-130720000D01*
X427217893Y-130720000D02*
X427217893Y-114580000D01*
%TO.C,SW2*%
X318110000Y-92600000D02*
X318110000Y-102880000D01*
X318110000Y-102880000D02*
X319760000Y-102880000D01*
X321760000Y-102880000D02*
X323410000Y-102880000D01*
X323410000Y-92600000D02*
X318110000Y-92600000D01*
X323410000Y-102880000D02*
X323410000Y-92600000D01*
X319760000Y-102880000D02*
G75*
G02*
X321760000Y-102880000I1000000J0D01*
G01*
%TO.C,C106*%
D16*
X360700000Y-151100000D02*
X330700000Y-151100000D01*
X330700000Y-108100000D01*
X360700000Y-108100000D01*
X360700000Y-151100000D01*
D15*
%TO.C,J7*%
X306765000Y-137365000D02*
X306765000Y-143500000D01*
X306765000Y-149635000D02*
X306765000Y-143500000D01*
X321785000Y-137365000D02*
X306765000Y-137365000D01*
X321785000Y-138540000D02*
X321785000Y-137365000D01*
X321785000Y-144240000D02*
X321785000Y-142760000D01*
X321785000Y-148460000D02*
X321785000Y-149635000D01*
X321785000Y-149635000D02*
X306765000Y-149635000D01*
X322475000Y-137550000D02*
X323075000Y-137550000D01*
X322775000Y-138150000D02*
X322475000Y-137550000D01*
X323075000Y-137550000D02*
X322775000Y-138150000D01*
X326165000Y-140350000D02*
X324885000Y-140350000D01*
X326165000Y-140950000D02*
X324885000Y-140950000D01*
X326165000Y-146050000D02*
X324885000Y-146050000D01*
X326165000Y-146650000D02*
X324885000Y-146650000D01*
X317235000Y-143500000D02*
G75*
G02*
X313715000Y-143500000I-1760000J0D01*
G01*
X313715000Y-143500000D02*
G75*
G02*
X317235000Y-143500000I1760000J0D01*
G01*
D18*
%TO.C,REF\u002A\u002A*%
X425686725Y-237924619D02*
X425807261Y-237969393D01*
X425857388Y-238003034D01*
X425908152Y-238051236D01*
X425944362Y-238112551D01*
X425968393Y-238196024D01*
X425982618Y-238310697D01*
X425989412Y-238465613D01*
X425991149Y-238669814D01*
X425990809Y-238775341D01*
X425989101Y-238919541D01*
X425986201Y-239034620D01*
X425982384Y-239110822D01*
X425977925Y-239138391D01*
X425948909Y-239129272D01*
X425890339Y-239104509D01*
X425888581Y-239103707D01*
X425858167Y-239087785D01*
X425837712Y-239065938D01*
X425825240Y-239027672D01*
X425818777Y-238962495D01*
X425816348Y-238859913D01*
X425815977Y-238709433D01*
X425815229Y-238613974D01*
X425807256Y-238434571D01*
X425788998Y-238303163D01*
X425758526Y-238212859D01*
X425713912Y-238156767D01*
X425653226Y-238127994D01*
X425644807Y-238125989D01*
X425531139Y-238124423D01*
X425442492Y-238175348D01*
X425381265Y-238277445D01*
X425370346Y-238306961D01*
X425345458Y-238372283D01*
X425332854Y-238402300D01*
X425306969Y-238398164D01*
X425250439Y-238375717D01*
X425197715Y-238338647D01*
X425173678Y-238268587D01*
X425180847Y-238218406D01*
X425224897Y-238116618D01*
X425296123Y-238021235D01*
X425379415Y-237955269D01*
X425414310Y-237940018D01*
X425546443Y-237914521D01*
X425686725Y-237924619D01*
G36*
X425686725Y-237924619D02*
G01*
X425807261Y-237969393D01*
X425857388Y-238003034D01*
X425908152Y-238051236D01*
X425944362Y-238112551D01*
X425968393Y-238196024D01*
X425982618Y-238310697D01*
X425989412Y-238465613D01*
X425991149Y-238669814D01*
X425990809Y-238775341D01*
X425989101Y-238919541D01*
X425986201Y-239034620D01*
X425982384Y-239110822D01*
X425977925Y-239138391D01*
X425948909Y-239129272D01*
X425890339Y-239104509D01*
X425888581Y-239103707D01*
X425858167Y-239087785D01*
X425837712Y-239065938D01*
X425825240Y-239027672D01*
X425818777Y-238962495D01*
X425816348Y-238859913D01*
X425815977Y-238709433D01*
X425815229Y-238613974D01*
X425807256Y-238434571D01*
X425788998Y-238303163D01*
X425758526Y-238212859D01*
X425713912Y-238156767D01*
X425653226Y-238127994D01*
X425644807Y-238125989D01*
X425531139Y-238124423D01*
X425442492Y-238175348D01*
X425381265Y-238277445D01*
X425370346Y-238306961D01*
X425345458Y-238372283D01*
X425332854Y-238402300D01*
X425306969Y-238398164D01*
X425250439Y-238375717D01*
X425197715Y-238338647D01*
X425173678Y-238268587D01*
X425180847Y-238218406D01*
X425224897Y-238116618D01*
X425296123Y-238021235D01*
X425379415Y-237955269D01*
X425414310Y-237940018D01*
X425546443Y-237914521D01*
X425686725Y-237924619D01*
G37*
X433628487Y-237857689D02*
X433764848Y-237921770D01*
X433876598Y-238032584D01*
X433899761Y-238067273D01*
X433918973Y-238106590D01*
X433932598Y-238156145D01*
X433941877Y-238225568D01*
X433948050Y-238324490D01*
X433952357Y-238462539D01*
X433956038Y-238649346D01*
X433965180Y-239167542D01*
X433888383Y-239138344D01*
X433818068Y-239111520D01*
X433765424Y-239085706D01*
X433731060Y-239052431D01*
X433711093Y-239001510D01*
X433701639Y-238922761D01*
X433698814Y-238805999D01*
X433698736Y-238641042D01*
X433698336Y-238509558D01*
X433695951Y-238383394D01*
X433690259Y-238297223D01*
X433679961Y-238240672D01*
X433663755Y-238203370D01*
X433640345Y-238174943D01*
X433582793Y-238134827D01*
X433486112Y-238119706D01*
X433390465Y-238157917D01*
X433384152Y-238162810D01*
X433364477Y-238185413D01*
X433349963Y-238221664D01*
X433339394Y-238280511D01*
X433331555Y-238370901D01*
X433325227Y-238501779D01*
X433319195Y-238682095D01*
X433304598Y-239164907D01*
X433180517Y-239109283D01*
X433056437Y-239053659D01*
X433056437Y-238612851D01*
X433056951Y-238493098D01*
X433061380Y-238326506D01*
X433072594Y-238202468D01*
X433093272Y-238110987D01*
X433126093Y-238042066D01*
X433173736Y-237985707D01*
X433238877Y-237931914D01*
X433332571Y-237877719D01*
X433480175Y-237842339D01*
X433628487Y-237857689D01*
G36*
X433628487Y-237857689D02*
G01*
X433764848Y-237921770D01*
X433876598Y-238032584D01*
X433899761Y-238067273D01*
X433918973Y-238106590D01*
X433932598Y-238156145D01*
X433941877Y-238225568D01*
X433948050Y-238324490D01*
X433952357Y-238462539D01*
X433956038Y-238649346D01*
X433965180Y-239167542D01*
X433888383Y-239138344D01*
X433818068Y-239111520D01*
X433765424Y-239085706D01*
X433731060Y-239052431D01*
X433711093Y-239001510D01*
X433701639Y-238922761D01*
X433698814Y-238805999D01*
X433698736Y-238641042D01*
X433698336Y-238509558D01*
X433695951Y-238383394D01*
X433690259Y-238297223D01*
X433679961Y-238240672D01*
X433663755Y-238203370D01*
X433640345Y-238174943D01*
X433582793Y-238134827D01*
X433486112Y-238119706D01*
X433390465Y-238157917D01*
X433384152Y-238162810D01*
X433364477Y-238185413D01*
X433349963Y-238221664D01*
X433339394Y-238280511D01*
X433331555Y-238370901D01*
X433325227Y-238501779D01*
X433319195Y-238682095D01*
X433304598Y-239164907D01*
X433180517Y-239109283D01*
X433056437Y-239053659D01*
X433056437Y-238612851D01*
X433056951Y-238493098D01*
X433061380Y-238326506D01*
X433072594Y-238202468D01*
X433093272Y-238110987D01*
X433126093Y-238042066D01*
X433173736Y-237985707D01*
X433238877Y-237931914D01*
X433332571Y-237877719D01*
X433480175Y-237842339D01*
X433628487Y-237857689D01*
G37*
X429960872Y-237955536D02*
X429970090Y-237960638D01*
X430045381Y-238019080D01*
X430112698Y-238094215D01*
X430124439Y-238111196D01*
X430146883Y-238150825D01*
X430162918Y-238197858D01*
X430173945Y-238262492D01*
X430181365Y-238354923D01*
X430186579Y-238485349D01*
X430190989Y-238663965D01*
X430191614Y-238694162D01*
X430193620Y-238889941D01*
X430190792Y-239028603D01*
X430183088Y-239111103D01*
X430170466Y-239138391D01*
X430132267Y-239130220D01*
X430067374Y-239105463D01*
X430052094Y-239098223D01*
X430028227Y-239081835D01*
X430011769Y-239054893D01*
X430001005Y-239007833D01*
X429994219Y-238931088D01*
X429989693Y-238815095D01*
X429985713Y-238650287D01*
X429984622Y-238602112D01*
X429980407Y-238449960D01*
X429974936Y-238343476D01*
X429966554Y-238272565D01*
X429953606Y-238227129D01*
X429934439Y-238197072D01*
X429907398Y-238172296D01*
X429827337Y-238128861D01*
X429728846Y-238120498D01*
X429640719Y-238153734D01*
X429577314Y-238222548D01*
X429552988Y-238320920D01*
X429552311Y-238347658D01*
X429539024Y-238396065D01*
X429499796Y-238403450D01*
X429422983Y-238374624D01*
X429405192Y-238365378D01*
X429357109Y-238311006D01*
X429356157Y-238230161D01*
X429401968Y-238118352D01*
X429443990Y-238057419D01*
X429551435Y-237970859D01*
X429684057Y-237921920D01*
X429825867Y-237915260D01*
X429960872Y-237955536D01*
G36*
X429960872Y-237955536D02*
G01*
X429970090Y-237960638D01*
X430045381Y-238019080D01*
X430112698Y-238094215D01*
X430124439Y-238111196D01*
X430146883Y-238150825D01*
X430162918Y-238197858D01*
X430173945Y-238262492D01*
X430181365Y-238354923D01*
X430186579Y-238485349D01*
X430190989Y-238663965D01*
X430191614Y-238694162D01*
X430193620Y-238889941D01*
X430190792Y-239028603D01*
X430183088Y-239111103D01*
X430170466Y-239138391D01*
X430132267Y-239130220D01*
X430067374Y-239105463D01*
X430052094Y-239098223D01*
X430028227Y-239081835D01*
X430011769Y-239054893D01*
X430001005Y-239007833D01*
X429994219Y-238931088D01*
X429989693Y-238815095D01*
X429985713Y-238650287D01*
X429984622Y-238602112D01*
X429980407Y-238449960D01*
X429974936Y-238343476D01*
X429966554Y-238272565D01*
X429953606Y-238227129D01*
X429934439Y-238197072D01*
X429907398Y-238172296D01*
X429827337Y-238128861D01*
X429728846Y-238120498D01*
X429640719Y-238153734D01*
X429577314Y-238222548D01*
X429552988Y-238320920D01*
X429552311Y-238347658D01*
X429539024Y-238396065D01*
X429499796Y-238403450D01*
X429422983Y-238374624D01*
X429405192Y-238365378D01*
X429357109Y-238311006D01*
X429356157Y-238230161D01*
X429401968Y-238118352D01*
X429443990Y-238057419D01*
X429551435Y-237970859D01*
X429684057Y-237921920D01*
X429825867Y-237915260D01*
X429960872Y-237955536D01*
G37*
X428042410Y-237920970D02*
X428106442Y-237946066D01*
X428180805Y-237979947D01*
X428180805Y-238958727D01*
X428088415Y-239051117D01*
X428067310Y-239071835D01*
X428008847Y-239117885D01*
X427949886Y-239132801D01*
X427862150Y-239125934D01*
X427826429Y-239121494D01*
X427734301Y-239112102D01*
X427669885Y-239108361D01*
X427650778Y-239108933D01*
X427572390Y-239115126D01*
X427477620Y-239125934D01*
X427447298Y-239129647D01*
X427370911Y-239131107D01*
X427315022Y-239108047D01*
X427251355Y-239051117D01*
X427158965Y-238958727D01*
X427158965Y-238435455D01*
X427159685Y-238280821D01*
X427161929Y-238133391D01*
X427165421Y-238016653D01*
X427169876Y-237939840D01*
X427175013Y-237912184D01*
X427176090Y-237912258D01*
X427213407Y-237926019D01*
X427276457Y-237956344D01*
X427361854Y-238000505D01*
X427369893Y-238459965D01*
X427377931Y-238919425D01*
X427553103Y-238919425D01*
X427561092Y-238415805D01*
X427563624Y-238278904D01*
X427567249Y-238132579D01*
X427571177Y-238016411D01*
X427575080Y-237939809D01*
X427578632Y-237912184D01*
X427579653Y-237912281D01*
X427615051Y-237922443D01*
X427680126Y-237944235D01*
X427772069Y-237976287D01*
X427772516Y-238418661D01*
X427772964Y-238495507D01*
X427776069Y-238644834D01*
X427781622Y-238769544D01*
X427789033Y-238858379D01*
X427797714Y-238900083D01*
X427828771Y-238922389D01*
X427892152Y-238929278D01*
X427961839Y-238919425D01*
X427969827Y-238415805D01*
X427972686Y-238287828D01*
X427978614Y-238136348D01*
X427986365Y-238017530D01*
X427995343Y-237939950D01*
X428004948Y-237912184D01*
X428042410Y-237920970D01*
G36*
X428042410Y-237920970D02*
G01*
X428106442Y-237946066D01*
X428180805Y-237979947D01*
X428180805Y-238958727D01*
X428088415Y-239051117D01*
X428067310Y-239071835D01*
X428008847Y-239117885D01*
X427949886Y-239132801D01*
X427862150Y-239125934D01*
X427826429Y-239121494D01*
X427734301Y-239112102D01*
X427669885Y-239108361D01*
X427650778Y-239108933D01*
X427572390Y-239115126D01*
X427477620Y-239125934D01*
X427447298Y-239129647D01*
X427370911Y-239131107D01*
X427315022Y-239108047D01*
X427251355Y-239051117D01*
X427158965Y-238958727D01*
X427158965Y-238435455D01*
X427159685Y-238280821D01*
X427161929Y-238133391D01*
X427165421Y-238016653D01*
X427169876Y-237939840D01*
X427175013Y-237912184D01*
X427176090Y-237912258D01*
X427213407Y-237926019D01*
X427276457Y-237956344D01*
X427361854Y-238000505D01*
X427369893Y-238459965D01*
X427377931Y-238919425D01*
X427553103Y-238919425D01*
X427561092Y-238415805D01*
X427563624Y-238278904D01*
X427567249Y-238132579D01*
X427571177Y-238016411D01*
X427575080Y-237939809D01*
X427578632Y-237912184D01*
X427579653Y-237912281D01*
X427615051Y-237922443D01*
X427680126Y-237944235D01*
X427772069Y-237976287D01*
X427772516Y-238418661D01*
X427772964Y-238495507D01*
X427776069Y-238644834D01*
X427781622Y-238769544D01*
X427789033Y-238858379D01*
X427797714Y-238900083D01*
X427828771Y-238922389D01*
X427892152Y-238929278D01*
X427961839Y-238919425D01*
X427969827Y-238415805D01*
X427972686Y-238287828D01*
X427978614Y-238136348D01*
X427986365Y-238017530D01*
X427995343Y-237939950D01*
X428004948Y-237912184D01*
X428042410Y-237920970D01*
G37*
X432114885Y-237518997D02*
X432209770Y-237559020D01*
X432209770Y-238348706D01*
X432209769Y-238357920D01*
X432209377Y-238565083D01*
X432208329Y-238751432D01*
X432206722Y-238909453D01*
X432204655Y-239031630D01*
X432202225Y-239110448D01*
X432199529Y-239138391D01*
X432198475Y-239138297D01*
X432162647Y-239128144D01*
X432097345Y-239106339D01*
X432005402Y-239074288D01*
X432005402Y-238662991D01*
X432004818Y-238501385D01*
X432002104Y-238384177D01*
X431995858Y-238304415D01*
X431984680Y-238251531D01*
X431967168Y-238214957D01*
X431941922Y-238184123D01*
X431924710Y-238167725D01*
X431831636Y-238122307D01*
X431729051Y-238126328D01*
X431635043Y-238180032D01*
X431621358Y-238193359D01*
X431599439Y-238221032D01*
X431584440Y-238257614D01*
X431575053Y-238313000D01*
X431569968Y-238397088D01*
X431567877Y-238519773D01*
X431567471Y-238690951D01*
X431567276Y-238777769D01*
X431566010Y-238920565D01*
X431563761Y-239034923D01*
X431560758Y-239110860D01*
X431557230Y-239138391D01*
X431556176Y-239138297D01*
X431520348Y-239128144D01*
X431455046Y-239106339D01*
X431363103Y-239074288D01*
X431363149Y-238661109D01*
X431363218Y-238624326D01*
X431367081Y-238432580D01*
X431378950Y-238287586D01*
X431401725Y-238179510D01*
X431438307Y-238098519D01*
X431491595Y-238034778D01*
X431564490Y-237978455D01*
X431635586Y-237943199D01*
X431749255Y-237915946D01*
X431861060Y-237914398D01*
X431947011Y-237940910D01*
X431953473Y-237944571D01*
X431973401Y-237944179D01*
X431987019Y-237913506D01*
X431996846Y-237843188D01*
X432005402Y-237723857D01*
X432020000Y-237478973D01*
X432114885Y-237518997D01*
G36*
X432114885Y-237518997D02*
G01*
X432209770Y-237559020D01*
X432209770Y-238348706D01*
X432209769Y-238357920D01*
X432209377Y-238565083D01*
X432208329Y-238751432D01*
X432206722Y-238909453D01*
X432204655Y-239031630D01*
X432202225Y-239110448D01*
X432199529Y-239138391D01*
X432198475Y-239138297D01*
X432162647Y-239128144D01*
X432097345Y-239106339D01*
X432005402Y-239074288D01*
X432005402Y-238662991D01*
X432004818Y-238501385D01*
X432002104Y-238384177D01*
X431995858Y-238304415D01*
X431984680Y-238251531D01*
X431967168Y-238214957D01*
X431941922Y-238184123D01*
X431924710Y-238167725D01*
X431831636Y-238122307D01*
X431729051Y-238126328D01*
X431635043Y-238180032D01*
X431621358Y-238193359D01*
X431599439Y-238221032D01*
X431584440Y-238257614D01*
X431575053Y-238313000D01*
X431569968Y-238397088D01*
X431567877Y-238519773D01*
X431567471Y-238690951D01*
X431567276Y-238777769D01*
X431566010Y-238920565D01*
X431563761Y-239034923D01*
X431560758Y-239110860D01*
X431557230Y-239138391D01*
X431556176Y-239138297D01*
X431520348Y-239128144D01*
X431455046Y-239106339D01*
X431363103Y-239074288D01*
X431363149Y-238661109D01*
X431363218Y-238624326D01*
X431367081Y-238432580D01*
X431378950Y-238287586D01*
X431401725Y-238179510D01*
X431438307Y-238098519D01*
X431491595Y-238034778D01*
X431564490Y-237978455D01*
X431635586Y-237943199D01*
X431749255Y-237915946D01*
X431861060Y-237914398D01*
X431947011Y-237940910D01*
X431953473Y-237944571D01*
X431973401Y-237944179D01*
X431987019Y-237913506D01*
X431996846Y-237843188D01*
X432005402Y-237723857D01*
X432020000Y-237478973D01*
X432114885Y-237518997D01*
G37*
X437318965Y-238496092D02*
X437318938Y-238527744D01*
X437317355Y-238668918D01*
X437311916Y-238767285D01*
X437300643Y-238835990D01*
X437281561Y-238888181D01*
X437252694Y-238937004D01*
X437245592Y-238947135D01*
X437170444Y-239027012D01*
X437084820Y-239087253D01*
X437040852Y-239106802D01*
X436882861Y-239139408D01*
X436726613Y-239118317D01*
X436582618Y-239046249D01*
X436461385Y-238925922D01*
X436451150Y-238909803D01*
X436417847Y-238816205D01*
X436395405Y-238685879D01*
X436384516Y-238535371D01*
X436385740Y-238396147D01*
X436680384Y-238396147D01*
X436682706Y-238589020D01*
X436683639Y-238601433D01*
X436697242Y-238707857D01*
X436721465Y-238775346D01*
X436762365Y-238821584D01*
X436830941Y-238864895D01*
X436898764Y-238867172D01*
X436968621Y-238817241D01*
X436980771Y-238804102D01*
X437004575Y-238764785D01*
X437018628Y-238707674D01*
X437025313Y-238619256D01*
X437027011Y-238486019D01*
X437024101Y-238361222D01*
X437009582Y-238242326D01*
X436979610Y-238167184D01*
X436930589Y-238127893D01*
X436858924Y-238116552D01*
X436831632Y-238118807D01*
X436755176Y-238160160D01*
X436704650Y-238252900D01*
X436680384Y-238396147D01*
X436385740Y-238396147D01*
X436385871Y-238381227D01*
X436400161Y-238239992D01*
X436428075Y-238128213D01*
X436463949Y-238053766D01*
X436564939Y-237937968D01*
X436701779Y-237866015D01*
X436869283Y-237841281D01*
X436914019Y-237842619D01*
X437045758Y-237870008D01*
X437153968Y-237939007D01*
X437253276Y-238057864D01*
X437259184Y-238066681D01*
X437285921Y-238114108D01*
X437303312Y-238167714D01*
X437313312Y-238240549D01*
X437317878Y-238345659D01*
X437318893Y-238486019D01*
X437318965Y-238496092D01*
G36*
X437318965Y-238496092D02*
G01*
X437318938Y-238527744D01*
X437317355Y-238668918D01*
X437311916Y-238767285D01*
X437300643Y-238835990D01*
X437281561Y-238888181D01*
X437252694Y-238937004D01*
X437245592Y-238947135D01*
X437170444Y-239027012D01*
X437084820Y-239087253D01*
X437040852Y-239106802D01*
X436882861Y-239139408D01*
X436726613Y-239118317D01*
X436582618Y-239046249D01*
X436461385Y-238925922D01*
X436451150Y-238909803D01*
X436417847Y-238816205D01*
X436395405Y-238685879D01*
X436384516Y-238535371D01*
X436385740Y-238396147D01*
X436680384Y-238396147D01*
X436682706Y-238589020D01*
X436683639Y-238601433D01*
X436697242Y-238707857D01*
X436721465Y-238775346D01*
X436762365Y-238821584D01*
X436830941Y-238864895D01*
X436898764Y-238867172D01*
X436968621Y-238817241D01*
X436980771Y-238804102D01*
X437004575Y-238764785D01*
X437018628Y-238707674D01*
X437025313Y-238619256D01*
X437027011Y-238486019D01*
X437024101Y-238361222D01*
X437009582Y-238242326D01*
X436979610Y-238167184D01*
X436930589Y-238127893D01*
X436858924Y-238116552D01*
X436831632Y-238118807D01*
X436755176Y-238160160D01*
X436704650Y-238252900D01*
X436680384Y-238396147D01*
X436385740Y-238396147D01*
X436385871Y-238381227D01*
X436400161Y-238239992D01*
X436428075Y-238128213D01*
X436463949Y-238053766D01*
X436564939Y-237937968D01*
X436701779Y-237866015D01*
X436869283Y-237841281D01*
X436914019Y-237842619D01*
X437045758Y-237870008D01*
X437153968Y-237939007D01*
X437253276Y-238057864D01*
X437259184Y-238066681D01*
X437285921Y-238114108D01*
X437303312Y-238167714D01*
X437313312Y-238240549D01*
X437317878Y-238345659D01*
X437318893Y-238486019D01*
X437318965Y-238496092D01*
G37*
X424998313Y-238531136D02*
X424997744Y-238608946D01*
X424990612Y-238762254D01*
X424971948Y-238874441D01*
X424937537Y-238957554D01*
X424883162Y-239023641D01*
X424804610Y-239084747D01*
X424754630Y-239112535D01*
X424674513Y-239131251D01*
X424561970Y-239129774D01*
X424499050Y-239123845D01*
X424423153Y-239105742D01*
X424362487Y-239066391D01*
X424291912Y-238993066D01*
X424282482Y-238982356D01*
X424219034Y-238899938D01*
X424188762Y-238828156D01*
X424181034Y-238743034D01*
X424181034Y-238617946D01*
X424268447Y-238650940D01*
X424332175Y-238689509D01*
X424387567Y-238780008D01*
X424399131Y-238808983D01*
X424463788Y-238891041D01*
X424551804Y-238932347D01*
X424647637Y-238928633D01*
X424735747Y-238875632D01*
X424766028Y-238842582D01*
X424793489Y-238792720D01*
X424784899Y-238747416D01*
X424735463Y-238700790D01*
X424640389Y-238646958D01*
X424494885Y-238580039D01*
X424195632Y-238449056D01*
X424187691Y-238319298D01*
X424190676Y-238236649D01*
X424385652Y-238236649D01*
X424400453Y-238287815D01*
X424467797Y-238342442D01*
X424590027Y-238404597D01*
X424610253Y-238413601D01*
X424706970Y-238455493D01*
X424779334Y-238484958D01*
X424812961Y-238496092D01*
X424818056Y-238487896D01*
X424820101Y-238437853D01*
X424812812Y-238357414D01*
X424794452Y-238278753D01*
X424737188Y-238179651D01*
X424654524Y-238123808D01*
X424555784Y-238116250D01*
X424450289Y-238162000D01*
X424421053Y-238184876D01*
X424385652Y-238236649D01*
X424190676Y-238236649D01*
X424191196Y-238222255D01*
X424235336Y-238099617D01*
X424291050Y-238032034D01*
X424406561Y-237956540D01*
X424543588Y-237918403D01*
X424685237Y-237921422D01*
X424814617Y-237969393D01*
X424843099Y-237987813D01*
X424908428Y-238044811D01*
X424953106Y-238116916D01*
X424980641Y-238214853D01*
X424994541Y-238349351D01*
X424996378Y-238437853D01*
X424998313Y-238531136D01*
G36*
X424998313Y-238531136D02*
G01*
X424997744Y-238608946D01*
X424990612Y-238762254D01*
X424971948Y-238874441D01*
X424937537Y-238957554D01*
X424883162Y-239023641D01*
X424804610Y-239084747D01*
X424754630Y-239112535D01*
X424674513Y-239131251D01*
X424561970Y-239129774D01*
X424499050Y-239123845D01*
X424423153Y-239105742D01*
X424362487Y-239066391D01*
X424291912Y-238993066D01*
X424282482Y-238982356D01*
X424219034Y-238899938D01*
X424188762Y-238828156D01*
X424181034Y-238743034D01*
X424181034Y-238617946D01*
X424268447Y-238650940D01*
X424332175Y-238689509D01*
X424387567Y-238780008D01*
X424399131Y-238808983D01*
X424463788Y-238891041D01*
X424551804Y-238932347D01*
X424647637Y-238928633D01*
X424735747Y-238875632D01*
X424766028Y-238842582D01*
X424793489Y-238792720D01*
X424784899Y-238747416D01*
X424735463Y-238700790D01*
X424640389Y-238646958D01*
X424494885Y-238580039D01*
X424195632Y-238449056D01*
X424187691Y-238319298D01*
X424190676Y-238236649D01*
X424385652Y-238236649D01*
X424400453Y-238287815D01*
X424467797Y-238342442D01*
X424590027Y-238404597D01*
X424610253Y-238413601D01*
X424706970Y-238455493D01*
X424779334Y-238484958D01*
X424812961Y-238496092D01*
X424818056Y-238487896D01*
X424820101Y-238437853D01*
X424812812Y-238357414D01*
X424794452Y-238278753D01*
X424737188Y-238179651D01*
X424654524Y-238123808D01*
X424555784Y-238116250D01*
X424450289Y-238162000D01*
X424421053Y-238184876D01*
X424385652Y-238236649D01*
X424190676Y-238236649D01*
X424191196Y-238222255D01*
X424235336Y-238099617D01*
X424291050Y-238032034D01*
X424406561Y-237956540D01*
X424543588Y-237918403D01*
X424685237Y-237921422D01*
X424814617Y-237969393D01*
X424843099Y-237987813D01*
X424908428Y-238044811D01*
X424953106Y-238116916D01*
X424980641Y-238214853D01*
X424994541Y-238349351D01*
X424996378Y-238437853D01*
X424998313Y-238531136D01*
G37*
X429202553Y-238525287D02*
X429200219Y-238639135D01*
X429183739Y-238794320D01*
X429147883Y-238910612D01*
X429088455Y-238999411D01*
X429001257Y-239072119D01*
X428918195Y-239114150D01*
X428778709Y-239137538D01*
X428639412Y-239111965D01*
X428513510Y-239040694D01*
X428414210Y-238926991D01*
X428402219Y-238906024D01*
X428386384Y-238869291D01*
X428374638Y-238822415D01*
X428366378Y-238757355D01*
X428360998Y-238666070D01*
X428357892Y-238540519D01*
X428357797Y-238529379D01*
X428560345Y-238529379D01*
X428561035Y-238635644D01*
X428565400Y-238731762D01*
X428576192Y-238793811D01*
X428596126Y-238835502D01*
X428627916Y-238870543D01*
X428635364Y-238877279D01*
X428731060Y-238926992D01*
X428832312Y-238921905D01*
X428926614Y-238862362D01*
X428954694Y-238831514D01*
X428978196Y-238790618D01*
X428991322Y-238734080D01*
X428997030Y-238647657D01*
X428998276Y-238517106D01*
X428997661Y-238417487D01*
X428993407Y-238320251D01*
X428982682Y-238257502D01*
X428962707Y-238215382D01*
X428930704Y-238180032D01*
X428911905Y-238164114D01*
X428814492Y-238121235D01*
X428712437Y-238127985D01*
X428623825Y-238184123D01*
X428604749Y-238206382D01*
X428581486Y-238248293D01*
X428568036Y-238306822D01*
X428561841Y-238395880D01*
X428560345Y-238529379D01*
X428357797Y-238529379D01*
X428356457Y-238372661D01*
X428356086Y-238154455D01*
X428355977Y-237477072D01*
X428450862Y-237516819D01*
X428475949Y-237527699D01*
X428515881Y-237552268D01*
X428538739Y-237589475D01*
X428551301Y-237654541D01*
X428560345Y-237762687D01*
X428568605Y-237859788D01*
X428579523Y-237923535D01*
X428595165Y-237947323D01*
X428618736Y-237940943D01*
X428678801Y-237918525D01*
X428786145Y-237912967D01*
X428901624Y-237933728D01*
X429001257Y-237978455D01*
X429056072Y-238019856D01*
X429126452Y-238100632D01*
X429171528Y-238204195D01*
X429195496Y-238341947D01*
X429202239Y-238517106D01*
X429202553Y-238525287D01*
G36*
X429202553Y-238525287D02*
G01*
X429200219Y-238639135D01*
X429183739Y-238794320D01*
X429147883Y-238910612D01*
X429088455Y-238999411D01*
X429001257Y-239072119D01*
X428918195Y-239114150D01*
X428778709Y-239137538D01*
X428639412Y-239111965D01*
X428513510Y-239040694D01*
X428414210Y-238926991D01*
X428402219Y-238906024D01*
X428386384Y-238869291D01*
X428374638Y-238822415D01*
X428366378Y-238757355D01*
X428360998Y-238666070D01*
X428357892Y-238540519D01*
X428357797Y-238529379D01*
X428560345Y-238529379D01*
X428561035Y-238635644D01*
X428565400Y-238731762D01*
X428576192Y-238793811D01*
X428596126Y-238835502D01*
X428627916Y-238870543D01*
X428635364Y-238877279D01*
X428731060Y-238926992D01*
X428832312Y-238921905D01*
X428926614Y-238862362D01*
X428954694Y-238831514D01*
X428978196Y-238790618D01*
X428991322Y-238734080D01*
X428997030Y-238647657D01*
X428998276Y-238517106D01*
X428997661Y-238417487D01*
X428993407Y-238320251D01*
X428982682Y-238257502D01*
X428962707Y-238215382D01*
X428930704Y-238180032D01*
X428911905Y-238164114D01*
X428814492Y-238121235D01*
X428712437Y-238127985D01*
X428623825Y-238184123D01*
X428604749Y-238206382D01*
X428581486Y-238248293D01*
X428568036Y-238306822D01*
X428561841Y-238395880D01*
X428560345Y-238529379D01*
X428357797Y-238529379D01*
X428356457Y-238372661D01*
X428356086Y-238154455D01*
X428355977Y-237477072D01*
X428450862Y-237516819D01*
X428475949Y-237527699D01*
X428515881Y-237552268D01*
X428538739Y-237589475D01*
X428551301Y-237654541D01*
X428560345Y-237762687D01*
X428568605Y-237859788D01*
X428579523Y-237923535D01*
X428595165Y-237947323D01*
X428618736Y-237940943D01*
X428678801Y-237918525D01*
X428786145Y-237912967D01*
X428901624Y-237933728D01*
X429001257Y-237978455D01*
X429056072Y-238019856D01*
X429126452Y-238100632D01*
X429171528Y-238204195D01*
X429195496Y-238341947D01*
X429202239Y-238517106D01*
X429202553Y-238525287D01*
G37*
X435099452Y-238413329D02*
X435090168Y-238634639D01*
X435084926Y-238681526D01*
X435045868Y-238848409D01*
X434975290Y-238975326D01*
X434867955Y-239072602D01*
X434861888Y-239076616D01*
X434725440Y-239133706D01*
X434582973Y-239138786D01*
X434445696Y-239095311D01*
X434324819Y-239006734D01*
X434231552Y-238876509D01*
X434229986Y-238873369D01*
X434198993Y-238792501D01*
X434176292Y-238700593D01*
X434164250Y-238614311D01*
X434165237Y-238550321D01*
X434181623Y-238525287D01*
X434196179Y-238526809D01*
X434265792Y-238554496D01*
X434344697Y-238605409D01*
X434411820Y-238664343D01*
X434446087Y-238716094D01*
X434481707Y-238786291D01*
X434554711Y-238850138D01*
X434639485Y-238875632D01*
X434670558Y-238868261D01*
X434731891Y-238831154D01*
X434785315Y-238779644D01*
X434808161Y-238732913D01*
X434808154Y-238732740D01*
X434782233Y-238711280D01*
X434713127Y-238672565D01*
X434611249Y-238622037D01*
X434487011Y-238565134D01*
X434486328Y-238564833D01*
X434351355Y-238504738D01*
X434260884Y-238461440D01*
X434206039Y-238428179D01*
X434177944Y-238398194D01*
X434167724Y-238364726D01*
X434166503Y-238321015D01*
X434174996Y-238238244D01*
X434463219Y-238238244D01*
X434492970Y-238264265D01*
X434567101Y-238303256D01*
X434569274Y-238304359D01*
X434656733Y-238346009D01*
X434734974Y-238379235D01*
X434784611Y-238393291D01*
X434804521Y-238374503D01*
X434808161Y-238310124D01*
X434793035Y-238230001D01*
X434740597Y-238157189D01*
X434664677Y-238119439D01*
X434580040Y-238123251D01*
X434501447Y-238175121D01*
X434470555Y-238210965D01*
X434463219Y-238238244D01*
X434174996Y-238238244D01*
X434177251Y-238216265D01*
X434230389Y-238073949D01*
X434319342Y-237962111D01*
X434434448Y-237884676D01*
X434566045Y-237845568D01*
X434704472Y-237848711D01*
X434840065Y-237898030D01*
X434963164Y-237997447D01*
X435031366Y-238095829D01*
X435080356Y-238236261D01*
X435088322Y-238310124D01*
X435099452Y-238413329D01*
G36*
X435099452Y-238413329D02*
G01*
X435090168Y-238634639D01*
X435084926Y-238681526D01*
X435045868Y-238848409D01*
X434975290Y-238975326D01*
X434867955Y-239072602D01*
X434861888Y-239076616D01*
X434725440Y-239133706D01*
X434582973Y-239138786D01*
X434445696Y-239095311D01*
X434324819Y-239006734D01*
X434231552Y-238876509D01*
X434229986Y-238873369D01*
X434198993Y-238792501D01*
X434176292Y-238700593D01*
X434164250Y-238614311D01*
X434165237Y-238550321D01*
X434181623Y-238525287D01*
X434196179Y-238526809D01*
X434265792Y-238554496D01*
X434344697Y-238605409D01*
X434411820Y-238664343D01*
X434446087Y-238716094D01*
X434481707Y-238786291D01*
X434554711Y-238850138D01*
X434639485Y-238875632D01*
X434670558Y-238868261D01*
X434731891Y-238831154D01*
X434785315Y-238779644D01*
X434808161Y-238732913D01*
X434808154Y-238732740D01*
X434782233Y-238711280D01*
X434713127Y-238672565D01*
X434611249Y-238622037D01*
X434487011Y-238565134D01*
X434486328Y-238564833D01*
X434351355Y-238504738D01*
X434260884Y-238461440D01*
X434206039Y-238428179D01*
X434177944Y-238398194D01*
X434167724Y-238364726D01*
X434166503Y-238321015D01*
X434174996Y-238238244D01*
X434463219Y-238238244D01*
X434492970Y-238264265D01*
X434567101Y-238303256D01*
X434569274Y-238304359D01*
X434656733Y-238346009D01*
X434734974Y-238379235D01*
X434784611Y-238393291D01*
X434804521Y-238374503D01*
X434808161Y-238310124D01*
X434793035Y-238230001D01*
X434740597Y-238157189D01*
X434664677Y-238119439D01*
X434580040Y-238123251D01*
X434501447Y-238175121D01*
X434470555Y-238210965D01*
X434463219Y-238238244D01*
X434174996Y-238238244D01*
X434177251Y-238216265D01*
X434230389Y-238073949D01*
X434319342Y-237962111D01*
X434434448Y-237884676D01*
X434566045Y-237845568D01*
X434704472Y-237848711D01*
X434840065Y-237898030D01*
X434963164Y-237997447D01*
X435031366Y-238095829D01*
X435080356Y-238236261D01*
X435088322Y-238310124D01*
X435099452Y-238413329D01*
G37*
X430929995Y-237943674D02*
X431030355Y-238002191D01*
X431074505Y-238047784D01*
X431159347Y-238184072D01*
X431187931Y-238332658D01*
X431187931Y-238434882D01*
X431093963Y-238395372D01*
X431028977Y-238355504D01*
X430977763Y-238272734D01*
X430972504Y-238255669D01*
X430915903Y-238168724D01*
X430830594Y-238121758D01*
X430732641Y-238119741D01*
X430638106Y-238167644D01*
X430623993Y-238179998D01*
X430576797Y-238233683D01*
X430569003Y-238280488D01*
X430604706Y-238326446D01*
X430688003Y-238377588D01*
X430822988Y-238439948D01*
X430832118Y-238443897D01*
X430981969Y-238513772D01*
X431084316Y-238575672D01*
X431147320Y-238637476D01*
X431179138Y-238707062D01*
X431187931Y-238792308D01*
X431176409Y-238886816D01*
X431118228Y-239007785D01*
X431015875Y-239094688D01*
X430941843Y-239120778D01*
X430837367Y-239135055D01*
X430735917Y-239132006D01*
X430663472Y-239110467D01*
X430655777Y-239105104D01*
X430635341Y-239067632D01*
X430649522Y-239001591D01*
X430674161Y-238949753D01*
X430713670Y-238928172D01*
X430788602Y-238929246D01*
X430892630Y-238923055D01*
X430960605Y-238880311D01*
X430983563Y-238801189D01*
X430983542Y-238798916D01*
X430969629Y-238752986D01*
X430922303Y-238710845D01*
X430830287Y-238662272D01*
X430705151Y-238603790D01*
X430622268Y-238571975D01*
X430574420Y-238574025D01*
X430552063Y-238616051D01*
X430545649Y-238704162D01*
X430545632Y-238844469D01*
X430544917Y-238931081D01*
X430541635Y-239038041D01*
X430536300Y-239111250D01*
X430529585Y-239138391D01*
X430527790Y-239138206D01*
X430488982Y-239123498D01*
X430424709Y-239092456D01*
X430335880Y-239046521D01*
X430346436Y-238632628D01*
X430347171Y-238605179D01*
X430355555Y-238412517D01*
X430370366Y-238267309D01*
X430394629Y-238159887D01*
X430431364Y-238080584D01*
X430483597Y-238019730D01*
X430554348Y-237967658D01*
X430555657Y-237966842D01*
X430670056Y-237924360D01*
X430802365Y-237917184D01*
X430929995Y-237943674D01*
G36*
X430929995Y-237943674D02*
G01*
X431030355Y-238002191D01*
X431074505Y-238047784D01*
X431159347Y-238184072D01*
X431187931Y-238332658D01*
X431187931Y-238434882D01*
X431093963Y-238395372D01*
X431028977Y-238355504D01*
X430977763Y-238272734D01*
X430972504Y-238255669D01*
X430915903Y-238168724D01*
X430830594Y-238121758D01*
X430732641Y-238119741D01*
X430638106Y-238167644D01*
X430623993Y-238179998D01*
X430576797Y-238233683D01*
X430569003Y-238280488D01*
X430604706Y-238326446D01*
X430688003Y-238377588D01*
X430822988Y-238439948D01*
X430832118Y-238443897D01*
X430981969Y-238513772D01*
X431084316Y-238575672D01*
X431147320Y-238637476D01*
X431179138Y-238707062D01*
X431187931Y-238792308D01*
X431176409Y-238886816D01*
X431118228Y-239007785D01*
X431015875Y-239094688D01*
X430941843Y-239120778D01*
X430837367Y-239135055D01*
X430735917Y-239132006D01*
X430663472Y-239110467D01*
X430655777Y-239105104D01*
X430635341Y-239067632D01*
X430649522Y-239001591D01*
X430674161Y-238949753D01*
X430713670Y-238928172D01*
X430788602Y-238929246D01*
X430892630Y-238923055D01*
X430960605Y-238880311D01*
X430983563Y-238801189D01*
X430983542Y-238798916D01*
X430969629Y-238752986D01*
X430922303Y-238710845D01*
X430830287Y-238662272D01*
X430705151Y-238603790D01*
X430622268Y-238571975D01*
X430574420Y-238574025D01*
X430552063Y-238616051D01*
X430545649Y-238704162D01*
X430545632Y-238844469D01*
X430544917Y-238931081D01*
X430541635Y-239038041D01*
X430536300Y-239111250D01*
X430529585Y-239138391D01*
X430527790Y-239138206D01*
X430488982Y-239123498D01*
X430424709Y-239092456D01*
X430335880Y-239046521D01*
X430346436Y-238632628D01*
X430347171Y-238605179D01*
X430355555Y-238412517D01*
X430370366Y-238267309D01*
X430394629Y-238159887D01*
X430431364Y-238080584D01*
X430483597Y-238019730D01*
X430554348Y-237967658D01*
X430555657Y-237966842D01*
X430670056Y-237924360D01*
X430802365Y-237917184D01*
X430929995Y-237943674D01*
G37*
X426661628Y-237914810D02*
X426724194Y-237930702D01*
X426782446Y-237970322D01*
X426857418Y-238044076D01*
X426905633Y-238096163D01*
X426955858Y-238163786D01*
X426978510Y-238227168D01*
X426983793Y-238307584D01*
X426983793Y-238439201D01*
X426894035Y-238392785D01*
X426822904Y-238336225D01*
X426774183Y-238260040D01*
X426765814Y-238239326D01*
X426702056Y-238159041D01*
X426613470Y-238118784D01*
X426516873Y-238122702D01*
X426429080Y-238174943D01*
X426391936Y-238217370D01*
X426370300Y-238271647D01*
X426393461Y-238319954D01*
X426465479Y-238368545D01*
X426590410Y-238423677D01*
X426609368Y-238431292D01*
X426723105Y-238481125D01*
X426820706Y-238530265D01*
X426882803Y-238569080D01*
X426944999Y-238638411D01*
X426986346Y-238749051D01*
X426981957Y-238867782D01*
X426933037Y-238980148D01*
X426840797Y-239071690D01*
X426766110Y-239110658D01*
X426621832Y-239137944D01*
X426541656Y-239134263D01*
X426467435Y-239114360D01*
X426438960Y-239072598D01*
X426449608Y-239003820D01*
X426452705Y-238994726D01*
X426477268Y-238946498D01*
X426518165Y-238928245D01*
X426596079Y-238929466D01*
X426651091Y-238931126D01*
X426715459Y-238916881D01*
X426759561Y-238874292D01*
X426784680Y-238821857D01*
X426787481Y-238766929D01*
X426787352Y-238766608D01*
X426754785Y-238736928D01*
X426685083Y-238693735D01*
X426594898Y-238645461D01*
X426500883Y-238600539D01*
X426419689Y-238567402D01*
X426367968Y-238554483D01*
X426360274Y-238567134D01*
X426350588Y-238626668D01*
X426343954Y-238723887D01*
X426341494Y-238846437D01*
X426340922Y-238931263D01*
X426338225Y-239038094D01*
X426333821Y-239111257D01*
X426328270Y-239138391D01*
X426299254Y-239129272D01*
X426240684Y-239104509D01*
X426166322Y-239070627D01*
X426166322Y-238635933D01*
X426166797Y-238524508D01*
X426171293Y-238355301D01*
X426182747Y-238229769D01*
X426203828Y-238138363D01*
X426237206Y-238071532D01*
X426285550Y-238019726D01*
X426351531Y-237973393D01*
X426435594Y-237935156D01*
X426590807Y-237912184D01*
X426661628Y-237914810D01*
G36*
X426661628Y-237914810D02*
G01*
X426724194Y-237930702D01*
X426782446Y-237970322D01*
X426857418Y-238044076D01*
X426905633Y-238096163D01*
X426955858Y-238163786D01*
X426978510Y-238227168D01*
X426983793Y-238307584D01*
X426983793Y-238439201D01*
X426894035Y-238392785D01*
X426822904Y-238336225D01*
X426774183Y-238260040D01*
X426765814Y-238239326D01*
X426702056Y-238159041D01*
X426613470Y-238118784D01*
X426516873Y-238122702D01*
X426429080Y-238174943D01*
X426391936Y-238217370D01*
X426370300Y-238271647D01*
X426393461Y-238319954D01*
X426465479Y-238368545D01*
X426590410Y-238423677D01*
X426609368Y-238431292D01*
X426723105Y-238481125D01*
X426820706Y-238530265D01*
X426882803Y-238569080D01*
X426944999Y-238638411D01*
X426986346Y-238749051D01*
X426981957Y-238867782D01*
X426933037Y-238980148D01*
X426840797Y-239071690D01*
X426766110Y-239110658D01*
X426621832Y-239137944D01*
X426541656Y-239134263D01*
X426467435Y-239114360D01*
X426438960Y-239072598D01*
X426449608Y-239003820D01*
X426452705Y-238994726D01*
X426477268Y-238946498D01*
X426518165Y-238928245D01*
X426596079Y-238929466D01*
X426651091Y-238931126D01*
X426715459Y-238916881D01*
X426759561Y-238874292D01*
X426784680Y-238821857D01*
X426787481Y-238766929D01*
X426787352Y-238766608D01*
X426754785Y-238736928D01*
X426685083Y-238693735D01*
X426594898Y-238645461D01*
X426500883Y-238600539D01*
X426419689Y-238567402D01*
X426367968Y-238554483D01*
X426360274Y-238567134D01*
X426350588Y-238626668D01*
X426343954Y-238723887D01*
X426341494Y-238846437D01*
X426340922Y-238931263D01*
X426338225Y-239038094D01*
X426333821Y-239111257D01*
X426328270Y-239138391D01*
X426299254Y-239129272D01*
X426240684Y-239104509D01*
X426166322Y-239070627D01*
X426166322Y-238635933D01*
X426166797Y-238524508D01*
X426171293Y-238355301D01*
X426182747Y-238229769D01*
X426203828Y-238138363D01*
X426237206Y-238071532D01*
X426285550Y-238019726D01*
X426351531Y-237973393D01*
X426435594Y-237935156D01*
X426590807Y-237912184D01*
X426661628Y-237914810D01*
G37*
X436200778Y-238629502D02*
X436203668Y-238853736D01*
X436204471Y-238918785D01*
X436207040Y-239136260D01*
X436207556Y-239302672D01*
X436204437Y-239423846D01*
X436196100Y-239505607D01*
X436180962Y-239553781D01*
X436157441Y-239574194D01*
X436123956Y-239572672D01*
X436078923Y-239555039D01*
X436020761Y-239527121D01*
X436008332Y-239521164D01*
X435956578Y-239492006D01*
X435929550Y-239457314D01*
X435919207Y-239399470D01*
X435917509Y-239300857D01*
X435917433Y-239123793D01*
X435735038Y-239123793D01*
X435622840Y-239118880D01*
X435534620Y-239098953D01*
X435461358Y-239058678D01*
X435455896Y-239054741D01*
X435381558Y-238988243D01*
X435329823Y-238907908D01*
X435297196Y-238802758D01*
X435280182Y-238661815D01*
X435276030Y-238502588D01*
X435567241Y-238502588D01*
X435567291Y-238529276D01*
X435570064Y-238649738D01*
X435578967Y-238728484D01*
X435596617Y-238779618D01*
X435625632Y-238817241D01*
X435627440Y-238819038D01*
X435698753Y-238867720D01*
X435767865Y-238862921D01*
X435845925Y-238803971D01*
X435865019Y-238783823D01*
X435893142Y-238742515D01*
X435909000Y-238688787D01*
X435916009Y-238607326D01*
X435917586Y-238482821D01*
X435916220Y-238407445D01*
X435901402Y-238270362D01*
X435867579Y-238180548D01*
X435811389Y-238131460D01*
X435729472Y-238116552D01*
X435694956Y-238119729D01*
X435635235Y-238151254D01*
X435595752Y-238221505D01*
X435573942Y-238336583D01*
X435567241Y-238502588D01*
X435276030Y-238502588D01*
X435275287Y-238474101D01*
X435276371Y-238337122D01*
X435281307Y-238233364D01*
X435292272Y-238161412D01*
X435311438Y-238107500D01*
X435340977Y-238057864D01*
X435368092Y-238019931D01*
X435466550Y-237917522D01*
X435578100Y-237861903D01*
X435718246Y-237844297D01*
X435878635Y-237861847D01*
X436017288Y-237924797D01*
X436126951Y-238035824D01*
X436135218Y-238047578D01*
X436154499Y-238078813D01*
X436169269Y-238114507D01*
X436180254Y-238162364D01*
X436188174Y-238230087D01*
X436193753Y-238325382D01*
X436197713Y-238455952D01*
X436198188Y-238482821D01*
X436200778Y-238629502D01*
G36*
X436200778Y-238629502D02*
G01*
X436203668Y-238853736D01*
X436204471Y-238918785D01*
X436207040Y-239136260D01*
X436207556Y-239302672D01*
X436204437Y-239423846D01*
X436196100Y-239505607D01*
X436180962Y-239553781D01*
X436157441Y-239574194D01*
X436123956Y-239572672D01*
X436078923Y-239555039D01*
X436020761Y-239527121D01*
X436008332Y-239521164D01*
X435956578Y-239492006D01*
X435929550Y-239457314D01*
X435919207Y-239399470D01*
X435917509Y-239300857D01*
X435917433Y-239123793D01*
X435735038Y-239123793D01*
X435622840Y-239118880D01*
X435534620Y-239098953D01*
X435461358Y-239058678D01*
X435455896Y-239054741D01*
X435381558Y-238988243D01*
X435329823Y-238907908D01*
X435297196Y-238802758D01*
X435280182Y-238661815D01*
X435276030Y-238502588D01*
X435567241Y-238502588D01*
X435567291Y-238529276D01*
X435570064Y-238649738D01*
X435578967Y-238728484D01*
X435596617Y-238779618D01*
X435625632Y-238817241D01*
X435627440Y-238819038D01*
X435698753Y-238867720D01*
X435767865Y-238862921D01*
X435845925Y-238803971D01*
X435865019Y-238783823D01*
X435893142Y-238742515D01*
X435909000Y-238688787D01*
X435916009Y-238607326D01*
X435917586Y-238482821D01*
X435916220Y-238407445D01*
X435901402Y-238270362D01*
X435867579Y-238180548D01*
X435811389Y-238131460D01*
X435729472Y-238116552D01*
X435694956Y-238119729D01*
X435635235Y-238151254D01*
X435595752Y-238221505D01*
X435573942Y-238336583D01*
X435567241Y-238502588D01*
X435276030Y-238502588D01*
X435275287Y-238474101D01*
X435276371Y-238337122D01*
X435281307Y-238233364D01*
X435292272Y-238161412D01*
X435311438Y-238107500D01*
X435340977Y-238057864D01*
X435368092Y-238019931D01*
X435466550Y-237917522D01*
X435578100Y-237861903D01*
X435718246Y-237844297D01*
X435878635Y-237861847D01*
X436017288Y-237924797D01*
X436126951Y-238035824D01*
X436135218Y-238047578D01*
X436154499Y-238078813D01*
X436169269Y-238114507D01*
X436180254Y-238162364D01*
X436188174Y-238230087D01*
X436193753Y-238325382D01*
X436197713Y-238455952D01*
X436198188Y-238482821D01*
X436200778Y-238629502D01*
G37*
X430979175Y-228453045D02*
X431131895Y-228454039D01*
X431241792Y-228456593D01*
X431316235Y-228461445D01*
X431362594Y-228469331D01*
X431388239Y-228480988D01*
X431400539Y-228497153D01*
X431406865Y-228518563D01*
X431407047Y-228519332D01*
X431417441Y-228569663D01*
X431436339Y-228666888D01*
X431461802Y-228800810D01*
X431491890Y-228961235D01*
X431524664Y-229137967D01*
X431527337Y-229152428D01*
X431560010Y-229323959D01*
X431590413Y-229474625D01*
X431616568Y-229595267D01*
X431636496Y-229676729D01*
X431648220Y-229709852D01*
X431648282Y-229709905D01*
X431685229Y-229728229D01*
X431761057Y-229758677D01*
X431859425Y-229794685D01*
X431864965Y-229796640D01*
X431990724Y-229844170D01*
X432137011Y-229903783D01*
X432273293Y-229963056D01*
X432497390Y-230064765D01*
X432993618Y-229725897D01*
X433028570Y-229702063D01*
X433178280Y-229600755D01*
X433311867Y-229511575D01*
X433421343Y-229439773D01*
X433498718Y-229390603D01*
X433536004Y-229369317D01*
X433561552Y-229374196D01*
X433619555Y-229412002D01*
X433709195Y-229486870D01*
X433832957Y-229600903D01*
X433993328Y-229756205D01*
X434007679Y-229770341D01*
X434134933Y-229896999D01*
X434247969Y-230011745D01*
X434339867Y-230107391D01*
X434403707Y-230176746D01*
X434432570Y-230212620D01*
X434432664Y-230212794D01*
X434436331Y-230240106D01*
X434422808Y-230284408D01*
X434388684Y-230351761D01*
X434330548Y-230448226D01*
X434244988Y-230579863D01*
X434128594Y-230752734D01*
X434108759Y-230781912D01*
X434008445Y-230929726D01*
X433919923Y-231060577D01*
X433848465Y-231166643D01*
X433799343Y-231240102D01*
X433777831Y-231273130D01*
X433776208Y-231280126D01*
X433786387Y-231332326D01*
X433816879Y-231417561D01*
X433862712Y-231521291D01*
X433925000Y-231656951D01*
X433994548Y-231817921D01*
X434053609Y-231963621D01*
X434068252Y-232001333D01*
X434106600Y-232097622D01*
X434134770Y-232164704D01*
X434147497Y-232189885D01*
X434161545Y-232191767D01*
X434224681Y-232202651D01*
X434328019Y-232221449D01*
X434460809Y-232246115D01*
X434612297Y-232274604D01*
X434771732Y-232304873D01*
X434928361Y-232334875D01*
X435071433Y-232362566D01*
X435190195Y-232385900D01*
X435273896Y-232402833D01*
X435311782Y-232411320D01*
X435318063Y-232413713D01*
X435333373Y-232426619D01*
X435344763Y-232454096D01*
X435352803Y-232503446D01*
X435358064Y-232581973D01*
X435361116Y-232696980D01*
X435362529Y-232855770D01*
X435362873Y-233065645D01*
X435362873Y-233703906D01*
X435209598Y-233734160D01*
X435191057Y-233737785D01*
X435092596Y-233756569D01*
X434956448Y-233782093D01*
X434798087Y-233811468D01*
X434632988Y-233841806D01*
X434567973Y-233854009D01*
X434422697Y-233883697D01*
X434301626Y-233911770D01*
X434215886Y-233935536D01*
X434176601Y-233952301D01*
X434158799Y-233979694D01*
X434126389Y-234052174D01*
X434093234Y-234145977D01*
X434081564Y-234181103D01*
X434038604Y-234296409D01*
X433983192Y-234432876D01*
X433924353Y-234567954D01*
X433892884Y-234638509D01*
X433848051Y-234743895D01*
X433817240Y-234822818D01*
X433805785Y-234862053D01*
X433806422Y-234865014D01*
X433828150Y-234906639D01*
X433877146Y-234986969D01*
X433948438Y-235098220D01*
X434037054Y-235232605D01*
X434138023Y-235382340D01*
X434470261Y-235869931D01*
X434033771Y-236307149D01*
X433991555Y-236349221D01*
X433862470Y-236475153D01*
X433747107Y-236583754D01*
X433652224Y-236668903D01*
X433584582Y-236724482D01*
X433550938Y-236744368D01*
X433514402Y-236729238D01*
X433437890Y-236685801D01*
X433330196Y-236619270D01*
X433199767Y-236534867D01*
X433055052Y-236437816D01*
X432912910Y-236341964D01*
X432784678Y-236257557D01*
X432680054Y-236190850D01*
X432607171Y-236147024D01*
X432574158Y-236131264D01*
X432572223Y-236131408D01*
X432528369Y-236146945D01*
X432450598Y-236183121D01*
X432354392Y-236232785D01*
X432353381Y-236233329D01*
X432225605Y-236297326D01*
X432138051Y-236328591D01*
X432083726Y-236328677D01*
X432055641Y-236299138D01*
X432043752Y-236270061D01*
X432011668Y-236192188D01*
X431962247Y-236072475D01*
X431898118Y-235917286D01*
X431821911Y-235732984D01*
X431736255Y-235525933D01*
X431643781Y-235302496D01*
X431559962Y-235099226D01*
X431474678Y-234890649D01*
X431399222Y-234704263D01*
X431336126Y-234546407D01*
X431287923Y-234423419D01*
X431257144Y-234341639D01*
X431246322Y-234307406D01*
X431266991Y-234276015D01*
X431324409Y-234223602D01*
X431405688Y-234162704D01*
X431600820Y-234003387D01*
X431775445Y-233799807D01*
X431903235Y-233575808D01*
X431983402Y-233338003D01*
X432015160Y-233093007D01*
X431997722Y-232847433D01*
X431930301Y-232607895D01*
X431812111Y-232381007D01*
X431642364Y-232173383D01*
X431553856Y-232092527D01*
X431341804Y-231949559D01*
X431114905Y-231856352D01*
X430879791Y-231810687D01*
X430643094Y-231810344D01*
X430411446Y-231853105D01*
X430191478Y-231936750D01*
X429989822Y-232059061D01*
X429813111Y-232217817D01*
X429667977Y-232410801D01*
X429561050Y-232635793D01*
X429498964Y-232890575D01*
X429487569Y-233013377D01*
X429503246Y-233279434D01*
X429573846Y-233531856D01*
X429697282Y-233766182D01*
X429871466Y-233977952D01*
X430094311Y-234162704D01*
X430172561Y-234221123D01*
X430231244Y-234274110D01*
X430253678Y-234307356D01*
X430244732Y-234336339D01*
X430215703Y-234413996D01*
X430169026Y-234533451D01*
X430107231Y-234688362D01*
X430032850Y-234872392D01*
X429948412Y-235079200D01*
X429856449Y-235302446D01*
X429772771Y-235504742D01*
X429686366Y-235713686D01*
X429609138Y-235900498D01*
X429543716Y-236058814D01*
X429492731Y-236182269D01*
X429458812Y-236264498D01*
X429444590Y-236299138D01*
X429444425Y-236299548D01*
X429415972Y-236328798D01*
X429361382Y-236328463D01*
X429273609Y-236296980D01*
X429145608Y-236232785D01*
X429135532Y-236227380D01*
X429040481Y-236178750D01*
X428965424Y-236144328D01*
X428925842Y-236131264D01*
X428893400Y-236146702D01*
X428820895Y-236190258D01*
X428716565Y-236256751D01*
X428588539Y-236340998D01*
X428444948Y-236437816D01*
X428303468Y-236532734D01*
X428172611Y-236617490D01*
X428064292Y-236684496D01*
X427986960Y-236728529D01*
X427949062Y-236744368D01*
X427942607Y-236742357D01*
X427897609Y-236710658D01*
X427820727Y-236645181D01*
X427718721Y-236552048D01*
X427598351Y-236437381D01*
X427466379Y-236307300D01*
X427030039Y-235870232D01*
X427709733Y-234870440D01*
X427606402Y-234646886D01*
X427606096Y-234646225D01*
X427544046Y-234503714D01*
X427480640Y-234345018D01*
X427429558Y-234204368D01*
X427421827Y-234181683D01*
X427382852Y-234076370D01*
X427347707Y-233994534D01*
X427323195Y-233952301D01*
X427313212Y-233946337D01*
X427253286Y-233926329D01*
X427151532Y-233900442D01*
X427019068Y-233871370D01*
X426867011Y-233841806D01*
X426821466Y-233833467D01*
X426656685Y-233803107D01*
X426502930Y-233774509D01*
X426375678Y-233750564D01*
X426290402Y-233734160D01*
X426137126Y-233703906D01*
X426137126Y-233065645D01*
X426137160Y-232987165D01*
X426137808Y-232795703D01*
X426139720Y-232652812D01*
X426143469Y-232551189D01*
X426149622Y-232483531D01*
X426158751Y-232442536D01*
X426171427Y-232420900D01*
X426188218Y-232411320D01*
X426204474Y-232407439D01*
X426270748Y-232393710D01*
X426376479Y-232372745D01*
X426510915Y-232346588D01*
X426663302Y-232317283D01*
X426822890Y-232286877D01*
X426978925Y-232257413D01*
X427120657Y-232230937D01*
X427237331Y-232209494D01*
X427318197Y-232195128D01*
X427352503Y-232189885D01*
X427354822Y-232186720D01*
X427373474Y-232145642D01*
X427405753Y-232067044D01*
X427446391Y-231963621D01*
X427502788Y-231824273D01*
X427572214Y-231663226D01*
X427637288Y-231521291D01*
X427652202Y-231489432D01*
X427694047Y-231389669D01*
X427719118Y-231312721D01*
X427722426Y-231273130D01*
X427720720Y-231270325D01*
X427693631Y-231229005D01*
X427639927Y-231148740D01*
X427564877Y-231037350D01*
X427473746Y-230902655D01*
X427371800Y-230752476D01*
X427256930Y-230581851D01*
X427170761Y-230449311D01*
X427112131Y-230352112D01*
X427077650Y-230284234D01*
X427063926Y-230239656D01*
X427067568Y-230212361D01*
X427068794Y-230210313D01*
X427101747Y-230170536D01*
X427168927Y-230098052D01*
X427263419Y-230000046D01*
X427378306Y-229883702D01*
X427506672Y-229756205D01*
X427639831Y-229626821D01*
X427770269Y-229505209D01*
X427866119Y-229423156D01*
X427929866Y-229378560D01*
X427963996Y-229369317D01*
X427968456Y-229371393D01*
X428015421Y-229399385D01*
X428100685Y-229454084D01*
X428216259Y-229530237D01*
X428354154Y-229622592D01*
X428506381Y-229725897D01*
X429002610Y-230064765D01*
X429226707Y-229963056D01*
X429233219Y-229960109D01*
X429370804Y-229900504D01*
X429516767Y-229841222D01*
X429640575Y-229794685D01*
X429641122Y-229794493D01*
X429739414Y-229758497D01*
X429815081Y-229728095D01*
X429851780Y-229709852D01*
X429852374Y-229709190D01*
X429864833Y-229671831D01*
X429885336Y-229586871D01*
X429911907Y-229463469D01*
X429942567Y-229310782D01*
X429975336Y-229137967D01*
X429976478Y-229131774D01*
X430009193Y-228955431D01*
X430039155Y-228795743D01*
X430064425Y-228662905D01*
X430083065Y-228567113D01*
X430093135Y-228518563D01*
X430093779Y-228515873D01*
X430100408Y-228495088D01*
X430113841Y-228479466D01*
X430141446Y-228468270D01*
X430190593Y-228460762D01*
X430268653Y-228456205D01*
X430382994Y-228453863D01*
X430540986Y-228452998D01*
X430750000Y-228452874D01*
X430776262Y-228452874D01*
X430979175Y-228453045D01*
G36*
X430979175Y-228453045D02*
G01*
X431131895Y-228454039D01*
X431241792Y-228456593D01*
X431316235Y-228461445D01*
X431362594Y-228469331D01*
X431388239Y-228480988D01*
X431400539Y-228497153D01*
X431406865Y-228518563D01*
X431407047Y-228519332D01*
X431417441Y-228569663D01*
X431436339Y-228666888D01*
X431461802Y-228800810D01*
X431491890Y-228961235D01*
X431524664Y-229137967D01*
X431527337Y-229152428D01*
X431560010Y-229323959D01*
X431590413Y-229474625D01*
X431616568Y-229595267D01*
X431636496Y-229676729D01*
X431648220Y-229709852D01*
X431648282Y-229709905D01*
X431685229Y-229728229D01*
X431761057Y-229758677D01*
X431859425Y-229794685D01*
X431864965Y-229796640D01*
X431990724Y-229844170D01*
X432137011Y-229903783D01*
X432273293Y-229963056D01*
X432497390Y-230064765D01*
X432993618Y-229725897D01*
X433028570Y-229702063D01*
X433178280Y-229600755D01*
X433311867Y-229511575D01*
X433421343Y-229439773D01*
X433498718Y-229390603D01*
X433536004Y-229369317D01*
X433561552Y-229374196D01*
X433619555Y-229412002D01*
X433709195Y-229486870D01*
X433832957Y-229600903D01*
X433993328Y-229756205D01*
X434007679Y-229770341D01*
X434134933Y-229896999D01*
X434247969Y-230011745D01*
X434339867Y-230107391D01*
X434403707Y-230176746D01*
X434432570Y-230212620D01*
X434432664Y-230212794D01*
X434436331Y-230240106D01*
X434422808Y-230284408D01*
X434388684Y-230351761D01*
X434330548Y-230448226D01*
X434244988Y-230579863D01*
X434128594Y-230752734D01*
X434108759Y-230781912D01*
X434008445Y-230929726D01*
X433919923Y-231060577D01*
X433848465Y-231166643D01*
X433799343Y-231240102D01*
X433777831Y-231273130D01*
X433776208Y-231280126D01*
X433786387Y-231332326D01*
X433816879Y-231417561D01*
X433862712Y-231521291D01*
X433925000Y-231656951D01*
X433994548Y-231817921D01*
X434053609Y-231963621D01*
X434068252Y-232001333D01*
X434106600Y-232097622D01*
X434134770Y-232164704D01*
X434147497Y-232189885D01*
X434161545Y-232191767D01*
X434224681Y-232202651D01*
X434328019Y-232221449D01*
X434460809Y-232246115D01*
X434612297Y-232274604D01*
X434771732Y-232304873D01*
X434928361Y-232334875D01*
X435071433Y-232362566D01*
X435190195Y-232385900D01*
X435273896Y-232402833D01*
X435311782Y-232411320D01*
X435318063Y-232413713D01*
X435333373Y-232426619D01*
X435344763Y-232454096D01*
X435352803Y-232503446D01*
X435358064Y-232581973D01*
X435361116Y-232696980D01*
X435362529Y-232855770D01*
X435362873Y-233065645D01*
X435362873Y-233703906D01*
X435209598Y-233734160D01*
X435191057Y-233737785D01*
X435092596Y-233756569D01*
X434956448Y-233782093D01*
X434798087Y-233811468D01*
X434632988Y-233841806D01*
X434567973Y-233854009D01*
X434422697Y-233883697D01*
X434301626Y-233911770D01*
X434215886Y-233935536D01*
X434176601Y-233952301D01*
X434158799Y-233979694D01*
X434126389Y-234052174D01*
X434093234Y-234145977D01*
X434081564Y-234181103D01*
X434038604Y-234296409D01*
X433983192Y-234432876D01*
X433924353Y-234567954D01*
X433892884Y-234638509D01*
X433848051Y-234743895D01*
X433817240Y-234822818D01*
X433805785Y-234862053D01*
X433806422Y-234865014D01*
X433828150Y-234906639D01*
X433877146Y-234986969D01*
X433948438Y-235098220D01*
X434037054Y-235232605D01*
X434138023Y-235382340D01*
X434470261Y-235869931D01*
X434033771Y-236307149D01*
X433991555Y-236349221D01*
X433862470Y-236475153D01*
X433747107Y-236583754D01*
X433652224Y-236668903D01*
X433584582Y-236724482D01*
X433550938Y-236744368D01*
X433514402Y-236729238D01*
X433437890Y-236685801D01*
X433330196Y-236619270D01*
X433199767Y-236534867D01*
X433055052Y-236437816D01*
X432912910Y-236341964D01*
X432784678Y-236257557D01*
X432680054Y-236190850D01*
X432607171Y-236147024D01*
X432574158Y-236131264D01*
X432572223Y-236131408D01*
X432528369Y-236146945D01*
X432450598Y-236183121D01*
X432354392Y-236232785D01*
X432353381Y-236233329D01*
X432225605Y-236297326D01*
X432138051Y-236328591D01*
X432083726Y-236328677D01*
X432055641Y-236299138D01*
X432043752Y-236270061D01*
X432011668Y-236192188D01*
X431962247Y-236072475D01*
X431898118Y-235917286D01*
X431821911Y-235732984D01*
X431736255Y-235525933D01*
X431643781Y-235302496D01*
X431559962Y-235099226D01*
X431474678Y-234890649D01*
X431399222Y-234704263D01*
X431336126Y-234546407D01*
X431287923Y-234423419D01*
X431257144Y-234341639D01*
X431246322Y-234307406D01*
X431266991Y-234276015D01*
X431324409Y-234223602D01*
X431405688Y-234162704D01*
X431600820Y-234003387D01*
X431775445Y-233799807D01*
X431903235Y-233575808D01*
X431983402Y-233338003D01*
X432015160Y-233093007D01*
X431997722Y-232847433D01*
X431930301Y-232607895D01*
X431812111Y-232381007D01*
X431642364Y-232173383D01*
X431553856Y-232092527D01*
X431341804Y-231949559D01*
X431114905Y-231856352D01*
X430879791Y-231810687D01*
X430643094Y-231810344D01*
X430411446Y-231853105D01*
X430191478Y-231936750D01*
X429989822Y-232059061D01*
X429813111Y-232217817D01*
X429667977Y-232410801D01*
X429561050Y-232635793D01*
X429498964Y-232890575D01*
X429487569Y-233013377D01*
X429503246Y-233279434D01*
X429573846Y-233531856D01*
X429697282Y-233766182D01*
X429871466Y-233977952D01*
X430094311Y-234162704D01*
X430172561Y-234221123D01*
X430231244Y-234274110D01*
X430253678Y-234307356D01*
X430244732Y-234336339D01*
X430215703Y-234413996D01*
X430169026Y-234533451D01*
X430107231Y-234688362D01*
X430032850Y-234872392D01*
X429948412Y-235079200D01*
X429856449Y-235302446D01*
X429772771Y-235504742D01*
X429686366Y-235713686D01*
X429609138Y-235900498D01*
X429543716Y-236058814D01*
X429492731Y-236182269D01*
X429458812Y-236264498D01*
X429444590Y-236299138D01*
X429444425Y-236299548D01*
X429415972Y-236328798D01*
X429361382Y-236328463D01*
X429273609Y-236296980D01*
X429145608Y-236232785D01*
X429135532Y-236227380D01*
X429040481Y-236178750D01*
X428965424Y-236144328D01*
X428925842Y-236131264D01*
X428893400Y-236146702D01*
X428820895Y-236190258D01*
X428716565Y-236256751D01*
X428588539Y-236340998D01*
X428444948Y-236437816D01*
X428303468Y-236532734D01*
X428172611Y-236617490D01*
X428064292Y-236684496D01*
X427986960Y-236728529D01*
X427949062Y-236744368D01*
X427942607Y-236742357D01*
X427897609Y-236710658D01*
X427820727Y-236645181D01*
X427718721Y-236552048D01*
X427598351Y-236437381D01*
X427466379Y-236307300D01*
X427030039Y-235870232D01*
X427709733Y-234870440D01*
X427606402Y-234646886D01*
X427606096Y-234646225D01*
X427544046Y-234503714D01*
X427480640Y-234345018D01*
X427429558Y-234204368D01*
X427421827Y-234181683D01*
X427382852Y-234076370D01*
X427347707Y-233994534D01*
X427323195Y-233952301D01*
X427313212Y-233946337D01*
X427253286Y-233926329D01*
X427151532Y-233900442D01*
X427019068Y-233871370D01*
X426867011Y-233841806D01*
X426821466Y-233833467D01*
X426656685Y-233803107D01*
X426502930Y-233774509D01*
X426375678Y-233750564D01*
X426290402Y-233734160D01*
X426137126Y-233703906D01*
X426137126Y-233065645D01*
X426137160Y-232987165D01*
X426137808Y-232795703D01*
X426139720Y-232652812D01*
X426143469Y-232551189D01*
X426149622Y-232483531D01*
X426158751Y-232442536D01*
X426171427Y-232420900D01*
X426188218Y-232411320D01*
X426204474Y-232407439D01*
X426270748Y-232393710D01*
X426376479Y-232372745D01*
X426510915Y-232346588D01*
X426663302Y-232317283D01*
X426822890Y-232286877D01*
X426978925Y-232257413D01*
X427120657Y-232230937D01*
X427237331Y-232209494D01*
X427318197Y-232195128D01*
X427352503Y-232189885D01*
X427354822Y-232186720D01*
X427373474Y-232145642D01*
X427405753Y-232067044D01*
X427446391Y-231963621D01*
X427502788Y-231824273D01*
X427572214Y-231663226D01*
X427637288Y-231521291D01*
X427652202Y-231489432D01*
X427694047Y-231389669D01*
X427719118Y-231312721D01*
X427722426Y-231273130D01*
X427720720Y-231270325D01*
X427693631Y-231229005D01*
X427639927Y-231148740D01*
X427564877Y-231037350D01*
X427473746Y-230902655D01*
X427371800Y-230752476D01*
X427256930Y-230581851D01*
X427170761Y-230449311D01*
X427112131Y-230352112D01*
X427077650Y-230284234D01*
X427063926Y-230239656D01*
X427067568Y-230212361D01*
X427068794Y-230210313D01*
X427101747Y-230170536D01*
X427168927Y-230098052D01*
X427263419Y-230000046D01*
X427378306Y-229883702D01*
X427506672Y-229756205D01*
X427639831Y-229626821D01*
X427770269Y-229505209D01*
X427866119Y-229423156D01*
X427929866Y-229378560D01*
X427963996Y-229369317D01*
X427968456Y-229371393D01*
X428015421Y-229399385D01*
X428100685Y-229454084D01*
X428216259Y-229530237D01*
X428354154Y-229622592D01*
X428506381Y-229725897D01*
X429002610Y-230064765D01*
X429226707Y-229963056D01*
X429233219Y-229960109D01*
X429370804Y-229900504D01*
X429516767Y-229841222D01*
X429640575Y-229794685D01*
X429641122Y-229794493D01*
X429739414Y-229758497D01*
X429815081Y-229728095D01*
X429851780Y-229709852D01*
X429852374Y-229709190D01*
X429864833Y-229671831D01*
X429885336Y-229586871D01*
X429911907Y-229463469D01*
X429942567Y-229310782D01*
X429975336Y-229137967D01*
X429976478Y-229131774D01*
X430009193Y-228955431D01*
X430039155Y-228795743D01*
X430064425Y-228662905D01*
X430083065Y-228567113D01*
X430093135Y-228518563D01*
X430093779Y-228515873D01*
X430100408Y-228495088D01*
X430113841Y-228479466D01*
X430141446Y-228468270D01*
X430190593Y-228460762D01*
X430268653Y-228456205D01*
X430382994Y-228453863D01*
X430540986Y-228452998D01*
X430750000Y-228452874D01*
X430776262Y-228452874D01*
X430979175Y-228453045D01*
G37*
D15*
%TO.C,SW1*%
X335655000Y-60290000D02*
X335655000Y-65590000D01*
X335655000Y-65590000D02*
X340855000Y-65590000D01*
X340855000Y-60290000D02*
X335655000Y-60290000D01*
X340855000Y-61940000D02*
X340855000Y-60290000D01*
X340855000Y-65590000D02*
X340855000Y-63940000D01*
X340855000Y-63940000D02*
G75*
G02*
X340855000Y-61940000I0J1000000D01*
G01*
%TO.C,J3*%
X306765000Y-70990000D02*
X319785000Y-70990000D01*
X306765000Y-78000000D02*
X306765000Y-70990000D01*
X306765000Y-78000000D02*
X306765000Y-85010000D01*
X306765000Y-85010000D02*
X319785000Y-85010000D01*
X319775000Y-76390000D02*
X319775000Y-75410000D01*
X319775000Y-80590000D02*
X319775000Y-79610000D01*
X319785000Y-70990000D02*
X319785000Y-71800000D01*
X319785000Y-85010000D02*
X319785000Y-84200000D01*
X320475000Y-71200000D02*
X321075000Y-71200000D01*
X320775000Y-71800000D02*
X320475000Y-71200000D01*
X321075000Y-71200000D02*
X320775000Y-71800000D01*
X324165000Y-73500000D02*
X322885000Y-73500000D01*
X324165000Y-74100000D02*
X322885000Y-74100000D01*
X324165000Y-77700000D02*
X322885000Y-77700000D01*
X324165000Y-78300000D02*
X322885000Y-78300000D01*
X324165000Y-81900000D02*
X322885000Y-81900000D01*
X324165000Y-82500000D02*
X322885000Y-82500000D01*
D16*
%TO.C,REF\u002A\u002A*%
X358926842Y-239465366D02*
X359193161Y-239874632D01*
X366040000Y-227140000D02*
X366560000Y-227140000D01*
D17*
X366300000Y-226270000D02*
X374300000Y-240130000D01*
X366300105Y-226270061D02*
X358300000Y-240130000D01*
D16*
X373693161Y-239485368D02*
X373426839Y-239894632D01*
D17*
X374300000Y-240130000D02*
X358300000Y-240130000D01*
D16*
X368570000Y-235070000D02*
X366125250Y-233768249D01*
X366728500Y-237546500D01*
X367236500Y-236848000D01*
X366760251Y-239133999D01*
X365458500Y-237197250D01*
X366188750Y-237641749D01*
X364760000Y-232434750D01*
X367300000Y-233800000D01*
X365426751Y-229450250D01*
X366982501Y-229450250D01*
X368570000Y-235070000D01*
G36*
X368570000Y-235070000D02*
G01*
X366125250Y-233768249D01*
X366728500Y-237546500D01*
X367236500Y-236848000D01*
X366760251Y-239133999D01*
X365458500Y-237197250D01*
X366188750Y-237641749D01*
X364760000Y-232434750D01*
X367300000Y-233800000D01*
X365426751Y-229450250D01*
X366982501Y-229450250D01*
X368570000Y-235070000D01*
G37*
D17*
X423109640Y-233250433D02*
G75*
G02*
X409070926Y-233250433I-7019357J0D01*
G01*
X409070926Y-233250433D02*
G75*
G02*
X423109640Y-233250433I7019357J0D01*
G01*
D13*
X419162004Y-233834823D02*
X417120684Y-233834823D01*
X417120684Y-232725036D01*
X419162004Y-232725036D01*
X419162004Y-233834823D01*
G36*
X419162004Y-233834823D02*
G01*
X417120684Y-233834823D01*
X417120684Y-232725036D01*
X419162004Y-232725036D01*
X419162004Y-233834823D01*
G37*
X419162004Y-230907974D02*
X416562915Y-230907974D01*
X416620417Y-229700433D01*
X419162004Y-229700433D01*
X419162004Y-230907974D01*
G36*
X419162004Y-230907974D02*
G01*
X416562915Y-230907974D01*
X416620417Y-229700433D01*
X419162004Y-229700433D01*
X419162004Y-230907974D01*
G37*
X419162004Y-236865176D02*
X416620417Y-236865176D01*
X416562915Y-235651885D01*
X419162004Y-235651885D01*
X419162004Y-236865176D01*
G36*
X419162004Y-236865176D02*
G01*
X416620417Y-236865176D01*
X416562915Y-235651885D01*
X419162004Y-235651885D01*
X419162004Y-236865176D01*
G37*
X421134320Y-236865176D02*
X419616269Y-236865176D01*
X419616269Y-229700433D01*
X421134320Y-229700433D01*
X421134320Y-236865176D01*
G36*
X421134320Y-236865176D02*
G01*
X419616269Y-236865176D01*
X419616269Y-229700433D01*
X421134320Y-229700433D01*
X421134320Y-236865176D01*
G37*
X413032296Y-230907974D02*
X412693034Y-230907974D01*
X412672033Y-230908862D01*
X412633102Y-230912730D01*
X412598795Y-230918081D01*
X412559477Y-230926426D01*
X412516579Y-230938432D01*
X412471533Y-230954762D01*
X412425770Y-230976084D01*
X412380724Y-231003061D01*
X412337826Y-231036361D01*
X412298508Y-231076647D01*
X412280638Y-231099618D01*
X412264201Y-231124585D01*
X412249374Y-231151632D01*
X412236338Y-231180842D01*
X412225270Y-231212297D01*
X412216350Y-231246082D01*
X412209758Y-231282278D01*
X412205671Y-231320970D01*
X412204268Y-231362240D01*
X412204268Y-235197620D01*
X412205223Y-235217139D01*
X412209385Y-235253321D01*
X412215142Y-235285206D01*
X412224122Y-235321749D01*
X412237039Y-235361620D01*
X412254610Y-235403486D01*
X412277551Y-235446018D01*
X412306577Y-235487884D01*
X412342405Y-235527755D01*
X412385751Y-235564298D01*
X412410467Y-235580906D01*
X412437330Y-235596183D01*
X412466431Y-235609963D01*
X412497859Y-235622079D01*
X412531704Y-235632365D01*
X412568054Y-235640655D01*
X412606999Y-235646783D01*
X412648630Y-235650581D01*
X412693034Y-235651885D01*
X413032296Y-235651885D01*
X413032296Y-236865176D01*
X412417025Y-236865176D01*
X412412060Y-236865128D01*
X412374241Y-236863887D01*
X412342655Y-236862121D01*
X412303462Y-236859209D01*
X412257298Y-236854866D01*
X412204794Y-236848804D01*
X412146587Y-236840737D01*
X412083308Y-236830380D01*
X412015593Y-236817444D01*
X411944074Y-236801645D01*
X411869387Y-236782696D01*
X411792164Y-236760310D01*
X411713039Y-236734201D01*
X411632647Y-236704083D01*
X411551621Y-236669669D01*
X411470595Y-236630673D01*
X411390203Y-236586808D01*
X411311078Y-236537788D01*
X411233855Y-236483327D01*
X411159168Y-236423138D01*
X411087649Y-236356935D01*
X411019934Y-236284431D01*
X410956655Y-236205341D01*
X410898448Y-236119377D01*
X410845944Y-236026254D01*
X410799780Y-235925684D01*
X410760587Y-235817382D01*
X410729001Y-235701061D01*
X410705654Y-235576436D01*
X410691182Y-235443218D01*
X410686216Y-235301123D01*
X410686216Y-231264486D01*
X410686639Y-231246921D01*
X410689597Y-231197281D01*
X410692819Y-231161865D01*
X410697626Y-231120148D01*
X410704334Y-231072703D01*
X410713260Y-231020103D01*
X410724722Y-230962921D01*
X410739037Y-230901730D01*
X410756520Y-230837102D01*
X410777490Y-230769610D01*
X410802262Y-230699827D01*
X410831155Y-230628326D01*
X410864484Y-230555680D01*
X410902568Y-230482460D01*
X410945722Y-230409240D01*
X410994263Y-230336594D01*
X411048510Y-230265093D01*
X411108777Y-230195310D01*
X411175383Y-230127818D01*
X411248645Y-230063190D01*
X411328879Y-230001999D01*
X411416402Y-229944817D01*
X411511531Y-229892217D01*
X411614583Y-229844772D01*
X411725875Y-229803055D01*
X411845723Y-229767639D01*
X411974446Y-229739096D01*
X412112359Y-229717999D01*
X412259780Y-229704920D01*
X412417025Y-229700433D01*
X413032296Y-229700433D01*
X413032296Y-230907974D01*
G36*
X413032296Y-230907974D02*
G01*
X412693034Y-230907974D01*
X412672033Y-230908862D01*
X412633102Y-230912730D01*
X412598795Y-230918081D01*
X412559477Y-230926426D01*
X412516579Y-230938432D01*
X412471533Y-230954762D01*
X412425770Y-230976084D01*
X412380724Y-231003061D01*
X412337826Y-231036361D01*
X412298508Y-231076647D01*
X412280638Y-231099618D01*
X412264201Y-231124585D01*
X412249374Y-231151632D01*
X412236338Y-231180842D01*
X412225270Y-231212297D01*
X412216350Y-231246082D01*
X412209758Y-231282278D01*
X412205671Y-231320970D01*
X412204268Y-231362240D01*
X412204268Y-235197620D01*
X412205223Y-235217139D01*
X412209385Y-235253321D01*
X412215142Y-235285206D01*
X412224122Y-235321749D01*
X412237039Y-235361620D01*
X412254610Y-235403486D01*
X412277551Y-235446018D01*
X412306577Y-235487884D01*
X412342405Y-235527755D01*
X412385751Y-235564298D01*
X412410467Y-235580906D01*
X412437330Y-235596183D01*
X412466431Y-235609963D01*
X412497859Y-235622079D01*
X412531704Y-235632365D01*
X412568054Y-235640655D01*
X412606999Y-235646783D01*
X412648630Y-235650581D01*
X412693034Y-235651885D01*
X413032296Y-235651885D01*
X413032296Y-236865176D01*
X412417025Y-236865176D01*
X412412060Y-236865128D01*
X412374241Y-236863887D01*
X412342655Y-236862121D01*
X412303462Y-236859209D01*
X412257298Y-236854866D01*
X412204794Y-236848804D01*
X412146587Y-236840737D01*
X412083308Y-236830380D01*
X412015593Y-236817444D01*
X411944074Y-236801645D01*
X411869387Y-236782696D01*
X411792164Y-236760310D01*
X411713039Y-236734201D01*
X411632647Y-236704083D01*
X411551621Y-236669669D01*
X411470595Y-236630673D01*
X411390203Y-236586808D01*
X411311078Y-236537788D01*
X411233855Y-236483327D01*
X411159168Y-236423138D01*
X411087649Y-236356935D01*
X411019934Y-236284431D01*
X410956655Y-236205341D01*
X410898448Y-236119377D01*
X410845944Y-236026254D01*
X410799780Y-235925684D01*
X410760587Y-235817382D01*
X410729001Y-235701061D01*
X410705654Y-235576436D01*
X410691182Y-235443218D01*
X410686216Y-235301123D01*
X410686216Y-231264486D01*
X410686639Y-231246921D01*
X410689597Y-231197281D01*
X410692819Y-231161865D01*
X410697626Y-231120148D01*
X410704334Y-231072703D01*
X410713260Y-231020103D01*
X410724722Y-230962921D01*
X410739037Y-230901730D01*
X410756520Y-230837102D01*
X410777490Y-230769610D01*
X410802262Y-230699827D01*
X410831155Y-230628326D01*
X410864484Y-230555680D01*
X410902568Y-230482460D01*
X410945722Y-230409240D01*
X410994263Y-230336594D01*
X411048510Y-230265093D01*
X411108777Y-230195310D01*
X411175383Y-230127818D01*
X411248645Y-230063190D01*
X411328879Y-230001999D01*
X411416402Y-229944817D01*
X411511531Y-229892217D01*
X411614583Y-229844772D01*
X411725875Y-229803055D01*
X411845723Y-229767639D01*
X411974446Y-229739096D01*
X412112359Y-229717999D01*
X412259780Y-229704920D01*
X412417025Y-229700433D01*
X413032296Y-229700433D01*
X413032296Y-230907974D01*
G37*
X414083797Y-229700481D02*
X414121616Y-229701722D01*
X414153202Y-229703488D01*
X414192395Y-229706400D01*
X414238559Y-229710743D01*
X414291063Y-229716805D01*
X414349270Y-229724872D01*
X414412549Y-229735229D01*
X414480264Y-229748165D01*
X414551783Y-229763964D01*
X414626470Y-229782913D01*
X414703693Y-229805299D01*
X414782818Y-229831408D01*
X414863210Y-229861526D01*
X414944236Y-229895940D01*
X415025262Y-229934936D01*
X415105654Y-229978801D01*
X415184779Y-230027821D01*
X415262002Y-230082282D01*
X415336689Y-230142471D01*
X415408208Y-230208674D01*
X415475923Y-230281178D01*
X415539202Y-230360268D01*
X415597409Y-230446232D01*
X415649913Y-230539355D01*
X415696077Y-230639925D01*
X415735270Y-230748227D01*
X415766856Y-230864548D01*
X415790203Y-230989173D01*
X415804675Y-231122391D01*
X415809640Y-231264486D01*
X415809640Y-235301123D01*
X415809218Y-235318688D01*
X415806260Y-235368328D01*
X415803038Y-235403744D01*
X415798231Y-235445461D01*
X415791523Y-235492906D01*
X415782597Y-235545506D01*
X415771135Y-235602688D01*
X415756820Y-235663879D01*
X415739337Y-235728507D01*
X415718367Y-235795999D01*
X415693595Y-235865782D01*
X415664702Y-235937283D01*
X415631373Y-236009929D01*
X415593289Y-236083149D01*
X415550135Y-236156369D01*
X415501594Y-236229015D01*
X415447347Y-236300516D01*
X415387080Y-236370299D01*
X415320474Y-236437791D01*
X415247212Y-236502419D01*
X415166978Y-236563610D01*
X415079455Y-236620792D01*
X414984326Y-236673392D01*
X414881274Y-236720837D01*
X414769982Y-236762554D01*
X414650134Y-236797970D01*
X414521411Y-236826513D01*
X414383498Y-236847610D01*
X414236077Y-236860689D01*
X414078831Y-236865176D01*
X413480811Y-236865176D01*
X413480811Y-235651885D01*
X413802822Y-235651885D01*
X413823824Y-235650997D01*
X413862755Y-235647129D01*
X413897062Y-235641778D01*
X413936380Y-235633433D01*
X413979278Y-235621427D01*
X414024324Y-235605097D01*
X414070087Y-235583775D01*
X414115133Y-235556798D01*
X414158031Y-235523499D01*
X414197349Y-235483213D01*
X414215219Y-235460241D01*
X414231656Y-235435274D01*
X414246483Y-235408227D01*
X414259519Y-235379018D01*
X414270587Y-235347562D01*
X414279507Y-235313778D01*
X414286099Y-235277582D01*
X414290186Y-235238890D01*
X414291588Y-235197620D01*
X414291588Y-231362240D01*
X414290634Y-231342721D01*
X414286472Y-231306539D01*
X414280715Y-231274653D01*
X414271735Y-231238110D01*
X414258818Y-231198240D01*
X414241247Y-231156373D01*
X414218306Y-231113842D01*
X414189280Y-231071975D01*
X414153452Y-231032105D01*
X414110106Y-230995562D01*
X414085390Y-230978954D01*
X414058527Y-230963676D01*
X414029426Y-230949897D01*
X413997998Y-230937780D01*
X413964153Y-230927494D01*
X413927803Y-230919204D01*
X413888858Y-230913076D01*
X413847227Y-230909278D01*
X413802822Y-230907974D01*
X413480811Y-230907974D01*
X413480811Y-229700433D01*
X414078831Y-229700433D01*
X414083797Y-229700481D01*
G36*
X414083797Y-229700481D02*
G01*
X414121616Y-229701722D01*
X414153202Y-229703488D01*
X414192395Y-229706400D01*
X414238559Y-229710743D01*
X414291063Y-229716805D01*
X414349270Y-229724872D01*
X414412549Y-229735229D01*
X414480264Y-229748165D01*
X414551783Y-229763964D01*
X414626470Y-229782913D01*
X414703693Y-229805299D01*
X414782818Y-229831408D01*
X414863210Y-229861526D01*
X414944236Y-229895940D01*
X415025262Y-229934936D01*
X415105654Y-229978801D01*
X415184779Y-230027821D01*
X415262002Y-230082282D01*
X415336689Y-230142471D01*
X415408208Y-230208674D01*
X415475923Y-230281178D01*
X415539202Y-230360268D01*
X415597409Y-230446232D01*
X415649913Y-230539355D01*
X415696077Y-230639925D01*
X415735270Y-230748227D01*
X415766856Y-230864548D01*
X415790203Y-230989173D01*
X415804675Y-231122391D01*
X415809640Y-231264486D01*
X415809640Y-235301123D01*
X415809218Y-235318688D01*
X415806260Y-235368328D01*
X415803038Y-235403744D01*
X415798231Y-235445461D01*
X415791523Y-235492906D01*
X415782597Y-235545506D01*
X415771135Y-235602688D01*
X415756820Y-235663879D01*
X415739337Y-235728507D01*
X415718367Y-235795999D01*
X415693595Y-235865782D01*
X415664702Y-235937283D01*
X415631373Y-236009929D01*
X415593289Y-236083149D01*
X415550135Y-236156369D01*
X415501594Y-236229015D01*
X415447347Y-236300516D01*
X415387080Y-236370299D01*
X415320474Y-236437791D01*
X415247212Y-236502419D01*
X415166978Y-236563610D01*
X415079455Y-236620792D01*
X414984326Y-236673392D01*
X414881274Y-236720837D01*
X414769982Y-236762554D01*
X414650134Y-236797970D01*
X414521411Y-236826513D01*
X414383498Y-236847610D01*
X414236077Y-236860689D01*
X414078831Y-236865176D01*
X413480811Y-236865176D01*
X413480811Y-235651885D01*
X413802822Y-235651885D01*
X413823824Y-235650997D01*
X413862755Y-235647129D01*
X413897062Y-235641778D01*
X413936380Y-235633433D01*
X413979278Y-235621427D01*
X414024324Y-235605097D01*
X414070087Y-235583775D01*
X414115133Y-235556798D01*
X414158031Y-235523499D01*
X414197349Y-235483213D01*
X414215219Y-235460241D01*
X414231656Y-235435274D01*
X414246483Y-235408227D01*
X414259519Y-235379018D01*
X414270587Y-235347562D01*
X414279507Y-235313778D01*
X414286099Y-235277582D01*
X414290186Y-235238890D01*
X414291588Y-235197620D01*
X414291588Y-231362240D01*
X414290634Y-231342721D01*
X414286472Y-231306539D01*
X414280715Y-231274653D01*
X414271735Y-231238110D01*
X414258818Y-231198240D01*
X414241247Y-231156373D01*
X414218306Y-231113842D01*
X414189280Y-231071975D01*
X414153452Y-231032105D01*
X414110106Y-230995562D01*
X414085390Y-230978954D01*
X414058527Y-230963676D01*
X414029426Y-230949897D01*
X413997998Y-230937780D01*
X413964153Y-230927494D01*
X413927803Y-230919204D01*
X413888858Y-230913076D01*
X413847227Y-230909278D01*
X413802822Y-230907974D01*
X413480811Y-230907974D01*
X413480811Y-229700433D01*
X414078831Y-229700433D01*
X414083797Y-229700481D01*
G37*
D15*
%TO.C,Q7*%
X366132107Y-186530000D02*
X366132107Y-202670000D01*
X366132107Y-186530000D02*
X387322107Y-186530000D01*
X366132107Y-202670000D02*
X387322107Y-202670000D01*
X387322107Y-186530000D02*
X387322107Y-202670000D01*
X387322107Y-194600000D02*
X391297893Y-194600000D01*
X387347893Y-189520000D02*
X391297893Y-189520000D01*
X387347893Y-192060000D02*
X391297893Y-192060000D01*
X387347893Y-199680000D02*
X391297893Y-199680000D01*
%TO.C,J6*%
X306765000Y-122865000D02*
X306765000Y-129000000D01*
X306765000Y-135135000D02*
X306765000Y-129000000D01*
X321785000Y-122865000D02*
X306765000Y-122865000D01*
X321785000Y-124040000D02*
X321785000Y-122865000D01*
X321785000Y-129740000D02*
X321785000Y-128260000D01*
X321785000Y-133960000D02*
X321785000Y-135135000D01*
X321785000Y-135135000D02*
X306765000Y-135135000D01*
X322475000Y-123050000D02*
X323075000Y-123050000D01*
X322775000Y-123650000D02*
X322475000Y-123050000D01*
X323075000Y-123050000D02*
X322775000Y-123650000D01*
X326165000Y-125850000D02*
X324885000Y-125850000D01*
X326165000Y-126450000D02*
X324885000Y-126450000D01*
X326165000Y-131550000D02*
X324885000Y-131550000D01*
X326165000Y-132150000D02*
X324885000Y-132150000D01*
X317235000Y-129000000D02*
G75*
G02*
X313715000Y-129000000I-1760000J0D01*
G01*
X313715000Y-129000000D02*
G75*
G02*
X317235000Y-129000000I1760000J0D01*
G01*
%TO.C,TH2*%
X411670000Y-85255000D02*
X414330000Y-85255000D01*
X411670000Y-87855000D02*
X411670000Y-85255000D01*
X411670000Y-87855000D02*
X414330000Y-87855000D01*
X413000000Y-82655000D02*
X414330000Y-82655000D01*
X414330000Y-82655000D02*
X414330000Y-83985000D01*
X414330000Y-87855000D02*
X414330000Y-85255000D01*
%TD*%
M02*
