%TF.GenerationSoftware,KiCad,Pcbnew,8.0.1*%
%TF.CreationDate,2025-09-05T12:26:36-04:00*%
%TF.ProjectId,HV servo drive v1,48562073-6572-4766-9f20-647269766520,rev?*%
%TF.SameCoordinates,Original*%
%TF.FileFunction,Soldermask,Bot*%
%TF.FilePolarity,Negative*%
%FSLAX46Y46*%
G04 Gerber Fmt 4.6, Leading zero omitted, Abs format (unit mm)*
G04 Created by KiCad (PCBNEW 8.0.1) date 2025-09-05 12:26:36*
%MOMM*%
%LPD*%
G01*
G04 APERTURE LIST*
G04 Aperture macros list*
%AMRoundRect*
0 Rectangle with rounded corners*
0 $1 Rounding radius*
0 $2 $3 $4 $5 $6 $7 $8 $9 X,Y pos of 4 corners*
0 Add a 4 corners polygon primitive as box body*
4,1,4,$2,$3,$4,$5,$6,$7,$8,$9,$2,$3,0*
0 Add four circle primitives for the rounded corners*
1,1,$1+$1,$2,$3*
1,1,$1+$1,$4,$5*
1,1,$1+$1,$6,$7*
1,1,$1+$1,$8,$9*
0 Add four rect primitives between the rounded corners*
20,1,$1+$1,$2,$3,$4,$5,0*
20,1,$1+$1,$4,$5,$6,$7,0*
20,1,$1+$1,$6,$7,$8,$9,0*
20,1,$1+$1,$8,$9,$2,$3,0*%
G04 Aperture macros list end*
%ADD10C,5.600000*%
%ADD11C,7.000000*%
%ADD12C,2.000000*%
%ADD13R,1.700000X1.700000*%
%ADD14O,1.700000X1.700000*%
%ADD15C,3.000000*%
%ADD16RoundRect,0.250001X-1.599999X1.099999X-1.599999X-1.099999X1.599999X-1.099999X1.599999X1.099999X0*%
%ADD17O,3.700000X2.700000*%
%ADD18RoundRect,0.250000X-0.600000X-0.675000X0.600000X-0.675000X0.600000X0.675000X-0.600000X0.675000X0*%
%ADD19O,1.700000X1.850000*%
%ADD20C,3.600000*%
%ADD21R,4.500000X1.905000*%
%ADD22O,4.500000X1.905000*%
%ADD23C,3.200000*%
%ADD24C,1.500000*%
%ADD25R,1.500000X1.500000*%
%ADD26C,4.000000*%
%ADD27C,2.374900*%
%ADD28C,0.990600*%
%ADD29C,0.787400*%
%ADD30RoundRect,0.250002X-1.599998X1.599998X-1.599998X-1.599998X1.599998X-1.599998X1.599998X1.599998X0*%
%ADD31C,3.700000*%
%ADD32R,4.000000X4.000000*%
%ADD33R,1.600000X1.600000*%
%ADD34O,1.600000X1.600000*%
%ADD35RoundRect,0.296298X-1.303702X1.303702X-1.303702X-1.303702X1.303702X-1.303702X1.303702X1.303702X0*%
G04 APERTURE END LIST*
D10*
%TO.C,H13*%
X429000000Y-182000000D03*
D11*
X429000000Y-182000000D03*
%TD*%
D10*
%TO.C,H12*%
X429000000Y-143400000D03*
D11*
X429000000Y-143400000D03*
%TD*%
D10*
%TO.C,H8*%
X315000000Y-155000000D03*
D11*
X315000000Y-155000000D03*
%TD*%
D10*
%TO.C,H6*%
X345000000Y-246000000D03*
D11*
X345000000Y-246000000D03*
%TD*%
D12*
%TO.C,C116*%
X333050000Y-163500000D03*
X333050000Y-178500000D03*
%TD*%
D10*
%TO.C,H7*%
X315000000Y-197000000D03*
D11*
X315000000Y-197000000D03*
%TD*%
D10*
%TO.C,H2*%
X444000000Y-98000000D03*
D11*
X444000000Y-98000000D03*
%TD*%
D10*
%TO.C,H3*%
X444000000Y-157000000D03*
D11*
X444000000Y-157000000D03*
%TD*%
D10*
%TO.C,H4*%
X444000000Y-214000000D03*
D11*
X444000000Y-214000000D03*
%TD*%
D12*
%TO.C,C114*%
X352200000Y-160100000D03*
X352200000Y-145100000D03*
%TD*%
D10*
%TO.C,H1*%
X444000000Y-55200000D03*
D11*
X444000000Y-55200000D03*
%TD*%
D10*
%TO.C,H5*%
X444000000Y-246000000D03*
D11*
X444000000Y-246000000D03*
%TD*%
D12*
%TO.C,C115*%
X352700000Y-196500000D03*
X352700000Y-181500000D03*
%TD*%
D10*
%TO.C,H9*%
X315000000Y-117000000D03*
D11*
X315000000Y-117000000D03*
%TD*%
D10*
%TO.C,H11*%
X372400000Y-182000000D03*
D11*
X372400000Y-182000000D03*
%TD*%
D10*
%TO.C,H10*%
X372400000Y-143400000D03*
D11*
X372400000Y-143400000D03*
%TD*%
D13*
%TO.C,TH1*%
X417000000Y-83970000D03*
D14*
X417000000Y-86510000D03*
%TD*%
D15*
%TO.C,J4*%
X314275000Y-208000000D03*
D16*
X321575000Y-205900000D03*
D17*
X321575000Y-210100000D03*
X327075000Y-205900000D03*
X327075000Y-210100000D03*
%TD*%
D18*
%TO.C,M2*%
X354750000Y-61350000D03*
D19*
X357250000Y-61350000D03*
X359750000Y-61350000D03*
X362250000Y-61350000D03*
%TD*%
D18*
%TO.C,M1*%
X354750000Y-54600000D03*
D19*
X357250000Y-54600000D03*
X359750000Y-54600000D03*
X362250000Y-54600000D03*
%TD*%
D20*
%TO.C,Q6*%
X420988107Y-199856372D03*
D21*
X399652107Y-194770000D03*
D22*
X399652107Y-199850000D03*
X399652107Y-202390000D03*
X399652107Y-204930000D03*
%TD*%
D12*
%TO.C,C130*%
X328000000Y-186200000D03*
X328000000Y-196200000D03*
%TD*%
D20*
%TO.C,Q3*%
X372361893Y-117393628D03*
D21*
X393697893Y-122480000D03*
D22*
X393697893Y-117400000D03*
X393697893Y-114860000D03*
X393697893Y-112320000D03*
%TD*%
D13*
%TO.C,J1*%
X422975000Y-58775000D03*
D14*
X425515000Y-58775000D03*
X422975000Y-56235000D03*
X425515000Y-56235000D03*
X422975000Y-53695000D03*
X425515000Y-53695000D03*
%TD*%
D23*
%TO.C,J2*%
X316436000Y-66715000D03*
X316436000Y-55285000D03*
D24*
X322786000Y-65445000D03*
X331930000Y-56555000D03*
X325326000Y-64175000D03*
X329390000Y-57825000D03*
X322786000Y-62905000D03*
X331930000Y-59095000D03*
X325326000Y-61635000D03*
X329390000Y-60365000D03*
X331930000Y-61635000D03*
X322786000Y-60365000D03*
X329390000Y-62905000D03*
X325326000Y-59095000D03*
X331930000Y-64175000D03*
X322786000Y-57825000D03*
D25*
X329390000Y-65445000D03*
X325326000Y-56555000D03*
%TD*%
D26*
%TO.C,C107*%
X356000000Y-155200000D03*
X335700000Y-155200000D03*
X356000000Y-192700000D03*
X335700000Y-192700000D03*
%TD*%
D27*
%TO.C,J8*%
X417540000Y-59155000D03*
D28*
X417540000Y-56615000D03*
D27*
X417540000Y-54075000D03*
X414365000Y-59155000D03*
X414365000Y-54075000D03*
D28*
X412460000Y-57631000D03*
X412460000Y-55599000D03*
D29*
X416270000Y-57250000D03*
X416270000Y-55980000D03*
X415000000Y-57250000D03*
X415000000Y-55980000D03*
X413730000Y-57250000D03*
X413730000Y-55980000D03*
%TD*%
D20*
%TO.C,Q4*%
X420988107Y-161156372D03*
D21*
X399652107Y-156070000D03*
D22*
X399652107Y-161150000D03*
X399652107Y-163690000D03*
X399652107Y-166230000D03*
%TD*%
D20*
%TO.C,Q5*%
X372361893Y-155893628D03*
D21*
X393697893Y-160980000D03*
D22*
X393697893Y-155900000D03*
X393697893Y-153360000D03*
X393697893Y-150820000D03*
%TD*%
D15*
%TO.C,J5*%
X315475000Y-163945000D03*
X315475000Y-181045000D03*
D30*
X322775000Y-163945000D03*
D31*
X322775000Y-169645000D03*
X322775000Y-175345000D03*
X322775000Y-181045000D03*
X328275000Y-163945000D03*
X328275000Y-169645000D03*
X328275000Y-175345000D03*
X328275000Y-181045000D03*
%TD*%
D32*
%TO.C,C104*%
X321882066Y-235400000D03*
D26*
X331882066Y-235400000D03*
%TD*%
D32*
%TO.C,C105*%
X340882066Y-211400000D03*
D26*
X350882066Y-211400000D03*
%TD*%
D20*
%TO.C,Q2*%
X420988107Y-122656372D03*
D21*
X399652107Y-117570000D03*
D22*
X399652107Y-122650000D03*
X399652107Y-125190000D03*
X399652107Y-127730000D03*
%TD*%
D33*
%TO.C,SW2*%
X316950000Y-101550000D03*
D34*
X316950000Y-99010000D03*
X316950000Y-96470000D03*
X316950000Y-93930000D03*
X324570000Y-93930000D03*
X324570000Y-96470000D03*
X324570000Y-99010000D03*
X324570000Y-101550000D03*
%TD*%
D26*
%TO.C,C106*%
X356100000Y-110804000D03*
X335800000Y-110804000D03*
X356100000Y-148304000D03*
X335800000Y-148304000D03*
%TD*%
D15*
%TO.C,J7*%
X315475000Y-143500000D03*
D30*
X322775000Y-140650000D03*
D31*
X322775000Y-146350000D03*
X328275000Y-140650000D03*
X328275000Y-146350000D03*
%TD*%
D33*
%TO.C,SW1*%
X339525000Y-66750000D03*
D34*
X336985000Y-66750000D03*
X336985000Y-59130000D03*
X339525000Y-59130000D03*
%TD*%
D15*
%TO.C,J3*%
X313475000Y-73800000D03*
X313475000Y-82200000D03*
D35*
X320775000Y-73800000D03*
D23*
X320775000Y-78000000D03*
X320775000Y-82200000D03*
X324975000Y-73800000D03*
X324975000Y-78000000D03*
X324975000Y-82200000D03*
%TD*%
D20*
%TO.C,Q7*%
X372361893Y-194593628D03*
D21*
X393697893Y-199680000D03*
D22*
X393697893Y-194600000D03*
X393697893Y-192060000D03*
X393697893Y-189520000D03*
%TD*%
D15*
%TO.C,J6*%
X315475000Y-129000000D03*
D30*
X322775000Y-126150000D03*
D31*
X322775000Y-131850000D03*
X328275000Y-126150000D03*
X328275000Y-131850000D03*
%TD*%
D13*
%TO.C,TH2*%
X413000000Y-83985000D03*
D14*
X413000000Y-86525000D03*
%TD*%
M02*
