%TF.GenerationSoftware,KiCad,Pcbnew,8.0.1*%
%TF.CreationDate,2025-09-05T11:44:48-04:00*%
%TF.ProjectId,HV servo drive v1,48562073-6572-4766-9f20-647269766520,rev?*%
%TF.SameCoordinates,Original*%
%TF.FileFunction,Copper,L4,Bot*%
%TF.FilePolarity,Positive*%
%FSLAX46Y46*%
G04 Gerber Fmt 4.6, Leading zero omitted, Abs format (unit mm)*
G04 Created by KiCad (PCBNEW 8.0.1) date 2025-09-05 11:44:48*
%MOMM*%
%LPD*%
G01*
G04 APERTURE LIST*
G04 Aperture macros list*
%AMRoundRect*
0 Rectangle with rounded corners*
0 $1 Rounding radius*
0 $2 $3 $4 $5 $6 $7 $8 $9 X,Y pos of 4 corners*
0 Add a 4 corners polygon primitive as box body*
4,1,4,$2,$3,$4,$5,$6,$7,$8,$9,$2,$3,0*
0 Add four circle primitives for the rounded corners*
1,1,$1+$1,$2,$3*
1,1,$1+$1,$4,$5*
1,1,$1+$1,$6,$7*
1,1,$1+$1,$8,$9*
0 Add four rect primitives between the rounded corners*
20,1,$1+$1,$2,$3,$4,$5,0*
20,1,$1+$1,$4,$5,$6,$7,0*
20,1,$1+$1,$6,$7,$8,$9,0*
20,1,$1+$1,$8,$9,$2,$3,0*%
G04 Aperture macros list end*
%TA.AperFunction,ConnectorPad*%
%ADD10C,5.600000*%
%TD*%
%TA.AperFunction,ComponentPad*%
%ADD11C,7.000000*%
%TD*%
%TA.AperFunction,ComponentPad*%
%ADD12C,2.000000*%
%TD*%
%TA.AperFunction,ComponentPad*%
%ADD13R,1.700000X1.700000*%
%TD*%
%TA.AperFunction,ComponentPad*%
%ADD14O,1.700000X1.700000*%
%TD*%
%TA.AperFunction,ComponentPad*%
%ADD15RoundRect,0.250001X-1.599999X1.099999X-1.599999X-1.099999X1.599999X-1.099999X1.599999X1.099999X0*%
%TD*%
%TA.AperFunction,ComponentPad*%
%ADD16O,3.700000X2.700000*%
%TD*%
%TA.AperFunction,ComponentPad*%
%ADD17RoundRect,0.250000X-0.600000X-0.675000X0.600000X-0.675000X0.600000X0.675000X-0.600000X0.675000X0*%
%TD*%
%TA.AperFunction,ComponentPad*%
%ADD18O,1.700000X1.850000*%
%TD*%
%TA.AperFunction,ComponentPad*%
%ADD19R,4.500000X1.905000*%
%TD*%
%TA.AperFunction,ComponentPad*%
%ADD20O,4.500000X1.905000*%
%TD*%
%TA.AperFunction,ComponentPad*%
%ADD21C,1.500000*%
%TD*%
%TA.AperFunction,ComponentPad*%
%ADD22R,1.500000X1.500000*%
%TD*%
%TA.AperFunction,ComponentPad*%
%ADD23C,4.000000*%
%TD*%
%TA.AperFunction,ConnectorPad*%
%ADD24C,0.787400*%
%TD*%
%TA.AperFunction,ComponentPad*%
%ADD25RoundRect,0.250002X-1.599998X1.599998X-1.599998X-1.599998X1.599998X-1.599998X1.599998X1.599998X0*%
%TD*%
%TA.AperFunction,ComponentPad*%
%ADD26C,3.700000*%
%TD*%
%TA.AperFunction,ComponentPad*%
%ADD27R,4.000000X4.000000*%
%TD*%
%TA.AperFunction,ComponentPad*%
%ADD28R,1.600000X1.600000*%
%TD*%
%TA.AperFunction,ComponentPad*%
%ADD29O,1.600000X1.600000*%
%TD*%
%TA.AperFunction,ComponentPad*%
%ADD30RoundRect,0.296298X-1.303702X1.303702X-1.303702X-1.303702X1.303702X-1.303702X1.303702X1.303702X0*%
%TD*%
%TA.AperFunction,ComponentPad*%
%ADD31C,3.200000*%
%TD*%
%TA.AperFunction,ViaPad*%
%ADD32C,0.800000*%
%TD*%
%TA.AperFunction,Conductor*%
%ADD33C,0.250000*%
%TD*%
%TA.AperFunction,Conductor*%
%ADD34C,1.000000*%
%TD*%
%TA.AperFunction,Conductor*%
%ADD35C,0.500000*%
%TD*%
%TA.AperFunction,Conductor*%
%ADD36C,0.200000*%
%TD*%
%TA.AperFunction,Conductor*%
%ADD37C,0.750000*%
%TD*%
G04 APERTURE END LIST*
D10*
%TO.P,H13,1*%
%TO.N,N/C*%
X429000000Y-182000000D03*
D11*
X429000000Y-182000000D03*
%TD*%
D10*
%TO.P,H12,1*%
%TO.N,N/C*%
X429000000Y-143400000D03*
D11*
X429000000Y-143400000D03*
%TD*%
D10*
%TO.P,H8,1,1*%
%TO.N,GND*%
X315000000Y-155000000D03*
D11*
X315000000Y-155000000D03*
%TD*%
D10*
%TO.P,H6,1,1*%
%TO.N,GND*%
X345000000Y-246000000D03*
D11*
X345000000Y-246000000D03*
%TD*%
D12*
%TO.P,C116,1*%
%TO.N,U*%
X333050000Y-163500000D03*
%TO.P,C116,2*%
%TO.N,W*%
X333050000Y-178500000D03*
%TD*%
D10*
%TO.P,H7,1,1*%
%TO.N,GND*%
X315000000Y-197000000D03*
D11*
X315000000Y-197000000D03*
%TD*%
D10*
%TO.P,H2,1,1*%
%TO.N,GND*%
X444000000Y-98000000D03*
D11*
X444000000Y-98000000D03*
%TD*%
D10*
%TO.P,H3,1,1*%
%TO.N,GND*%
X444000000Y-157000000D03*
D11*
X444000000Y-157000000D03*
%TD*%
D10*
%TO.P,H4,1,1*%
%TO.N,GND*%
X444000000Y-214000000D03*
D11*
X444000000Y-214000000D03*
%TD*%
D12*
%TO.P,C114,1*%
%TO.N,V*%
X352200000Y-160100000D03*
%TO.P,C114,2*%
%TO.N,U*%
X352200000Y-145100000D03*
%TD*%
D10*
%TO.P,H1,1,1*%
%TO.N,GND*%
X444000000Y-55200000D03*
D11*
X444000000Y-55200000D03*
%TD*%
D10*
%TO.P,H5,1,1*%
%TO.N,GND*%
X444000000Y-246000000D03*
D11*
X444000000Y-246000000D03*
%TD*%
D12*
%TO.P,C115,1*%
%TO.N,W*%
X352700000Y-196500000D03*
%TO.P,C115,2*%
%TO.N,V*%
X352700000Y-181500000D03*
%TD*%
D10*
%TO.P,H9,1,1*%
%TO.N,GND*%
X315000000Y-117000000D03*
D11*
X315000000Y-117000000D03*
%TD*%
D10*
%TO.P,H11,1*%
%TO.N,N/C*%
X372400000Y-182000000D03*
D11*
X372400000Y-182000000D03*
%TD*%
D10*
%TO.P,H10,1*%
%TO.N,N/C*%
X372400000Y-143400000D03*
D11*
X372400000Y-143400000D03*
%TD*%
D13*
%TO.P,TH1,1*%
%TO.N,+3.3V*%
X417000000Y-83970000D03*
D14*
%TO.P,TH1,2*%
%TO.N,HEATSINK_TEMP_1_ADC*%
X417000000Y-86510000D03*
%TD*%
D15*
%TO.P,J4,1,Pin_1*%
%TO.N,unconnected-(J4-Pin_1-Pad1)*%
X321575000Y-205900000D03*
D16*
%TO.P,J4,2,Pin_2*%
%TO.N,VM*%
X321575000Y-210100000D03*
%TO.P,J4,3,Pin_3*%
%TO.N,WM*%
X327075000Y-205900000D03*
%TO.P,J4,4,Pin_4*%
%TO.N,UM*%
X327075000Y-210100000D03*
%TD*%
D17*
%TO.P,M2,1,-*%
%TO.N,GND1*%
X354750000Y-61350000D03*
D18*
%TO.P,M2,2,+*%
%TO.N,24V_ISO*%
X357250000Y-61350000D03*
%TO.P,M2,3,Tacho*%
%TO.N,TACH_1_ISO*%
X359750000Y-61350000D03*
%TO.P,M2,4,PWM*%
%TO.N,FAN_PWM_ISO*%
X362250000Y-61350000D03*
%TD*%
D17*
%TO.P,M1,1,-*%
%TO.N,GND1*%
X354750000Y-54600000D03*
D18*
%TO.P,M1,2,+*%
%TO.N,24V_ISO*%
X357250000Y-54600000D03*
%TO.P,M1,3,Tacho*%
%TO.N,TACH_2_ISO*%
X359750000Y-54600000D03*
%TO.P,M1,4,PWM*%
%TO.N,FAN_PWM_ISO*%
X362250000Y-54600000D03*
%TD*%
D19*
%TO.P,Q6,1,D*%
%TO.N,DCBUS+*%
X399652107Y-194770000D03*
D20*
%TO.P,Q6,2,S*%
%TO.N,Net-(D17-A)*%
X399652107Y-199850000D03*
%TO.P,Q6,3,DS*%
%TO.N,Net-(Q6-DS)*%
X399652107Y-202390000D03*
%TO.P,Q6,4,G*%
%TO.N,Net-(Q6-G)*%
X399652107Y-204930000D03*
%TD*%
D12*
%TO.P,C130,1*%
%TO.N,GND*%
X328000000Y-186200000D03*
%TO.P,C130,2*%
%TO.N,DCBUS-*%
X328000000Y-196200000D03*
%TD*%
D19*
%TO.P,Q3,1,D*%
%TO.N,Net-(D13-A)*%
X393697893Y-122480000D03*
D20*
%TO.P,Q3,2,S*%
%TO.N,DCBUS-*%
X393697893Y-117400000D03*
%TO.P,Q3,3,DS*%
%TO.N,Net-(Q3-DS)*%
X393697893Y-114860000D03*
%TO.P,Q3,4,G*%
%TO.N,Net-(Q3-G)*%
X393697893Y-112320000D03*
%TD*%
D13*
%TO.P,J1,1,Pin_1*%
%TO.N,SWDIO*%
X422975000Y-58775000D03*
D14*
%TO.P,J1,2,Pin_2*%
%TO.N,RESET*%
X425515000Y-58775000D03*
%TO.P,J1,3,Pin_3*%
%TO.N,SWCLK*%
X422975000Y-56235000D03*
%TO.P,J1,4,Pin_4*%
%TO.N,+3.3V*%
X425515000Y-56235000D03*
%TO.P,J1,5,Pin_5*%
%TO.N,SWO*%
X422975000Y-53695000D03*
%TO.P,J1,6,Pin_6*%
%TO.N,GND2*%
X425515000Y-53695000D03*
%TD*%
D21*
%TO.P,J2,1*%
%TO.N,Net-(FB10-Pad2)*%
X322786000Y-65445000D03*
X331930000Y-56555000D03*
%TO.P,J2,2*%
%TO.N,Net-(FB11-Pad1)*%
X325326000Y-64175000D03*
X329390000Y-57825000D03*
%TO.P,J2,3*%
%TO.N,RX+*%
X322786000Y-62905000D03*
X331930000Y-59095000D03*
%TO.P,J2,4*%
%TO.N,TX-*%
X325326000Y-61635000D03*
X329390000Y-60365000D03*
%TO.P,J2,5*%
%TO.N,TX+*%
X331930000Y-61635000D03*
X322786000Y-60365000D03*
%TO.P,J2,6*%
%TO.N,RX-*%
X329390000Y-62905000D03*
X325326000Y-59095000D03*
%TO.P,J2,7*%
%TO.N,Net-(FB10-Pad2)*%
X331930000Y-64175000D03*
X322786000Y-57825000D03*
D22*
%TO.P,J2,8*%
%TO.N,Net-(FB11-Pad1)*%
X329390000Y-65445000D03*
X325326000Y-56555000D03*
%TD*%
D23*
%TO.P,C107,1*%
%TO.N,DCBUS+*%
X356000000Y-155200000D03*
X335700000Y-155200000D03*
%TO.P,C107,2*%
%TO.N,DCBUS-*%
X356000000Y-192700000D03*
X335700000Y-192700000D03*
%TD*%
D24*
%TO.P,J8,1,VCC*%
%TO.N,+3.3V*%
X416270000Y-57250000D03*
%TO.P,J8,2,SWDIO*%
%TO.N,SWDIO*%
X416270000Y-55980000D03*
%TO.P,J8,3,~{RESET}*%
%TO.N,RESET*%
X415000000Y-57250000D03*
%TO.P,J8,4,SWCLK*%
%TO.N,SWCLK*%
X415000000Y-55980000D03*
%TO.P,J8,5,GND*%
%TO.N,GND2*%
X413730000Y-57250000D03*
%TO.P,J8,6,SWO*%
%TO.N,SWO*%
X413730000Y-55980000D03*
%TD*%
D19*
%TO.P,Q4,1,D*%
%TO.N,DCBUS+*%
X399652107Y-156070000D03*
D20*
%TO.P,Q4,2,S*%
%TO.N,Net-(D14-A)*%
X399652107Y-161150000D03*
%TO.P,Q4,3,DS*%
%TO.N,Net-(Q4-DS)*%
X399652107Y-163690000D03*
%TO.P,Q4,4,G*%
%TO.N,Net-(Q4-G)*%
X399652107Y-166230000D03*
%TD*%
D19*
%TO.P,Q5,1,D*%
%TO.N,Net-(D14-A)*%
X393697893Y-160980000D03*
D20*
%TO.P,Q5,2,S*%
%TO.N,DCBUS-*%
X393697893Y-155900000D03*
%TO.P,Q5,3,DS*%
%TO.N,Net-(Q5-DS)*%
X393697893Y-153360000D03*
%TO.P,Q5,4,G*%
%TO.N,Net-(Q5-G)*%
X393697893Y-150820000D03*
%TD*%
D25*
%TO.P,J5,1,Pin_1*%
%TO.N,U*%
X322775000Y-163945000D03*
D26*
%TO.P,J5,2,Pin_2*%
%TO.N,V*%
X322775000Y-169645000D03*
%TO.P,J5,3,Pin_3*%
%TO.N,W*%
X322775000Y-175345000D03*
%TO.P,J5,4,Pin_4*%
%TO.N,GND*%
X322775000Y-181045000D03*
%TO.P,J5,5,Pin_5*%
%TO.N,U*%
X328275000Y-163945000D03*
%TO.P,J5,6,Pin_6*%
%TO.N,V*%
X328275000Y-169645000D03*
%TO.P,J5,7,Pin_7*%
%TO.N,W*%
X328275000Y-175345000D03*
%TO.P,J5,8,Pin_8*%
%TO.N,GND*%
X328275000Y-181045000D03*
%TD*%
D27*
%TO.P,C104,1*%
%TO.N,DCBUS+*%
X321882066Y-235400000D03*
D23*
%TO.P,C104,2*%
%TO.N,DCBUS-*%
X331882066Y-235400000D03*
%TD*%
D27*
%TO.P,C105,1*%
%TO.N,DCBUS+*%
X340882066Y-211400000D03*
D23*
%TO.P,C105,2*%
%TO.N,DCBUS-*%
X350882066Y-211400000D03*
%TD*%
D19*
%TO.P,Q2,1,D*%
%TO.N,DCBUS+*%
X399652107Y-117570000D03*
D20*
%TO.P,Q2,2,S*%
%TO.N,Net-(D13-A)*%
X399652107Y-122650000D03*
%TO.P,Q2,3,DS*%
%TO.N,Net-(Q2-DS)*%
X399652107Y-125190000D03*
%TO.P,Q2,4,G*%
%TO.N,Net-(Q2-G)*%
X399652107Y-127730000D03*
%TD*%
D28*
%TO.P,SW2,1*%
%TO.N,GND2*%
X316950000Y-101550000D03*
D29*
%TO.P,SW2,2*%
X316950000Y-99010000D03*
%TO.P,SW2,3*%
X316950000Y-96470000D03*
%TO.P,SW2,4*%
X316950000Y-93930000D03*
%TO.P,SW2,5*%
%TO.N,Net-(U23-P04)*%
X324570000Y-93930000D03*
%TO.P,SW2,6*%
%TO.N,Net-(U23-P05)*%
X324570000Y-96470000D03*
%TO.P,SW2,7*%
%TO.N,Net-(U23-P06)*%
X324570000Y-99010000D03*
%TO.P,SW2,8*%
%TO.N,Net-(U23-P07)*%
X324570000Y-101550000D03*
%TD*%
D23*
%TO.P,C106,1*%
%TO.N,DCBUS+*%
X356100000Y-110804000D03*
X335800000Y-110804000D03*
%TO.P,C106,2*%
%TO.N,DCBUS-*%
X356100000Y-148304000D03*
X335800000Y-148304000D03*
%TD*%
D25*
%TO.P,J7,1,Pin_1*%
%TO.N,DCBUS+*%
X322775000Y-140650000D03*
D26*
%TO.P,J7,2,Pin_2*%
X322775000Y-146350000D03*
%TO.P,J7,3,Pin_3*%
%TO.N,DCBUS-*%
X328275000Y-140650000D03*
%TO.P,J7,4,Pin_4*%
X328275000Y-146350000D03*
%TD*%
D28*
%TO.P,SW1,1*%
%TO.N,Net-(R10-Pad2)*%
X339525000Y-66750000D03*
D29*
%TO.P,SW1,2*%
%TO.N,Net-(R11-Pad2)*%
X336985000Y-66750000D03*
%TO.P,SW1,3*%
%TO.N,TX-*%
X336985000Y-59130000D03*
%TO.P,SW1,4*%
%TO.N,RX-*%
X339525000Y-59130000D03*
%TD*%
D30*
%TO.P,J3,1,Pin_1*%
%TO.N,STO CH1 FIELD*%
X320775000Y-73800000D03*
D31*
%TO.P,J3,2,Pin_2*%
%TO.N,STO CH2 FIELD*%
X320775000Y-78000000D03*
%TO.P,J3,3,Pin_3*%
%TO.N,Net-(J3-Pin_3)*%
X320775000Y-82200000D03*
%TO.P,J3,4,Pin_4*%
%TO.N,Net-(J3-Pin_4)*%
X324975000Y-73800000D03*
%TO.P,J3,5,Pin_5*%
%TO.N,STO FBK OUT*%
X324975000Y-78000000D03*
%TO.P,J3,6,Pin_6*%
%TO.N,unconnected-(J3-Pin_6-Pad6)*%
X324975000Y-82200000D03*
%TD*%
D19*
%TO.P,Q7,1,D*%
%TO.N,Net-(D17-A)*%
X393697893Y-199680000D03*
D20*
%TO.P,Q7,2,S*%
%TO.N,DCBUS-*%
X393697893Y-194600000D03*
%TO.P,Q7,3,DS*%
%TO.N,Net-(Q7-DS)*%
X393697893Y-192060000D03*
%TO.P,Q7,4,G*%
%TO.N,Net-(Q7-G)*%
X393697893Y-189520000D03*
%TD*%
D25*
%TO.P,J6,1,Pin_1*%
%TO.N,DCBUS+*%
X322775000Y-126150000D03*
D26*
%TO.P,J6,2,Pin_2*%
X322775000Y-131850000D03*
%TO.P,J6,3,Pin_3*%
%TO.N,DCBUS-*%
X328275000Y-126150000D03*
%TO.P,J6,4,Pin_4*%
X328275000Y-131850000D03*
%TD*%
D13*
%TO.P,TH2,1*%
%TO.N,+3.3V*%
X413000000Y-83985000D03*
D14*
%TO.P,TH2,2*%
%TO.N,HEATSINK_TEMP_2_ADC*%
X413000000Y-86525000D03*
%TD*%
D32*
%TO.N,GND1*%
X390750000Y-66500000D03*
X380000000Y-57500000D03*
X346250000Y-56500000D03*
X366000000Y-64750000D03*
X353500000Y-59000000D03*
X377000000Y-56500000D03*
X346250000Y-60250000D03*
X379500000Y-54500000D03*
X335562500Y-62000000D03*
X353500000Y-57000000D03*
X316000000Y-61000000D03*
X316000000Y-62000000D03*
X380000000Y-56500000D03*
X353500000Y-63750000D03*
X377500000Y-54500000D03*
X383500000Y-65250000D03*
X390750000Y-53500000D03*
X380000000Y-55500000D03*
X353500000Y-65750000D03*
X344750000Y-63250000D03*
X378500000Y-54500000D03*
X377000000Y-57500000D03*
X387150000Y-62750000D03*
X336500000Y-56250000D03*
X376500000Y-62250500D03*
X377000000Y-55500000D03*
X371500000Y-62250000D03*
%TO.N,GND2*%
X374250000Y-74250000D03*
X424000000Y-92500000D03*
X418454810Y-150065063D03*
X431200000Y-188600000D03*
X403750000Y-56250000D03*
X406000000Y-55750000D03*
X418119786Y-176418628D03*
X338250000Y-91500000D03*
X332750000Y-103250000D03*
X409750000Y-57750000D03*
X415000000Y-89250000D03*
X428000000Y-113000000D03*
X386668457Y-228639431D03*
X376750000Y-72250000D03*
X418419786Y-188718628D03*
X436750000Y-68750000D03*
X416600000Y-64200000D03*
X403750000Y-59250000D03*
X424500000Y-80750000D03*
X386668457Y-232449500D03*
X427750000Y-153000000D03*
X386668457Y-236289431D03*
X406000000Y-58750000D03*
X380000000Y-74250000D03*
X339750000Y-97750000D03*
X418450000Y-111550000D03*
X431750000Y-60250000D03*
X359250000Y-93000000D03*
X433000000Y-80300000D03*
X332750000Y-96750000D03*
X405500000Y-59750000D03*
X386684000Y-243839431D03*
X382250000Y-72250000D03*
X418154810Y-137765063D03*
X434250000Y-60000000D03*
X386684000Y-240039431D03*
X407000000Y-55750000D03*
X405000000Y-58750000D03*
X416100000Y-75750000D03*
X410800000Y-70200000D03*
X407000000Y-58750000D03*
X403750000Y-57250000D03*
X371000000Y-72250000D03*
X386684000Y-224839431D03*
X427750000Y-151500000D03*
X418150000Y-99250000D03*
X403750000Y-58250000D03*
X405500000Y-54750000D03*
X404500000Y-54750000D03*
X386684000Y-221039431D03*
X428000000Y-114500000D03*
X403750000Y-55250000D03*
X427750000Y-190250000D03*
X411250000Y-56750000D03*
X421500000Y-93250000D03*
X389800000Y-88200000D03*
X416200000Y-70200000D03*
X367500000Y-75500000D03*
X349000000Y-91500000D03*
X419250000Y-73500000D03*
X400237347Y-67487347D03*
X409750000Y-56750000D03*
X404500000Y-59750000D03*
X411600000Y-79000000D03*
X427750000Y-191750000D03*
X434500000Y-79250000D03*
X405000000Y-55750000D03*
X424750000Y-63250000D03*
%TO.N,+3.3V*%
X419250000Y-74750000D03*
X315500000Y-96500000D03*
X315250000Y-101250000D03*
X425750000Y-80750000D03*
X419200000Y-63250000D03*
X419054810Y-151265063D03*
X418750000Y-57500000D03*
X377750000Y-72750000D03*
X433250000Y-79250000D03*
X315500000Y-93000000D03*
X419619786Y-176418628D03*
X386684000Y-233555931D03*
X346250000Y-93500000D03*
X336250000Y-92750000D03*
X315500000Y-103912000D03*
X361750000Y-91250000D03*
X366250000Y-72750000D03*
X372000000Y-72750000D03*
X414050000Y-107950000D03*
X420250000Y-95750000D03*
X419650000Y-99250000D03*
X419654810Y-137765063D03*
X340000000Y-103000000D03*
X386684000Y-222211931D03*
X416100000Y-74000000D03*
X414054810Y-146465063D03*
X339750000Y-96250000D03*
X332750000Y-92750000D03*
X329500000Y-92000000D03*
X341500000Y-103250000D03*
X386684000Y-230076000D03*
X414019786Y-185118628D03*
X431200000Y-192600000D03*
X367500000Y-78000000D03*
X434250000Y-53500000D03*
X436750000Y-67500000D03*
X419250000Y-132000000D03*
X386684000Y-237411931D03*
X419050000Y-112750000D03*
X386684000Y-241211931D03*
X423500000Y-63250000D03*
X386684000Y-218411931D03*
X419019786Y-189918628D03*
X408500000Y-54750000D03*
X386684000Y-226011931D03*
%TO.N,U*%
X367400000Y-220200000D03*
X347200000Y-158700000D03*
%TO.N,UH*%
X428275500Y-102250000D03*
X432000500Y-101000000D03*
%TO.N,UL*%
X427500000Y-100500000D03*
X431224061Y-96775939D03*
%TO.N,U_DATA*%
X428227766Y-96115667D03*
X425250000Y-67750000D03*
X427500000Y-82863604D03*
X425750000Y-98750000D03*
%TO.N,V*%
X367400000Y-224000000D03*
X347300000Y-176500000D03*
%TO.N,WH*%
X432200000Y-154400000D03*
X430000000Y-174000000D03*
X432200000Y-133800000D03*
X422600000Y-191400000D03*
%TO.N,WL*%
X428400000Y-174000000D03*
X431445299Y-134632053D03*
X431400000Y-153600000D03*
X420200000Y-189000000D03*
%TO.N,W_DATA*%
X430600000Y-152800000D03*
X430250000Y-83250000D03*
X432250000Y-71750000D03*
X430600000Y-135600000D03*
%TO.N,VH*%
X433612701Y-99862701D03*
X423012653Y-152387347D03*
%TO.N,VL*%
X431250000Y-99000000D03*
X422400000Y-148600000D03*
%TO.N,V_DATA*%
X428250000Y-82000000D03*
X428250000Y-79500000D03*
X426750000Y-133750000D03*
X429000000Y-96750000D03*
%TO.N,5v_ISO*%
X367890500Y-64250000D03*
X381000000Y-59000000D03*
X372750000Y-62250000D03*
X378500000Y-62250000D03*
X341750000Y-64500000D03*
%TO.N,RESET*%
X416000000Y-60351000D03*
%TO.N,HEATSINK_TEMP_1_ADC*%
X418500000Y-81250000D03*
%TO.N,UM_ADC*%
X425500000Y-76250000D03*
X437250000Y-104000000D03*
%TO.N,VM_ADC*%
X438000000Y-104750000D03*
X426500000Y-76250000D03*
%TO.N,WM_ADC*%
X436262299Y-103262299D03*
X424500000Y-76250000D03*
%TO.N,HEATSINK_TEMP_2_ADC*%
X417400000Y-81275000D03*
%TO.N,U_ADC*%
X423500000Y-74750000D03*
X435250000Y-100500000D03*
%TO.N,V_ADC*%
X423500000Y-75749503D03*
X435262299Y-101512299D03*
%TO.N,W_ADC*%
X423500000Y-76749006D03*
X436250000Y-102250000D03*
%TO.N,VBUS_ADC*%
X438750000Y-105500000D03*
X426775970Y-78902289D03*
%TO.N,BOARD_TEMP_1_ADC*%
X423000000Y-134000000D03*
X418500000Y-80250000D03*
%TO.N,GND3*%
X400319786Y-208418628D03*
X405054810Y-156465063D03*
X404000000Y-171200000D03*
X405050000Y-117950000D03*
X393000000Y-93400000D03*
X395800000Y-93400000D03*
X403800000Y-132600000D03*
X393000000Y-94400000D03*
X405019786Y-195118628D03*
X395800000Y-94400000D03*
%TO.N,VBUS -5V*%
X404614976Y-213503565D03*
X404600000Y-135400000D03*
X404600000Y-174312500D03*
X386000000Y-97600000D03*
%TO.N,RX-*%
X333800000Y-61200000D03*
X328100000Y-59400000D03*
%TO.N,TX+*%
X335750000Y-65000000D03*
X338000000Y-56250000D03*
X333600000Y-57000000D03*
%TO.N,TX_EN_ISO*%
X349737701Y-59012299D03*
X375750000Y-63750000D03*
%TO.N,Net-(D17-K)*%
X412419786Y-201818628D03*
X408900000Y-185800000D03*
%TO.N,RX*%
X425250000Y-70749503D03*
X431395739Y-67411927D03*
X431400000Y-69525001D03*
X369000000Y-75250000D03*
%TO.N,TX*%
X370250000Y-74500000D03*
X426300000Y-70500000D03*
%TO.N,TACH_1*%
X374500000Y-76750000D03*
X425234699Y-73783021D03*
%TO.N,TX_EN*%
X425250000Y-71750000D03*
X375481000Y-76224500D03*
%TO.N,TACH_2*%
X425237701Y-72762299D03*
X380725000Y-76724500D03*
%TO.N,FAN_PWM*%
X427250000Y-61076000D03*
X397000000Y-73075000D03*
%TO.N,FAN_PWM_ISO*%
X364500000Y-58250000D03*
X381750000Y-63250000D03*
%TO.N,TACH_2_ISO*%
X380500000Y-63250000D03*
%TO.N,SWCLK*%
X428050000Y-54650000D03*
X415977550Y-53000000D03*
%TO.N,-5V*%
X398000000Y-100000000D03*
X403753120Y-146891352D03*
X403748310Y-108376289D03*
X403718096Y-185544917D03*
%TO.N,Net-(D17-A)*%
X406319786Y-183418628D03*
X405000000Y-181800000D03*
%TO.N,BOOT*%
X429000000Y-63250000D03*
X428000000Y-67500000D03*
%TO.N,STO CH1*%
X425500000Y-109500000D03*
X425600000Y-131800000D03*
X334250000Y-94750000D03*
X344500000Y-94750000D03*
X425750000Y-117500000D03*
X417693345Y-186493345D03*
X425512653Y-135512653D03*
X424000000Y-137025306D03*
X424762299Y-100762299D03*
X368250000Y-82000000D03*
X421400000Y-147750000D03*
X406750000Y-78724500D03*
%TO.N,STO EN*%
X367500000Y-76750000D03*
X430750000Y-62750000D03*
X350000000Y-95250000D03*
X354750000Y-95250000D03*
X412200000Y-62525000D03*
X409200000Y-77400000D03*
%TO.N,STO CH2*%
X435025500Y-76250000D03*
X369000000Y-82750000D03*
X408500000Y-80000000D03*
X438750000Y-72750000D03*
%TO.N,STO CH1 MCU FBK*%
X411250000Y-61800500D03*
X430000000Y-61800500D03*
%TO.N,SAFE GND*%
X332250000Y-77750000D03*
X316750000Y-79000000D03*
X338750000Y-78250000D03*
X356250000Y-72250000D03*
X347000000Y-72250000D03*
%TO.N,STO FBK OUT*%
X338500000Y-74000000D03*
X331250000Y-75750000D03*
%TO.N,UM*%
X367800000Y-235400000D03*
%TO.N,VM*%
X367800000Y-239200000D03*
%TO.N,WM*%
X367800000Y-231600000D03*
%TO.N,W_CLOCK*%
X429800000Y-136600000D03*
X429800000Y-152000000D03*
%TO.N,STO CH1 FIELD*%
X354250000Y-75500000D03*
%TO.N,STO CH2 FIELD*%
X343000000Y-75500000D03*
%TO.N,SDA*%
X335250000Y-96500000D03*
X341500000Y-99500000D03*
X394200000Y-74200000D03*
X426524999Y-63789037D03*
%TO.N,SDL*%
X335250000Y-98000000D03*
X395400000Y-74275000D03*
X426025500Y-64654612D03*
X341500000Y-101000000D03*
%TO.N,+15V_GATE*%
X392000000Y-96025000D03*
X406000000Y-170200000D03*
X403592109Y-186536448D03*
X406000000Y-131500000D03*
X403622323Y-109367820D03*
X403627133Y-147882883D03*
X404614976Y-208616065D03*
%TO.N,Net-(D10-K)*%
X412300000Y-174900000D03*
X412654810Y-158865063D03*
X412300000Y-168300000D03*
%TO.N,Net-(D13-A)*%
X406350000Y-106250000D03*
X405201305Y-104601305D03*
%TO.N,Net-(D13-K)*%
X413600000Y-122000000D03*
X408800000Y-108700000D03*
%TO.N,Net-(D14-A)*%
X406368401Y-144641089D03*
X404800000Y-143250000D03*
%TO.N,Net-(D14-K)*%
X408900000Y-146900000D03*
X413200000Y-161000000D03*
%TO.N,Net-(D15-K)*%
X412619786Y-197518628D03*
X412350000Y-208200000D03*
X412400000Y-214000000D03*
%TO.N,Net-(U14-OUTA)*%
X411150000Y-118750000D03*
X406850000Y-124050000D03*
X406850000Y-125050000D03*
%TO.N,Net-(U14-OUTB)*%
X407950000Y-113250000D03*
X401950000Y-111950000D03*
X401950000Y-112850000D03*
%TO.N,Net-(U15-OUTA)*%
X406864810Y-163565063D03*
X411154810Y-157265063D03*
X406854810Y-162565063D03*
%TO.N,Net-(U15-OUTB)*%
X401954810Y-151365063D03*
X407954810Y-151765063D03*
X401954810Y-150465063D03*
%TO.N,Net-(U18-OUTA)*%
X406819786Y-201218628D03*
X406829786Y-202218628D03*
X411119786Y-195918628D03*
%TO.N,Net-(U18-OUTB)*%
X401919786Y-190018628D03*
X401919786Y-189118628D03*
X407919786Y-190418628D03*
%TO.N,Net-(U23-P07)*%
X329250000Y-103000000D03*
%TO.N,Net-(U23-P04)*%
X332750000Y-100250000D03*
%TO.N,Net-(U23-P05)*%
X332560395Y-101390921D03*
%TO.N,Net-(U23-P06)*%
X329524278Y-102024279D03*
%TO.N,Net-(U1-IN)*%
X427250000Y-94000000D03*
X429525000Y-82500000D03*
X429500000Y-75775500D03*
X429750000Y-95750000D03*
%TO.N,DCBUS+*%
X387800000Y-174200000D03*
X400254810Y-173815063D03*
X360000000Y-115200000D03*
X386800000Y-171200000D03*
X386800000Y-185200000D03*
X363800000Y-181900000D03*
X387800000Y-132800000D03*
X365500000Y-188300000D03*
X386800000Y-114000000D03*
X366000000Y-243000000D03*
X387800000Y-165200000D03*
X387800000Y-188200000D03*
X386800000Y-108000000D03*
X386800000Y-155400000D03*
X387800000Y-149400000D03*
X387800000Y-210000000D03*
X400250000Y-135200000D03*
X386800000Y-168200000D03*
X387800000Y-155400000D03*
X387800000Y-191200000D03*
X387800000Y-213000000D03*
X400219786Y-213318628D03*
X387800000Y-108000000D03*
X387800000Y-204000000D03*
X386800000Y-129800000D03*
X386800000Y-174200000D03*
X387800000Y-168200000D03*
X386800000Y-126800000D03*
X387800000Y-129800000D03*
X387800000Y-207000000D03*
X387800000Y-114000000D03*
X387800000Y-152400000D03*
X387800000Y-185200000D03*
X386800000Y-204000000D03*
X386800000Y-165200000D03*
X387800000Y-146400000D03*
X386800000Y-152400000D03*
X386800000Y-191200000D03*
X387800000Y-171200000D03*
X386800000Y-194200000D03*
X363800000Y-181100000D03*
X365500000Y-189100000D03*
X387800000Y-194200000D03*
X360000000Y-116000000D03*
X365500000Y-187500000D03*
X386800000Y-132800000D03*
X386800000Y-135800000D03*
X387800000Y-111000000D03*
X386800000Y-188200000D03*
X360000000Y-114400000D03*
X386800000Y-117000000D03*
X386800000Y-210000000D03*
X363800000Y-180300000D03*
X386800000Y-111000000D03*
X387800000Y-126800000D03*
X387800000Y-117000000D03*
X386800000Y-207000000D03*
X386800000Y-146400000D03*
X386800000Y-213000000D03*
X386800000Y-149400000D03*
X387800000Y-135800000D03*
%TO.N,DCBUS-*%
X365500000Y-191800000D03*
X381600000Y-114000000D03*
X381600000Y-191200000D03*
X380600000Y-191200000D03*
X392000000Y-164700000D03*
X380600000Y-126800000D03*
X380600000Y-108000000D03*
X380600000Y-117000000D03*
X381600000Y-152400000D03*
X381600000Y-111000000D03*
X381600000Y-135800000D03*
X393600000Y-203400000D03*
X380600000Y-111000000D03*
X381600000Y-210000000D03*
X381600000Y-213000000D03*
X381600000Y-146400000D03*
X360000000Y-117900000D03*
X380600000Y-207000000D03*
X393600000Y-126000000D03*
X381600000Y-171200000D03*
X381600000Y-129800000D03*
X380600000Y-185200000D03*
X380600000Y-213000000D03*
X381600000Y-168200000D03*
X363800000Y-183800000D03*
X392000000Y-126000000D03*
X380600000Y-171200000D03*
X380600000Y-152400000D03*
X381600000Y-185200000D03*
X381600000Y-126800000D03*
X381600000Y-188200000D03*
X392800000Y-164700000D03*
X381600000Y-207000000D03*
X380600000Y-210000000D03*
X380600000Y-132800000D03*
X380600000Y-146400000D03*
X365500000Y-191000000D03*
X365500000Y-192600000D03*
X392800000Y-126000000D03*
X360000000Y-119500000D03*
X363800000Y-184600000D03*
X380600000Y-135800000D03*
X381600000Y-165200000D03*
X380600000Y-174200000D03*
X380600000Y-165200000D03*
X392800000Y-203400000D03*
X380600000Y-114000000D03*
X381600000Y-194200000D03*
X381600000Y-132800000D03*
X381600000Y-108000000D03*
X380600000Y-168200000D03*
X360000000Y-118700000D03*
X380600000Y-155400000D03*
X381600000Y-174200000D03*
X392000000Y-203400000D03*
X380600000Y-149400000D03*
X380600000Y-129800000D03*
X381600000Y-204000000D03*
X363800000Y-185400000D03*
X381600000Y-155400000D03*
X381600000Y-149400000D03*
X381600000Y-117000000D03*
X393600000Y-164700000D03*
X380600000Y-194200000D03*
X380600000Y-188200000D03*
X380600000Y-204000000D03*
%TO.N,Net-(D35-A)*%
X412650000Y-120350000D03*
X412300000Y-136000000D03*
X412350000Y-129550000D03*
%TO.N,VBUS +15V*%
X404300000Y-215500000D03*
X401600000Y-176000000D03*
X401600000Y-137600000D03*
X388800000Y-101400000D03*
%TO.N,Net-(FB11-Pad1)*%
X318000000Y-61250000D03*
X318000000Y-62250000D03*
%TD*%
D33*
%TO.N,GND2*%
X413730000Y-57250000D02*
X413230000Y-56750000D01*
X413230000Y-56750000D02*
X411250000Y-56750000D01*
%TO.N,+3.3V*%
X416270000Y-57250000D02*
X416520000Y-57500000D01*
X416520000Y-57500000D02*
X418750000Y-57500000D01*
D34*
%TO.N,U*%
X347200000Y-158700000D02*
X349700000Y-161200000D01*
X360800000Y-208400000D02*
X360800000Y-213600000D01*
X360800000Y-213600000D02*
X367400000Y-220200000D01*
X349700000Y-161200000D02*
X349700000Y-197300000D01*
X349700000Y-197300000D02*
X360800000Y-208400000D01*
D33*
%TO.N,UH*%
X428275500Y-101974500D02*
X429250000Y-101000000D01*
X428275500Y-102250000D02*
X428275500Y-101974500D01*
X429250000Y-101000000D02*
X432000500Y-101000000D01*
%TO.N,UL*%
X431224061Y-96775939D02*
X427500000Y-100500000D01*
%TO.N,U_DATA*%
X427500000Y-70000000D02*
X427500000Y-82863604D01*
X428227766Y-96272234D02*
X428227766Y-96115667D01*
X427050000Y-97450000D02*
X425750000Y-98750000D01*
X427050000Y-97450000D02*
X428227766Y-96272234D01*
X425250000Y-67750000D02*
X427500000Y-70000000D01*
D34*
%TO.N,V*%
X347300000Y-198300000D02*
X357800000Y-208800000D01*
X347300000Y-176500000D02*
X347300000Y-198300000D01*
X357800000Y-214400000D02*
X367400000Y-224000000D01*
X357800000Y-208800000D02*
X357800000Y-214400000D01*
D33*
%TO.N,WH*%
X430000000Y-174000000D02*
X429600000Y-174000000D01*
X436000000Y-150600000D02*
X436000000Y-137800000D01*
X428000000Y-175000000D02*
X422600000Y-180400000D01*
X429600000Y-174000000D02*
X428600000Y-175000000D01*
X432200000Y-154400000D02*
X436000000Y-150600000D01*
X432200000Y-134000000D02*
X432200000Y-133800000D01*
X428600000Y-175000000D02*
X428000000Y-175000000D01*
X422600000Y-180400000D02*
X422600000Y-191400000D01*
X436000000Y-137800000D02*
X432200000Y-134000000D01*
%TO.N,WL*%
X428400000Y-174000000D02*
X427800000Y-174000000D01*
X435400000Y-149600000D02*
X431400000Y-153600000D01*
X435400000Y-138800000D02*
X435400000Y-149600000D01*
X427800000Y-174000000D02*
X420200000Y-181600000D01*
X420200000Y-181600000D02*
X420200000Y-189000000D01*
X431445299Y-134632053D02*
X431445299Y-134845299D01*
X431445299Y-134845299D02*
X435400000Y-138800000D01*
%TO.N,W_DATA*%
X432250000Y-71750000D02*
X430250000Y-73750000D01*
X430600000Y-135600000D02*
X434800000Y-139800000D01*
X434800000Y-139800000D02*
X434800000Y-148600000D01*
X434800000Y-148600000D02*
X430600000Y-152800000D01*
X430250000Y-73750000D02*
X430250000Y-83250000D01*
%TO.N,VH*%
X423012653Y-152387347D02*
X423125000Y-152275000D01*
X433500000Y-99975402D02*
X433612701Y-99862701D01*
X423125000Y-152275000D02*
X423125000Y-140875000D01*
X423125000Y-140875000D02*
X433500000Y-130500000D01*
X433500000Y-130500000D02*
X433500000Y-99975402D01*
%TO.N,VL*%
X422400000Y-140800000D02*
X422400000Y-146200000D01*
X422400000Y-146200000D02*
X422400000Y-148600000D01*
X431250000Y-99000000D02*
X432725500Y-100475500D01*
X432725500Y-130474500D02*
X428000000Y-135200000D01*
X428000000Y-135200000D02*
X422400000Y-140800000D01*
X432725500Y-100475500D02*
X432725500Y-130474500D01*
%TO.N,V_DATA*%
X426775000Y-98975000D02*
X429000000Y-96750000D01*
X428250000Y-82000000D02*
X428250000Y-79500000D01*
X426775000Y-133725000D02*
X426775000Y-98975000D01*
X426750000Y-133750000D02*
X426775000Y-133725000D01*
%TO.N,RESET*%
X415927450Y-58177450D02*
X415927450Y-60278450D01*
X415000000Y-57250000D02*
X415927450Y-58177450D01*
X415927450Y-60278450D02*
X416000000Y-60351000D01*
%TO.N,HEATSINK_TEMP_1_ADC*%
X418500000Y-85015000D02*
X417000000Y-86515000D01*
X418500000Y-81250000D02*
X418500000Y-85015000D01*
%TO.N,UM_ADC*%
X438250000Y-103000000D02*
X437250000Y-104000000D01*
X425500000Y-76250000D02*
X425500000Y-76750000D01*
X425500000Y-76750000D02*
X423000000Y-79250000D01*
X423000000Y-79250000D02*
X423000000Y-82750000D01*
X438250000Y-98000000D02*
X438250000Y-103000000D01*
X423000000Y-82750000D02*
X438250000Y-98000000D01*
%TO.N,VM_ADC*%
X426500000Y-76750000D02*
X423750000Y-79500000D01*
X423750000Y-82500000D02*
X438800000Y-97550000D01*
X438800000Y-103950000D02*
X438000000Y-104750000D01*
X438800000Y-97550000D02*
X438800000Y-103950000D01*
X423750000Y-79500000D02*
X423750000Y-82500000D01*
X426500000Y-76250000D02*
X426500000Y-76750000D01*
%TO.N,WM_ADC*%
X437500000Y-102024598D02*
X437500000Y-98250000D01*
X437500000Y-98250000D02*
X422250000Y-83000000D01*
X422250000Y-83000000D02*
X422250000Y-79024311D01*
X422250000Y-79024311D02*
X424500000Y-76774311D01*
X436262299Y-103262299D02*
X437500000Y-102024598D01*
X424500000Y-76774311D02*
X424500000Y-76250000D01*
%TO.N,HEATSINK_TEMP_2_ADC*%
X417400000Y-81275000D02*
X416275000Y-82400000D01*
X411400000Y-84930000D02*
X413000000Y-86530000D01*
X411400000Y-83000000D02*
X411400000Y-84930000D01*
X416275000Y-82400000D02*
X412000000Y-82400000D01*
X412000000Y-82400000D02*
X411400000Y-83000000D01*
%TO.N,U_ADC*%
X422775000Y-75449198D02*
X423199695Y-75024503D01*
X435250000Y-100500000D02*
X435250000Y-99000000D01*
X423199695Y-75024503D02*
X423225497Y-75024503D01*
X420000000Y-78250000D02*
X422775000Y-75475000D01*
X422775000Y-75475000D02*
X422775000Y-75449198D01*
X420000000Y-83750000D02*
X420000000Y-78250000D01*
X435250000Y-99000000D02*
X420000000Y-83750000D01*
X423225497Y-75024503D02*
X423500000Y-74750000D01*
%TO.N,V_ADC*%
X422775000Y-76448701D02*
X423474198Y-75749503D01*
X435262299Y-101512299D02*
X435975000Y-100799598D01*
X420750000Y-83500000D02*
X420750000Y-78500000D01*
X422775000Y-76475000D02*
X422775000Y-76448701D01*
X423474198Y-75749503D02*
X423500000Y-75749503D01*
X435975000Y-98725000D02*
X420750000Y-83500000D01*
X435975000Y-100799598D02*
X435975000Y-98725000D01*
X420750000Y-78500000D02*
X422775000Y-76475000D01*
%TO.N,W_ADC*%
X436750000Y-98500000D02*
X421500000Y-83250000D01*
X421500000Y-78750000D02*
X423500000Y-76750000D01*
X436250000Y-102250000D02*
X436750000Y-101750000D01*
X436750000Y-101750000D02*
X436750000Y-98500000D01*
X423500000Y-76750000D02*
X423500000Y-76749006D01*
X421500000Y-83250000D02*
X421500000Y-78750000D01*
%TO.N,VBUS_ADC*%
X426775970Y-84525970D02*
X439375000Y-97125000D01*
X439375000Y-97125000D02*
X439375000Y-104875000D01*
X439375000Y-104875000D02*
X438750000Y-105500000D01*
X426775970Y-78902289D02*
X426775970Y-84525970D01*
%TO.N,BOARD_TEMP_1_ADC*%
X428725000Y-104225000D02*
X428725000Y-133675000D01*
X427550500Y-101524805D02*
X427550500Y-103050500D01*
X423000000Y-134400000D02*
X423000000Y-134000000D01*
X419250000Y-80974695D02*
X419250000Y-83776573D01*
X426162347Y-136237653D02*
X424837653Y-136237653D01*
X431949061Y-96475634D02*
X431949061Y-97126244D01*
X431949061Y-97126244D02*
X427550500Y-101524805D01*
X428725000Y-133675000D02*
X426162347Y-136237653D01*
X427550500Y-103050500D02*
X428725000Y-104225000D01*
X418525305Y-80250000D02*
X419250000Y-80974695D01*
X419250000Y-83776573D02*
X431949061Y-96475634D01*
X424837653Y-136237653D02*
X423000000Y-134400000D01*
X418500000Y-80250000D02*
X418525305Y-80250000D01*
D35*
%TO.N,VBUS -5V*%
X402750000Y-174850000D02*
X404062500Y-174850000D01*
X404000000Y-167750000D02*
X402750000Y-169000000D01*
X404000000Y-158750000D02*
X404000000Y-167750000D01*
X404614976Y-213503565D02*
X403200000Y-212088589D01*
X403750000Y-128750000D02*
X403750000Y-120500000D01*
X391250000Y-102250000D02*
X386600000Y-97600000D01*
X403000000Y-119750000D02*
X403000000Y-116250000D01*
X402500000Y-130000000D02*
X403750000Y-128750000D01*
X391250000Y-104500000D02*
X391250000Y-102250000D01*
X399404810Y-189904810D02*
X399404810Y-179995190D01*
X403750000Y-120500000D02*
X403000000Y-119750000D01*
X404600000Y-135400000D02*
X404600000Y-136150000D01*
X403000000Y-116250000D02*
X391250000Y-104500000D01*
X386600000Y-97600000D02*
X386000000Y-97600000D01*
X403200000Y-212088589D02*
X403200000Y-193700000D01*
X403200000Y-193700000D02*
X399404810Y-189904810D01*
X402500000Y-133300000D02*
X402500000Y-130000000D01*
X403200000Y-154950000D02*
X403200000Y-157950000D01*
X400000000Y-151750000D02*
X403200000Y-154950000D01*
X404600000Y-136150000D02*
X400000000Y-140750000D01*
X403200000Y-157950000D02*
X404000000Y-158750000D01*
X399404810Y-179995190D02*
X402750000Y-176650000D01*
X400000000Y-140750000D02*
X400000000Y-151750000D01*
X404600000Y-135400000D02*
X402500000Y-133300000D01*
X402750000Y-169000000D02*
X402750000Y-174850000D01*
X402750000Y-176650000D02*
X402750000Y-174850000D01*
X404062500Y-174850000D02*
X404600000Y-174312500D01*
D36*
%TO.N,RX-*%
X333800000Y-61249925D02*
X333800000Y-61200000D01*
X328100000Y-59400000D02*
X328340000Y-59640000D01*
X329390000Y-62905000D02*
X332144925Y-62905000D01*
X332144925Y-62905000D02*
X333800000Y-61249925D01*
X329390000Y-62810000D02*
X329390000Y-62905000D01*
X328340000Y-61760000D02*
X329390000Y-62810000D01*
X328340000Y-59640000D02*
X328340000Y-61760000D01*
%TO.N,TX+*%
X331930000Y-61635000D02*
X333600000Y-59965000D01*
D33*
X338000000Y-56250000D02*
X338085000Y-56335000D01*
D36*
X333600000Y-59965000D02*
X333600000Y-57000000D01*
D33*
X338085000Y-56335000D02*
X338085000Y-62665000D01*
X338085000Y-62665000D02*
X335750000Y-65000000D01*
%TO.N,TX_EN_ISO*%
X349737701Y-59012299D02*
X349737701Y-59737701D01*
X349737701Y-59737701D02*
X353000000Y-63000000D01*
X362836701Y-63500000D02*
X375500000Y-63500000D01*
X362336701Y-63000000D02*
X362836701Y-63500000D01*
X353000000Y-63000000D02*
X362336701Y-63000000D01*
X375500000Y-63500000D02*
X375750000Y-63750000D01*
%TO.N,Net-(D17-K)*%
X412419786Y-201718628D02*
X412419786Y-201818628D01*
X408900000Y-185800000D02*
X408900000Y-186900000D01*
X414800000Y-196400000D02*
X414800000Y-199338414D01*
X408900000Y-186900000D02*
X414800000Y-196400000D01*
X414800000Y-199338414D02*
X412419786Y-201718628D01*
%TO.N,RX*%
X369000000Y-75250000D02*
X369250000Y-75500000D01*
X424999503Y-70749503D02*
X425250000Y-70749503D01*
X410650000Y-66750000D02*
X421000000Y-66750000D01*
X431395739Y-69520740D02*
X431400000Y-69525001D01*
X401900000Y-75500000D02*
X410650000Y-66750000D01*
X421000000Y-66750000D02*
X424999503Y-70749503D01*
X369250000Y-75500000D02*
X401900000Y-75500000D01*
X431395739Y-67411927D02*
X431395739Y-69520740D01*
%TO.N,TX*%
X421625000Y-65825000D02*
X410775000Y-65825000D01*
X401600000Y-75000000D02*
X370750000Y-75000000D01*
X410775000Y-65825000D02*
X401600000Y-75000000D01*
X426300000Y-70500000D02*
X421625000Y-65825000D01*
X370750000Y-75000000D02*
X370250000Y-74500000D01*
%TO.N,TACH_1*%
X402800000Y-77000000D02*
X381650000Y-77000000D01*
X375199500Y-77449500D02*
X374500000Y-76750000D01*
X381200500Y-77449500D02*
X375199500Y-77449500D01*
X381650000Y-77000000D02*
X381200500Y-77449500D01*
X420250000Y-69250000D02*
X410550000Y-69250000D01*
X424783021Y-73783021D02*
X420250000Y-69250000D01*
X410550000Y-69250000D02*
X402800000Y-77000000D01*
X425234699Y-73783021D02*
X424783021Y-73783021D01*
%TO.N,TX_EN*%
X402200000Y-76000000D02*
X410450000Y-67750000D01*
X424750000Y-71750000D02*
X425250000Y-71750000D01*
X410450000Y-67750000D02*
X420750000Y-67750000D01*
X375481000Y-76224500D02*
X375705500Y-76000000D01*
X375705500Y-76000000D02*
X402200000Y-76000000D01*
X420750000Y-67750000D02*
X424750000Y-71750000D01*
%TO.N,TACH_2*%
X410500000Y-68500000D02*
X420500000Y-68500000D01*
X380725000Y-76724500D02*
X380949500Y-76500000D01*
X402500000Y-76500000D02*
X410500000Y-68500000D01*
X420500000Y-68500000D02*
X424762299Y-72762299D01*
X424762299Y-72762299D02*
X425237701Y-72762299D01*
X380949500Y-76500000D02*
X402500000Y-76500000D01*
%TO.N,FAN_PWM*%
X397000000Y-73075000D02*
X401125000Y-73075000D01*
X409600000Y-64600000D02*
X409600000Y-62200000D01*
X401125000Y-73075000D02*
X409600000Y-64600000D01*
X409600000Y-62200000D02*
X410724000Y-61076000D01*
X410724000Y-61076000D02*
X427250000Y-61076000D01*
%TO.N,FAN_PWM_ISO*%
X368000000Y-61500000D02*
X364750000Y-58250000D01*
X380000000Y-61500000D02*
X368000000Y-61500000D01*
X381750000Y-63250000D02*
X380000000Y-61500000D01*
X364750000Y-58250000D02*
X364500000Y-58250000D01*
%TO.N,TACH_2_ISO*%
X380500000Y-63250000D02*
X380225000Y-62975000D01*
X368125000Y-62975000D02*
X359750000Y-54600000D01*
X380225000Y-62975000D02*
X368125000Y-62975000D01*
%TO.N,SWDIO*%
X416270000Y-55980000D02*
X416505300Y-55744700D01*
X419944700Y-55744700D02*
X422975000Y-58775000D01*
X416505300Y-55744700D02*
X419944700Y-55744700D01*
%TO.N,SWCLK*%
X424170000Y-55000000D02*
X423035000Y-56135000D01*
X427700000Y-55000000D02*
X424170000Y-55000000D01*
X415977550Y-55002450D02*
X415000000Y-55980000D01*
X415977550Y-53000000D02*
X415977550Y-55002450D01*
X428050000Y-54650000D02*
X427700000Y-55000000D01*
D36*
%TO.N,SWO*%
X415487600Y-52500000D02*
X415687600Y-52300000D01*
X416267500Y-52300000D02*
X416467500Y-52500000D01*
X413730000Y-55980000D02*
X413730000Y-55673565D01*
X413730000Y-55673565D02*
X412827550Y-54771115D01*
X415687600Y-52300000D02*
X416267500Y-52300000D01*
X413765717Y-52500000D02*
X415487600Y-52500000D01*
X421780000Y-52500000D02*
X422975000Y-53695000D01*
X416467500Y-52500000D02*
X421780000Y-52500000D01*
X412827550Y-54771115D02*
X412827550Y-53438167D01*
X412827550Y-53438167D02*
X413765717Y-52500000D01*
D35*
%TO.N,-5V*%
X410200000Y-122200000D02*
X410200000Y-136400000D01*
X405430603Y-146891352D02*
X406400000Y-146891352D01*
X409069786Y-144221566D02*
X406400000Y-146891352D01*
X410200000Y-136400000D02*
X409069786Y-137530214D01*
X408000000Y-184300000D02*
X406755083Y-185544917D01*
X406400000Y-153400000D02*
X408000000Y-155000000D01*
X405430603Y-146891352D02*
X403753120Y-146891352D01*
X406755083Y-185544917D02*
X403718096Y-185544917D01*
X408000000Y-155000000D02*
X408000000Y-184300000D01*
X397622021Y-100377979D02*
X398000000Y-100000000D01*
X406400000Y-146891352D02*
X406400000Y-153400000D01*
X407100000Y-111643415D02*
X407100000Y-119100000D01*
X407100000Y-119100000D02*
X410200000Y-122200000D01*
X397622021Y-102250000D02*
X397622021Y-100377979D01*
X409069786Y-137530214D02*
X409069786Y-144221566D01*
X403832874Y-108376289D02*
X407100000Y-111643415D01*
X403748310Y-108376289D02*
X403832874Y-108376289D01*
X403748310Y-108376289D02*
X397622021Y-102250000D01*
D33*
%TO.N,Net-(D17-A)*%
X405000000Y-181800000D02*
X406319786Y-183119786D01*
X406319786Y-183119786D02*
X406319786Y-183418628D01*
%TO.N,BOOT*%
X428000000Y-67500000D02*
X428000000Y-64250000D01*
X428000000Y-64250000D02*
X429000000Y-63250000D01*
%TO.N,STO CH1*%
X424000000Y-174750000D02*
X424000000Y-176800000D01*
X401640229Y-78050000D02*
X400445229Y-79245000D01*
X421400000Y-139600000D02*
X421400000Y-147750000D01*
X425500000Y-131900000D02*
X425500000Y-135500000D01*
X425500000Y-135500000D02*
X425512653Y-135512653D01*
X423974694Y-137025306D02*
X421400000Y-139600000D01*
X427500000Y-171250000D02*
X424000000Y-174750000D01*
X400445229Y-79245000D02*
X371005000Y-79245000D01*
X371005000Y-79245000D02*
X368250000Y-82000000D01*
X408474500Y-78724500D02*
X409500000Y-79750000D01*
X409500000Y-86025305D02*
X424236994Y-100762299D01*
X417693345Y-183106655D02*
X417693345Y-186493345D01*
X421400000Y-147750000D02*
X421400000Y-152600000D01*
X427500000Y-158700000D02*
X427500000Y-171250000D01*
X425500000Y-117250000D02*
X425750000Y-117500000D01*
X406075500Y-78050000D02*
X401640229Y-78050000D01*
X424000000Y-137025306D02*
X423974694Y-137025306D01*
X425600000Y-131800000D02*
X425500000Y-131900000D01*
X344500000Y-94750000D02*
X334250000Y-94750000D01*
X406750000Y-78724500D02*
X406075500Y-78050000D01*
X421400000Y-152600000D02*
X427500000Y-158700000D01*
X406750000Y-78724500D02*
X408474500Y-78724500D01*
X425500000Y-109500000D02*
X425500000Y-117250000D01*
X409500000Y-79750000D02*
X409500000Y-86025305D01*
X424000000Y-176800000D02*
X417693345Y-183106655D01*
X424236994Y-100762299D02*
X424762299Y-100762299D01*
%TO.N,STO EN*%
X409000000Y-77600000D02*
X401453833Y-77600000D01*
X400258833Y-78795000D02*
X369545000Y-78795000D01*
X409200000Y-77400000D02*
X409000000Y-77600000D01*
X350000000Y-95250000D02*
X354750000Y-95250000D01*
X430525000Y-62525000D02*
X430750000Y-62750000D01*
X369545000Y-78795000D02*
X367500000Y-76750000D01*
X401453833Y-77600000D02*
X400258833Y-78795000D01*
X412200000Y-62525000D02*
X430525000Y-62525000D01*
%TO.N,STO CH2*%
X400631625Y-79695000D02*
X372055000Y-79695000D01*
X408500000Y-80000000D02*
X407949500Y-79449500D01*
X405600195Y-78600000D02*
X401726625Y-78600000D01*
X406449695Y-79449500D02*
X405600195Y-78600000D01*
X401726625Y-78600000D02*
X400631625Y-79695000D01*
X407949500Y-79449500D02*
X406449695Y-79449500D01*
X438525500Y-72750000D02*
X438750000Y-72750000D01*
X372055000Y-79695000D02*
X369000000Y-82750000D01*
X435025500Y-76250000D02*
X438525500Y-72750000D01*
%TO.N,STO CH1 MCU FBK*%
X411250000Y-61800500D02*
X430000000Y-61800500D01*
D35*
%TO.N,STO FBK OUT*%
X331250000Y-75750000D02*
X333000000Y-74000000D01*
X333000000Y-74000000D02*
X338500000Y-74000000D01*
X329000000Y-78000000D02*
X324975000Y-78000000D01*
X331250000Y-75750000D02*
X329000000Y-78000000D01*
D34*
%TO.N,UM*%
X366400000Y-233600000D02*
X367800000Y-235000000D01*
X345400000Y-233600000D02*
X366400000Y-233600000D01*
X327075000Y-215275000D02*
X345400000Y-233600000D01*
X367800000Y-235000000D02*
X367800000Y-235400000D01*
X327075000Y-210100000D02*
X327075000Y-215275000D01*
%TO.N,VM*%
X321575000Y-210100000D02*
X321575000Y-215575000D01*
X321575000Y-215575000D02*
X343400000Y-237400000D01*
X365400000Y-237400000D02*
X366000000Y-237400000D01*
X343400000Y-237400000D02*
X365400000Y-237400000D01*
X366000000Y-237400000D02*
X367800000Y-239200000D01*
%TO.N,WM*%
X367800000Y-230800000D02*
X367800000Y-231600000D01*
X327075000Y-205900000D02*
X329700000Y-205900000D01*
X331000000Y-207200000D02*
X331000000Y-213400000D01*
X329700000Y-205900000D02*
X331000000Y-207200000D01*
X347400000Y-229800000D02*
X366800000Y-229800000D01*
X366800000Y-229800000D02*
X367800000Y-230800000D01*
X331000000Y-213400000D02*
X347400000Y-229800000D01*
D33*
%TO.N,W_CLOCK*%
X429800000Y-136600000D02*
X430000000Y-136600000D01*
X430000000Y-136600000D02*
X434200000Y-140800000D01*
X434200000Y-147600000D02*
X429800000Y-152000000D01*
X434200000Y-140800000D02*
X434200000Y-147600000D01*
D35*
%TO.N,STO CH1 FIELD*%
X320775000Y-73225000D02*
X322500000Y-71500000D01*
X343750000Y-71500000D02*
X344500000Y-72250000D01*
X347750000Y-75500000D02*
X354250000Y-75500000D01*
X320775000Y-73800000D02*
X320775000Y-73225000D01*
X344500000Y-72250000D02*
X347750000Y-75500000D01*
X322500000Y-71500000D02*
X343750000Y-71500000D01*
%TO.N,STO CH2 FIELD*%
X320775000Y-78000000D02*
X322825000Y-80050000D01*
X333200000Y-80050000D02*
X337750000Y-75500000D01*
X337750000Y-75500000D02*
X343000000Y-75500000D01*
X322825000Y-80050000D02*
X333200000Y-80050000D01*
D33*
%TO.N,SDA*%
X398800000Y-73800000D02*
X398400000Y-73800000D01*
X398400000Y-73800000D02*
X396400000Y-73800000D01*
X417800000Y-63800000D02*
X417200000Y-63200000D01*
X414800000Y-64600000D02*
X410400000Y-64600000D01*
X341500000Y-99500000D02*
X338250000Y-99500000D01*
X416200000Y-63200000D02*
X414800000Y-64600000D01*
X426524999Y-63789037D02*
X425865770Y-63789037D01*
X396400000Y-73800000D02*
X396150000Y-73550000D01*
X417975000Y-63975000D02*
X417800000Y-63800000D01*
X410400000Y-64600000D02*
X410200000Y-64800000D01*
X338250000Y-99500000D02*
X335250000Y-96500000D01*
X425865770Y-63789037D02*
X425679807Y-63975000D01*
X394850000Y-73550000D02*
X394200000Y-74200000D01*
X416600000Y-63200000D02*
X416200000Y-63200000D01*
X401200000Y-73800000D02*
X398800000Y-73800000D01*
X417200000Y-63200000D02*
X416600000Y-63200000D01*
X396150000Y-73550000D02*
X394850000Y-73550000D01*
X421475000Y-63975000D02*
X417975000Y-63975000D01*
X410200000Y-64800000D02*
X401200000Y-73800000D01*
X425679807Y-63975000D02*
X421475000Y-63975000D01*
%TO.N,SDL*%
X426025500Y-64654612D02*
X421095388Y-64654612D01*
X341500000Y-101000000D02*
X338250000Y-101000000D01*
X395525000Y-74400000D02*
X395400000Y-74275000D01*
X410600000Y-65200000D02*
X401400000Y-74400000D01*
X401400000Y-74400000D02*
X395525000Y-74400000D01*
X421095388Y-64654612D02*
X420550000Y-65200000D01*
X338250000Y-101000000D02*
X335250000Y-98000000D01*
X420550000Y-65200000D02*
X410600000Y-65200000D01*
D35*
%TO.N,+15V_GATE*%
X405000000Y-153800000D02*
X406000000Y-154800000D01*
X392000000Y-97830061D02*
X403537759Y-109367820D01*
X406000000Y-154800000D02*
X406000000Y-170200000D01*
X408600000Y-136000000D02*
X407600000Y-137000000D01*
X408600000Y-131500000D02*
X408600000Y-136000000D01*
X403537759Y-109367820D02*
X403622323Y-109367820D01*
X406000000Y-131500000D02*
X408600000Y-131500000D01*
X405000000Y-149255750D02*
X405000000Y-153800000D01*
X407600000Y-137700000D02*
X402903120Y-142396880D01*
X404614976Y-208616065D02*
X408600000Y-204631041D01*
X403507545Y-186536448D02*
X403592109Y-186536448D01*
X408600000Y-204631041D02*
X408600000Y-199900924D01*
X405900000Y-111645497D02*
X403622323Y-109367820D01*
X406000000Y-178000000D02*
X402868096Y-181131904D01*
X408600000Y-122200000D02*
X405900000Y-119500000D01*
X402903120Y-142396880D02*
X402903120Y-147243434D01*
X402903120Y-147243434D02*
X403542569Y-147882883D01*
X408600000Y-131500000D02*
X408600000Y-122200000D01*
X403542569Y-147882883D02*
X403627133Y-147882883D01*
X406800000Y-189744339D02*
X403592109Y-186536448D01*
X402868096Y-185896999D02*
X403507545Y-186536448D01*
X405900000Y-119500000D02*
X405900000Y-111645497D01*
X392000000Y-96025000D02*
X392000000Y-97830061D01*
X407600000Y-137000000D02*
X407600000Y-137700000D01*
X402868096Y-181131904D02*
X402868096Y-185896999D01*
X403627133Y-147882883D02*
X405000000Y-149255750D01*
X406800000Y-198100924D02*
X406800000Y-189744339D01*
X408600000Y-199900924D02*
X406800000Y-198100924D01*
X406000000Y-170200000D02*
X406000000Y-178000000D01*
D37*
%TO.N,Net-(D10-K)*%
X412300000Y-168300000D02*
X412300000Y-174900000D01*
D33*
%TO.N,Net-(D13-A)*%
X406350000Y-106250000D02*
X406350000Y-105750000D01*
X406350000Y-105750000D02*
X405201305Y-104601305D01*
%TO.N,Net-(D13-K)*%
X414900000Y-119300000D02*
X413600000Y-120600000D01*
X414900000Y-119300000D02*
X408800000Y-109600000D01*
X408800000Y-109600000D02*
X408800000Y-108700000D01*
X413600000Y-120600000D02*
X413600000Y-122000000D01*
%TO.N,Net-(D14-A)*%
X404800000Y-143250000D02*
X404977312Y-143250000D01*
X404977312Y-143250000D02*
X406368401Y-144641089D01*
%TO.N,Net-(D14-K)*%
X408900000Y-146900000D02*
X408900000Y-148300000D01*
X414900000Y-157900000D02*
X414900000Y-159300000D01*
X408900000Y-148300000D02*
X414900000Y-157900000D01*
X414900000Y-159300000D02*
X413200000Y-161000000D01*
D34*
%TO.N,Net-(D15-K)*%
X412400000Y-214000000D02*
X412400000Y-208250000D01*
X412400000Y-208250000D02*
X412350000Y-208200000D01*
D33*
%TO.N,Net-(U23-P07)*%
X326020000Y-103000000D02*
X329250000Y-103000000D01*
X324570000Y-101550000D02*
X326020000Y-103000000D01*
%TO.N,Net-(U23-P04)*%
X326430000Y-93930000D02*
X332750000Y-100250000D01*
X324570000Y-93930000D02*
X326430000Y-93930000D01*
%TO.N,Net-(U23-P05)*%
X332560395Y-101390921D02*
X332419474Y-101250000D01*
X329350000Y-101250000D02*
X324570000Y-96470000D01*
X332419474Y-101250000D02*
X329350000Y-101250000D01*
%TO.N,Net-(U23-P06)*%
X324570000Y-99010000D02*
X327584279Y-102024279D01*
X327584279Y-102024279D02*
X329524278Y-102024279D01*
%TO.N,Net-(U1-IN)*%
X429500000Y-82475000D02*
X429525000Y-82500000D01*
X429500000Y-75775500D02*
X429500000Y-82475000D01*
X429750000Y-95750000D02*
X428000000Y-94000000D01*
X428000000Y-94000000D02*
X427250000Y-94000000D01*
D37*
%TO.N,Net-(D35-A)*%
X412300000Y-136000000D02*
X412300000Y-129600000D01*
X412300000Y-129600000D02*
X412350000Y-129550000D01*
%TO.N,VBUS +15V*%
X390000000Y-102600000D02*
X388800000Y-101400000D01*
X403100000Y-215400000D02*
X399400000Y-215400000D01*
X390000000Y-137600000D02*
X390000000Y-106200000D01*
X390000000Y-176000000D02*
X390000000Y-143600000D01*
X390000000Y-206000000D02*
X390000000Y-176000000D01*
X401600000Y-137600000D02*
X390000000Y-137600000D01*
X401600000Y-176000000D02*
X390000000Y-176000000D01*
X403100000Y-215400000D02*
X404200000Y-215400000D01*
X390000000Y-106200000D02*
X390000000Y-102600000D01*
X390000000Y-143600000D02*
X390000000Y-137600000D01*
X399400000Y-215400000D02*
X390000000Y-206000000D01*
X404200000Y-215400000D02*
X404300000Y-215500000D01*
D34*
%TO.N,Net-(FB11-Pad1)*%
X327000000Y-62001000D02*
X327250000Y-62251000D01*
X323666660Y-66895000D02*
X322145000Y-66895000D01*
X318000000Y-62750000D02*
X318000000Y-62250000D01*
X325555000Y-56555000D02*
X327250000Y-58250000D01*
X327250000Y-63305000D02*
X329390000Y-65445000D01*
X327250000Y-58250000D02*
X327675000Y-57825000D01*
X325326000Y-65235660D02*
X323666660Y-66895000D01*
X327000000Y-58500000D02*
X327000000Y-62001000D01*
X325326000Y-56555000D02*
X325555000Y-56555000D01*
X322145000Y-66895000D02*
X318000000Y-62750000D01*
X327675000Y-57825000D02*
X329390000Y-57825000D01*
X318000000Y-62250000D02*
X318000000Y-61250000D01*
X327250000Y-62251000D02*
X325326000Y-64175000D01*
X327250000Y-58250000D02*
X327000000Y-58500000D01*
X325326000Y-64175000D02*
X325326000Y-65235660D01*
X327250000Y-62251000D02*
X327250000Y-63305000D01*
%TD*%
%TA.AperFunction,Conductor*%
%TO.N,GND*%
G36*
X446106920Y-50700017D02*
G01*
X446108406Y-50700041D01*
X446255928Y-50702470D01*
X446270045Y-50703511D01*
X446566546Y-50742555D01*
X446582452Y-50745720D01*
X446870317Y-50822861D01*
X446885654Y-50828067D01*
X447160991Y-50942121D01*
X447175534Y-50949293D01*
X447433628Y-51098306D01*
X447447114Y-51107318D01*
X447683535Y-51288733D01*
X447695729Y-51299426D01*
X447906465Y-51510160D01*
X447917159Y-51522355D01*
X448098576Y-51758777D01*
X448107587Y-51772263D01*
X448256599Y-52030352D01*
X448263773Y-52044898D01*
X448377823Y-52320222D01*
X448383037Y-52335580D01*
X448460177Y-52623436D01*
X448463342Y-52639343D01*
X448502385Y-52935823D01*
X448503429Y-52949982D01*
X448505870Y-53098962D01*
X448505887Y-53100995D01*
X448502944Y-248701954D01*
X448502927Y-248703982D01*
X448500488Y-248852966D01*
X448499444Y-248867123D01*
X448460407Y-249163605D01*
X448457242Y-249179513D01*
X448380109Y-249467364D01*
X448374896Y-249482723D01*
X448260843Y-249758063D01*
X448253669Y-249772609D01*
X448104662Y-250030695D01*
X448095650Y-250044182D01*
X447914229Y-250280612D01*
X447903535Y-250292806D01*
X447692806Y-250503535D01*
X447680612Y-250514229D01*
X447444182Y-250695650D01*
X447430695Y-250704662D01*
X447172609Y-250853669D01*
X447158063Y-250860843D01*
X446882723Y-250974896D01*
X446867364Y-250980109D01*
X446579513Y-251057242D01*
X446563605Y-251060407D01*
X446267123Y-251099444D01*
X446252966Y-251100488D01*
X446111553Y-251102803D01*
X446103981Y-251102927D01*
X446101954Y-251102944D01*
X312698046Y-251102944D01*
X312696018Y-251102927D01*
X312688160Y-251102798D01*
X312547033Y-251100488D01*
X312532876Y-251099444D01*
X312236394Y-251060407D01*
X312220486Y-251057242D01*
X311932635Y-250980109D01*
X311917276Y-250974896D01*
X311641936Y-250860843D01*
X311627390Y-250853669D01*
X311369304Y-250704662D01*
X311355817Y-250695650D01*
X311119387Y-250514229D01*
X311107193Y-250503535D01*
X310896464Y-250292806D01*
X310885770Y-250280612D01*
X310704345Y-250044176D01*
X310695341Y-250030701D01*
X310546329Y-249772607D01*
X310539156Y-249758063D01*
X310425100Y-249482716D01*
X310419892Y-249467372D01*
X310342756Y-249179508D01*
X310339592Y-249163605D01*
X310300555Y-248867123D01*
X310299511Y-248852974D01*
X310297072Y-248703982D01*
X310297056Y-248701952D01*
X310297667Y-208114741D01*
X312524500Y-208114741D01*
X312546411Y-208281162D01*
X312554452Y-208342238D01*
X312579783Y-208436776D01*
X312613842Y-208563887D01*
X312701650Y-208775876D01*
X312701657Y-208775890D01*
X312816392Y-208974617D01*
X312956081Y-209156661D01*
X312956089Y-209156670D01*
X313118330Y-209318911D01*
X313118338Y-209318918D01*
X313118339Y-209318919D01*
X313129016Y-209327112D01*
X313300382Y-209458607D01*
X313300385Y-209458608D01*
X313300388Y-209458611D01*
X313499112Y-209573344D01*
X313499117Y-209573346D01*
X313499123Y-209573349D01*
X313590480Y-209611190D01*
X313711113Y-209661158D01*
X313932762Y-209720548D01*
X314160266Y-209750500D01*
X314160273Y-209750500D01*
X314389727Y-209750500D01*
X314389734Y-209750500D01*
X314617238Y-209720548D01*
X314838887Y-209661158D01*
X315050888Y-209573344D01*
X315249612Y-209458611D01*
X315431661Y-209318919D01*
X315431665Y-209318914D01*
X315431670Y-209318911D01*
X315593911Y-209156670D01*
X315593914Y-209156665D01*
X315593919Y-209156661D01*
X315733611Y-208974612D01*
X315848344Y-208775888D01*
X315936158Y-208563887D01*
X315995548Y-208342238D01*
X316025500Y-208114734D01*
X316025500Y-207885266D01*
X315995548Y-207657762D01*
X315936158Y-207436113D01*
X315885316Y-207313369D01*
X315848349Y-207224123D01*
X315848346Y-207224117D01*
X315848344Y-207224112D01*
X315733611Y-207025388D01*
X315733608Y-207025385D01*
X315733607Y-207025382D01*
X315593918Y-206843338D01*
X315593911Y-206843330D01*
X315431670Y-206681089D01*
X315431661Y-206681081D01*
X315249617Y-206541392D01*
X315050890Y-206426657D01*
X315050876Y-206426650D01*
X314838887Y-206338842D01*
X314617238Y-206279452D01*
X314579215Y-206274446D01*
X314389741Y-206249500D01*
X314389734Y-206249500D01*
X314160266Y-206249500D01*
X314160258Y-206249500D01*
X313943715Y-206278009D01*
X313932762Y-206279452D01*
X313839076Y-206304554D01*
X313711112Y-206338842D01*
X313499123Y-206426650D01*
X313499109Y-206426657D01*
X313300382Y-206541392D01*
X313118338Y-206681081D01*
X312956081Y-206843338D01*
X312816392Y-207025382D01*
X312701657Y-207224109D01*
X312701650Y-207224123D01*
X312613842Y-207436112D01*
X312554453Y-207657759D01*
X312554451Y-207657770D01*
X312524500Y-207885258D01*
X312524500Y-208114741D01*
X310297667Y-208114741D01*
X310297694Y-206338842D01*
X310298073Y-181159741D01*
X313724500Y-181159741D01*
X313749446Y-181349215D01*
X313754452Y-181387238D01*
X313754453Y-181387240D01*
X313813842Y-181608887D01*
X313901650Y-181820876D01*
X313901657Y-181820890D01*
X314016392Y-182019617D01*
X314156081Y-182201661D01*
X314156089Y-182201670D01*
X314318330Y-182363911D01*
X314318338Y-182363918D01*
X314500382Y-182503607D01*
X314500385Y-182503608D01*
X314500388Y-182503611D01*
X314699112Y-182618344D01*
X314699117Y-182618346D01*
X314699123Y-182618349D01*
X314738060Y-182634477D01*
X314911113Y-182706158D01*
X315132762Y-182765548D01*
X315360266Y-182795500D01*
X315360273Y-182795500D01*
X315589727Y-182795500D01*
X315589734Y-182795500D01*
X315817238Y-182765548D01*
X316038887Y-182706158D01*
X316250888Y-182618344D01*
X316449612Y-182503611D01*
X316631661Y-182363919D01*
X316631665Y-182363914D01*
X316631670Y-182363911D01*
X316793911Y-182201670D01*
X316793914Y-182201665D01*
X316793919Y-182201661D01*
X316933611Y-182019612D01*
X317048344Y-181820888D01*
X317136158Y-181608887D01*
X317195548Y-181387238D01*
X317225500Y-181159734D01*
X317225500Y-180930266D01*
X317195548Y-180702762D01*
X317136158Y-180481113D01*
X317063648Y-180306058D01*
X317048349Y-180269123D01*
X317048346Y-180269117D01*
X317048344Y-180269112D01*
X316933611Y-180070388D01*
X316933608Y-180070385D01*
X316933607Y-180070382D01*
X316827204Y-179931716D01*
X316793919Y-179888339D01*
X316793918Y-179888338D01*
X316793911Y-179888330D01*
X316631670Y-179726089D01*
X316631661Y-179726081D01*
X316449617Y-179586392D01*
X316250890Y-179471657D01*
X316250876Y-179471650D01*
X316038887Y-179383842D01*
X315817238Y-179324452D01*
X315779215Y-179319446D01*
X315589741Y-179294500D01*
X315589734Y-179294500D01*
X315360266Y-179294500D01*
X315360258Y-179294500D01*
X315143715Y-179323009D01*
X315132762Y-179324452D01*
X315039076Y-179349554D01*
X314911112Y-179383842D01*
X314699123Y-179471650D01*
X314699109Y-179471657D01*
X314500382Y-179586392D01*
X314318338Y-179726081D01*
X314156081Y-179888338D01*
X314016392Y-180070382D01*
X313901657Y-180269109D01*
X313901650Y-180269123D01*
X313813842Y-180481112D01*
X313754453Y-180702759D01*
X313754451Y-180702770D01*
X313724500Y-180930258D01*
X313724500Y-181159741D01*
X310298073Y-181159741D01*
X310298330Y-164059741D01*
X313724500Y-164059741D01*
X313738725Y-164167784D01*
X313754452Y-164287238D01*
X313802234Y-164465563D01*
X313813842Y-164508887D01*
X313901650Y-164720876D01*
X313901657Y-164720890D01*
X314016392Y-164919617D01*
X314156081Y-165101661D01*
X314156089Y-165101670D01*
X314318330Y-165263911D01*
X314318338Y-165263918D01*
X314500382Y-165403607D01*
X314500385Y-165403608D01*
X314500388Y-165403611D01*
X314699112Y-165518344D01*
X314699117Y-165518346D01*
X314699123Y-165518349D01*
X314790480Y-165556190D01*
X314911113Y-165606158D01*
X315132762Y-165665548D01*
X315360266Y-165695500D01*
X315360273Y-165695500D01*
X315589727Y-165695500D01*
X315589734Y-165695500D01*
X315817238Y-165665548D01*
X316038887Y-165606158D01*
X316250888Y-165518344D01*
X316449612Y-165403611D01*
X316631661Y-165263919D01*
X316631665Y-165263914D01*
X316631670Y-165263911D01*
X316793911Y-165101670D01*
X316793914Y-165101665D01*
X316793919Y-165101661D01*
X316933611Y-164919612D01*
X317048344Y-164720888D01*
X317136158Y-164508887D01*
X317195548Y-164287238D01*
X317225500Y-164059734D01*
X317225500Y-163830266D01*
X317195548Y-163602762D01*
X317136158Y-163381113D01*
X317048344Y-163169112D01*
X316933611Y-162970388D01*
X316933608Y-162970385D01*
X316933607Y-162970382D01*
X316793918Y-162788338D01*
X316793911Y-162788330D01*
X316631670Y-162626089D01*
X316631661Y-162626081D01*
X316449617Y-162486392D01*
X316250890Y-162371657D01*
X316250876Y-162371650D01*
X316038887Y-162283842D01*
X316022234Y-162279380D01*
X315817238Y-162224452D01*
X315779215Y-162219446D01*
X315589741Y-162194500D01*
X315589734Y-162194500D01*
X315360266Y-162194500D01*
X315360258Y-162194500D01*
X315143715Y-162223009D01*
X315132762Y-162224452D01*
X315039076Y-162249554D01*
X314911112Y-162283842D01*
X314699123Y-162371650D01*
X314699109Y-162371657D01*
X314500382Y-162486392D01*
X314318338Y-162626081D01*
X314156081Y-162788338D01*
X314016392Y-162970382D01*
X313901657Y-163169109D01*
X313901650Y-163169123D01*
X313813842Y-163381112D01*
X313754453Y-163602759D01*
X313754451Y-163602770D01*
X313724500Y-163830258D01*
X313724500Y-164059741D01*
X310298330Y-164059741D01*
X310298638Y-143614741D01*
X313724500Y-143614741D01*
X313738513Y-143721172D01*
X313754452Y-143842238D01*
X313800638Y-144014609D01*
X313813842Y-144063887D01*
X313901650Y-144275876D01*
X313901657Y-144275890D01*
X314016392Y-144474617D01*
X314156081Y-144656661D01*
X314156089Y-144656670D01*
X314318330Y-144818911D01*
X314318338Y-144818918D01*
X314318339Y-144818919D01*
X314361684Y-144852179D01*
X314500382Y-144958607D01*
X314500385Y-144958608D01*
X314500388Y-144958611D01*
X314699112Y-145073344D01*
X314699117Y-145073346D01*
X314699123Y-145073349D01*
X314763465Y-145100000D01*
X314911113Y-145161158D01*
X315132762Y-145220548D01*
X315360266Y-145250500D01*
X315360273Y-145250500D01*
X315589727Y-145250500D01*
X315589734Y-145250500D01*
X315817238Y-145220548D01*
X316038887Y-145161158D01*
X316250888Y-145073344D01*
X316449612Y-144958611D01*
X316631661Y-144818919D01*
X316631665Y-144818914D01*
X316631670Y-144818911D01*
X316793911Y-144656670D01*
X316793914Y-144656665D01*
X316793919Y-144656661D01*
X316933611Y-144474612D01*
X317048344Y-144275888D01*
X317136158Y-144063887D01*
X317195548Y-143842238D01*
X317225500Y-143614734D01*
X317225500Y-143385266D01*
X317195548Y-143157762D01*
X317136158Y-142936113D01*
X317048344Y-142724112D01*
X316933611Y-142525388D01*
X316933608Y-142525385D01*
X316933607Y-142525382D01*
X316828846Y-142388856D01*
X316793919Y-142343339D01*
X316793918Y-142343338D01*
X316793911Y-142343330D01*
X316631670Y-142181089D01*
X316631661Y-142181081D01*
X316449617Y-142041392D01*
X316250890Y-141926657D01*
X316250876Y-141926650D01*
X316038887Y-141838842D01*
X315817238Y-141779452D01*
X315779215Y-141774446D01*
X315589741Y-141749500D01*
X315589734Y-141749500D01*
X315360266Y-141749500D01*
X315360258Y-141749500D01*
X315143715Y-141778009D01*
X315132762Y-141779452D01*
X315039076Y-141804554D01*
X314911112Y-141838842D01*
X314699123Y-141926650D01*
X314699109Y-141926657D01*
X314500382Y-142041392D01*
X314318338Y-142181081D01*
X314156081Y-142343338D01*
X314016392Y-142525382D01*
X313901657Y-142724109D01*
X313901650Y-142724123D01*
X313813842Y-142936112D01*
X313754453Y-143157759D01*
X313754451Y-143157770D01*
X313724500Y-143385258D01*
X313724500Y-143614741D01*
X310298638Y-143614741D01*
X310298856Y-129114741D01*
X313724500Y-129114741D01*
X313744650Y-129267784D01*
X313754452Y-129342238D01*
X313800414Y-129513771D01*
X313813842Y-129563887D01*
X313901650Y-129775876D01*
X313901657Y-129775890D01*
X314016392Y-129974617D01*
X314156081Y-130156661D01*
X314156089Y-130156670D01*
X314318330Y-130318911D01*
X314318338Y-130318918D01*
X314500382Y-130458607D01*
X314500385Y-130458608D01*
X314500388Y-130458611D01*
X314699112Y-130573344D01*
X314699117Y-130573346D01*
X314699123Y-130573349D01*
X314725202Y-130584151D01*
X314911113Y-130661158D01*
X315132762Y-130720548D01*
X315360266Y-130750500D01*
X315360273Y-130750500D01*
X315589727Y-130750500D01*
X315589734Y-130750500D01*
X315817238Y-130720548D01*
X316038887Y-130661158D01*
X316250888Y-130573344D01*
X316449612Y-130458611D01*
X316631661Y-130318919D01*
X316631665Y-130318914D01*
X316631670Y-130318911D01*
X316793911Y-130156670D01*
X316793914Y-130156665D01*
X316793919Y-130156661D01*
X316933611Y-129974612D01*
X317048344Y-129775888D01*
X317136158Y-129563887D01*
X317195548Y-129342238D01*
X317225500Y-129114734D01*
X317225500Y-128885266D01*
X317224426Y-128877112D01*
X317209778Y-128765849D01*
X317195548Y-128657762D01*
X317136158Y-128436113D01*
X317048344Y-128224112D01*
X316933611Y-128025388D01*
X316933608Y-128025385D01*
X316933607Y-128025382D01*
X316793918Y-127843338D01*
X316793911Y-127843330D01*
X316631670Y-127681089D01*
X316631661Y-127681081D01*
X316449617Y-127541392D01*
X316250890Y-127426657D01*
X316250876Y-127426650D01*
X316038887Y-127338842D01*
X316014158Y-127332216D01*
X315817238Y-127279452D01*
X315779215Y-127274446D01*
X315589741Y-127249500D01*
X315589734Y-127249500D01*
X315360266Y-127249500D01*
X315360258Y-127249500D01*
X315143715Y-127278009D01*
X315132762Y-127279452D01*
X315039076Y-127304554D01*
X314911112Y-127338842D01*
X314699123Y-127426650D01*
X314699109Y-127426657D01*
X314500382Y-127541392D01*
X314318338Y-127681081D01*
X314156081Y-127843338D01*
X314016392Y-128025382D01*
X313901657Y-128224109D01*
X313901650Y-128224123D01*
X313813842Y-128436112D01*
X313754453Y-128657759D01*
X313754451Y-128657770D01*
X313724500Y-128885258D01*
X313724500Y-129114741D01*
X310298856Y-129114741D01*
X310299089Y-113623997D01*
X310318775Y-113556959D01*
X310371579Y-113511205D01*
X310423089Y-113500000D01*
X318376000Y-113500000D01*
X318443039Y-113519685D01*
X318488794Y-113572489D01*
X318500000Y-113623998D01*
X318500000Y-178500000D01*
X330376000Y-178500000D01*
X330443039Y-178519685D01*
X330488794Y-178572489D01*
X330500000Y-178624000D01*
X330500000Y-187776000D01*
X330480315Y-187843039D01*
X330427511Y-187888794D01*
X330376000Y-187900000D01*
X318500000Y-187900000D01*
X318500000Y-240500000D01*
X321000000Y-242500000D01*
X362948638Y-242500000D01*
X363015677Y-242519685D01*
X363036319Y-242536319D01*
X366000000Y-245500000D01*
X366656340Y-245500000D01*
X366723379Y-245519685D01*
X366763463Y-245565944D01*
X366779749Y-245581999D01*
X366779750Y-245582000D01*
X366779751Y-245582000D01*
X385463750Y-245582000D01*
X385481592Y-245563894D01*
X385483093Y-245558492D01*
X385535223Y-245511970D01*
X385588377Y-245500000D01*
X389500000Y-245500000D01*
X392463681Y-242536319D01*
X392525004Y-242502834D01*
X392551362Y-242500000D01*
X438500000Y-242500000D01*
X440500000Y-240500000D01*
X440500000Y-50824000D01*
X440519685Y-50756961D01*
X440572489Y-50711206D01*
X440624000Y-50700000D01*
X446104880Y-50700000D01*
X446106920Y-50700017D01*
G37*
%TD.AperFunction*%
%TD*%
M02*
